<svg xmlns="http://www.w3.org/2000/svg" xmlns:xlink="http://www.w3.org/1999/xlink" xmlns:lucid="lucid" width="655.5" height="400"><g transform="translate(520 380)" lucid:page-tab-id="0_0"><path d="M-500-354a6 6 0 0 1 6-6h168a6 6 0 0 1 6 6v28a6 6 0 0 1-6 6h-168a6 6 0 0 1-6-6z" fill="none"/><use xlink:href="#a" transform="matrix(1,0,0,1,-500,-360) translate(54.63333333333333 30.244444444444444)"/><path d="M-311-354a6 6 0 0 1 6-6h168a6 6 0 0 1 6 6v28a6 6 0 0 1-6 6h-168a6 6 0 0 1-6-6z" fill="none"/><use xlink:href="#b" transform="matrix(1,0,0,1,-310.9999000000023,-360) translate(63.8 30.244444444444444)"/><path d="M-321-359.5a.5.5 0 0 1 .5.5V-1a.5.5 0 0 1-.5.5.5.5 0 0 1-.5-.5v-358a.5.5 0 0 1 .5-.5z" stroke="#979ea8" fill="none"/><path d="M-467.32-319a.5.5 0 0 1 .5-.5h568.25a.5.5 0 0 1 .5.5.5.5 0 0 1-.5.5h-568.25a.5.5 0 0 1-.5-.5z" stroke="#979ea8" fill="none"/><path d="M-411-254a6 6 0 0 1 6-6h27a6 6 0 0 1 6 6v27a6 6 0 0 1-6 6h-27a6 6 0 0 1-6-6z" stroke="#000" fill="#dedeff"/><path d="M-380.5-240.5c0 6.07-4.93 11-11 11s-11-4.93-11-11 4.93-11 11-11 11 4.93 11 11z" stroke="#000"/><path d="M-282-264a6 6 0 0 1 6-6h148a6 6 0 0 1 6 6v48a6 6 0 0 1-6 6h-148a6 6 0 0 1-6-6z" stroke="#000" fill="#dedeff"/><path d="M-271.5-254.9a6 6 0 0 1 6-6h28a6 6 0 0 1 6 6v28a6 6 0 0 1-6 6h-28a6 6 0 0 1-6-6z" stroke="#000" fill="#f4d9ff"/><use xlink:href="#c" transform="matrix(1,0,0,1,-266.5065914551342,-255.8931551081859) translate(8.88888888888889 21.430555555555557)"/><path d="M-222-255.02a6 6 0 0 1 6-6h28a6 6 0 0 1 6 6v28a6 6 0 0 1-6 6h-28a6 6 0 0 1-6-6z" stroke="#000" fill="#f4d9ff"/><use xlink:href="#d" transform="matrix(1,0,0,1,-217,-256.0157331043696) translate(8.88888888888889 21.430555555555557)"/><path d="M-172.5-255.02a6 6 0 0 1 6-6h28a6 6 0 0 1 6 6v28a6 6 0 0 1-6 6h-28a6 6 0 0 1-6-6z" stroke="#000" fill="#f4d9ff"/><path d="M-141.5-241c0 6.07-4.92 11-11 11-6.07 0-11-4.93-11-11s4.93-11 11-11c6.08 0 11 4.93 11 11z" stroke="#000"/><path d="M-448.63-285.02a6 6 0 0 1 6-6h102.25a6 6 0 0 1 6 6v18a6 6 0 0 1-6 6h-102.25a6 6 0 0 1-6-6z" fill="none"/><use xlink:href="#e" transform="matrix(1,0,0,1,-448.62507499999833,-291.0157331043696) translate(6.5190972222222285 21.311848958333332)"/><use xlink:href="#f" transform="matrix(1,0,0,1,-448.62507499999833,-291.0157331043696) translate(59.92296006944444 21.311848958333332)"/><use xlink:href="#g" transform="matrix(1,0,0,1,-448.62507499999833,-291.0157331043696) translate(98.08268229166666 21.311848958333332)"/><path d="M-271.5-292.33a6 6 0 0 1 6-6h102.24a6 6 0 0 1 6 6v18a6 6 0 0 1-6 6H-265.5a6 6 0 0 1-6-6z" fill="none"/><use xlink:href="#e" transform="matrix(1,0,0,1,-271.5065914551342,-298.33333333333337) translate(14.004448784722229 21.311848958333332)"/><use xlink:href="#h" transform="matrix(1,0,0,1,-271.5065914551342,-298.33333333333337) translate(67.40831163194444 21.311848958333332)"/><path d="M-196.5-45a6 6 0 0 1-6-6v-27a6 6 0 0 1 6-6h27a6 6 0 0 1 6 6v27a6 6 0 0 1-6 6z" stroke="#000" fill="#dedeff"/><path d="M-183-75.5c6.08 0 11 4.92 11 11s-4.92 11-11 11c-6.07 0-11-4.92-11-11s4.93-11 11-11z" stroke="#000"/><path d="M-196.5-84a6 6 0 0 1-6-6v-27a6 6 0 0 1 6-6h27a6 6 0 0 1 6 6v27a6 6 0 0 1-6 6z" stroke="#000" fill="#dedeff"/><path d="M-183-114.5c6.08 0 11 4.92 11 11s-4.92 11-11 11c-6.07 0-11-4.92-11-11s4.93-11 11-11z" stroke="#000"/><path d="M-196.5-123a6 6 0 0 1-6-6v-27a6 6 0 0 1 6-6h27a6 6 0 0 1 6 6v27a6 6 0 0 1-6 6z" stroke="#000" fill="#dedeff"/><path d="M-183-153.5c6.08 0 11 4.92 11 11s-4.92 11-11 11c-6.07 0-11-4.92-11-11s4.93-11 11-11z" stroke="#000"/><path d="M-379-240.5h78" stroke="#000" stroke-width="2" stroke-linejoin="round" fill="none"/><path d="M-378.97-239.5h-1.16l.13-1-.13-1h1.16z" stroke="#000" stroke-width=".05"/><path d="M-285.74-240.5l-14.26 4.63v-9.26z" stroke="#000" stroke-width="2" fill="#fff"/><path d="M-152.53-228.5l-.08 2.07-.33 2.87-.52 2.77-.73 2.72-.95 2.74-1.25 2.87-1.66 3.14-2.38 3.78-4.67 6.26-9.97 12.86-2.37 3.78-1.25 2.35" stroke="#000" stroke-width="2" stroke-linejoin="round" fill="none"/><path d="M-151.53-228.43l-2-.08.04-1.13 1 .13 1-.13z" stroke="#000" stroke-width=".05"/><path d="M-182.23-165.65l-1.16-14.95 9.03 2.18z" stroke="#000" stroke-width="2" fill="#fff"/><path d="M-423-156a6 6 0 0 1 6-6h76.63a6 6 0 0 1 6 6v33c-14.8-6.5-24.02-6.5-29.6-6.5-8.87 0-20.66 6.5-29.52 6.5-5.48 0-14.8 0-29.5-6.5z" stroke="#fc9432" fill-opacity="0"/><use xlink:href="#i" transform="matrix(1,0,0,1,-418.0001999999956,-157) translate(5.764648437500007 17.160156249999996)"/><path d="M-333.37-142.45l1.52-.05m2.02-.14l1.06-.1 1.96-.3m1.98-.43l.2-.04 1.8-.53.9-.32m1.9-.75l.5-.22 1.54-.77.67-.38m1.7-1.08l.54-.35 1.42-1.1.47-.4m1.5-1.37l.88-.85 1.23-1.36m1.28-1.57l.5-.6 1.3-1.88m1.07-1.7l1.04-1.7.5-.95m.95-1.8l.66-1.26.67-1.47m.83-1.87l1.24-2.78m.78-1.88l1.15-2.82m.76-1.88l1.14-2.83m.77-1.88l1.14-2.82m.77-1.88l1.14-2.83m.75-1.88l1.15-2.82m.76-1.88l1.15-2.83m.8-1.87l1.4-2.7m.95-1.8l.4-.73 1.14-1.9m1.04-1.73l.37-.6.48-.68" stroke="#fc9432" stroke-linejoin="round" fill="none"/><path d="M-333.35-141.95h-.52v-1h.5z" stroke="#fc9432" stroke-width=".05" fill="#fc9432"/><path d="M-271.83-221.85l-5.9 13.78-6.98-6.1z" stroke="#fc9432" fill="#fff"/><path d="M-423-97a6 6 0 0 1 6-6h76.63a6 6 0 0 1 6 6v33c-14.8-6.5-24.02-6.5-29.6-6.5-8.87 0-20.66 6.5-29.52 6.5-5.48 0-14.8 0-29.5-6.5z" stroke="#e81313" fill-opacity="0"/><use xlink:href="#j" transform="matrix(1,0,0,1,-418.0001999999956,-98) translate(12.619574652777786 17.160156249999996)"/><path d="M-333.37-83.45l1.48-.03m1.98-.05l2.96-.2m1.97-.2l1.3-.12 1.64-.25m1.95-.3l2.06-.4.84-.2m1.92-.46l2.3-.64.55-.18m1.88-.6l2.18-.83.58-.25m1.83-.78l1.9-.9.77-.4m1.74-.92l1.58-.92.96-.6m1.65-1.1l1.37-.94 1.03-.8m1.55-1.22l1.35-1.1.9-.83m1.46-1.34l1.63-1.6.45-.48m1.36-1.44l.24-.26 1.7-1.97m1.25-1.54l1.38-1.73.45-.6m1.16-1.6l.75-1.02.94-1.42m1.08-1.64l.5-.75 1.07-1.78m1.02-1.7l.7-1.15.77-1.4m.95-1.74l1.42-2.6m.88-1.77l1.32-2.64m.87-1.77l1.27-2.6.03-.07m.82-1.8l1.2-2.7m.83-1.8l1.2-2.7m.83-1.8l1.2-2.7m.82-1.8l1.22-2.7m.8-1.8l1.23-2.72m.82-1.8l1.2-2.7m.83-1.8l1.2-2.7m.83-1.8l1.2-2.7m.83-1.8l1.2-2.7m.82-1.8l1.22-2.7m.8-1.8l1.23-2.7m.8-1.8l1.23-2.7m.84-1.8l1.42-2.6m.95-1.73l1.43-2.6m1-1.7l1.52-2.54m1.03-1.7l.9-1.5.67-1m1.1-1.65l.8-1.23" stroke="#e81313" stroke-linejoin="round" fill="none"/><path d="M-333.35-82.95h-.52v-1h.5z" stroke="#e81313" stroke-width=".05" fill="#e81313"/><path d="M-221.57-221.13l-4.9 14.18-7.4-5.6z" stroke="#e81313" fill="#fff"/><path d="M-222-139a6 6 0 0 1 6-6h4a6 6 0 0 1 6 6v10a6 6 0 0 1-6 6h-4a6 6 0 0 1-6-6z" fill="none"/><use xlink:href="#k" transform="matrix(1,0,0,1,-222,-145) translate(2.9444444444444446 17.77777777777778)"/><path d="M-222-100a6 6 0 0 1 6-6h4a6 6 0 0 1 6 6v10a6 6 0 0 1-6 6h-4a6 6 0 0 1-6-6z" fill="none"/><use xlink:href="#l" transform="matrix(1,0,0,1,-222,-106) translate(2.9444444444444446 17.77777777777778)"/><path d="M-222.38-61a6 6 0 0 1 6-6h4a6 6 0 0 1 6 6v10a6 6 0 0 1-6 6h-4a6 6 0 0 1-6-6z" fill="none"/><use xlink:href="#m" transform="matrix(1,0,0,1,-222.3816664551325,-67) translate(2.9444444444444446 17.77777777777778)"/><path d="M-100-157a6 6 0 0 1 6-6H29a6 6 0 0 1 6 6v28a6 6 0 0 1-6 6H-94a6 6 0 0 1-6-6z" stroke="#000" fill="#fff7a1"/><path d="M-89.5-152a6 6 0 0 1 6-6h18a6 6 0 0 1 6 6v18a6 6 0 0 1-6 6h-18a6 6 0 0 1-6-6z" stroke="#000" fill="#fcfcca"/><path d="M-67-143c0 4.14-3.36 7.5-7.5 7.5-4.15 0-7.5-3.36-7.5-7.5 0-4.14 3.35-7.5 7.5-7.5 4.14 0 7.5 3.36 7.5 7.5z" stroke="#000"/><path d="M-47.5-152a6 6 0 0 1 6-6h18a6 6 0 0 1 6 6v18a6 6 0 0 1-6 6h-18a6 6 0 0 1-6-6z" stroke="#000" fill="#fcfcca"/><path d="M-25-143c0 4.14-3.36 7.5-7.5 7.5-4.14 0-7.5-3.36-7.5-7.5 0-4.14 3.36-7.5 7.5-7.5 4.14 0 7.5 3.36 7.5 7.5z" stroke="#000"/><path d="M-5.5-152a6 6 0 0 1 6-6h18a6 6 0 0 1 6 6v18a6 6 0 0 1-6 6H.5a6 6 0 0 1-6-6z" stroke="#000" fill="#fcfcca"/><path d="M17-143c0 4.14-3.35 7.5-7.5 7.5-4.14 0-7.5-3.36-7.5-7.5 0-4.14 3.36-7.5 7.5-7.5 4.15 0 7.5 3.36 7.5 7.5z" stroke="#000"/><path d="M-97.24-187a6 6 0 0 1 6-6H11a6 6 0 0 1 6 6v18a6 6 0 0 1-6 6H-91.23a6 6 0 0 1-6-6z" fill="none"/><use xlink:href="#n" transform="matrix(1,0,0,1,-97.24335854486691,-193) translate(18.99739583333335 20.41015625)"/><use xlink:href="#o" transform="matrix(1,0,0,1,-97.24335854486691,-193) translate(64.77213541666666 20.41015625)"/><path d="M-170.5-142.5h51.5" stroke="#000" stroke-width="2" stroke-linejoin="round" fill="none"/><path d="M-170.46-141.5h-1.16l.13-1-.12-1h1.16z" stroke="#000" stroke-width=".05"/><path d="M-103.74-142.5l-14.26 4.63v-9.26z" stroke="#000" stroke-width="2" fill="#fff"/><path d="M-127.5-86.5a6 6 0 0 1 6-6h68a6 6 0 0 1 6 6v24c-13.36-5-21.68-5-26.72-5-8 0-18.64 5-26.64 5-4.96 0-13.36 0-26.64-5z" stroke="#ba23f6" fill-opacity="0"/><use xlink:href="#p" transform="matrix(1,0,0,1,-122.5,-87.5) translate(15.065646701388893 15.722656249999996)"/><path d="M-87.47-93.5l.1-1.55m.15-2.08v-.1l.66-2.94m.7-1.96l.5-1.32.82-1.5m1.02-1.8l1.73-2.6m1.17-1.72l.86-1.3" stroke="#ba23f6" stroke-linejoin="round" fill="none"/><path d="M-86.97-93.48L-87-93h-1l.04-.55z" stroke="#ba23f6" stroke-width=".05" fill="#ba23f6"/><path d="M-75.04-125.97l-.3 15-8.76-3.05z" stroke="#ba23f6" fill="#fff"/><path d="M-40-47.5a6 6 0 0 1 6-6h68a6 6 0 0 1 6 6v24c-13.36-5-21.68-5-26.72-5-8 0-18.64 5-26.64 5-4.96 0-13.36 0-26.64-5z" stroke="#fe7070" fill-opacity="0"/><use xlink:href="#q" transform="matrix(1,0,0,1,-35,-48.5) translate(15.680881076388896 15.722656249999996)"/><path d="M-.02-54.5l-.05-1.52m-.07-2.02l-.3-3.02m-.33-2l-.25-1.48-.36-1.5m-.52-1.94l-.67-2.15-.3-.73m-.73-1.88v-.02l-1.24-2.6-.07-.12m-1-1.77l-.46-.82-1.14-1.75m-1.14-1.67l-1.83-2.4m-1.25-1.6l-1.95-2.33m-1.3-1.55l-1.94-2.33m-1.3-1.57l-1.95-2.33m-1.3-1.55l-1.94-2.33m-1.2-1.6l-1.54-2.35-.12-.2m-1-1.77l-.4-.73-.94-2m-.78-1.85l-.55-1.4v-.02" stroke="#fe7070" stroke-linejoin="round" fill="none"/><path d="M.5-54h-1l-.02-.5 1-.03z" stroke="#fe7070" stroke-width=".05" fill="#fe7070"/><path d="M-32.24-125.9l6.82 13.36-9.16 1.46z" stroke="#fe7070" fill="#fff"/><path d="M35-86.5a6 6 0 0 1 6-6h68a6 6 0 0 1 6 6v24c-13.36-5-21.68-5-26.72-5-8 0-18.64 5-26.64 5-4.96 0-13.36 0-26.64-5z" stroke="#6db1ff" fill-opacity="0"/><use xlink:href="#r" transform="matrix(1,0,0,1,40,-87.5) translate(2.0241970486111143 15.722656249999996)"/><path d="M74.98-93.5l-.06-.5-.1-.5-.13-.5m-.9-1.8l-.14-.25-.44-.58-.56-.63-.72-.7-.15-.12m-1.62-1.23l-.44-.32-1.78-1.06-.4-.2m-1.8-.9l-.46-.22-2.35-.95m-1.88-.76l-.2-.1-2.7-.84m-1.94-.6l-2.9-.92m-1.94-.6l-.68-.2-2.25-.66m-1.96-.56l-2.9-.83m-1.97-.57l-2.92-.84m-1.95-.56l-2.92-.84m-1.95-.56l-2.93-.83m-1.95-.55l-2.93-.83m-1.9-.72l-1.4-.57" stroke="#6db1ff" stroke-linejoin="round" fill="none"/><path d="M75.5-93h-1l-.02-.5 1-.03z" stroke="#6db1ff" stroke-width=".05" fill="#6db1ff"/><path d="M10.68-126.4l13.56 6.44-6.37 6.74z" stroke="#6db1ff" fill="#fff"/><path d="M-64.12-253.5a6 6 0 0 1 6-6H18.5a6 6 0 0 1 6 6v33C9.7-227 .5-227-5.1-227c-8.86 0-20.64 6.5-29.5 6.5-5.5 0-14.8 0-29.52-6.5z" stroke="#ffe342" fill-opacity="0"/><use xlink:href="#s" transform="matrix(1,0,0,1,-59.11848354486415,-254.5) translate(18.48328993055556 17.160156249999996)"/><path d="M-65.12-239.94h-1.5m-2.03 0h-3.03m-2.02 0h-3.03m-2.02 0h-3.03m-2.02 0h-3.03m-2.02 0h-3.03m-2.02 0h-3.03m-2.02 0h-3.03m-2.02 0h-3.03m-2.02 0h-3.03m-2.02 0h-1.5" stroke="#ffe342" stroke-linejoin="round" fill="none"/><path d="M-64.62-239.44h-.5v-1h.5z" stroke="#ffe342" stroke-width=".05" fill="#ffe342"/><path d="M-130.38-239.94l14.27-4.63v9.27z" stroke="#ffe342" fill="#fff"/><defs><path fill="#979ea8" d="M371-533c189 0 256 55 239 237-9 91-67 138-157 205C374-33 301-7 236-7 155-7 13-82 18-160c3-44 62-73 96-38 43 44 152 73 218 29 77-51 166-125 156-169 2-44-67-63-119-62-47 1-108 1-155 3C87-393 13-429 1-531c11-87 101-150 165-187 90-52 160-96 290-87 34 2 118 78 115 115-3 35-23 38-55 45-15 4-26-4-33-24-37-64-116-1-164 12-41 11-154 77-154 113 0 15 14 22 41 22 45 0 127-11 165-11" id="t"/><path fill="#979ea8" d="M382-556c-3 158-18 304-18 470 0 31 6 72-21 86-20 35-87 21-104-6-1-188 14-367 23-549 1-24 13-80-17-80-77 0-131 31-210 31-15-10-43-18-33-45 0-82 83-94 148-109 103-23 215-12 315-40 43-12 91-17 142-23 62-8 95 53 77 116-8 28-47 14-75 18-68 9-134 10-195 30-32 11-31 60-32 101" id="u"/><path fill="#979ea8" d="M103-24C79 10-2-14 8-59c42-186 129-353 193-524 23-62 63-135 99-197 39-38 106-10 109 47 27 100 51 209 81 307 8 25 72 24 72 63 0 44-26 46-37 75 12 83 46 156 55 243 7 63-106 47-114 11-13-58-36-170-57-231-3-4-7-8-9-14-69 4-134 40-198 52-53 21-53 108-81 160-4 16-8 29-18 43zm215-551c-16 18-92 195-73 208 46 2 100-12 123-31-5-30-32-162-38-171-2-3-6-5-12-6" id="v"/><path fill="#979ea8" d="M521-275c40-33 108-24 108 34 0 49-75 103-210 183-80 47-247 72-323 10-66-54-95-101-82-218 12-106 41-136 91-224 55-96 145-209 240-278 32-23 68-33 107-33 86 2 108 61 107 158 0 55-15 82-44 82-55 1-25-116-79-110-132 15-229 223-291 334-48 86-31 226 81 218 122-9 217-92 295-156" id="w"/><path fill="#979ea8" d="M583 1c26 5 52-17 51-41 24-60-22-103-43-144-74-69-132-138-184-228-37-64 44-88 81-120 65-56 138-104 195-168 35-39 5-108-40-113-66 17-104 68-150 105-81 65-158 127-245 187-18 12-48 33-70 13-6-6-8-14-7-23 3-63 18-122 28-181-3-53-39-88-92-91-82 12-51 140-71 216 1 133-13 257-20 381-3 58-27 167 27 193 35 29 78-2 98-20 30-59 16-164 24-251 3-31 38-61 73-59 78 41 118 121 174 184 38 44 71 96 112 139 15 15 32 34 59 21" id="x"/><g id="a"><use transform="matrix(0.022222222222222223,0,0,0.022222222222222223,0,0)" xlink:href="#t"/><use transform="matrix(0.022222222222222223,0,0,0.022222222222222223,12.666666666666668,0)" xlink:href="#u"/><use transform="matrix(0.022222222222222223,0,0,0.022222222222222223,27.91111111111111,0)" xlink:href="#v"/><use transform="matrix(0.022222222222222223,0,0,0.022222222222222223,40.955555555555556,0)" xlink:href="#w"/><use transform="matrix(0.022222222222222223,0,0,0.022222222222222223,55.044444444444444,0)" xlink:href="#x"/></g><path fill="#979ea8" d="M107-780c100 15 51 176 51 272 0 29 23 25 56 24 33-11 175 4 171-42 9-67 4-153 14-224 12-14 39-57 70-50 51 0 74 34 69 103L490-47c-6 28-25 57-57 56-118-5-54-182-54-299 0-34 3-75-15-85-65 6-127 12-191 19-52 29-23 162-29 239C135-7 87 19 22-30 10-48 7-67 13-88c-16-100 8-215 8-322 0-127-9-364 86-370" id="y"/><path fill="#979ea8" d="M330-158c82-22 193-18 286-31 38 11 58 81 24 113-25 24-71 25-116 25-135 0-238 34-358 47C61 7 4-52 15-159c12-113 37-213 32-340-2-59 2-121-2-178-2-44 35-62 81-61 104-31 222-52 345-64 68-7 103 34 111 94 2 12-3 22-9 31-33 14-62 15-103 16-100 2-196 10-270 40h-8c-18 23-11 79-15 106-1 13 5 22 16 25 82-10 176-25 264-12 44 7 78 26 71 72-7 49-76 30-125 30-78 0-138 22-210 29-24 1-35 28-36 52-2 41-10 83-8 126-19 84 122 51 181 35" id="z"/><path fill="#979ea8" d="M23-677c-68-88 127-122 212-122 113 0 253 24 291 82 92 144-48 310-153 365-52 27-102 48-161 69-56 20-53 15-58 80-4 49-8 103-13 153-3 31-19 46-43 46-44 0-65-28-63-81 5-162 8-330 16-486 3-53-4-75-28-106zm415 73c0-44-44-66-132-66-78 0-124 8-135 26-10 16-14 89-14 218 0 44 22 39 57 25 83-34 224-115 224-203" id="A"/><g id="b"><use transform="matrix(0.022222222222222223,0,0,0.022222222222222223,0,0)" xlink:href="#y"/><use transform="matrix(0.022222222222222223,0,0,0.022222222222222223,12.022222222222222,0)" xlink:href="#z"/><use transform="matrix(0.022222222222222223,0,0,0.022222222222222223,26.822222222222223,0)" xlink:href="#v"/><use transform="matrix(0.022222222222222223,0,0,0.022222222222222223,39.86666666666667,0)" xlink:href="#A"/></g><path d="M90-239c59 0 76 52 76 120S152 4 89 4C31 4 14-51 14-119c0-67 17-120 76-120zM89-10c45-6 45-58 45-109 0-50 0-101-45-106-45 4-43 57-43 106 0 50-2 104 43 109" id="B"/><use transform="matrix(0.06790123456790123,0,0,0.06790123456790123,0,0)" xlink:href="#B" id="c"/><path d="M104-123c39 3 61 21 62 59C167 7 83 12 19-4l-2-50h12c2 29 16 43 51 43 38 0 54-19 54-55 2-43-34-49-75-50v-14c37 0 64-7 64-48 0-47-47-56-81-36l-6 29H24v-46c51-13 135-13 131 51-2 34-20 52-51 57" id="C"/><use transform="matrix(0.06790123456790123,0,0,0.06790123456790123,0,0)" xlink:href="#C" id="d"/><path fill="#979ea8" d="M196-1063c0-251 371-378 608-255 71 37 119 87 150 151 35 73-14 152-87 150-26 0-63-25-111-73s-102-72-162-72c-72 0-200 37-200 99 0 43 47 111 142 203 145 142 234 232 266 271 95 116 142 225 142 328C944-95 791 0 613 0 494 0 170-60 118-111c-29-29-48-55-48-87-1-69 67-120 140-92h-2c162 59 305 89 429 89 69 0 104-25 104-75 0-69-47-151-142-245-86-86-177-167-261-254-98-100-142-199-142-288" id="D"/><path fill="#979ea8" d="M46-1227c0-128 188-119 328-120 79-1 391-35 488-35 99 0 148 35 148 105 0 65-48 98-145 98-76 0-153 3-232 8 1 179-14 796-13 976C622-79 604-4 510 0c-53 2-99-44-99-97v-270c21-312 24-505 22-785-143 13-240 20-291 20-64 0-96-32-96-95" id="E"/><path fill="#979ea8" d="M432-1365c342 0 623 232 623 568 0 219-132 374-395 466 145 90 217 167 217 230 0 52-52 98-104 96-17 0-39-10-66-29-90-65-203-166-304-203v78C403-53 368 0 299 0c-53 0-99-44-99-97v-374c17-145 25-361 25-650-2 5-10 7-24 7-53 2-99-46-99-99 0-112 194-152 330-152zm257 786c221-128 209-317 21-469-89-71-178-111-268-119-1 97-2 329-2 698 90-27 172-66 249-110" id="F"/><path fill="#979ea8" d="M807-1260c0-54 40-105 96-105 43 0 76 24 99 73 18 39 27 131 27 277 0 274-20 485-61 631C895-128 757 0 555 0 385 0 262-90 189-270c-51-126-76-289-76-488 0-289 18-467 53-534 26-49 59-73 99-73 52 0 105 52 99 104-14 128-48 300-48 513 0 128 14 239 41 332 41 144 108 216 201 216 105 0 179-98 225-293 29-124 45-265 45-422 0-66-21-279-21-345" id="G"/><path fill="#979ea8" d="M773-362c52-3 103 50 103 101 0 27-17 56-48 89C762-102 548 0 418 0 210 0 81-204 84-422c3-221 73-486 152-640 103-201 220-303 358-303 167 0 251 128 251 385 0 123-35 185-106 185-48 0-101-46-99-94 2-77 27-278-39-278-46 0-94 47-150 138-89 144-168 415-168 602 0 146 56 219 169 219 46 0 106-26 180-77s122-77 141-77" id="H"/><g id="e"><use transform="matrix(0.007595486111111109,0,0,0.007595486111111109,0,0)" xlink:href="#D"/><use transform="matrix(0.007595486111111109,0,0,0.007595486111111109,8.127170138888888,0)" xlink:href="#E"/><use transform="matrix(0.007595486111111109,0,0,0.007595486111111109,16.163194444444443,0)" xlink:href="#F"/><use transform="matrix(0.007595486111111109,0,0,0.007595486111111109,24.78407118055555,0)" xlink:href="#G"/><use transform="matrix(0.007595486111111109,0,0,0.007595486111111109,33.442925347222214,0)" xlink:href="#H"/><use transform="matrix(0.007595486111111109,0,0,0.007595486111111109,40.79535590277777,0)" xlink:href="#E"/></g><path fill="#979ea8" d="M925-1365c50 0 101 48 101 99 0 165-53 833-94 1164C923-33 882 0 831 0c-53 0-101-49-101-102 0-145 29-345 45-490-111 9-252 35-425 78-6 58-9 145-9 260 0 35-10 86-22 153C307-33 270 0 220 0c-53 0-103-48-102-101 6-372 65-764 56-1090-3-108 18-171 108-174 55-2 99 41 99 97v544c167-44 304-66 413-66 7-75 10-182 10-321 8-35 11-88 22-155s48-99 99-99" id="I"/><path fill="#979ea8" d="M922-654c-9 182 20 369 29 555 5 90-140 139-183 58-2-3-13-31-31-85-54-160-191-263-414-306-19 75-30 243-58 360-12 50-51 72-98 72-55 0-99-53-99-108 1-366 195-896 360-1117 69-92 141-140 222-140 182 0 273 207 273 621 0 19 1 49-1 90zM724-476v-400c-20-103-13-145-35-225-11-40-25-60-40-60-32 0-83 65-154 195-56 103-99 215-130 336 137 27 256 79 359 154" id="J"/><g id="f"><use transform="matrix(0.007595486111111109,0,0,0.007595486111111109,0,0)" xlink:href="#I"/><use transform="matrix(0.007595486111111109,0,0,0.007595486111111109,8.674045138888888,0)" xlink:href="#J"/><use transform="matrix(0.007595486111111109,0,0,0.007595486111111109,16.78602430555555,0)" xlink:href="#D"/><use transform="matrix(0.007595486111111109,0,0,0.007595486111111109,24.913194444444436,0)" xlink:href="#I"/></g><path fill="#979ea8" d="M1021-1184c53-3 105 49 105 102 0 34-17 65-50 92-66 55-173 113-257 159 72 44 176 114 307 218 35 28 50 61 50 94 2 72-88 134-155 87-54-37-154-111-243-172v159c2 58-48 100-106 100-57 0-104-43-104-100v-227c-42 35-107 88-196 157-26 20-50 29-72 29-54 2-109-53-109-108 0-49 87-132 260-251-106-80-133-101-202-177-21-23-31-47-31-69-2-54 56-107 110-107 21 0 45 8 68 27 38 32 92 82 167 145-8-163-12-244-12-244-3-50 57-95 106-95 56 0 90 34 104 102 7 37 12 108 12 213 62-35 183-130 248-134" id="K"/><use transform="matrix(0.007595486111111109,0,0,0.007595486111111109,0,0)" xlink:href="#K" id="g"/><g id="h"><use transform="matrix(0.007595486111111109,0,0,0.007595486111111109,0,0)" xlink:href="#I"/><use transform="matrix(0.007595486111111109,0,0,0.007595486111111109,8.674045138888888,0)" xlink:href="#J"/><use transform="matrix(0.007595486111111109,0,0,0.007595486111111109,16.78602430555555,0)" xlink:href="#D"/><use transform="matrix(0.007595486111111109,0,0,0.007595486111111109,24.913194444444436,0)" xlink:href="#I"/></g><path fill="#fc9432" d="M773-362c52-3 103 50 103 101 0 27-17 56-48 89C762-102 548 0 418 0 210 0 81-204 84-422c3-221 73-486 152-640 103-201 220-303 358-303 167 0 251 128 251 385 0 123-35 185-106 185-48 0-101-46-99-94 2-77 27-278-39-278-46 0-94 47-150 138-89 144-168 415-168 602 0 146 56 219 169 219 46 0 106-26 180-77s122-77 141-77" id="L"/><path fill="#fc9432" d="M922-654c-9 182 20 369 29 555 5 90-140 139-183 58-2-3-13-31-31-85-54-160-191-263-414-306-19 75-30 243-58 360-12 50-51 72-98 72-55 0-99-53-99-108 1-366 195-896 360-1117 69-92 141-140 222-140 182 0 273 207 273 621 0 19 1 49-1 90zM724-476v-400c-20-103-13-145-35-225-11-40-25-60-40-60-32 0-83 65-154 195-56 103-99 215-130 336 137 27 256 79 359 154" id="M"/><path fill="#fc9432" d="M492-1365c272 0 549 114 549 360 0 140-81 265-244 374-130 87-276 146-439 180-7 56-15 301-32 372-12 53-46 79-94 79-53 0-99-48-99-101 0-201 55-864 50-1044-38-23-57-56-57-99 0-39 24-69 72-90s147-31 294-31zm348 355c0-132-280-161-454-151-1 136-2 303-2 501 100-31 192-72 276-122 120-70 180-146 180-228" id="N"/><path fill="#fc9432" d="M270-1365c53 0 101 46 100 99-5 357-80 777-80 1073C290-64 254 0 183 0 132 0 82-50 82-101c0-298 47-662 55-976 2-76 19-138 34-189 19-66 52-99 99-99" id="O"/><path fill="#fc9432" d="M387-1365c369 0 678 217 678 573 0 172-83 346-249 522C647-90 478 0 307 0 194 0 137-80 137-239c0-257 30-558 68-915-53-11-80-43-80-95 0-56 32-93 97-108 26-6 81-8 165-8zm21 204c-15 76-47 491-72 917 0 13 1 27 2 41 116-22 231-92 346-210 120-123 180-241 180-355-1-196-67-277-209-343-74-35-157-50-247-50" id="P"/><g id="i"><use transform="matrix(0.007595486111111109,0,0,0.007595486111111109,0,0)" xlink:href="#L"/><use transform="matrix(0.007595486111111109,0,0,0.007595486111111109,7.352430555555554,0)" xlink:href="#M"/><use transform="matrix(0.007595486111111109,0,0,0.007595486111111109,15.228949652777773,0)" xlink:href="#N"/><use transform="matrix(0.007595486111111109,0,0,0.007595486111111109,23.302951388888882,0)" xlink:href="#M"/><use transform="matrix(0.007595486111111109,0,0,0.007595486111111109,31.414930555555546,0)" xlink:href="#L"/><use transform="matrix(0.007595486111111109,0,0,0.007595486111111109,38.7673611111111,0)" xlink:href="#O"/><use transform="matrix(0.007595486111111109,0,0,0.007595486111111109,42.14735243055554,0)" xlink:href="#P"/><use transform="matrix(0.007595486111111109,0,0,0.007595486111111109,50.75303819444443,0)" xlink:href="#M"/><use transform="matrix(0.007595486111111109,0,0,0.007595486111111109,58.86501736111109,0)" xlink:href="#P"/></g><path fill="#e81313" d="M46-1227c0-128 188-119 328-120 79-1 391-35 488-35 99 0 148 35 148 105 0 65-48 98-145 98-76 0-153 3-232 8 1 179-14 796-13 976C622-79 604-4 510 0c-53 2-99-44-99-97v-270c21-312 24-505 22-785-143 13-240 20-291 20-64 0-96-32-96-95" id="Q"/><path fill="#e81313" d="M922-654c-9 182 20 369 29 555 5 90-140 139-183 58-2-3-13-31-31-85-54-160-191-263-414-306-19 75-30 243-58 360-12 50-51 72-98 72-55 0-99-53-99-108 1-366 195-896 360-1117 69-92 141-140 222-140 182 0 273 207 273 621 0 19 1 49-1 90zM724-476v-400c-20-103-13-145-35-225-11-40-25-60-40-60-32 0-83 65-154 195-56 103-99 215-130 336 137 27 256 79 359 154" id="R"/><path fill="#e81313" d="M188 0C127 1 82-61 96-128c102-498 136-682 239-1056 16-58 29-97 39-118 39-81 152-87 186 3 8 21 18 60 27 118 29 181 79 412 149 693 44-195 133-594 228-824 15-37 48-53 86-53 50 0 89 31 100 97 19 117 18 225 53 381 45 201 158 605 162 785 1 54-41 102-95 102-46 0-83-20-96-65-38-130-44-258-87-432-40-161-61-264-70-309-35 138-86 345-147 622-13 58-23 96-30 117-29 83-132 87-176 19-11-18-25-49-39-97-63-219-122-453-173-703-35 145-85 365-140 660-11 60-19 101-29 123-20 43-51 65-95 65" id="S"/><path fill="#e81313" d="M828-1263c0-55 41-106 95-102 140 10 133 224 150 372 25 219 36 341 36 365 0 117-18 227-54 328C982-97 873 5 730 5 530 5 400-187 341-570c-16 123-24 243-24 360C317-70 280 0 205 0c-53 0-99-44-99-97 0-314 85-1024 186-1197 27-46 56-71 94-71 52 0 87 33 104 99 5 21 8 92 8 213 0 153 26 313 55 481 43 253 101 379 172 379 116 0 183-303 183-438 0-120-80-513-80-632zm341-567c53 0 101 43 101 96 0 164-136 287-299 283-42 0-77-16-104-49-1-1-19-34-58-94-54-83-111-58-156 34-28 56-51 85-69 85-51 2-106-46-106-97 0-143 113-257 256-251 116 5 143 41 193 135 34 63 101 60 124-3 22-61 35-139 118-139" id="T"/><path fill="#e81313" d="M609-1364c323 0 519 229 519 557 0 183-51 357-152 522C860-95 716 0 544 0 271 0 97-283 97-570c0-191 38-362 113-512 95-188 228-282 399-282zm319 550c0-231-116-347-349-347-81 0-151 81-210 243-48 132-72 248-72 348 0 161 47 272 142 333 35 23 69 34 100 34 113 0 208-76 287-229 68-131 102-258 102-382" id="U"/><g id="j"><use transform="matrix(0.007595486111111109,0,0,0.007595486111111109,0,0)" xlink:href="#Q"/><use transform="matrix(0.007595486111111109,0,0,0.007595486111111109,8.036024305555554,0)" xlink:href="#R"/><use transform="matrix(0.007595486111111109,0,0,0.007595486111111109,16.148003472222218,0)" xlink:href="#S"/><use transform="matrix(0.007595486111111109,0,0,0.007595486111111109,27.282986111111104,0)" xlink:href="#R"/><use transform="matrix(0.007595486111111109,0,0,0.007595486111111109,35.39496527777777,0)" xlink:href="#T"/><use transform="matrix(0.007595486111111109,0,0,0.007595486111111109,44.49435763888888,0)" xlink:href="#U"/></g><path fill="#979ea8" d="M90-239c59 0 76 52 76 120S152 4 89 4C31 4 14-51 14-119c0-67 17-120 76-120zM89-10c45-6 45-58 45-109 0-50 0-101-45-106-45 4-43 57-43 106 0 50-2 104 43 109" id="V"/><use transform="matrix(0.06172839506172839,0,0,0.06172839506172839,0,0)" xlink:href="#V" id="k"/><path fill="#979ea8" d="M110-14l48 5v9H32v-9l48-5v-192l-48 17v-10l69-39h9v224" id="W"/><use transform="matrix(0.06172839506172839,0,0,0.06172839506172839,0,0)" xlink:href="#W" id="l"/><path fill="#979ea8" d="M24-231c66-21 156 2 128 81C132-92 78-66 39-27h121V0H16v-26l59-54c26-25 47-47 47-97 0-48-47-57-81-37l-6 29H24v-46" id="X"/><use transform="matrix(0.06172839506172839,0,0,0.06172839506172839,0,0)" xlink:href="#X" id="m"/><g id="n"><use transform="matrix(0.006510416666666664,0,0,0.006510416666666664,0,0)" xlink:href="#D"/><use transform="matrix(0.006510416666666664,0,0,0.006510416666666664,6.966145833333331,0)" xlink:href="#E"/><use transform="matrix(0.006510416666666664,0,0,0.006510416666666664,13.854166666666663,0)" xlink:href="#F"/><use transform="matrix(0.006510416666666664,0,0,0.006510416666666664,21.24348958333333,0)" xlink:href="#G"/><use transform="matrix(0.006510416666666664,0,0,0.006510416666666664,28.66536458333332,0)" xlink:href="#H"/><use transform="matrix(0.006510416666666664,0,0,0.006510416666666664,34.96744791666666,0)" xlink:href="#E"/></g><path fill="#979ea8" d="M829-1263c0-55 42-106 96-102 141 10 133 224 150 372 25 219 36 341 36 365 0 117-18 227-55 328C983-97 875 5 732 5 532 5 402-187 343-570c-16 123-24 243-24 360C319-70 282 0 207 0c-53 0-99-44-99-97 0-315 85-1025 186-1197 27-46 56-71 93-71 53 0 88 33 105 99 5 21 8 92 8 213 0 153 26 313 55 481 43 253 101 379 172 379 116 0 183-303 183-438 0-120-81-513-81-632" id="Y"/><path fill="#979ea8" d="M609-1364c323 0 519 229 519 557 0 183-51 357-152 522C860-95 716 0 544 0 271 0 97-283 97-570c0-191 38-362 113-512 95-188 228-282 399-282zm319 550c0-231-116-347-349-347-81 0-151 81-210 243-48 132-72 248-72 348 0 161 47 272 142 333 35 23 69 34 100 34 113 0 208-76 287-229 68-131 102-258 102-382" id="Z"/><path fill="#979ea8" d="M387-1365c369 0 678 217 678 573 0 172-83 346-249 522C647-90 478 0 307 0 194 0 137-80 137-239c0-257 30-558 68-915-53-11-80-43-80-95 0-56 32-93 97-108 26-6 81-8 165-8zm21 204c-15 76-47 491-72 917 0 13 1 27 2 41 116-22 231-92 346-210 120-123 180-241 180-355-1-196-67-277-209-343-74-35-157-50-247-50" id="aa"/><g id="o"><use transform="matrix(0.006510416666666664,0,0,0.006510416666666664,0,0)" xlink:href="#Y"/><use transform="matrix(0.006510416666666664,0,0,0.006510416666666664,7.968749999999997,0)" xlink:href="#Z"/><use transform="matrix(0.006510416666666664,0,0,0.006510416666666664,15.911458333333327,0)" xlink:href="#aa"/><use transform="matrix(0.006510416666666664,0,0,0.006510416666666664,23.287760416666657,0)" xlink:href="#Z"/></g><path fill="#ba23f6" d="M925-1365c52 0 103 46 101 97 0 23-38 113-113 270-125 261-227 519-304 774-21 71-38 117-49 139-29 57-63 85-104 85-109-1-156-321-181-456-30-165-184-659-203-805-7-52 44-104 97-104 40 0 72 25 99 73 46 84 66 250 92 370 23 106 68 262 121 471 71-167 173-418 306-754 20-51 35-86 46-104 25-37 55-56 92-56" id="ab"/><path fill="#ba23f6" d="M922-654c-9 182 20 369 29 555 5 90-140 139-183 58-2-3-13-31-31-85-54-160-191-263-414-306-19 75-30 243-58 360-12 50-51 72-98 72-55 0-99-53-99-108 1-366 195-896 360-1117 69-92 141-140 222-140 182 0 273 207 273 621 0 19 1 49-1 90zM724-476v-400c-20-103-13-145-35-225-11-40-25-60-40-60-32 0-83 65-154 195-56 103-99 215-130 336 137 27 256 79 359 154" id="ac"/><path fill="#ba23f6" d="M759-451c68-46 151 19 151 87 0 27-17 54-48 86C767-182 491 0 329 0 186 0 114-109 114-326c0-169 46-507 46-695 0-139-8-341 120-344 53-2 103 46 101 99-4-2-27 472-40 636-16 198-27 312-27 343 0 57 11 86 32 86 61 0 169-62 325-185 19-16 49-38 88-65" id="ad"/><path fill="#ba23f6" d="M609-1364c323 0 519 229 519 557 0 183-51 357-152 522C860-95 716 0 544 0 271 0 97-283 97-570c0-191 38-362 113-512 95-188 228-282 399-282zm319 550c0-231-116-347-349-347-81 0-151 81-210 243-48 132-72 248-72 348 0 161 47 272 142 333 35 23 69 34 100 34 113 0 208-76 287-229 68-131 102-258 102-382" id="ae"/><path fill="#ba23f6" d="M432-1365c342 0 623 232 623 568 0 219-132 374-395 466 145 90 217 167 217 230 0 52-52 98-104 96-17 0-39-10-66-29-90-65-203-166-304-203v78C403-53 368 0 299 0c-53 0-99-44-99-97v-374c17-145 25-361 25-650-2 5-10 7-24 7-53 2-99-46-99-99 0-112 194-152 330-152zm257 786c221-128 209-317 21-469-89-71-178-111-268-119-1 97-2 329-2 698 90-27 172-66 249-110" id="af"/><g id="p"><use transform="matrix(0.007595486111111109,0,0,0.007595486111111109,0,0)" xlink:href="#ab"/><use transform="matrix(0.007595486111111109,0,0,0.007595486111111109,6.91189236111111,0)" xlink:href="#ac"/><use transform="matrix(0.007595486111111109,0,0,0.007595486111111109,15.023871527777775,0)" xlink:href="#ad"/><use transform="matrix(0.007595486111111109,0,0,0.007595486111111109,21.98133680555555,0)" xlink:href="#ae"/><use transform="matrix(0.007595486111111109,0,0,0.007595486111111109,31.247829861111104,0)" xlink:href="#af"/></g><path fill="#fe7070" d="M773-362c52-3 103 50 103 101 0 27-17 56-48 89C762-102 548 0 418 0 210 0 81-204 84-422c3-221 73-486 152-640 103-201 220-303 358-303 167 0 251 128 251 385 0 123-35 185-106 185-48 0-101-46-99-94 2-77 27-278-39-278-46 0-94 47-150 138-89 144-168 415-168 602 0 146 56 219 169 219 46 0 106-26 180-77s122-77 141-77" id="ag"/><path fill="#fe7070" d="M759-451c68-46 151 19 151 87 0 27-17 54-48 86C767-182 491 0 329 0 186 0 114-109 114-326c0-169 46-507 46-695 0-139-8-341 120-344 53-2 103 46 101 99-4-2-27 472-40 636-16 198-27 312-27 343 0 57 11 86 32 86 61 0 169-62 325-185 19-16 49-38 88-65" id="ah"/><path fill="#fe7070" d="M922-654c-9 182 20 369 29 555 5 90-140 139-183 58-2-3-13-31-31-85-54-160-191-263-414-306-19 75-30 243-58 360-12 50-51 72-98 72-55 0-99-53-99-108 1-366 195-896 360-1117 69-92 141-140 222-140 182 0 273 207 273 621 0 19 1 49-1 90zM724-476v-400c-20-103-13-145-35-225-11-40-25-60-40-60-32 0-83 65-154 195-56 103-99 215-130 336 137 27 256 79 359 154" id="ai"/><path fill="#fe7070" d="M925-1365c52 0 103 46 101 97 0 23-38 113-113 270-125 261-227 519-304 774-21 71-38 117-49 139-29 57-63 85-104 85-109-1-156-321-181-456-30-165-184-659-203-805-7-52 44-104 97-104 40 0 72 25 99 73 46 84 66 250 92 370 23 106 68 262 121 471 71-167 173-418 306-754 20-51 35-86 46-104 25-37 55-56 92-56" id="aj"/><path fill="#fe7070" d="M369 0C201 0 119-119 119-294c0-119 26-272 77-457 80-290 99-377 125-524 7-13 27-26 60-41 71-33 211-49 419-49 129 0 193 36 193 107 0 50-48 105-99 101-142-10-258-9-397 20-11 59-34 158-69 297 146-57 246-85 301-85 53 0 100 43 100 96 0 43-23 80-73 99-127 49-178 54-389 129-29 119-44 224-44 314 0 58 10 87 30 87 66 0 151-30 256-90s173-91 205-91c50 0 101 49 101 99 0 30-19 57-51 87C794-129 500 0 369 0" id="ak"/><g id="q"><use transform="matrix(0.007595486111111109,0,0,0.007595486111111109,0,0)" xlink:href="#ag"/><use transform="matrix(0.007595486111111109,0,0,0.007595486111111109,7.352430555555554,0)" xlink:href="#ah"/><use transform="matrix(0.007595486111111109,0,0,0.007595486111111109,14.309895833333329,0)" xlink:href="#ai"/><use transform="matrix(0.007595486111111109,0,0,0.007595486111111109,22.057291666666657,0)" xlink:href="#aj"/><use transform="matrix(0.007595486111111109,0,0,0.007595486111111109,30.184461805555543,0)" xlink:href="#ak"/></g><path fill="#6db1ff" d="M196-1063c0-251 371-378 608-255 71 37 119 87 150 151 35 73-14 152-87 150-26 0-63-25-111-73s-102-72-162-72c-72 0-200 37-200 99 0 43 47 111 142 203 145 142 234 232 266 271 95 116 142 225 142 328C944-95 791 0 613 0 494 0 170-60 118-111c-29-29-48-55-48-87-1-69 67-120 140-92h-2c162 59 305 89 429 89 69 0 104-25 104-75 0-69-47-151-142-245-86-86-177-167-261-254-98-100-142-199-142-288" id="al"/><path fill="#6db1ff" d="M270-1365c53 0 101 46 100 99-5 357-80 777-80 1073C290-64 254 0 183 0 132 0 82-50 82-101c0-298 47-662 55-976 2-76 19-138 34-189 19-66 52-99 99-99" id="am"/><path fill="#6db1ff" d="M621-594c163 0 326 124 326 282S736 5 573 0C387-6 235-158 176-307c-32-81-50-172-50-277 0-291 84-515 251-672 123-114 255-148 401-60 53 32 90 76 121 123 44 67-17 153-85 152-24 0-53-21-88-61s-68-60-100-60c-180 0-298 367-298 568 0 189 80 393 249 393 76 0 150-57 167-118-25-60-81-80-164-74-50 4-95-50-95-100 0-67 45-101 136-101" id="an"/><path fill="#6db1ff" d="M807-1260c0-54 40-105 96-105 43 0 76 24 99 73 18 39 27 131 27 277 0 274-20 485-61 631C895-128 757 0 555 0 385 0 262-90 189-270c-51-126-76-289-76-488 0-289 18-467 53-534 26-49 59-73 99-73 52 0 105 52 99 104-14 128-48 300-48 513 0 128 14 239 41 332 41 144 108 216 201 216 105 0 179-98 225-293 29-124 45-265 45-422 0-66-21-279-21-345" id="ao"/><path fill="#6db1ff" d="M369 0C201 0 119-119 119-294c0-119 26-272 77-457 80-290 99-377 125-524 7-13 27-26 60-41 71-33 211-49 419-49 129 0 193 36 193 107 0 50-48 105-99 101-142-10-258-9-397 20-11 59-34 158-69 297 146-57 246-85 301-85 53 0 100 43 100 96 0 43-23 80-73 99-127 49-178 54-389 129-29 119-44 224-44 314 0 58 10 87 30 87 66 0 151-30 256-90s173-91 205-91c50 0 101 49 101 99 0 30-19 57-51 87C794-129 500 0 369 0" id="ap"/><path fill="#6db1ff" d="M829-1263c0-55 42-106 96-102 141 10 133 224 150 372 25 219 36 341 36 365 0 117-18 227-55 328C983-97 875 5 732 5 532 5 402-187 343-570c-16 123-24 243-24 360C319-70 282 0 207 0c-53 0-99-44-99-97 0-315 85-1025 186-1197 27-46 56-71 93-71 53 0 88 33 105 99 5 21 8 92 8 213 0 153 26 313 55 481 43 253 101 379 172 379 116 0 183-303 183-438 0-120-81-513-81-632" id="aq"/><path fill="#6db1ff" d="M46-1227c0-128 188-119 328-120 79-1 391-35 488-35 99 0 148 35 148 105 0 65-48 98-145 98-76 0-153 3-232 8 1 179-14 796-13 976C622-79 604-4 510 0c-53 2-99-44-99-97v-270c21-312 24-505 22-785-143 13-240 20-291 20-64 0-96-32-96-95" id="ar"/><g id="r"><use transform="matrix(0.007595486111111109,0,0,0.007595486111111109,0,0)" xlink:href="#al"/><use transform="matrix(0.007595486111111109,0,0,0.007595486111111109,8.127170138888888,0)" xlink:href="#am"/><use transform="matrix(0.007595486111111109,0,0,0.007595486111111109,11.507161458333332,0)" xlink:href="#an"/><use transform="matrix(0.007595486111111109,0,0,0.007595486111111109,19.672309027777775,0)" xlink:href="#ao"/><use transform="matrix(0.007595486111111109,0,0,0.007595486111111109,28.33116319444444,0)" xlink:href="#am"/><use transform="matrix(0.007595486111111109,0,0,0.007595486111111109,31.711154513888882,0)" xlink:href="#ap"/><use transform="matrix(0.007595486111111109,0,0,0.007595486111111109,40.16493055555554,0)" xlink:href="#aq"/><use transform="matrix(0.007595486111111109,0,0,0.007595486111111109,49.46180555555554,0)" xlink:href="#ar"/><use transform="matrix(0.007595486111111109,0,0,0.007595486111111109,57.4978298611111,0)" xlink:href="#ap"/></g><path fill="#ffe342" d="M922-654c-9 182 20 369 29 555 5 90-140 139-183 58-2-3-13-31-31-85-54-160-191-263-414-306-19 75-30 243-58 360-12 50-51 72-98 72-55 0-99-53-99-108 1-366 195-896 360-1117 69-92 141-140 222-140 182 0 273 207 273 621 0 19 1 49-1 90zM724-476v-400c-20-103-13-145-35-225-11-40-25-60-40-60-32 0-83 65-154 195-56 103-99 215-130 336 137 27 256 79 359 154" id="as"/><path fill="#ffe342" d="M432-1365c342 0 623 232 623 568 0 219-132 374-395 466 145 90 217 167 217 230 0 52-52 98-104 96-17 0-39-10-66-29-90-65-203-166-304-203v78C403-53 368 0 299 0c-53 0-99-44-99-97v-374c17-145 25-361 25-650-2 5-10 7-24 7-53 2-99-46-99-99 0-112 194-152 330-152zm257 786c221-128 209-317 21-469-89-71-178-111-268-119-1 97-2 329-2 698 90-27 172-66 249-110" id="at"/><path fill="#ffe342" d="M534 0c-54 1-104-40-104-96 0-45 18-79 58-93 38-13 78-19 114-33 139-52 207-229 207-522-71 158-178 237-321 237-171 0-289-87-355-261-43-114-65-273-65-478 0-79 34-119 101-119 58 0 96 44 106 134 10 91 12 183 22 275 13 113 52 188 113 226 57 35 92 27 153-4 115-60 203-251 231-413 5-26 9-65 25-113s51-71 94-71c48 0 84 32 102 97 48 177 15 638-17 760-49 186-136 325-271 414C667-20 603 0 534 0" id="au"/><g id="s"><use transform="matrix(0.007595486111111109,0,0,0.007595486111111109,0,0)" xlink:href="#as"/><use transform="matrix(0.007595486111111109,0,0,0.007595486111111109,8.111979166666664,0)" xlink:href="#at"/><use transform="matrix(0.007595486111111109,0,0,0.007595486111111109,16.73285590277777,0)" xlink:href="#at"/><use transform="matrix(0.007595486111111109,0,0,0.007595486111111109,25.224609374999993,0)" xlink:href="#as"/><use transform="matrix(0.007595486111111109,0,0,0.007595486111111109,33.33658854166666,0)" xlink:href="#au"/></g></defs></g></svg>