<svg xmlns="http://www.w3.org/2000/svg" xmlns:xlink="http://www.w3.org/1999/xlink" xmlns:lucid="lucid" width="746.43" height="560"><g transform="translate(826.4323689523067 660)" lucid:page-tab-id="0_0"><path d="M-638.5-631a6 6 0 0 1 6-6h168a6 6 0 0 1 6 6v28a6 6 0 0 1-6 6h-168a6 6 0 0 1-6-6z" fill="none"/><use xlink:href="#a" transform="matrix(1,0,0,1,-638.5131829102683,-637.0107909935116) translate(63.8 30.244444444444444)"/><path d="M-591-574a6 6 0 0 1 6-6h148a6 6 0 0 1 6 6v48a6 6 0 0 1-6 6h-148a6 6 0 0 1-6-6z" stroke="#000" fill="#dedeff"/><path d="M-580.5-564.9a6 6 0 0 1 6-6h28a6 6 0 0 1 6 6v28a6 6 0 0 1-6 6h-28a6 6 0 0 1-6-6z" stroke="#000" fill="#f4d9ff"/><use xlink:href="#b" transform="matrix(1,0,0,1,-575.5066914551319,-565.893155108186) translate(8.88888888888889 21.430555555555557)"/><path d="M-531-565.02a6 6 0 0 1 6-6h28a6 6 0 0 1 6 6v28a6 6 0 0 1-6 6h-28a6 6 0 0 1-6-6z" stroke="#000" fill="#f4d9ff"/><use xlink:href="#c" transform="matrix(1,0,0,1,-526.0000999999977,-566.0157331043696) translate(8.88888888888889 21.430555555555557)"/><path d="M-481.5-565.02a6 6 0 0 1 6-6h28a6 6 0 0 1 6 6v28a6 6 0 0 1-6 6h-28a6 6 0 0 1-6-6z" stroke="#000" fill="#f4d9ff"/><path d="M-450.5-551c0 6.08-4.92 11-11 11-6.07 0-11-4.92-11-11s4.93-11 11-11c6.08 0 11 4.92 11 11z" stroke="#000"/><path d="M-594.1-313.22a6 6 0 0 1-6-6v-27a6 6 0 0 1 6-6h27a6 6 0 0 1 6 6v27a6 6 0 0 1-6 6z" stroke="#000" fill="#dedeff"/><path d="M-580.6-343.72c6.06 0 11 4.92 11 11 0 6.07-4.94 11-11 11-6.1 0-11-4.93-11-11 0-6.08 4.9-11 11-11z" stroke="#000"/><path d="M-594.1-352.22a6 6 0 0 1-6-6v-27a6 6 0 0 1 6-6h27a6 6 0 0 1 6 6v27a6 6 0 0 1-6 6z" stroke="#000" fill="#dedeff"/><path d="M-580.6-382.72c6.06 0 11 4.92 11 11 0 6.07-4.94 11-11 11-6.1 0-11-4.93-11-11 0-6.08 4.9-11 11-11z" stroke="#000"/><path d="M-594.1-391.22a6 6 0 0 1-6-6v-27a6 6 0 0 1 6-6h27a6 6 0 0 1 6 6v27a6 6 0 0 1-6 6z" stroke="#000" fill="#dedeff"/><path d="M-580.6-421.72c6.06 0 11 4.92 11 11 0 6.07-4.94 11-11 11-6.1 0-11-4.93-11-11 0-6.08 4.9-11 11-11z" stroke="#000"/><path d="M-461.5-538.5l-.04 1.14-.12 2-.2 1.9-.27 1.8-.33 1.72-.4 1.65-.43 1.6-.5 1.54-.55 1.5-.62 1.47-.68 1.44-.74 1.42-.8 1.4-.88 1.4-.97 1.38-1.06 1.4-1.17 1.4-1.28 1.4-1.42 1.45-1.58 1.46-1.77 1.52-2 1.58-2.3 1.66-2.66 1.76-3.15 1.9-3.86 2.1-4.94 2.44-7.03 3.1-42.6 16.84-4.95 2.44-3.85 2.1-3.16 1.9-2.66 1.76-2.28 1.66-2 1.58-1.78 1.52-1.58 1.48-1.4 1.44-1.3 1.4-1.15 1.42-1.05 1.38-.97 1.4-.88 1.38-.82 1.4-.74 1.42-.37.78" stroke="#000" stroke-width="2" stroke-linejoin="round" fill="none"/><path d="M-460.5-538.45l-2-.04v-1.13l1 .13 1-.13z" stroke="#000" stroke-width=".05"/><path d="M-579.94-433.9l-1.6-14.9 9.07 1.9z" stroke="#000" stroke-width="2" fill="#fff"/><path d="M-619.62-407.22a6 6 0 0 1 6-6h4a6 6 0 0 1 6 6v10a6 6 0 0 1-6 6h-4a6 6 0 0 1-6-6z" fill="none"/><use xlink:href="#d" transform="matrix(1,0,0,1,-619.6183335448676,-413.2220052083333) translate(2.9444444444444446 17.77777777777778)"/><path d="M-619.62-368.22a6 6 0 0 1 6-6h4a6 6 0 0 1 6 6v10a6 6 0 0 1-6 6h-4a6 6 0 0 1-6-6z" fill="none"/><use xlink:href="#e" transform="matrix(1,0,0,1,-619.6183335448676,-374.2220052083333) translate(2.9444444444444446 17.77777777777778)"/><path d="M-620-329.22a6 6 0 0 1 6-6h4a6 6 0 0 1 6 6v10a6 6 0 0 1-6 6h-4a6 6 0 0 1-6-6z" fill="none"/><use xlink:href="#f" transform="matrix(1,0,0,1,-620,-335.2220052083333) translate(2.9444444444444446 17.77777777777778)"/><path d="M-480.5-454.43a6 6 0 0 1 6-6h123a6 6 0 0 1 6 6v28a6 6 0 0 1-6 6h-123a6 6 0 0 1-6-6z" stroke="#000" fill="#fff7a1"/><path d="M-470-449.43a6 6 0 0 1 6-6h18a6 6 0 0 1 6 6v18a6 6 0 0 1-6 6h-18a6 6 0 0 1-6-6z" stroke="#000" fill="#fcfcca"/><path d="M-447.5-440.43c0 4.14-3.37 7.5-7.5 7.5-4.15 0-7.5-3.36-7.5-7.5 0-4.14 3.35-7.5 7.5-7.5 4.13 0 7.5 3.36 7.5 7.5z" stroke="#000"/><path d="M-428-449.43a6 6 0 0 1 6-6h18a6 6 0 0 1 6 6v18a6 6 0 0 1-6 6h-18a6 6 0 0 1-6-6z" stroke="#000" fill="#fcfcca"/><path d="M-405.5-440.43c0 4.14-3.37 7.5-7.5 7.5-4.15 0-7.5-3.36-7.5-7.5 0-4.14 3.35-7.5 7.5-7.5 4.13 0 7.5 3.36 7.5 7.5z" stroke="#000"/><path d="M-386-449.43a6 6 0 0 1 6-6h18a6 6 0 0 1 6 6v18a6 6 0 0 1-6 6h-18a6 6 0 0 1-6-6z" stroke="#000" fill="#fcfcca"/><path d="M-363.5-440.43c0 4.14-3.36 7.5-7.5 7.5-4.14 0-7.5-3.36-7.5-7.5 0-4.14 3.36-7.5 7.5-7.5 4.14 0 7.5 3.36 7.5 7.5z" stroke="#000"/><path d="M-528.2-372.72a6 6 0 0 1 6-6h28a6 6 0 0 1 6 6v6a6 6 0 0 1-6 6h-28a6 6 0 0 1-6-6z" fill="none"/><use xlink:href="#g" transform="matrix(1,0,0,1,-528.1876124999975,-378.72200520833337) translate(2.713333333333342 15.719999999999995)"/><path d="M-568.1-332.7l3.62.1 3.07.26 2.27.32 1.88.38 1.7.44 1.76.57 2.82 1.1 5.8 2.33 3 .97 3.54.92 4.76.94 7.14 1 12.3 1.02 14.94.36" stroke="#000" stroke-width="2" stroke-linejoin="round" fill="none"/><path d="M-568.05-333.7l-.06 2-1.14-.03.13-1-.14-1z" stroke="#000" stroke-width=".05"/><path d="M-484.24-321.8l-14.32 4.47.1-9.27z" stroke="#000" stroke-width="2" fill="#fff"/><path d="M-568.1-371.72l21.4.05" stroke="#000" stroke-width="2" stroke-linejoin="round" fill="none"/><path d="M-568.08-372.72v2h-1.16l.13-1-.14-1z" stroke="#000" stroke-width=".05"/><path d="M-531.42-371.63l-14.28 4.6.02-9.27z" stroke="#000" stroke-width="2" fill="#fff"/><path d="M-455.26-383.25a6 6 0 0 1 6-6h8a6 6 0 0 1 6 6v8a6 6 0 0 1-6 6h-8a6 6 0 0 1-6-6z" stroke="#000" fill="#fcfcca"/><path d="M-442.76-379.25c0 1.38-1.12 2.5-2.5 2.5s-2.5-1.12-2.5-2.5 1.12-2.5 2.5-2.5 2.5 1.12 2.5 2.5z" stroke="#000"/><path d="M-454.96-431.42l.3 5.62.85 4.8 1.33 4.42 3.46 8.88" stroke="#000" stroke-width="2" stroke-linejoin="round" fill="none"/><path d="M-455.03-432.42l1-.16.07 1.13-2 .1-.07-1.3z" stroke="#000" stroke-width=".05"/><path d="M-445.93-392.92l-7.45-13.02 9.08-1.9z" stroke="#000" stroke-width="2" fill="#fff"/><path d="M-412.95-431.42l.07 1.25.36 2.02.57 1.9.8 1.8 1.07 1.86 1.48 1.98 2.17 2.25 3.75 3.08 14.23 10.05" stroke="#000" stroke-width="2" stroke-linejoin="round" fill="none"/><path d="M-413.02-432.42l1-.16.07 1.12-2 .12-.07-1.3z" stroke="#000" stroke-width=".05"/><path d="M-381.4-392.58l-11-10.22 8.1-4.5z" stroke="#000" stroke-width="2" fill="#fff"/><path d="M-415.26-383.25a6 6 0 0 1 6-6h58.86a6 6 0 0 1 6 6v7.32a6 6 0 0 1-6 6h-58.86a6 6 0 0 1-6-6z" stroke="#000" fill="#fcfcca"/><use xlink:href="#h" transform="matrix(1,0,0,1,-410.2634829102616,-384.2535173993313) translate(5.296006944444446 8.984374999999998)"/><path d="M-480.5-335.75a6 6 0 0 1 6-6h123a6 6 0 0 1 6 6v28a6 6 0 0 1-6 6h-123a6 6 0 0 1-6-6z" stroke="#000" fill="#fff7a1"/><path d="M-470-330.75a6 6 0 0 1 6-6h18a6 6 0 0 1 6 6v18a6 6 0 0 1-6 6h-18a6 6 0 0 1-6-6z" stroke="#000" fill="#fcfcca"/><path d="M-447.5-321.75c0 4.14-3.37 7.5-7.5 7.5-4.15 0-7.5-3.36-7.5-7.5 0-4.15 3.35-7.5 7.5-7.5 4.13 0 7.5 3.35 7.5 7.5z" stroke="#000"/><path d="M-428-330.75a6 6 0 0 1 6-6h18a6 6 0 0 1 6 6v18a6 6 0 0 1-6 6h-18a6 6 0 0 1-6-6z" stroke="#000" fill="#fcfcca"/><path d="M-405.5-321.75c0 4.14-3.37 7.5-7.5 7.5-4.15 0-7.5-3.36-7.5-7.5 0-4.15 3.35-7.5 7.5-7.5 4.13 0 7.5 3.35 7.5 7.5z" stroke="#000"/><path d="M-386-330.75a6 6 0 0 1 6-6h18a6 6 0 0 1 6 6v18a6 6 0 0 1-6 6h-18a6 6 0 0 1-6-6z" stroke="#000" fill="#fcfcca"/><path d="M-363.5-321.75c0 4.14-3.36 7.5-7.5 7.5-4.14 0-7.5-3.36-7.5-7.5 0-4.15 3.36-7.5 7.5-7.5 4.14 0 7.5 3.35 7.5 7.5z" stroke="#000"/><path d="M-465-264a6 6 0 0 1 6-6h8a6 6 0 0 1 6 6v8a6 6 0 0 1-6 6h-8a6 6 0 0 1-6-6z" stroke="#000" fill="#fcfcca"/><path d="M-452.5-260c0 1.38-1.13 2.5-2.5 2.5-1.4 0-2.5-1.12-2.5-2.5s1.1-2.5 2.5-2.5c1.37 0 2.5 1.12 2.5 2.5z" stroke="#000"/><path d="M-455-312.75V-289" stroke="#000" stroke-width="2" stroke-linejoin="round" fill="none"/><path d="M-455.03-313.75l1.02-.16v1.18h-2v-1.24z" stroke="#000" stroke-width=".05"/><path d="M-455-273.74l-4.65-14.26h9.27z" stroke="#000" stroke-width="2" fill="#fff"/><path d="M-412.95-312.75l.07 1.2.36 1.96.57 1.85.8 1.8 1.1 1.8 1.55 1.97 2.3 2.3 4.25 3.27 13.2 8.98" stroke="#000" stroke-width="2" stroke-linejoin="round" fill="none"/><path d="M-413.02-313.75l1-.16.07 1.12-2 .12-.07-1.3z" stroke="#000" stroke-width=".05"/><path d="M-381.46-275.13l-11.2-9.98 8-4.68z" stroke="#000" stroke-width="2" fill="#fff"/><path d="M-415.26-265.83a6 6 0 0 1 6-6h58.86a6 6 0 0 1 6 6v7a6 6 0 0 1-6 6h-58.86a6 6 0 0 1-6-6z" stroke="#000" fill="#fcfcca"/><use xlink:href="#i" transform="matrix(1,0,0,1,-410.2634829102616,-266.8307291666666) translate(4.413194444444457 9.882812499999996)"/><path d="M-568.1-410.75l2.84-.08 3.68-.3 3.56-.52 3.53-.7 3.58-.94 3.7-1.2 4.06-1.56 4.74-2.16 7-3.7 19.72-11 4.75-2.17 4.04-1.56 3.64-1.17" stroke="#000" stroke-width="2" stroke-linejoin="round" fill="none"/><path d="M-568.05-409.75l-1.2.03.14-1-.14-1 1.13-.03z" stroke="#000" stroke-width=".05"/><path d="M-484.2-439.97l-13.48 6.6-1.3-9.2z" stroke="#000" stroke-width="2" fill="#fff"/><path d="M-320-323.25a6 6 0 0 1 6-6h28a6 6 0 0 1 6 6v6a6 6 0 0 1-6 6h-28a6 6 0 0 1-6-6z" fill="none"/><use xlink:href="#g" transform="matrix(1,0,0,1,-320,-329.25351739933126) translate(2.713333333333342 15.719999999999995)"/><path d="M-362-321.73l23.5.6" stroke="#000" stroke-width="2" stroke-linejoin="round" fill="none"/><path d="M-361.94-322.73l-.05 2-1.2-.03.2-.98-.16-1.02z" stroke="#000" stroke-width=".05"/><path d="M-323.24-320.76l-14.37 4.28.22-9.27z" stroke="#000" stroke-width="2" fill="#fff"/><path d="M-739.5-554a6 6 0 0 1 6-6h27a6 6 0 0 1 6 6v27a6 6 0 0 1-6 6h-27a6 6 0 0 1-6-6z" stroke="#000" fill="#dedeff"/><path d="M-709-540.5c0 6.08-4.92 11-11 11s-11-4.92-11-11 4.92-11 11-11 11 4.92 11 11z" stroke="#000"/><path d="M-641-639.5a.5.5 0 0 1 .5.5v518a.5.5 0 0 1-.5.5.5.5 0 0 1-.5-.5v-518a.5.5 0 0 1 .5-.5z" stroke="#979ea8" fill="none"/><path d="M-787.32-599a.5.5 0 0 1 .5-.5H-121a.5.5 0 0 1 .5.5.5.5 0 0 1-.5.5h-665.82a.5.5 0 0 1-.5-.5z" stroke="#979ea8" fill="none"/><path d="M-806.43-631a6 6 0 0 1 6-6h168a6 6 0 0 1 6 6v28a6 6 0 0 1-6 6h-168a6 6 0 0 1-6-6z" fill="none"/><use xlink:href="#j" transform="matrix(1,0,0,1,-806.4323689523067,-637.0107909935116) translate(54.63333333333333 30.244444444444444)"/><path d="M-707.5-540.52l17.5-.35 13.1-.83 11.46-1.23 42.35-5.87 13.1-.83" stroke="#000" stroke-width="2" stroke-linejoin="round" fill="none"/><path d="M-707.45-539.52l-1.18.02.13-1-.13-1 1.14-.02z" stroke="#000" stroke-width=".05"/><path d="M-594.74-549.94l-14.17 4.92-.2-9.27z" stroke="#000" stroke-width="2" fill="#fff"/><path d="M-593.73-196.22a6 6 0 0 1-6-6v-27a6 6 0 0 1 6-6h27a6 6 0 0 1 6 6v27a6 6 0 0 1-6 6z" stroke="#000" fill="#dedeff"/><path d="M-580.23-226.72c6.07 0 11 4.92 11 11 0 6.07-4.93 11-11 11-6.08 0-11-4.93-11-11 0-6.08 4.92-11 11-11z" stroke="#000"/><path d="M-593.73-235.22a6 6 0 0 1-6-6v-27a6 6 0 0 1 6-6h27a6 6 0 0 1 6 6v27a6 6 0 0 1-6 6z" stroke="#000" fill="#dedeff"/><path d="M-580.23-265.72c6.07 0 11 4.92 11 11 0 6.07-4.93 11-11 11-6.08 0-11-4.93-11-11 0-6.08 4.92-11 11-11z" stroke="#000"/><path d="M-593.73-274.22a6 6 0 0 1-6-6v-27a6 6 0 0 1 6-6h27a6 6 0 0 1 6 6v27a6 6 0 0 1-6 6z" stroke="#000" fill="#dedeff"/><path d="M-580.23-304.72c6.07 0 11 4.92 11 11 0 6.07-4.93 11-11 11-6.08 0-11-4.93-11-11 0-6.08 4.92-11 11-11z" stroke="#000"/><path d="M-619.24-290.22a6 6 0 0 1 6-6h4a6 6 0 0 1 6 6v10a6 6 0 0 1-6 6h-4a6 6 0 0 1-6-6z" fill="none"/><use xlink:href="#k" transform="matrix(1,0,0,1,-619.2366670897352,-296.22200520833326) translate(2.9444444444444446 17.77777777777778)"/><path d="M-619.24-251.22a6 6 0 0 1 6-6h4a6 6 0 0 1 6 6v10a6 6 0 0 1-6 6h-4a6 6 0 0 1-6-6z" fill="none"/><use xlink:href="#l" transform="matrix(1,0,0,1,-619.2366670897352,-257.22200520833326) translate(2.9444444444444446 17.77777777777778)"/><path d="M-619.62-212.22a6 6 0 0 1 6-6h4a6 6 0 0 1 6 6v10a6 6 0 0 1-6 6h-4a6 6 0 0 1-6-6z" fill="none"/><use xlink:href="#m" transform="matrix(1,0,0,1,-619.6183335448676,-218.22200520833326) translate(2.9444444444444446 17.77777777777778)"/><path d="M-567.73-215.7l4.35.12 3.3.27 2.38.34 1.97.4 1.9.5 2.84.94 6.1 2.08 3.38.9 4.34.87 6.6.94 11.96 1 18.6.43" stroke="#000" stroke-width="2" stroke-linejoin="round" fill="none"/><path d="M-567.67-216.7l-.06 2-1.13-.03.13-1-.13-1z" stroke="#000" stroke-width=".05"/><path d="M-484.75-206.75l-14.3 4.5.08-9.27z" stroke="#000" stroke-width="2" fill="#fff"/><path d="M-481-220.72a6 6 0 0 1 6-6h123a6 6 0 0 1 6 6v28a6 6 0 0 1-6 6h-123a6 6 0 0 1-6-6z" stroke="#000" fill="#fff7a1"/><path d="M-470.52-215.72a6 6 0 0 1 6-6h18a6 6 0 0 1 6 6v18a6 6 0 0 1-6 6h-18a6 6 0 0 1-6-6z" stroke="#000" fill="#fcfcca"/><path d="M-448.02-206.72c0 4.14-3.36 7.5-7.5 7.5-4.14 0-7.5-3.36-7.5-7.5 0-4.14 3.36-7.5 7.5-7.5 4.14 0 7.5 3.36 7.5 7.5z" stroke="#000"/><path d="M-428.5-215.72a6 6 0 0 1 6-6h18a6 6 0 0 1 6 6v18a6 6 0 0 1-6 6h-18a6 6 0 0 1-6-6z" stroke="#000" fill="#fcfcca"/><path d="M-406-206.72c0 4.14-3.37 7.5-7.5 7.5-4.15 0-7.5-3.36-7.5-7.5 0-4.14 3.35-7.5 7.5-7.5 4.13 0 7.5 3.36 7.5 7.5z" stroke="#000"/><path d="M-386.5-215.72a6 6 0 0 1 6-6h18a6 6 0 0 1 6 6v18a6 6 0 0 1-6 6h-18a6 6 0 0 1-6-6z" stroke="#000" fill="#fcfcca"/><path d="M-364-206.72c0 4.14-3.36 7.5-7.5 7.5-4.15 0-7.5-3.36-7.5-7.5 0-4.14 3.35-7.5 7.5-7.5 4.14 0 7.5 3.36 7.5 7.5z" stroke="#000"/><path d="M-465.52-148.97a6 6 0 0 1 6-6h8a6 6 0 0 1 6 6v8a6 6 0 0 1-6 6h-8a6 6 0 0 1-6-6z" stroke="#000" fill="#fcfcca"/><path d="M-453.02-144.97c0 1.38-1.12 2.5-2.5 2.5s-2.5-1.12-2.5-2.5 1.12-2.5 2.5-2.5 2.5 1.12 2.5 2.5z" stroke="#000"/><path d="M-455.52-197.72v23.75" stroke="#000" stroke-width="2" stroke-linejoin="round" fill="none"/><path d="M-455.53-198.7l1-.18v1.2h-2v-1.25z" stroke="#000" stroke-width=".05"/><path d="M-455.52-158.7l-4.63-14.27h9.27z" stroke="#000" stroke-width="2" fill="#fff"/><path d="M-413.45-197.72l.07 1.2.35 2 .56 1.84.8 1.8 1.07 1.83 1.48 1.94 2.17 2.23 3.76 3.03 14.58 10.08" stroke="#000" stroke-width="2" stroke-linejoin="round" fill="none"/><path d="M-413.52-198.7l1-.18.07 1.13-2 .12-.08-1.3z" stroke="#000" stroke-width=".05"/><path d="M-381.44-159.2l-11.1-10.08 8.05-4.6z" stroke="#000" stroke-width="2" fill="#fff"/><path d="M-415.26-149.88a6 6 0 0 1 6-6h58.86a6 6 0 0 1 6 6v7a6 6 0 0 1-6 6h-58.86a6 6 0 0 1-6-6z" stroke="#000" fill="#fcfcca"/><use xlink:href="#n" transform="matrix(1,0,0,1,-410.2634829102616,-150.88385239233534) translate(2.7803819444444464 9.882812499999998)"/><path d="M-362.5-206.73l43-.4" stroke="#000" stroke-width="2" stroke-linejoin="round" fill="none"/><path d="M-362.46-205.73h-1.25l.2-.98-.16-1.02h1.18z" stroke="#000" stroke-width=".05"/><path d="M-304.24-207.27l-14.22 4.77-.1-9.27z" stroke="#000" stroke-width="2" fill="#fff"/><path d="M-300.5-220.72a6 6 0 0 1 6-6h123a6 6 0 0 1 6 6v28a6 6 0 0 1-6 6h-123a6 6 0 0 1-6-6z" stroke="#000" fill="#fff7a1"/><path d="M-290-215.72a6 6 0 0 1 6-6h18a6 6 0 0 1 6 6v18a6 6 0 0 1-6 6h-18a6 6 0 0 1-6-6z" stroke="#000" fill="#fcfcca"/><path d="M-267.5-206.72c0 4.14-3.37 7.5-7.5 7.5-4.15 0-7.5-3.36-7.5-7.5 0-4.14 3.35-7.5 7.5-7.5 4.13 0 7.5 3.36 7.5 7.5z" stroke="#000"/><path d="M-248-215.72a6 6 0 0 1 6-6h18a6 6 0 0 1 6 6v18a6 6 0 0 1-6 6h-18a6 6 0 0 1-6-6z" stroke="#000" fill="#fcfcca"/><path d="M-225.5-206.72c0 4.14-3.37 7.5-7.5 7.5-4.15 0-7.5-3.36-7.5-7.5 0-4.14 3.35-7.5 7.5-7.5 4.13 0 7.5 3.36 7.5 7.5z" stroke="#000"/><path d="M-206-215.72a6 6 0 0 1 6-6h18a6 6 0 0 1 6 6v18a6 6 0 0 1-6 6h-18a6 6 0 0 1-6-6z" stroke="#000" fill="#fcfcca"/><path d="M-183.5-206.72c0 4.14-3.36 7.5-7.5 7.5-4.14 0-7.5-3.36-7.5-7.5 0-4.14 3.36-7.5 7.5-7.5 4.14 0 7.5 3.36 7.5 7.5z" stroke="#000"/><path d="M-274.96-197.72l.53 10.24 1.9 13.7" stroke="#000" stroke-width="2" stroke-linejoin="round" fill="none"/><path d="M-275.03-198.7l1-.18.07 1.14-2 .1-.07-1.3z" stroke="#000" stroke-width=".05"/><path d="M-270.44-158.67l-6.55-13.5 9.2-1.27z" stroke="#000" stroke-width="2" fill="#fff"/><path d="M-232.95-197.72l.08 1.2.37 1.97.6 1.84.82 1.8 1.16 1.83 1.63 2 2.55 2.4 5.52 4.02 10.28 6.96" stroke="#000" stroke-width="2" stroke-linejoin="round" fill="none"/><path d="M-233.02-198.7l1-.18.07 1.13-2 .12-.07-1.3z" stroke="#000" stroke-width=".05"/><path d="M-202.58-161.23l-11.25-9.92 7.97-4.72z" stroke="#000" stroke-width="2" fill="#fff"/><path d="M-236.37-151.94a6 6 0 0 1 6-6h58.86a6 6 0 0 1 6 6v7a6 6 0 0 1-6 6h-58.87a6 6 0 0 1-6-6z" stroke="#000" fill="#fcfcca"/><use xlink:href="#o" transform="matrix(1,0,0,1,-231.3649128173031,-152.9440104166667) translate(5.955729166666671 8.984374999999998)"/><path d="M-280-148.97a6 6 0 0 1 6-6h8a6 6 0 0 1 6 6v8a6 6 0 0 1-6 6h-8a6 6 0 0 1-6-6z" stroke="#000" fill="#fcfcca"/><path d="M-267.5-144.97c0 1.38-1.12 2.5-2.5 2.5s-2.5-1.12-2.5-2.5 1.12-2.5 2.5-2.5 2.5 1.12 2.5 2.5z" stroke="#000"/><path d="M-320-443.5a6 6 0 0 1 6-6h28a6 6 0 0 1 6 6v6a6 6 0 0 1-6 6h-28a6 6 0 0 1-6-6z" fill="none"/><use xlink:href="#g" transform="matrix(1,0,0,1,-320,-449.49680562092453) translate(2.713333333333342 15.719999999999995)"/><path d="M-362-440.43h23.5" stroke="#000" stroke-width="2" stroke-linejoin="round" fill="none"/><path d="M-361.97-439.43h-1.23l.2-1-.15-1h1.18z" stroke="#000" stroke-width=".05"/><path d="M-323.24-440.43l-14.26 4.63v-9.26z" stroke="#000" stroke-width="2" fill="#fff"/><path d="M-528.2-260.5a6 6 0 0 1 6-6h28a6 6 0 0 1 6 6v6a6 6 0 0 1-6 6h-28a6 6 0 0 1-6-6z" fill="none"/><use xlink:href="#g" transform="matrix(1,0,0,1,-528.1876124999975,-266.4929373193073) translate(2.713333333333342 15.719999999999995)"/><path d="M-567.73-254.72h21.04" stroke="#000" stroke-width="2" stroke-linejoin="round" fill="none"/><path d="M-567.7-253.72h-1.16l.13-1-.13-1h1.16z" stroke="#000" stroke-width=".05"/><path d="M-531.42-254.72l-14.27 4.63v-9.26z" stroke="#000" stroke-width="2" fill="#fff"/><path d="M-567.73-293.7l21.04.17" stroke="#000" stroke-width="2" stroke-linejoin="round" fill="none"/><path d="M-567.7-294.7v2l-1.16-.02.13-1-.13-1z" stroke="#000" stroke-width=".05"/><path d="M-531.42-293.4l-14.3 4.5.07-9.26z" stroke="#000" stroke-width="2" fill="#fff"/><path d="M-528.2-294.72a6 6 0 0 1 6-6h28a6 6 0 0 1 6 6v6a6 6 0 0 1-6 6h-28a6 6 0 0 1-6-6z" fill="none"/><use xlink:href="#g" transform="matrix(1,0,0,1,-528.1876124999975,-300.72200520833337) translate(2.713333333333342 15.719999999999995)"/><path d="M-140-210.22a6 6 0 0 1 6-6h28a6 6 0 0 1 6 6v6a6 6 0 0 1-6 6h-28a6 6 0 0 1-6-6z" fill="none"/><use xlink:href="#g" transform="matrix(1,0,0,1,-140,-216.2220052083333) translate(2.713333333333342 15.719999999999995)"/><path d="M-182-206.73l23.5-.28" stroke="#000" stroke-width="2" stroke-linejoin="round" fill="none"/><path d="M-181.96-205.73h-1.25l.2-.98-.16-1.02h1.18z" stroke="#000" stroke-width=".05"/><path d="M-143.24-207.18l-14.2 4.8-.12-9.27z" stroke="#000" stroke-width="2" fill="#fff"/><path d="M-282.5-357.75a6 6 0 0 1 6-6H-148a6 6 0 0 1 6 6v22.53C-165.48-340-180.1-340-188.95-340c-14.05 0-32.73 4.78-46.78 4.78-8.72 0-23.47 0-46.8-4.77z" fill-opacity="0"/><path d="M-281.6-360.88l.23-.4.6-.72.73-.6.4-.25m1.73-.72l.45-.1.94-.08h1.47m1.98 0h2.96m2 0h2.96m1.97 0h2.97m1.97 0h2.97m1.98 0h2.96m1.98 0h2.97m1.97 0h2.97m1.97 0h2.97m2 0h2.95m1.98 0h2.97m1.97 0h2.97m1.97 0h2.98m1.98 0h2.96m1.98 0h2.97m1.97 0h2.97m2 0h2.95m1.98 0h2.96m1.97 0h2.97m1.97 0h2.98m1.97 0h2.97m1.98 0h2.96m1.98 0h2.97m1.98 0h2.97m1.98 0h2.96m1.97 0h2.96m1.98 0h1.5l.93.07.46.1m1.72.73l.4.24.72.6.6.72.25.4m.7 1.73l.12.46.07.95v1.35m0 1.8v2.7m0 1.8v2.7m0 1.8v2.72m0 1.8v2.7m0 1.8v1.36l-1.56-.24m-2.08-.3l-3.1-.48m-2.1-.32l-3.1-.47m-2.08-.32l-3.1-.47m-2.1-.3l-3.1-.48m-2.08-.32l-1.25-.2-1.88-.07m-2.1-.07l-3.15-.13m-2.1-.1l-3.14-.12m-2.1-.08l-3.14-.13m-2.1-.1l-1.58-.06-1.56.1m-2.1.14l-3.12.2m-2.08.12l-1.4.1-1.73.18m-2.07.24l-3.12.35m-2.08.24l-3.1.35m-2.1.23l-3.1.36m-2.1.24l-3.1.35m-2.08.23l-3.12.35m-2.07.24l-3.12.35m-2.07.23l-1.55.18-1.57-.08m-2.08-.1l-3.14-.15m-2.1-.1l-3.13-.15m-2.1-.1l-3.13-.15m-2.1-.1l-3.12-.15m-2.1-.18l-3.1-.48m-2.06-.33l-3.1-.48m-2.06-.33l-3.1-.5m-2.07-.32l-3.1-.5m-2.06-.32l-1.55-.25v-1.32m0-1.78v-2.66m0-1.78v-2.66m0-1.78v-2.66m0-1.78v-1.33l.06-.94.1-.45" stroke="#d916a8" fill="none"/><use xlink:href="#p" transform="matrix(1,0,0,1,-277.51328291026607,-358.7535173993312) translate(10.991536458333357 13.476562499999995)"/><use xlink:href="#q" transform="matrix(1,0,0,1,-277.51328291026607,-358.7535173993312) translate(46.14127604166667 13.476562499999995)"/><path d="M-283.5-349.45l-1.46.06m-1.93.08l-2.1.08-.78.1m-1.9.23l-2.12.24-.76.16m-1.9.38l-1.42.3-1.38.4m-1.85.53l-.54.16-2.2.84m-1.8.7l-2.6 1.25m-1.74.84l-.63.3-1.96 1m-1.72.88l-2.57 1.33m-1.72.9l-2.57 1.3m-1.73.86l-2.7 1.04m-1.84.6l-1.4.4" stroke="#d916a8" stroke-linejoin="round" fill="none"/><path d="M-283-348.97l-.5.02-.05-1 .54-.02z" stroke="#d916a8" stroke-width=".05" fill="#d916a8"/><path d="M-343.4-332.67l13.58-6.37 1.15 9.2z" stroke="#d916a8" fill="#fff"/><defs><path fill="#979ea8" d="M107-780c100 15 51 176 51 272 0 29 23 25 56 24 33-11 175 4 171-42 9-67 4-153 14-224 12-14 39-57 70-50 51 0 74 34 69 103L490-47c-6 28-25 57-57 56-118-5-54-182-54-299 0-34 3-75-15-85-65 6-127 12-191 19-52 29-23 162-29 239C135-7 87 19 22-30 10-48 7-67 13-88c-16-100 8-215 8-322 0-127-9-364 86-370" id="r"/><path fill="#979ea8" d="M330-158c82-22 193-18 286-31 38 11 58 81 24 113-25 24-71 25-116 25-135 0-238 34-358 47C61 7 4-52 15-159c12-113 37-213 32-340-2-59 2-121-2-178-2-44 35-62 81-61 104-31 222-52 345-64 68-7 103 34 111 94 2 12-3 22-9 31-33 14-62 15-103 16-100 2-196 10-270 40h-8c-18 23-11 79-15 106-1 13 5 22 16 25 82-10 176-25 264-12 44 7 78 26 71 72-7 49-76 30-125 30-78 0-138 22-210 29-24 1-35 28-36 52-2 41-10 83-8 126-19 84 122 51 181 35" id="s"/><path fill="#979ea8" d="M103-24C79 10-2-14 8-59c42-186 129-353 193-524 23-62 63-135 99-197 39-38 106-10 109 47 27 100 51 209 81 307 8 25 72 24 72 63 0 44-26 46-37 75 12 83 46 156 55 243 7 63-106 47-114 11-13-58-36-170-57-231-3-4-7-8-9-14-69 4-134 40-198 52-53 21-53 108-81 160-4 16-8 29-18 43zm215-551c-16 18-92 195-73 208 46 2 100-12 123-31-5-30-32-162-38-171-2-3-6-5-12-6" id="t"/><path fill="#979ea8" d="M23-677c-68-88 127-122 212-122 113 0 253 24 291 82 92 144-48 310-153 365-52 27-102 48-161 69-56 20-53 15-58 80-4 49-8 103-13 153-3 31-19 46-43 46-44 0-65-28-63-81 5-162 8-330 16-486 3-53-4-75-28-106zm415 73c0-44-44-66-132-66-78 0-124 8-135 26-10 16-14 89-14 218 0 44 22 39 57 25 83-34 224-115 224-203" id="u"/><g id="a"><use transform="matrix(0.022222222222222223,0,0,0.022222222222222223,0,0)" xlink:href="#r"/><use transform="matrix(0.022222222222222223,0,0,0.022222222222222223,12.022222222222222,0)" xlink:href="#s"/><use transform="matrix(0.022222222222222223,0,0,0.022222222222222223,26.822222222222223,0)" xlink:href="#t"/><use transform="matrix(0.022222222222222223,0,0,0.022222222222222223,39.86666666666667,0)" xlink:href="#u"/></g><path d="M142-52V0h-30v-52H7v-23l115-162h20v160h32v25h-32zm-30-25l-1-119L27-77h85" id="v"/><use transform="matrix(0.06790123456790123,0,0,0.06790123456790123,0,0)" xlink:href="#v" id="b"/><path d="M48-126c45-28 121-18 121 53 0 50-25 77-72 77-63 0-80-54-82-120-3-88 52-142 140-116v40h-12c2-42-66-39-79-8-8 20-16 43-16 74zm0 11c2 50 2 105 49 105 33 0 37-26 40-60 5-60-49-61-89-45" id="w"/><use transform="matrix(0.06790123456790123,0,0,0.06790123456790123,0,0)" xlink:href="#w" id="c"/><path fill="#979ea8" d="M90-239c59 0 76 52 76 120S152 4 89 4C31 4 14-51 14-119c0-67 17-120 76-120zM89-10c45-6 45-58 45-109 0-50 0-101-45-106-45 4-43 57-43 106 0 50-2 104 43 109" id="x"/><use transform="matrix(0.06172839506172839,0,0,0.06172839506172839,0,0)" xlink:href="#x" id="d"/><path fill="#979ea8" d="M110-14l48 5v9H32v-9l48-5v-192l-48 17v-10l69-39h9v224" id="y"/><use transform="matrix(0.06172839506172839,0,0,0.06172839506172839,0,0)" xlink:href="#y" id="e"/><path fill="#979ea8" d="M24-231c66-21 156 2 128 81C132-92 78-66 39-27h121V0H16v-26l59-54c26-25 47-47 47-97 0-48-47-57-81-37l-6 29H24v-46" id="z"/><use transform="matrix(0.06172839506172839,0,0,0.06172839506172839,0,0)" xlink:href="#z" id="f"/><path fill="#6f7681" d="M24-128c0-158-18-313-5-472 6-74-11-192 62-191 78 1 88 68 113 130 59 143 102 191 174 297 50 73 81 109 92 109 8 0 12-3 13-9 24-163 3-322-12-477-6-63 62-76 101-37 65 64 45 212 54 340 10 141 7 304-15 413-8 15-20 23-37 23-76 0-203-132-244-200-33-54-79-109-116-169l4 4c-9-20-41-55-54-51-14 102-5 244 6 344 3 30-15 69-41 68-9 0-28-1-56-3-44-28-39-45-39-119" id="A"/><path fill="#6f7681" d="M109-754c29-56 120 5 113 55-24 164-73 311-76 498 0 44 17 66 52 66 44 0 193-39 283-82 16-8 27-24 32-45 27-114 44-316 44-439 0-57 27-86 82-86 38 0 57 27 57 82 0 195-35 406-61 587 5 33 20 94-14 106-8 12-30 10-67-7-15-20-33-39-52-56C437-54 255 2 210 0 80-5 5-44 13-182c11-186 48-366 83-531 3-12 5-27 13-41" id="B"/><path fill="#6f7681" d="M21-302C-7-136 9 24 196-12c147-28 263-93 386-142 57-23 26-120-26-120-111 32-240 115-378 126-13 1-22-26-25-45 30-174 59-350 88-524 10-62-86-124-120-61-39 73-49 196-69 277-19 77-22 145-31 199" id="C"/><g id="g"><use transform="matrix(0.013333333333333329,0,0,0.013333333333333329,0,0)" xlink:href="#A"/><use transform="matrix(0.013333333333333329,0,0,0.013333333333333329,8.546666666666663,0)" xlink:href="#B"/><use transform="matrix(0.013333333333333329,0,0,0.013333333333333329,17.94666666666666,0)" xlink:href="#C"/><use transform="matrix(0.013333333333333329,0,0,0.013333333333333329,26.37333333333332,0)" xlink:href="#C"/></g><path d="M666-1365c326 0 518 259 518 595 0 178-48 346-145 502C928-89 788 0 621 0 344 0 200-283 200-582c0-169 35-333 107-490 89-196 210-293 359-293zM401-582c0 173 76 381 229 381 86 0 168-71 247-214 71-127 106-239 106-334 0-219-129-422-336-417-153 61-246 349-246 584" id="D"/><path d="M172-1273c0-51 55-92 106-92 37 0 64 24 92 68 37 59 126 327 147 375 45-73 86-148 133-220 69-105 130-155 174-155 52 0 105 52 103 104-20 75-241 385-311 490 18 36 85 160 200 372 65 118 97 196 97 234 1 55-42 97-97 97-43 0-105-70-183-212-15-28-60-122-136-281-43 69-136 292-221 411-25 35-56 50-87 50-84 0-113-73-88-151 12-39 108-216 290-529-146-314-219-501-219-561" id="E"/><path d="M763-737c119 66 232 201 235 370C1002-138 781 0 539 0 307 0 164-187 164-411c0-153 57-265 171-337-87-71-130-164-130-279-1-207 116-338 324-338 198 0 387 157 387 358 0 119-51 209-153 270zM556-879c82 0 159-51 159-133 0-90-87-154-176-154s-133 55-133 164c0 75 73 123 150 123zM367-406c0 89 78 203 167 203 159 0 239-67 239-201 0-94-135-198-227-198-90 0-179 106-179 196" id="F"/><path d="M592-1365c194 7 272 184 272 399 0 120-87 574-93 628-13 114-25 181-30 201C717-46 678 0 625 0c-48 0-101-44-101-92 0-132 51-296 78-415C319-461 53-614 53-877c0-222 314-496 539-488zm-32 194c-138-8-294 169-294 307 0 106 68 159 203 159 53 0 111-8 174-25 14-93 21-185 21-277 1-103-17-159-104-164" id="G"/><path d="M387-1365c369 0 678 217 678 573 0 172-83 346-249 522C647-90 478 0 307 0 194 0 137-80 137-239c0-257 30-558 68-915-53-11-80-43-80-95 0-56 32-93 97-108 26-6 81-8 165-8zm21 204c-15 76-47 491-72 917 0 13 1 27 2 41 116-22 231-92 346-210 120-123 180-241 180-355-1-196-67-277-209-343-74-35-157-50-247-50" id="H"/><path d="M602-1365c226 0 427 132 427 346 0 137-77 248-230 335 105 61 197 186 199 339 3 281-357 407-648 316-78-24-131-56-167-92-63-64-18-172 66-171 17 0 42 10 75 29 69 40 136 60 203 60 99 0 270-46 270-132 0-65-34-119-101-162-30-30-193-73-257-109-51-48-33-144 39-165 105-30 195-49 270-118 51-47 80-92 80-140 0-76-136-135-220-135-54 0-174 34-292 55-51 9-103-51-103-103 0-108 251-153 389-153" id="I"/><path d="M722-1365c155 0 277 78 276 225 0 91-50 195-151 314-48 56-136 140-262 254-171 154-256 259-256 316 0 37 32 55 96 55 103 0 398-64 478-64 48 0 94 55 94 103 0 50-33 87-101 99C773-42 564-1 425 0 221 0 119-76 119-227c0-93 56-204 169-333 46-52 140-144 284-277s216-227 216-283c0-29-23-44-69-44-62 0-148 26-258 77-11 52-41 78-92 78-58 0-103-42-103-100 0-156 283-256 456-256" id="J"/><path d="M111-254c0-80 75-479 73-483 3-23 17-167 40-434-41-20-62-51-62-94 0-67 48-100 145-100 431 0 647 127 647 380 0 161-86 280-258 359 120 81 180 177 180 290 0 173-116 256-272 302C530-12 459 0 391 0 204 0 111-85 111-254zm642-722c0-105-210-177-326-186-9 140-24 282-43 426 246-59 369-139 369-240zm-77 638c-27-89-136-153-326-193-27 162-48 229-34 323 82 18 157 3 237-24 75-26 116-61 123-106" id="K"/><path d="M369 0C201 0 119-119 119-294c0-119 26-272 77-457 80-290 99-377 125-524 7-13 27-26 60-41 71-33 211-49 419-49 129 0 193 36 193 107 0 50-48 105-99 101-142-10-258-9-397 20-11 59-34 158-69 297 146-57 246-85 301-85 53 0 100 43 100 96 0 43-23 80-73 99-127 49-178 54-389 129-29 119-44 224-44 314 0 58 10 87 30 87 66 0 151-30 256-90s173-91 205-91c50 0 101 49 101 99 0 30-19 57-51 87C794-129 500 0 369 0" id="L"/><g id="h"><use transform="matrix(0.004340277777777777,0,0,0.004340277777777777,0,0)" xlink:href="#D"/><use transform="matrix(0.004340277777777777,0,0,0.004340277777777777,6.015624999999999,0)" xlink:href="#E"/><use transform="matrix(0.004340277777777777,0,0,0.004340277777777777,10.451388888888888,0)" xlink:href="#F"/><use transform="matrix(0.004340277777777777,0,0,0.004340277777777777,15.38628472222222,0)" xlink:href="#G"/><use transform="matrix(0.004340277777777777,0,0,0.004340277777777777,19.869791666666664,0)" xlink:href="#H"/><use transform="matrix(0.004340277777777777,0,0,0.004340277777777777,24.787326388888886,0)" xlink:href="#I"/><use transform="matrix(0.004340277777777777,0,0,0.004340277777777777,29.95225694444444,0)" xlink:href="#J"/><use transform="matrix(0.004340277777777777,0,0,0.004340277777777777,35.05642361111111,0)" xlink:href="#K"/><use transform="matrix(0.004340277777777777,0,0,0.004340277777777777,39.56163194444444,0)" xlink:href="#L"/><use transform="matrix(0.004340277777777777,0,0,0.004340277777777777,44.39236111111111,0)" xlink:href="#D"/></g><path d="M200-1365c95 3 162 6 292 6 343 0 515 81 515 243 0 172-258 535-348 706-53 101-82 215-127 338-18 49-50 72-90 72-61 0-126-55-104-125 63-205 151-424 283-648 32-54 84-133 147-241 14-24 20-43 20-56 0-67-104-101-312-101-139 0-364 56-370-92-2-49 45-103 94-102" id="M"/><path d="M324-1236c5 23-37 369-37 466 0 156 45 234 136 234 188 0 282-184 282-553 11-40 18-100 31-177 11-67 49-99 100-99 69 0 103 44 103 133 0 160-19 698-19 858 0 51 8 229 8 280 0 49-51 94-100 94-77 0-115-76-115-227v-230c-84 79-185 119-303 119-217 0-325-140-325-421 0-92 40-385 36-477-2-55 48-97 103-97 54 0 102 42 100 97" id="N"/><path d="M295-1038c-53 2-99-46-99-99 0-31 18-59 51-87 37-32 224-141 280-141 69 0 104 33 104 99v735c-33 116-21 386-54 459-21 48-54 72-99 72-64 1-108-57-94-125 18-88 24-194 24-317 1 31 2-75 2-317v-328c-50 33-88 49-115 49" id="O"/><path d="M922-654c-9 182 20 369 29 555 5 90-140 139-183 58-2-3-13-31-31-85-54-160-191-263-414-306-19 75-30 243-58 360-12 50-51 72-98 72-55 0-99-53-99-108 1-366 195-896 360-1117 69-92 141-140 222-140 182 0 273 207 273 621 0 19 1 49-1 90zM724-476v-400c-20-103-13-145-35-225-11-40-25-60-40-60-32 0-83 65-154 195-56 103-99 215-130 336 137 27 256 79 359 154" id="P"/><g id="i"><use transform="matrix(0.004774305555555554,0,0,0.004774305555555554,0,0)" xlink:href="#D"/><use transform="matrix(0.004774305555555554,0,0,0.004774305555555554,6.617187499999998,0)" xlink:href="#E"/><use transform="matrix(0.004774305555555554,0,0,0.004774305555555554,11.496527777777775,0)" xlink:href="#M"/><use transform="matrix(0.004774305555555554,0,0,0.004774305555555554,16.65277777777777,0)" xlink:href="#N"/><use transform="matrix(0.004774305555555554,0,0,0.004774305555555554,22.15277777777777,0)" xlink:href="#K"/><use transform="matrix(0.004774305555555554,0,0,0.004774305555555554,27.108506944444436,0)" xlink:href="#O"/><use transform="matrix(0.004774305555555554,0,0,0.004774305555555554,31.118923611111097,0)" xlink:href="#H"/><use transform="matrix(0.004774305555555554,0,0,0.004774305555555554,36.52821180555554,0)" xlink:href="#J"/><use transform="matrix(0.004774305555555554,0,0,0.004774305555555554,42.14279513888887,0)" xlink:href="#G"/><use transform="matrix(0.004774305555555554,0,0,0.004774305555555554,47.07465277777776,0)" xlink:href="#P"/></g><path fill="#979ea8" d="M371-533c189 0 256 55 239 237-9 91-67 138-157 205C374-33 301-7 236-7 155-7 13-82 18-160c3-44 62-73 96-38 43 44 152 73 218 29 77-51 166-125 156-169 2-44-67-63-119-62-47 1-108 1-155 3C87-393 13-429 1-531c11-87 101-150 165-187 90-52 160-96 290-87 34 2 118 78 115 115-3 35-23 38-55 45-15 4-26-4-33-24-37-64-116-1-164 12-41 11-154 77-154 113 0 15 14 22 41 22 45 0 127-11 165-11" id="Q"/><path fill="#979ea8" d="M382-556c-3 158-18 304-18 470 0 31 6 72-21 86-20 35-87 21-104-6-1-188 14-367 23-549 1-24 13-80-17-80-77 0-131 31-210 31-15-10-43-18-33-45 0-82 83-94 148-109 103-23 215-12 315-40 43-12 91-17 142-23 62-8 95 53 77 116-8 28-47 14-75 18-68 9-134 10-195 30-32 11-31 60-32 101" id="R"/><path fill="#979ea8" d="M521-275c40-33 108-24 108 34 0 49-75 103-210 183-80 47-247 72-323 10-66-54-95-101-82-218 12-106 41-136 91-224 55-96 145-209 240-278 32-23 68-33 107-33 86 2 108 61 107 158 0 55-15 82-44 82-55 1-25-116-79-110-132 15-229 223-291 334-48 86-31 226 81 218 122-9 217-92 295-156" id="S"/><path fill="#979ea8" d="M583 1c26 5 52-17 51-41 24-60-22-103-43-144-74-69-132-138-184-228-37-64 44-88 81-120 65-56 138-104 195-168 35-39 5-108-40-113-66 17-104 68-150 105-81 65-158 127-245 187-18 12-48 33-70 13-6-6-8-14-7-23 3-63 18-122 28-181-3-53-39-88-92-91-82 12-51 140-71 216 1 133-13 257-20 381-3 58-27 167 27 193 35 29 78-2 98-20 30-59 16-164 24-251 3-31 38-61 73-59 78 41 118 121 174 184 38 44 71 96 112 139 15 15 32 34 59 21" id="T"/><g id="j"><use transform="matrix(0.022222222222222223,0,0,0.022222222222222223,0,0)" xlink:href="#Q"/><use transform="matrix(0.022222222222222223,0,0,0.022222222222222223,12.666666666666668,0)" xlink:href="#R"/><use transform="matrix(0.022222222222222223,0,0,0.022222222222222223,27.91111111111111,0)" xlink:href="#t"/><use transform="matrix(0.022222222222222223,0,0,0.022222222222222223,40.955555555555556,0)" xlink:href="#S"/><use transform="matrix(0.022222222222222223,0,0,0.022222222222222223,55.044444444444444,0)" xlink:href="#T"/></g><path fill="#979ea8" d="M104-123c39 3 61 21 62 59C167 7 83 12 19-4l-2-50h12c2 29 16 43 51 43 38 0 54-19 54-55 2-43-34-49-75-50v-14c37 0 64-7 64-48 0-47-47-56-81-36l-6 29H24v-46c51-13 135-13 131 51-2 34-20 52-51 57" id="U"/><use transform="matrix(0.06172839506172839,0,0,0.06172839506172839,0,0)" xlink:href="#U" id="k"/><path fill="#979ea8" d="M142-52V0h-30v-52H7v-23l115-162h20v160h32v25h-32zm-30-25l-1-119L27-77h85" id="V"/><use transform="matrix(0.06172839506172839,0,0,0.06172839506172839,0,0)" xlink:href="#V" id="l"/><path fill="#979ea8" d="M134-68c4-52-44-63-88-51H29v-117h119v27H45v75c60-10 121-2 121 64C166 3 87 15 23-4l-2-50h12c1 28 14 43 47 43 39 0 51-20 54-57" id="W"/><use transform="matrix(0.06172839506172839,0,0,0.06172839506172839,0,0)" xlink:href="#W" id="m"/><path d="M773-362c52-3 103 50 103 101 0 27-17 56-48 89C762-102 548 0 418 0 210 0 81-204 84-422c3-221 73-486 152-640 103-201 220-303 358-303 167 0 251 128 251 385 0 123-35 185-106 185-48 0-101-46-99-94 2-77 27-278-39-278-46 0-94 47-150 138-89 144-168 415-168 602 0 146 56 219 169 219 46 0 106-26 180-77s122-77 141-77" id="X"/><path d="M457-877c340-69 656 129 656 435C1113-201 859 0 613 0 335 0 184-205 184-495c0-227 70-468 210-724 53-97 102-146 147-146 52 0 111 45 104 97-8 57-146 305-188 391zm163 674c127 0 293-116 293-242 0-134-166-244-304-244-63 0-133 13-210 39-10 73-15 126-15 160-1 165 79 287 236 287" id="Y"/><g id="n"><use transform="matrix(0.004774305555555555,0,0,0.004774305555555555,0,0)" xlink:href="#D"/><use transform="matrix(0.004774305555555555,0,0,0.004774305555555555,6.617187499999999,0)" xlink:href="#E"/><use transform="matrix(0.004774305555555555,0,0,0.004774305555555555,11.496527777777777,0)" xlink:href="#G"/><use transform="matrix(0.004774305555555555,0,0,0.004774305555555555,16.428385416666664,0)" xlink:href="#X"/><use transform="matrix(0.004774305555555555,0,0,0.004774305555555555,21.049913194444443,0)" xlink:href="#D"/><use transform="matrix(0.004774305555555555,0,0,0.004774305555555555,27.667100694444443,0)" xlink:href="#G"/><use transform="matrix(0.004774305555555555,0,0,0.004774305555555555,32.59895833333333,0)" xlink:href="#D"/><use transform="matrix(0.004774305555555555,0,0,0.004774305555555555,39.21614583333333,0)" xlink:href="#Y"/><use transform="matrix(0.004774305555555555,0,0,0.004774305555555555,45.408420138888886,0)" xlink:href="#P"/><use transform="matrix(0.004774305555555555,0,0,0.004774305555555555,50.507378472222214,0)" xlink:href="#G"/></g><path d="M481-742c281-32 557 107 557 358C1038-128 813 0 362 0 224 0 155-38 155-114c0-61 58-91 174-91 32-1 131 6 163 5 229 0 343-61 343-184 0-118-238-150-395-150-87 0-151-93-191-278-25-117-37-247-37-388 0-70 74-96 155-112 168-33 354-53 560-53 48 0 90 51 90 99 0 50-32 86-99 100-116 25-421 33-500 53 9 158 30 282 63 371" id="Z"/><g id="o"><use transform="matrix(0.004340277777777777,0,0,0.004340277777777777,0,0)" xlink:href="#D"/><use transform="matrix(0.004340277777777777,0,0,0.004340277777777777,6.015624999999999,0)" xlink:href="#E"/><use transform="matrix(0.004340277777777777,0,0,0.004340277777777777,10.451388888888888,0)" xlink:href="#M"/><use transform="matrix(0.004340277777777777,0,0,0.004340277777777777,15.138888888888886,0)" xlink:href="#Z"/><use transform="matrix(0.004340277777777777,0,0,0.004340277777777777,20.338541666666664,0)" xlink:href="#Y"/><use transform="matrix(0.004340277777777777,0,0,0.004340277777777777,25.967881944444443,0)" xlink:href="#P"/><use transform="matrix(0.004340277777777777,0,0,0.004340277777777777,30.603298611111107,0)" xlink:href="#P"/><use transform="matrix(0.004340277777777777,0,0,0.004340277777777777,35.23871527777777,0)" xlink:href="#I"/><use transform="matrix(0.004340277777777777,0,0,0.004340277777777777,40.40364583333333,0)" xlink:href="#G"/><use transform="matrix(0.004340277777777777,0,0,0.004340277777777777,44.88715277777777,0)" xlink:href="#X"/></g><path fill="#ba23f6" d="M829-1263c0-55 42-106 96-102 141 10 133 224 150 372 25 219 36 341 36 365 0 117-18 227-55 328C983-97 875 5 732 5 532 5 402-187 343-570c-16 123-24 243-24 360C319-70 282 0 207 0c-53 0-99-44-99-97 0-315 85-1025 186-1197 27-46 56-71 93-71 53 0 88 33 105 99 5 21 8 92 8 213 0 153 26 313 55 481 43 253 101 379 172 379 116 0 183-303 183-438 0-120-81-513-81-632" id="aa"/><path fill="#ba23f6" d="M609-1364c323 0 519 229 519 557 0 183-51 357-152 522C860-95 716 0 544 0 271 0 97-283 97-570c0-191 38-362 113-512 95-188 228-282 399-282zm319 550c0-231-116-347-349-347-81 0-151 81-210 243-48 132-72 248-72 348 0 161 47 272 142 333 35 23 69 34 100 34 113 0 208-76 287-229 68-131 102-258 102-382" id="ab"/><path fill="#ba23f6" d="M387-1365c369 0 678 217 678 573 0 172-83 346-249 522C647-90 478 0 307 0 194 0 137-80 137-239c0-257 30-558 68-915-53-11-80-43-80-95 0-56 32-93 97-108 26-6 81-8 165-8zm21 204c-15 76-47 491-72 917 0 13 1 27 2 41 116-22 231-92 346-210 120-123 180-241 180-355-1-196-67-277-209-343-74-35-157-50-247-50" id="ac"/><g id="p"><use transform="matrix(0.006510416666666664,0,0,0.006510416666666664,0,0)" xlink:href="#aa"/><use transform="matrix(0.006510416666666664,0,0,0.006510416666666664,7.968749999999997,0)" xlink:href="#ab"/><use transform="matrix(0.006510416666666664,0,0,0.006510416666666664,15.911458333333327,0)" xlink:href="#ac"/><use transform="matrix(0.006510416666666664,0,0,0.006510416666666664,23.287760416666657,0)" xlink:href="#ab"/></g><path fill="#ba23f6" d="M369 0C201 0 119-119 119-294c0-119 26-272 77-457 80-290 99-377 125-524 7-13 27-26 60-41 71-33 211-49 419-49 129 0 193 36 193 107 0 50-48 105-99 101-142-10-258-9-397 20-11 59-34 158-69 297 146-57 246-85 301-85 53 0 100 43 100 96 0 43-23 80-73 99-127 49-178 54-389 129-29 119-44 224-44 314 0 58 10 87 30 87 66 0 151-30 256-90s173-91 205-91c50 0 101 49 101 99 0 30-19 57-51 87C794-129 500 0 369 0" id="ad"/><path fill="#ba23f6" d="M773-362c52-3 103 50 103 101 0 27-17 56-48 89C762-102 548 0 418 0 210 0 81-204 84-422c3-221 73-486 152-640 103-201 220-303 358-303 167 0 251 128 251 385 0 123-35 185-106 185-48 0-101-46-99-94 2-77 27-278-39-278-46 0-94 47-150 138-89 144-168 415-168 602 0 146 56 219 169 219 46 0 106-26 180-77s122-77 141-77" id="ae"/><path fill="#ba23f6" d="M46-1227c0-128 188-119 328-120 79-1 391-35 488-35 99 0 148 35 148 105 0 65-48 98-145 98-76 0-153 3-232 8 1 179-14 796-13 976C622-79 604-4 510 0c-53 2-99-44-99-97v-270c21-312 24-505 22-785-143 13-240 20-291 20-64 0-96-32-96-95" id="af"/><path fill="#ba23f6" d="M432-1365c342 0 623 232 623 568 0 219-132 374-395 466 145 90 217 167 217 230 0 52-52 98-104 96-17 0-39-10-66-29-90-65-203-166-304-203v78C403-53 368 0 299 0c-53 0-99-44-99-97v-374c17-145 25-361 25-650-2 5-10 7-24 7-53 2-99-46-99-99 0-112 194-152 330-152zm257 786c221-128 209-317 21-469-89-71-178-111-268-119-1 97-2 329-2 698 90-27 172-66 249-110" id="ag"/><path fill="#ba23f6" d="M922-654c-9 182 20 369 29 555 5 90-140 139-183 58-2-3-13-31-31-85-54-160-191-263-414-306-19 75-30 243-58 360-12 50-51 72-98 72-55 0-99-53-99-108 1-366 195-896 360-1117 69-92 141-140 222-140 182 0 273 207 273 621 0 19 1 49-1 90zM724-476v-400c-20-103-13-145-35-225-11-40-25-60-40-60-32 0-83 65-154 195-56 103-99 215-130 336 137 27 256 79 359 154" id="ah"/><g id="q"><use transform="matrix(0.006510416666666664,0,0,0.006510416666666664,0,0)" xlink:href="#ad"/><use transform="matrix(0.006510416666666664,0,0,0.006510416666666664,7.246093749999997,0)" xlink:href="#aa"/><use transform="matrix(0.006510416666666664,0,0,0.006510416666666664,15.214843749999995,0)" xlink:href="#ae"/><use transform="matrix(0.006510416666666664,0,0,0.006510416666666664,21.516927083333325,0)" xlink:href="#ab"/><use transform="matrix(0.006510416666666664,0,0,0.006510416666666664,29.459635416666657,0)" xlink:href="#aa"/><use transform="matrix(0.006510416666666664,0,0,0.006510416666666664,37.42838541666666,0)" xlink:href="#af"/><use transform="matrix(0.006510416666666664,0,0,0.006510416666666664,44.316406249999986,0)" xlink:href="#ag"/><use transform="matrix(0.006510416666666664,0,0,0.006510416666666664,51.595052083333314,0)" xlink:href="#ah"/><use transform="matrix(0.006510416666666664,0,0,0.006510416666666664,58.548177083333314,0)" xlink:href="#ac"/><use transform="matrix(0.006510416666666664,0,0,0.006510416666666664,65.92447916666664,0)" xlink:href="#ab"/></g></defs></g></svg>