<svg xmlns="http://www.w3.org/2000/svg" xmlns:xlink="http://www.w3.org/1999/xlink" xmlns:lucid="lucid" width="494.7" height="301.9"><g transform="translate(-582.5 460.5)" lucid:page-tab-id="0_0"><path d="M603-394a6 6 0 0 1 6-6h108a6 6 0 0 1 6 6v28a6 6 0 0 1-6 6H609a6 6 0 0 1-6-6z" fill="#fff"/><path d="M603.9-397.13l.25-.4.6-.7.72-.62.4-.25m1.73-.72l.46-.1.94-.08h1.47m1.97 0h2.94m1.97 0h2.94m1.96 0h2.94m1.96 0h2.95m1.97 0h2.95m1.96 0h2.95m1.96 0h2.94m1.96 0h2.95m1.96 0h2.95m1.97 0h2.94m1.97 0h2.94m1.97 0h2.94m1.97 0h2.94m1.96 0h2.94m1.96 0h2.95m1.97 0h2.95m1.96 0h2.95m1.96 0h2.94m1.96 0h2.95m1.96 0h2.95m1.97 0h2.94m1.97 0H717l.94.07.46.1m1.73.73l.4.25.7.6.62.72.25.4m.72 1.73l.1.46.08.94v1.4m0 1.87v2.8m0 1.86v2.8m0 1.87v2.8m0 1.87v2.8m0 1.86v2.8m0 1.87v1.4l-.07.94-.1.46m-.73 1.73l-.25.4-.6.7-.72.62-.4.25m-1.73.72l-.46.1-.94.08h-1.47m-1.97 0h-2.94m-1.97 0h-2.94m-1.96 0h-2.94m-1.96 0h-2.95m-1.97 0h-2.95m-1.96 0h-2.95m-1.96 0h-2.94m-1.96 0h-2.95m-1.96 0h-2.95m-1.97 0h-2.94m-1.97 0h-2.94m-1.97 0h-2.94m-1.97 0h-2.94m-1.96 0h-2.94m-1.96 0h-2.95m-1.97 0h-2.95m-1.96 0h-2.95m-1.96 0h-2.94m-1.96 0h-2.95m-1.96 0h-2.95m-1.97 0h-2.94m-1.97 0H609l-.94-.07-.46-.1m-1.73-.73l-.4-.25-.7-.6-.62-.72-.25-.4m-.72-1.73l-.1-.46-.08-.94v-1.4m0-1.87v-2.8m0-1.86v-2.8m0-1.87v-2.8m0-1.87v-2.8m0-1.86v-2.8m0-1.87v-1.4l.07-.94.1-.46" stroke="#d916a8" fill="none"/><use xlink:href="#a" transform="matrix(1,0,0,1,608,-395) translate(16.99544270833333 20.9765625)"/><path d="M603-336.96a6 6 0 0 1 6-6h108a6 6 0 0 1 6 6v28a6 6 0 0 1-6 6H609a6 6 0 0 1-6-6z" fill="#fff"/><path d="M603.9-340.1l.25-.4.6-.7.72-.62.4-.24m1.73-.72l.46-.1.94-.08h1.47m1.97 0h2.94m1.97 0h2.94m1.96 0h2.94m1.96 0h2.95m1.97 0h2.95m1.96 0h2.95m1.96 0h2.94m1.96 0h2.95m1.96 0h2.95m1.97 0h2.94m1.97 0h2.94m1.97 0h2.94m1.97 0h2.94m1.96 0h2.94m1.96 0h2.95m1.97 0h2.95m1.96 0h2.95m1.96 0h2.94m1.96 0h2.95m1.96 0h2.95m1.97 0h2.94m1.97 0H717l.94.07.46.12m1.73.72l.4.25.7.6.62.7.25.4m.72 1.74l.1.46.08.94v1.4m0 1.87v2.8m0 1.87v2.8m0 1.87v2.8m0 1.87v2.8m0 1.87v2.8m0 1.87v1.4l-.07.94-.1.45m-.73 1.73l-.25.4-.6.72-.72.6-.4.26m-1.73.72l-.46.1-.94.08h-1.47m-1.97 0h-2.94m-1.97 0h-2.94m-1.96 0h-2.94m-1.96 0h-2.95m-1.97 0h-2.95m-1.96 0h-2.95m-1.96 0h-2.94m-1.96 0h-2.95m-1.96 0h-2.95m-1.97 0h-2.94m-1.97 0h-2.94m-1.97 0h-2.94m-1.97 0h-2.94m-1.96 0h-2.94m-1.96 0h-2.95m-1.97 0h-2.95m-1.96 0h-2.95m-1.96 0h-2.94m-1.96 0h-2.95m-1.96 0h-2.95m-1.97 0h-2.94m-1.97 0H609l-.94-.08-.46-.1m-1.73-.72l-.4-.25-.7-.62-.62-.7-.25-.42m-.72-1.73l-.1-.45-.08-.94v-1.4m0-1.87v-2.8m0-1.86v-2.8m0-1.86v-2.8m0-1.87v-2.8m0-1.86v-2.8m0-1.86v-1.4l.07-.94.1-.46" stroke="#d916a8" fill="none"/><use xlink:href="#b" transform="matrix(1,0,0,1,608,-337.9611597766532) translate(18.209635416666664 20.9765625)"/><path d="M603-234a6 6 0 0 1 6-6h108a6 6 0 0 1 6 6v28a6 6 0 0 1-6 6H609a6 6 0 0 1-6-6z" fill="#fff"/><path d="M603.9-237.13l.25-.4.6-.7.72-.62.4-.25m1.73-.72l.46-.1.94-.08h1.47m1.97 0h2.94m1.97 0h2.94m1.96 0h2.94m1.96 0h2.95m1.97 0h2.95m1.96 0h2.95m1.96 0h2.94m1.96 0h2.95m1.96 0h2.95m1.97 0h2.94m1.97 0h2.94m1.97 0h2.94m1.97 0h2.94m1.96 0h2.94m1.96 0h2.95m1.97 0h2.95m1.96 0h2.95m1.96 0h2.94m1.96 0h2.95m1.96 0h2.95m1.97 0h2.94m1.97 0H717l.94.07.46.1m1.73.73l.4.25.7.6.62.72.25.4m.72 1.73l.1.46.08.94v1.4m0 1.87v2.8m0 1.86v2.8m0 1.87v2.8m0 1.87v2.8m0 1.86v2.8m0 1.87v1.4l-.07.94-.1.46m-.73 1.72l-.25.4-.6.72-.72.6-.4.26m-1.73.72l-.46.1-.94.08h-1.47m-1.97 0h-2.94m-1.97 0h-2.94m-1.96 0h-2.94m-1.96 0h-2.95m-1.97 0h-2.95m-1.96 0h-2.95m-1.96 0h-2.94m-1.96 0h-2.95m-1.96 0h-2.95m-1.97 0h-2.94m-1.97 0h-2.94m-1.97 0h-2.94m-1.97 0h-2.94m-1.96 0h-2.94m-1.96 0h-2.95m-1.97 0h-2.95m-1.96 0h-2.95m-1.96 0h-2.94m-1.96 0h-2.95m-1.96 0h-2.95m-1.97 0h-2.94m-1.97 0H609l-.94-.07-.46-.1m-1.73-.73l-.4-.25-.7-.6-.62-.72-.25-.4m-.72-1.73l-.1-.46-.08-.94v-1.4m0-1.87v-2.8m0-1.86v-2.8m0-1.87v-2.8m0-1.87v-2.8m0-1.86v-2.8m0-1.87v-1.4l.07-.94.1-.46" stroke="#d916a8" fill="none"/><use xlink:href="#c" transform="matrix(1,0,0,1,608,-235) translate(19.928385416666664 20.9765625)"/><path d="M666-288.92c0 1.66-1.34 3-3 3s-3-1.34-3-3 1.34-3 3-3 3 1.34 3 3zM666-271.88c0 1.65-1.34 3-3 3s-3-1.35-3-3c0-1.66 1.34-3 3-3s3 1.34 3 3zM666-254.44c0 1.66-1.34 3-3 3s-3-1.34-3-3 1.34-3 3-3 3 1.34 3 3z" stroke="#000" stroke-width="3"/><path d="M614.5-431.04a6 6 0 0 1 6-6h85a6 6 0 0 1 6 6v8a6 6 0 0 1-6 6h-85a6 6 0 0 1-6-6z" fill="none"/><use xlink:href="#d" transform="matrix(1,0,0,1,614.5,-437.0388402233468) translate(25.250217013888893 16.311848958333332)"/><path d="M795.64-361a6 6 0 0 1-6-6v-11a6 6 0 0 1 6-6h11a6 6 0 0 1 6 6v11a6 6 0 0 1-6 6z" stroke="#000" fill="#dedeff"/><path d="M801.14-377.5c2.76 0 5 2.24 5 5s-2.24 5-5 5-5-2.24-5-5 2.24-5 5-5z" stroke="#000"/><path d="M770.13-377a6 6 0 0 1 6-6h4a6 6 0 0 1 6 6v10a6 6 0 0 1-6 6h-4a6 6 0 0 1-6-6z" fill="none"/><use xlink:href="#e" transform="matrix(1,0,0,1,770.1349621826995,-382.99999999999994) translate(2.9444444444444446 17.77777777777778)"/><path d="M770.13-355a6 6 0 0 1 6-6h4a6 6 0 0 1 6 6v10a6 6 0 0 1-6 6h-4a6 6 0 0 1-6-6z" fill="none"/><use xlink:href="#f" transform="matrix(1,0,0,1,770.1349621826995,-361) translate(2.9444444444444446 17.77777777777778)"/><path d="M769.75-333a6 6 0 0 1 6-6h4a6 6 0 0 1 6 6v10a6 6 0 0 1-6 6h-4a6 6 0 0 1-6-6z" fill="none"/><use xlink:href="#g" transform="matrix(1,0,0,1,769.7532957275671,-339) translate(2.9444444444444446 17.77777777777778)"/><path d="M795.64-337a6 6 0 0 1-6-6v-11a6 6 0 0 1 6-6h11a6 6 0 0 1 6 6v11a6 6 0 0 1-6 6z" stroke="#000" fill="#dedeff"/><path d="M801.14-353.5c2.76 0 5 2.24 5 5s-2.24 5-5 5-5-2.24-5-5 2.24-5 5-5z" stroke="#000"/><path d="M795.64-313a6 6 0 0 1-6-6v-11a6 6 0 0 1 6-6h11a6 6 0 0 1 6 6v11a6 6 0 0 1-6 6z" stroke="#000" fill="#dedeff"/><path d="M801.14-329.5c2.76 0 5 2.24 5 5s-2.24 5-5 5-5-2.24-5-5 2.24-5 5-5z" stroke="#000"/><path d="M795.64-228.44a6 6 0 0 1-6-6v-11a6 6 0 0 1 6-6h11a6 6 0 0 1 6 6v11a6 6 0 0 1-6 6z" stroke="#000" fill="#dedeff"/><path d="M801.14-244.94c2.76 0 5 2.24 5 5s-2.24 5-5 5-5-2.24-5-5 2.24-5 5-5z" stroke="#000"/><path d="M804.5-302.5c0 1.66-1.34 3-3 3s-3-1.34-3-3 1.34-3 3-3 3 1.34 3 3zM804.5-285.46c0 1.66-1.34 3-3 3s-3-1.34-3-3 1.34-3 3-3 3 1.34 3 3zM804.5-268.02c0 1.66-1.34 3-3 3s-3-1.34-3-3 1.34-3 3-3 3 1.34 3 3z" stroke="#000" stroke-width="3"/><path d="M768-246.55a6 6 0 0 1 6-6h4a6 6 0 0 1 6 6v10a6 6 0 0 1-6 6h-4a6 6 0 0 1-6-6z" fill="none"/><use xlink:href="#h" transform="matrix(1,0,0,1,768.0006360101294,-252.55412794104598) translate(2.9444444444444446 17.77777777777778)"/><path d="M724.5-379.9l.1.02.22.05.22.06.22.07.23.1.22.08.24.12.24.12.25.15.26.16.28.2.3.2.28.25.32.28.33.33.36.37.38.44.4.52.46.62.5.74.53.9.6 1.1.7 1.38.77 1.77.92 2.32 1.1 3.16 1.35 4.53 1.77 6.95 2.63 12.52 12.8 72.4 1.76 6.94 1.35 4.52.63 1.8" stroke="#979ea8" stroke-width="2" stroke-linejoin="round" fill="none"/><path d="M724.55-380.98l-.04 2-1-.02v-2z" stroke="#979ea8" stroke-width=".05" fill="#979ea8"/><path d="M766-243.48l-12.43-8.38 7.3-5.7z" stroke="#979ea8" stroke-width="2" fill="#979ea8"/><path d="M724.5-323l.8-.06 1.64-.26 1.58-.44 1.54-.6 1.56-.82 1.62-1.1 1.75-1.46 1.97-2.07 2.44-3.18 3.76-6.18 11.07-20.42.68-.88" stroke="#979ea8" stroke-width="2" stroke-linejoin="round" fill="none"/><path d="M724.58-322.02l-1.08.06v-2l.97-.05z" stroke="#979ea8" stroke-width=".05" fill="#979ea8"/><path d="M767.36-367.93l-9.85 11.3-4.76-7.94z" stroke="#979ea8" stroke-width="2" fill="#979ea8"/><path d="M724.5-220.07h.03l.34-.06.34-.07.35-.1.34-.1.34-.13.35-.14.34-.17.37-.2.4-.23.38-.26.4-.3.44-.35.46-.4.48-.47.5-.55.57-.66.6-.78.66-.95.72-1.16.83-1.46.94-1.86 1.08-2.45 1.32-3.37 1.66-4.9 2.32-8.1 13.4-56.08 1.67-4.9 1.32-3.38.14-.3" stroke="#979ea8" stroke-width="2" stroke-linejoin="round" fill="none"/><path d="M724.55-219.02l-1.05.02v-2l1-.02z" stroke="#979ea8" stroke-width=".05" fill="#979ea8"/><path d="M767.5-324.26l-6.54 13.5-6.68-6.43z" stroke="#979ea8" stroke-width="2" fill="#979ea8"/><path d="M849.84-394a6 6 0 0 1 6-6H974a6 6 0 0 1 6 6v28a6 6 0 0 1-6 6H855.84a6 6 0 0 1-6-6z" stroke="#000" fill="#ffdda6"/><path d="M860.16-389.87a6 6 0 0 1 6-6h18a6 6 0 0 1 6 6v18a6 6 0 0 1-6 6h-18a6 6 0 0 1-6-6zM900-389.87a6 6 0 0 1 6-6h18a6 6 0 0 1 6 6v18a6 6 0 0 1-6 6h-18a6 6 0 0 1-6-6z" stroke="#000" fill="#fff3d9"/><path d="M884.16-380.87c0 4.97-4.03 9-9 9s-9-4.03-9-9 4.03-9 9-9 9 4.03 9 9zM924-380.87c0 4.97-4.03 9-9 9s-9-4.03-9-9 4.03-9 9-9 9 4.03 9 9z" stroke="#000"/><path d="M807.65-372.56l5.67-.33 7.2-1.3 10.67-2.6" stroke="#979ea8" stroke-width="2" stroke-linejoin="round" fill="none"/><path d="M807.73-371.56l-1.4.08.32-.98-.16-1.03 1.12-.06z" stroke="#979ea8" stroke-width=".05" fill="#979ea8"/><path d="M846.15-379.44l-13.24 7.04-1.6-9.13z" stroke="#979ea8" stroke-width="2" fill="#979ea8"/><path d="M807.65-324.46l23.2.83" stroke="#979ea8" stroke-width="2" stroke-linejoin="round" fill="none"/><path d="M807.7-325.46l-.06 2-1.3-.05.3-.96-.15-1.05z" stroke="#979ea8" stroke-width=".05" fill="#979ea8"/><path d="M846.1-323.08l-14.42 4.12.34-9.26z" stroke="#979ea8" stroke-width="2" fill="#979ea8"/><path d="M807.65-239.98l23.2-.88" stroke="#979ea8" stroke-width="2" stroke-linejoin="round" fill="none"/><path d="M807.7-238.98l-1.36.05.3-.97-.15-1.04 1.14-.04z" stroke="#979ea8" stroke-width=".05" fill="#979ea8"/><path d="M846.1-241.43l-14.08 5.17-.35-9.27z" stroke="#979ea8" stroke-width="2" fill="#979ea8"/><path d="M939.84-389a6 6 0 0 1 6-6h18a6 6 0 0 1 6 6v18a6 6 0 0 1-6 6h-18a6 6 0 0 1-6-6z" stroke="#000" fill="#fff3d9"/><path d="M963.84-380c0 4.97-4.03 9-9 9s-9-4.03-9-9 4.03-9 9-9 9 4.03 9 9z" stroke="#000"/><path d="M849.84-336.96a6 6 0 0 1 6-6H974a6 6 0 0 1 6 6v28a6 6 0 0 1-6 6H855.84a6 6 0 0 1-6-6z" stroke="#000" fill="#ffdda6"/><path d="M860.16-332.83a6 6 0 0 1 6-6h18a6 6 0 0 1 6 6v18a6 6 0 0 1-6 6h-18a6 6 0 0 1-6-6zM900-332.83a6 6 0 0 1 6-6h18a6 6 0 0 1 6 6v18a6 6 0 0 1-6 6h-18a6 6 0 0 1-6-6z" stroke="#000" fill="#fff3d9"/><path d="M884.16-323.83c0 4.97-4.03 9-9 9s-9-4.03-9-9 4.03-9 9-9 9 4.03 9 9zM924-323.83c0 4.97-4.03 9-9 9s-9-4.03-9-9 4.03-9 9-9 9 4.03 9 9z" stroke="#000"/><path d="M939.84-331.96a6 6 0 0 1 6-6h18a6 6 0 0 1 6 6v18a6 6 0 0 1-6 6h-18a6 6 0 0 1-6-6z" stroke="#000" fill="#fff3d9"/><path d="M963.84-322.96c0 4.97-4.03 9-9 9s-9-4.03-9-9 4.03-9 9-9 9 4.03 9 9z" stroke="#000"/><path d="M849.92-255.55a6 6 0 0 1 6-6h118.16a6 6 0 0 1 6 6v28a6 6 0 0 1-6 6H855.92a6 6 0 0 1-6-6z" stroke="#000" fill="#ffdda6"/><path d="M860.24-251.42a6 6 0 0 1 6-6h18a6 6 0 0 1 6 6v18a6 6 0 0 1-6 6h-18a6 6 0 0 1-6-6zM900.08-251.42a6 6 0 0 1 6-6h18a6 6 0 0 1 6 6v18a6 6 0 0 1-6 6h-18a6 6 0 0 1-6-6z" stroke="#000" fill="#fff3d9"/><path d="M884.24-242.42c0 4.97-4.03 9-9 9s-9-4.03-9-9c0-4.98 4.03-9 9-9s9 4.02 9 9zM924.08-242.42c0 4.97-4.03 9-9 9s-9-4.03-9-9c0-4.98 4.03-9 9-9s9 4.02 9 9z" stroke="#000"/><path d="M939.92-250.55a6 6 0 0 1 6-6h18a6 6 0 0 1 6 6v18a6 6 0 0 1-6 6h-18a6 6 0 0 1-6-6z" stroke="#000" fill="#fff3d9"/><path d="M963.92-241.55c0 4.97-4.03 9-9 9s-9-4.03-9-9 4.03-9 9-9 9 4.03 9 9z" stroke="#000"/><path d="M912.68-434a6 6 0 0 1 6-6h39.16a6 6 0 0 1 6 6v8a6 6 0 0 1-6 6h-39.16a6 6 0 0 1-6-6z" fill="#fff"/><path d="M913.58-437.13l.25-.4.6-.7.72-.62.4-.25m1.73-.72l.46-.1.94-.08h1.47m1.96 0h2.94m1.96 0h2.94m1.95 0h2.93m1.96 0h2.93m1.96 0h2.92m1.96 0h2.94m1.96 0h2.93m1.97 0h1.47l.94.07.46.1m1.73.73l.4.25.7.6.62.72.24.4m.72 1.73l.1.46.08.94v1.2m0 1.6v2.4m0 1.6v1.2l-.08.94-.1.46m-.72 1.73l-.25.4-.62.7-.7.62-.4.25m-1.74.72l-.46.1-.94.08h-1.47m-1.96 0h-2.92m-1.96 0h-2.94m-1.96 0h-2.93m-1.97 0h-2.94m-1.97 0h-2.94m-1.96 0H927m-1.96 0h-2.93m-1.95 0h-1.47l-.94-.07-.46-.1m-1.73-.73l-.4-.25-.7-.6-.63-.72-.24-.4m-.72-1.73l-.1-.46-.08-.94v-1.2m0-1.6v-2.4m0-1.6v-1.2l.07-.94.1-.46" stroke="#d916a8" fill="none"/><use xlink:href="#i" transform="matrix(1,0,0,1,917.6787030520263,-435) translate(2.6048177083333357 7.988281249999998)"/><path d="M848.84-434a6 6 0 0 1 6-6H894a6 6 0 0 1 6 6v8a6 6 0 0 1-6 6h-39.16a6 6 0 0 1-6-6z" fill="#fff"/><path d="M849.74-437.13l.25-.4.6-.7.7-.62.4-.25m1.74-.72l.46-.1.94-.08h1.47m1.97 0h2.93m1.96 0h2.94m1.96 0H871m1.95 0h2.94m1.95 0h2.93m1.96 0h2.94m1.96 0h2.93m1.96 0H894l.94.07.46.1m1.73.73l.4.25.7.6.62.72.25.4m.72 1.73l.1.46.08.94v1.2m0 1.6v2.4m0 1.6v1.2l-.07.94-.1.46m-.73 1.73l-.25.4-.6.7-.72.62-.4.25m-1.73.72l-.46.1-.94.08h-1.47m-1.96 0h-2.93m-1.96 0h-2.94m-1.96 0h-2.93m-1.96 0h-2.95m-1.96 0h-2.94m-1.96 0h-2.94m-1.96 0h-2.93m-1.96 0h-1.46l-.94-.07-.46-.1m-1.73-.73l-.4-.25-.7-.6-.62-.72-.24-.4m-.72-1.73l-.1-.46-.08-.94v-1.2m0-1.6v-2.4m0-1.6v-1.2l.07-.94.12-.46" stroke="#d916a8" fill="none"/><use xlink:href="#j" transform="matrix(1,0,0,1,853.8393515260132,-435) translate(11.836588541666668 7.988281249999998)"/><path d="M875.13-391.37l-.24-9.63" stroke="#979ea8" stroke-width="2" stroke-linejoin="round" fill="none"/><path d="M876.16-390.2l-.98-.17-1.02.1-.02-1.1 2-.05z" stroke="#979ea8" stroke-width=".05" fill="#979ea8"/><path d="M874.5-416.26l5 14.14-9.27.23z" stroke="#979ea8" stroke-width="2" fill="#979ea8"/><path d="M915.08-391.37l.1-1.15.5-1.88.82-1.8 1.3-1.88 2.23-2.26 7.3-5.4" stroke="#979ea8" stroke-width="2" stroke-linejoin="round" fill="none"/><path d="M916.08-391.3l-.1 1.1-.96-.17-1.03.1.1-1.2z" stroke="#979ea8" stroke-width=".05" fill="#979ea8"/><path d="M936.24-416.97L931-402.92l-7.26-5.77z" stroke="#979ea8" stroke-width="2" fill="#979ea8"/><path d="M965.34-380h33.36" stroke="#979ea8" stroke-width="2" stroke-linejoin="round" fill="none"/><path d="M965.37-379h-1.2l.17-.98-.1-1.02h1.13z" stroke="#979ea8" stroke-width=".05" fill="#979ea8"/><path d="M1013.96-380l-14.26 4.63v-9.26z" stroke="#979ea8" stroke-width="2" fill="#979ea8"/><path d="M1017.2-383.87a6 6 0 0 1 6-6h28a6 6 0 0 1 6 6v6a6 6 0 0 1-6 6h-28a6 6 0 0 1-6-6z" fill="none"/><use xlink:href="#k" transform="matrix(1,0,0,1,1017.1977978881795,-389.87008942426525) translate(2.713333333333342 15.719999999999995)"/><path d="M912.68-285.02a6 6 0 0 1 6-6h39.16a6 6 0 0 1 6 6v8a6 6 0 0 1-6 6h-39.16a6 6 0 0 1-6-6z" fill="#fff"/><path d="M913.58-288.14l.25-.4.6-.72.72-.6.4-.26m1.73-.72l.46-.1.94-.08h1.47m1.96 0h2.94m1.96 0h2.94m1.95 0h2.93m1.96 0h2.93m1.96 0h2.92m1.96 0h2.94m1.96 0h2.93m1.97 0h1.47l.94.07.46.1m1.73.73l.4.25.7.6.62.72.24.4m.72 1.73l.1.46.08.94v1.2m0 1.6v2.4m0 1.6v1.2l-.08.94-.1.46m-.72 1.73l-.25.4-.62.72-.7.6-.4.26m-1.74.72l-.46.1-.94.08h-1.47m-1.96 0h-2.92m-1.96 0h-2.94m-1.96 0h-2.93m-1.97 0h-2.94m-1.97 0h-2.94m-1.96 0H927m-1.96 0h-2.93m-1.95 0h-1.47l-.94-.07-.46-.1m-1.73-.72l-.4-.25-.7-.6-.63-.72-.24-.4m-.72-1.72l-.1-.46-.08-.94v-1.2m0-1.6v-2.4m0-1.6v-1.2l.07-.94.1-.46" stroke="#d916a8" fill="none"/><use xlink:href="#l" transform="matrix(1,0,0,1,917.6787030520263,-286.0194201116734) translate(3.4641927083333357 7.988281249999998)"/><path d="M848.84-285.92a6 6 0 0 1 6-6H894a6 6 0 0 1 6 6v8a6 6 0 0 1-6 6h-39.16a6 6 0 0 1-6-6z" fill="#fff"/><path d="M849.74-289.05l.25-.4.6-.72.7-.6.4-.25m1.74-.72l.46-.1.94-.08h1.47m1.97 0h2.93m1.96 0h2.94m1.96 0H871m1.95 0h2.94m1.95 0h2.93m1.96 0h2.94m1.96 0h2.93m1.96 0H894l.94.07.46.1m1.73.73l.4.24.7.6.62.73.25.4m.72 1.73l.1.46.08.94v1.2m0 1.6v2.4m0 1.6v1.2l-.07.94-.1.45m-.73 1.73l-.25.4-.6.72-.72.6-.4.26m-1.73.7l-.46.12-.94.08h-1.47m-1.96 0h-2.93m-1.96 0h-2.94m-1.96 0h-2.93m-1.96 0h-2.95m-1.96 0h-2.94m-1.96 0h-2.94m-1.96 0h-2.93m-1.96 0h-1.46l-.94-.08-.46-.1m-1.73-.72l-.4-.25-.7-.6-.62-.73-.24-.4m-.72-1.73l-.1-.45-.08-.94v-1.2m0-1.6v-2.4m0-1.6v-1.2l.07-.94.12-.46" stroke="#d916a8" fill="none"/><use xlink:href="#j" transform="matrix(1,0,0,1,853.8393515260132,-286.92231955330635) translate(11.836588541666668 7.988281249999998)"/><path d="M875.13-313.33l-.1 2.42" stroke="#979ea8" stroke-width="2" stroke-linejoin="round" fill="none"/><path d="M875.14-314.33l1.02-.1-.03 1.16-2-.07.04-1.16z" stroke="#979ea8" stroke-width=".05" fill="#979ea8"/><path d="M874.53-295.66l-4.15-14.4 9.26.3z" stroke="#979ea8" stroke-width="2" fill="#979ea8"/><path d="M915.1-313.33l.1.78.54 1.6 1 1.65 1.93 1.96 5.54 3.62" stroke="#979ea8" stroke-width="2" stroke-linejoin="round" fill="none"/><path d="M914.98-314.33l1.02-.1.1 1-2 .23-.13-1.3z" stroke="#979ea8" stroke-width=".05" fill="#979ea8"/><path d="M934.57-293.76l-13.5-6.54 6.43-6.7z" stroke="#979ea8" stroke-width="2" fill="#979ea8"/><path d="M965.34-322.96h33.36" stroke="#979ea8" stroke-width="2" stroke-linejoin="round" fill="none"/><path d="M965.37-321.96h-1.2l.17-.98-.1-1.02h1.13z" stroke="#979ea8" stroke-width=".05" fill="#979ea8"/><path d="M1013.96-322.96l-14.26 4.63v-9.27z" stroke="#979ea8" stroke-width="2" fill="#979ea8"/><path d="M1017.2-325.96a6 6 0 0 1 6-6h28a6 6 0 0 1 6 6v6a6 6 0 0 1-6 6h-28a6 6 0 0 1-6-6z" fill="none"/><use xlink:href="#m" transform="matrix(1,0,0,1,1017.1977978881795,-331.9611597766532) translate(2.713333333333342 15.719999999999995)"/><path d="M913.76-193.1a6 6 0 0 1 6-6h39.16a6 6 0 0 1 6 6v8a6 6 0 0 1-6 6h-39.16a6 6 0 0 1-6-6z" fill="#fff"/><path d="M914.66-196.22l.25-.4.62-.72.7-.6.4-.26m1.74-.7l.46-.12.94-.08h1.47m1.96 0h2.92m1.96 0h2.94m1.96 0h2.93m1.97 0h2.94m1.97 0h2.93m1.96 0h2.94m1.96 0h2.93m1.95 0h1.47l.94.08.46.1m1.72.72l.4.25.72.6.6.73.26.4m.72 1.73l.1.46.08.94v1.2m0 1.6v2.4m0 1.6v1.2l-.07.94-.1.46m-.73 1.73l-.25.4-.6.72-.72.6-.4.25m-1.73.72l-.46.1-.94.08h-1.47m-1.96 0h-2.94m-1.96 0h-2.94m-1.96 0h-2.93m-1.96 0h-2.93m-1.96 0H933m-1.96 0h-2.94m-1.96 0h-2.93m-1.97 0h-1.47l-.94-.07-.46-.1m-1.73-.73l-.4-.24-.7-.6-.63-.73-.24-.4m-.72-1.73l-.1-.46-.08-.94v-1.2m0-1.6v-2.4m0-1.6v-1.2l.07-.94.1-.45" stroke="#d916a8" fill="none"/><use xlink:href="#n" transform="matrix(1,0,0,1,918.7590272890197,-194.09710055836706) translate(1.9977213541666643 7.98828125)"/><path d="M849.92-194a6 6 0 0 1 6-6h39.16a6 6 0 0 1 6 6v8a6 6 0 0 1-6 6h-39.16a6 6 0 0 1-6-6z" fill="#fff"/><path d="M850.82-197.13l.25-.4.6-.7.72-.62.4-.25m1.72-.72l.46-.1.94-.08h1.47m1.95 0h2.93m1.96 0h2.94m1.96 0h2.93m1.96 0h2.94m1.96 0h2.93m1.96 0h2.94m1.96 0h2.93m1.96 0h1.48l.94.07.46.1m1.73.73l.4.25.72.6.6.72.26.4m.72 1.73l.1.46.08.94v1.2m0 1.6v2.4m0 1.6v1.2l-.07.94-.1.46m-.72 1.72l-.25.4-.6.72-.72.6-.4.26m-1.72.72l-.46.1-.94.08h-1.47m-1.95 0h-2.93m-1.96 0h-2.94m-1.96 0h-2.93m-1.96 0h-2.94m-1.96 0h-2.93m-1.96 0h-2.94m-1.96 0h-2.93m-1.96 0h-1.48l-.94-.07-.46-.1m-1.73-.73l-.4-.25-.72-.6-.6-.72-.26-.4m-.72-1.73l-.1-.46-.08-.94v-1.2m0-1.6v-2.4m0-1.6v-1.2l.07-.94.1-.46" stroke="#d916a8" fill="none"/><use xlink:href="#j" transform="matrix(1,0,0,1,854.9196757630066,-195) translate(11.836588541666668 7.988281249999998)"/><path d="M875.25-231.92l.1 12.92" stroke="#979ea8" stroke-width="2" stroke-linejoin="round" fill="none"/><path d="M875.22-232.92l1.02-.1v1.12h-2v-1.2z" stroke="#979ea8" stroke-width=".05" fill="#979ea8"/><path d="M875.47-203.74l-4.75-14.22 9.27-.08z" stroke="#979ea8" stroke-width="2" fill="#979ea8"/><path d="M915.15-231.92l.1 1.35.47 2.06.76 1.9 1.12 1.94 1.7 2.12 3.15 2.85 7.1 5.45" stroke="#979ea8" stroke-width="2" stroke-linejoin="round" fill="none"/><path d="M915.06-232.92l1.02-.1.07 1.05-2 .14-.08-1.27z" stroke="#979ea8" stroke-width=".05" fill="#979ea8"/><path d="M937.54-202.3l-11.78-9.27 7.7-5.15z" stroke="#979ea8" stroke-width="2" fill="#979ea8"/><path d="M1017.2-244.55a6 6 0 0 1 6-6h28a6 6 0 0 1 6 6v6a6 6 0 0 1-6 6h-28a6 6 0 0 1-6-6z" fill="none"/><use xlink:href="#m" transform="matrix(1,0,0,1,1017.1977978881795,-250.55412794104598) translate(2.713333333333342 15.719999999999995)"/><path d="M965.42-241.5l33.3 1.34" stroke="#979ea8" stroke-width="2" stroke-linejoin="round" fill="none"/><path d="M965.5-242.5l-.1 2-1.15-.06.17-.97-.1-1.03z" stroke="#979ea8" stroke-width=".05" fill="#979ea8"/><path d="M1013.96-239.54l-14.44 4.05.38-9.25z" stroke="#979ea8" stroke-width="2" fill="#979ea8"/><defs><path d="M666-1365c326 0 518 259 518 595 0 178-48 346-145 502C928-89 788 0 621 0 344 0 200-283 200-582c0-169 35-333 107-490 89-196 210-293 359-293zM401-582c0 173 76 381 229 381 86 0 168-71 247-214 71-127 106-239 106-334 0-219-129-422-336-417-153 61-246 349-246 584" id="o"/><path d="M172-1273c0-51 55-92 106-92 37 0 64 24 92 68 37 59 126 327 147 375 45-73 86-148 133-220 69-105 130-155 174-155 52 0 105 52 103 104-20 75-241 385-311 490 18 36 85 160 200 372 65 118 97 196 97 234 1 55-42 97-97 97-43 0-105-70-183-212-15-28-60-122-136-281-43 69-136 292-221 411-25 35-56 50-87 50-84 0-113-73-88-151 12-39 108-216 290-529-146-314-219-501-219-561" id="p"/><path d="M387-1365c369 0 678 217 678 573 0 172-83 346-249 522C647-90 478 0 307 0 194 0 137-80 137-239c0-257 30-558 68-915-53-11-80-43-80-95 0-56 32-93 97-108 26-6 81-8 165-8zm21 204c-15 76-47 491-72 917 0 13 1 27 2 41 116-22 231-92 346-210 120-123 180-241 180-355-1-196-67-277-209-343-74-35-157-50-247-50" id="q"/><path d="M200-1365c95 3 162 6 292 6 343 0 515 81 515 243 0 172-258 535-348 706-53 101-82 215-127 338-18 49-50 72-90 72-61 0-126-55-104-125 63-205 151-424 283-648 32-54 84-133 147-241 14-24 20-43 20-56 0-67-104-101-312-101-139 0-364 56-370-92-2-49 45-103 94-102" id="r"/><path d="M722-1365c155 0 277 78 276 225 0 91-50 195-151 314-48 56-136 140-262 254-171 154-256 259-256 316 0 37 32 55 96 55 103 0 398-64 478-64 48 0 94 55 94 103 0 50-33 87-101 99C773-42 564-1 425 0 221 0 119-76 119-227c0-93 56-204 169-333 46-52 140-144 284-277s216-227 216-283c0-29-23-44-69-44-62 0-148 26-258 77-11 52-41 78-92 78-58 0-103-42-103-100 0-156 283-256 456-256" id="s"/><path d="M369 0C201 0 119-119 119-294c0-119 26-272 77-457 80-290 99-377 125-524 7-13 27-26 60-41 71-33 211-49 419-49 129 0 193 36 193 107 0 50-48 105-99 101-142-10-258-9-397 20-11 59-34 158-69 297 146-57 246-85 301-85 53 0 100 43 100 96 0 43-23 80-73 99-127 49-178 54-389 129-29 119-44 224-44 314 0 58 10 87 30 87 66 0 151-30 256-90s173-91 205-91c50 0 101 49 101 99 0 30-19 57-51 87C794-129 500 0 369 0" id="t"/><g id="a"><use transform="matrix(0.006510416666666667,0,0,0.006510416666666667,0,0)" xlink:href="#o"/><use transform="matrix(0.006510416666666667,0,0,0.006510416666666667,9.0234375,0)" xlink:href="#p"/><use transform="matrix(0.006510416666666667,0,0,0.006510416666666667,15.677083333333334,0)" xlink:href="#q"/><use transform="matrix(0.006510416666666667,0,0,0.006510416666666667,23.053385416666668,0)" xlink:href="#r"/><use transform="matrix(0.006510416666666667,0,0,0.006510416666666667,30.084635416666668,0)" xlink:href="#o"/><use transform="matrix(0.006510416666666667,0,0,0.006510416666666667,39.10807291666667,0)" xlink:href="#q"/><use transform="matrix(0.006510416666666667,0,0,0.006510416666666667,46.48437500000001,0)" xlink:href="#q"/><use transform="matrix(0.006510416666666667,0,0,0.006510416666666667,53.86067708333335,0)" xlink:href="#s"/><use transform="matrix(0.006510416666666667,0,0,0.006510416666666667,61.51692708333335,0)" xlink:href="#t"/><use transform="matrix(0.006510416666666667,0,0,0.006510416666666667,68.76302083333334,0)" xlink:href="#t"/></g><path d="M773-362c52-3 103 50 103 101 0 27-17 56-48 89C762-102 548 0 418 0 210 0 81-204 84-422c3-221 73-486 152-640 103-201 220-303 358-303 167 0 251 128 251 385 0 123-35 185-106 185-48 0-101-46-99-94 2-77 27-278-39-278-46 0-94 47-150 138-89 144-168 415-168 602 0 146 56 219 169 219 46 0 106-26 180-77s122-77 141-77" id="u"/><path d="M111-254c0-80 75-479 73-483 3-23 17-167 40-434-41-20-62-51-62-94 0-67 48-100 145-100 431 0 647 127 647 380 0 161-86 280-258 359 120 81 180 177 180 290 0 173-116 256-272 302C530-12 459 0 391 0 204 0 111-85 111-254zm642-722c0-105-210-177-326-186-9 140-24 282-43 426 246-59 369-139 369-240zm-77 638c-27-89-136-153-326-193-27 162-48 229-34 323 82 18 157 3 237-24 75-26 116-61 123-106" id="v"/><path d="M457-877c340-69 656 129 656 435C1113-201 859 0 613 0 335 0 184-205 184-495c0-227 70-468 210-724 53-97 102-146 147-146 52 0 111 45 104 97-8 57-146 305-188 391zm163 674c127 0 293-116 293-242 0-134-166-244-304-244-63 0-133 13-210 39-10 73-15 126-15 160-1 165 79 287 236 287" id="w"/><path d="M295-1038c-53 2-99-46-99-99 0-31 18-59 51-87 37-32 224-141 280-141 69 0 104 33 104 99v735c-33 116-21 386-54 459-21 48-54 72-99 72-64 1-108-57-94-125 18-88 24-194 24-317 1 31 2-75 2-317v-328c-50 33-88 49-115 49" id="x"/><path d="M602-1365c226 0 427 132 427 346 0 137-77 248-230 335 105 61 197 186 199 339 3 281-357 407-648 316-78-24-131-56-167-92-63-64-18-172 66-171 17 0 42 10 75 29 69 40 136 60 203 60 99 0 270-46 270-132 0-65-34-119-101-162-30-30-193-73-257-109-51-48-33-144 39-165 105-30 195-49 270-118 51-47 80-92 80-140 0-76-136-135-220-135-54 0-174 34-292 55-51 9-103-51-103-103 0-108 251-153 389-153" id="y"/><path d="M763-737c119 66 232 201 235 370C1002-138 781 0 539 0 307 0 164-187 164-411c0-153 57-265 171-337-87-71-130-164-130-279-1-207 116-338 324-338 198 0 387 157 387 358 0 119-51 209-153 270zM556-879c82 0 159-51 159-133 0-90-87-154-176-154s-133 55-133 164c0 75 73 123 150 123zM367-406c0 89 78 203 167 203 159 0 239-67 239-201 0-94-135-198-227-198-90 0-179 106-179 196" id="z"/><g id="b"><use transform="matrix(0.006510416666666667,0,0,0.006510416666666667,0,0)" xlink:href="#o"/><use transform="matrix(0.006510416666666667,0,0,0.006510416666666667,9.0234375,0)" xlink:href="#p"/><use transform="matrix(0.006510416666666667,0,0,0.006510416666666667,15.677083333333334,0)" xlink:href="#o"/><use transform="matrix(0.006510416666666667,0,0,0.006510416666666667,24.700520833333336,0)" xlink:href="#u"/><use transform="matrix(0.006510416666666667,0,0,0.006510416666666667,31.002604166666675,0)" xlink:href="#v"/><use transform="matrix(0.006510416666666667,0,0,0.006510416666666667,37.76041666666667,0)" xlink:href="#w"/><use transform="matrix(0.006510416666666667,0,0,0.006510416666666667,46.20442708333334,0)" xlink:href="#x"/><use transform="matrix(0.006510416666666667,0,0,0.006510416666666667,51.67317708333334,0)" xlink:href="#v"/><use transform="matrix(0.006510416666666667,0,0,0.006510416666666667,58.43098958333335,0)" xlink:href="#y"/><use transform="matrix(0.006510416666666667,0,0,0.006510416666666667,66.17838541666667,0)" xlink:href="#z"/></g><g id="c"><use transform="matrix(0.006510416666666667,0,0,0.006510416666666667,0,0)" xlink:href="#o"/><use transform="matrix(0.006510416666666667,0,0,0.006510416666666667,9.0234375,0)" xlink:href="#p"/><use transform="matrix(0.006510416666666667,0,0,0.006510416666666667,15.677083333333334,0)" xlink:href="#z"/><use transform="matrix(0.006510416666666667,0,0,0.006510416666666667,23.079427083333336,0)" xlink:href="#x"/><use transform="matrix(0.006510416666666667,0,0,0.006510416666666667,28.548177083333336,0)" xlink:href="#v"/><use transform="matrix(0.006510416666666667,0,0,0.006510416666666667,35.305989583333336,0)" xlink:href="#t"/><use transform="matrix(0.006510416666666667,0,0,0.006510416666666667,42.552083333333336,0)" xlink:href="#x"/><use transform="matrix(0.006510416666666667,0,0,0.006510416666666667,48.020833333333336,0)" xlink:href="#w"/><use transform="matrix(0.006510416666666667,0,0,0.006510416666666667,56.46484375,0)" xlink:href="#u"/><use transform="matrix(0.006510416666666667,0,0,0.006510416666666667,62.766927083333336,0)" xlink:href="#q"/></g><path fill="#d916a8" d="M768-362c52-3 102 50 102 101 0 27-17 56-47 89C758-102 542 0 413 0 205 0 76-203 79-422c3-220 72-486 151-640 103-201 221-303 359-303 167 0 251 128 251 385 0 123-35 185-106 185-48 0-101-46-99-94 2-77 27-279-39-278-99 4-207 230-243 339-48 149-75 282-75 401 0 146 56 219 169 219 45 0 105-26 180-77s122-77 141-77" id="A"/><path fill="#d916a8" d="M758-451c66-46 150 20 150 87 0 27-17 54-48 86C767-182 488 0 328 0 185 0 113-109 113-326c0-170 46-508 46-695 0-141-8-341 119-344 53-2 103 46 101 99-3-2-26 472-39 636-16 198-28 312-28 343 0 57 11 86 33 86 60 0 168-62 324-185 19-16 49-38 89-65" id="B"/><path fill="#d916a8" d="M920-744c0 218 15 427 27 645 5 89-139 139-182 58-3-3-13-32-31-85-53-161-192-263-415-306-18 75-30 243-58 360-12 50-50 72-97 72-56 0-99-53-99-108 1-367 194-896 360-1117 69-92 141-140 222-140 182 0 273 207 273 621zM720-476v-400c-19-103-12-145-34-225-11-40-25-60-41-60-32 0-83 65-153 195-56 103-99 215-130 336 137 27 256 79 358 154" id="C"/><path fill="#d916a8" d="M925-1365c52 0 103 46 101 97 0 23-38 113-113 270-125 261-227 519-304 774-21 71-38 117-49 139-29 57-63 85-104 85-109-1-156-321-181-456-30-165-184-659-203-805-7-52 44-104 97-104 40 0 72 25 99 73 46 84 66 250 92 370 23 106 68 262 121 471 71-167 173-418 306-754 20-51 35-86 46-104 25-37 55-56 92-56" id="D"/><path fill="#d916a8" d="M362 0C195 0 113-120 113-294c0-119 25-272 76-457 80-290 99-377 125-524 7-13 27-26 60-41 71-33 211-49 420-49 128 0 192 36 192 107 0 50-48 105-99 101-142-10-258-9-397 20-11 59-33 158-68 297 145-57 245-85 300-85 53 0 101 43 101 96 0 43-23 79-74 99-127 49-178 54-389 129-29 119-44 224-44 314 0 58 10 87 30 87 66 0 151-30 256-90s173-91 205-91c51 0 101 49 101 99 0 30-19 57-51 87C788-129 492 0 362 0" id="E"/><path fill="#d916a8" d="M196-1063c0-251 371-378 608-255 71 37 119 87 150 151 35 73-14 152-87 150-26 0-63-25-111-73s-102-72-162-72c-72 0-200 37-200 99 0 43 47 111 142 203 145 142 234 232 266 271 95 116 142 225 142 328C944-95 791 0 613 0 494 0 170-60 118-111c-29-29-48-55-48-87-1-69 67-120 140-92h-2c162 59 305 89 429 89 69 0 104-25 104-75 0-69-47-151-142-245-86-86-177-167-261-254-98-100-142-199-142-288" id="F"/><g id="d"><use transform="matrix(0.007595486111111109,0,0,0.007595486111111109,0,0)" xlink:href="#A"/><use transform="matrix(0.007595486111111109,0,0,0.007595486111111109,7.2612847222222205,0)" xlink:href="#B"/><use transform="matrix(0.007595486111111109,0,0,0.007595486111111109,14.211154513888886,0)" xlink:href="#C"/><use transform="matrix(0.007595486111111109,0,0,0.007595486111111109,21.943359374999996,0)" xlink:href="#D"/><use transform="matrix(0.007595486111111109,0,0,0.007595486111111109,30.05533854166666,0)" xlink:href="#E"/><use transform="matrix(0.007595486111111109,0,0,0.007595486111111109,38.38758680555555,0)" xlink:href="#F"/></g><path fill="#979ea8" d="M90-239c59 0 76 52 76 120S152 4 89 4C31 4 14-51 14-119c0-67 17-120 76-120zM89-10c45-6 45-58 45-109 0-50 0-101-45-106-45 4-43 57-43 106 0 50-2 104 43 109" id="G"/><use transform="matrix(0.06172839506172839,0,0,0.06172839506172839,0,0)" xlink:href="#G" id="e"/><path fill="#979ea8" d="M110-14l48 5v9H32v-9l48-5v-192l-48 17v-10l69-39h9v224" id="H"/><use transform="matrix(0.06172839506172839,0,0,0.06172839506172839,0,0)" xlink:href="#H" id="f"/><path fill="#979ea8" d="M24-231c66-21 156 2 128 81C132-92 78-66 39-27h121V0H16v-26l59-54c26-25 47-47 47-97 0-48-47-57-81-37l-6 29H24v-46" id="I"/><use transform="matrix(0.06172839506172839,0,0,0.06172839506172839,0,0)" xlink:href="#I" id="g"/><path fill="#979ea8" d="M125-118c4-37-41-34-68-26v132l23 4v8H8C5-13 21-9 28-12v-141c-7-3-23 1-20-12h47l2 13c31-23 98-29 98 31v109c7 3 23-1 20 12h-72v-8l22-4v-106" id="J"/><use transform="matrix(0.06172839506172839,0,0,0.06172839506172839,0,0)" xlink:href="#J" id="h"/><g id="i"><use transform="matrix(0.0032552083333333326,0,0,0.0032552083333333326,0,0)" xlink:href="#o"/><use transform="matrix(0.0032552083333333326,0,0,0.0032552083333333326,4.511718749999999,0)" xlink:href="#p"/><use transform="matrix(0.0032552083333333326,0,0,0.0032552083333333326,7.838541666666665,0)" xlink:href="#o"/><use transform="matrix(0.0032552083333333326,0,0,0.0032552083333333326,12.350260416666664,0)" xlink:href="#u"/><use transform="matrix(0.0032552083333333326,0,0,0.0032552083333333326,15.50130208333333,0)" xlink:href="#v"/><use transform="matrix(0.0032552083333333326,0,0,0.0032552083333333326,18.88020833333333,0)" xlink:href="#w"/><use transform="matrix(0.0032552083333333326,0,0,0.0032552083333333326,23.10221354166666,0)" xlink:href="#x"/><use transform="matrix(0.0032552083333333326,0,0,0.0032552083333333326,25.83658854166666,0)" xlink:href="#v"/><use transform="matrix(0.0032552083333333326,0,0,0.0032552083333333326,29.21549479166666,0)" xlink:href="#y"/><use transform="matrix(0.0032552083333333326,0,0,0.0032552083333333326,33.08919270833333,0)" xlink:href="#z"/></g><path d="M137-119c0-58 89-135 145-135 71 0 107 42 107 126C389-63 336 0 270 0c-63 0-133-55-133-119" id="K"/><g id="j"><use transform="matrix(0.0032552083333333326,0,0,0.0032552083333333326,0,0)" xlink:href="#K"/><use transform="matrix(0.0032552083333333326,0,0,0.0032552083333333326,1.8326822916666663,0)" xlink:href="#K"/><use transform="matrix(0.0032552083333333326,0,0,0.0032552083333333326,3.6653645833333326,0)" xlink:href="#K"/><use transform="matrix(0.0032552083333333326,0,0,0.0032552083333333326,5.498046874999999,0)" xlink:href="#K"/><use transform="matrix(0.0032552083333333326,0,0,0.0032552083333333326,7.330729166666665,0)" xlink:href="#K"/><use transform="matrix(0.0032552083333333326,0,0,0.0032552083333333326,9.163411458333332,0)" xlink:href="#K"/><use transform="matrix(0.0032552083333333326,0,0,0.0032552083333333326,10.996093749999998,0)" xlink:href="#K"/><use transform="matrix(0.0032552083333333326,0,0,0.0032552083333333326,12.828776041666664,0)" xlink:href="#K"/><use transform="matrix(0.0032552083333333326,0,0,0.0032552083333333326,14.66145833333333,0)" xlink:href="#K"/><use transform="matrix(0.0032552083333333326,0,0,0.0032552083333333326,16.494140624999996,0)" xlink:href="#K"/></g><path fill="#6f7681" d="M24-128c0-158-18-313-5-472 6-74-11-192 62-191 78 1 88 68 113 130 59 143 102 191 174 297 50 73 81 109 92 109 8 0 12-3 13-9 24-163 3-322-12-477-6-63 62-76 101-37 65 64 45 212 54 340 10 141 7 304-15 413-8 15-20 23-37 23-76 0-203-132-244-200-33-54-79-109-116-169l4 4c-9-20-41-55-54-51-14 102-5 244 6 344 3 30-15 69-41 68-9 0-28-1-56-3-44-28-39-45-39-119" id="L"/><path fill="#6f7681" d="M109-754c29-56 120 5 113 55-24 164-73 311-76 498 0 44 17 66 52 66 44 0 193-39 283-82 16-8 27-24 32-45 27-114 44-316 44-439 0-57 27-86 82-86 38 0 57 27 57 82 0 195-35 406-61 587 5 33 20 94-14 106-8 12-30 10-67-7-15-20-33-39-52-56C437-54 255 2 210 0 80-5 5-44 13-182c11-186 48-366 83-531 3-12 5-27 13-41" id="M"/><path fill="#6f7681" d="M21-302C-7-136 9 24 196-12c147-28 263-93 386-142 57-23 26-120-26-120-111 32-240 115-378 126-13 1-22-26-25-45 30-174 59-350 88-524 10-62-86-124-120-61-39 73-49 196-69 277-19 77-22 145-31 199" id="N"/><g id="k"><use transform="matrix(0.013333333333333329,0,0,0.013333333333333329,0,0)" xlink:href="#L"/><use transform="matrix(0.013333333333333329,0,0,0.013333333333333329,8.546666666666663,0)" xlink:href="#M"/><use transform="matrix(0.013333333333333329,0,0,0.013333333333333329,17.94666666666666,0)" xlink:href="#N"/><use transform="matrix(0.013333333333333329,0,0,0.013333333333333329,26.37333333333332,0)" xlink:href="#N"/></g><g id="l"><use transform="matrix(0.0032552083333333326,0,0,0.0032552083333333326,0,0)" xlink:href="#o"/><use transform="matrix(0.0032552083333333326,0,0,0.0032552083333333326,4.511718749999999,0)" xlink:href="#p"/><use transform="matrix(0.0032552083333333326,0,0,0.0032552083333333326,7.838541666666665,0)" xlink:href="#z"/><use transform="matrix(0.0032552083333333326,0,0,0.0032552083333333326,11.539713541666664,0)" xlink:href="#x"/><use transform="matrix(0.0032552083333333326,0,0,0.0032552083333333326,14.274088541666664,0)" xlink:href="#v"/><use transform="matrix(0.0032552083333333326,0,0,0.0032552083333333326,17.652994791666664,0)" xlink:href="#t"/><use transform="matrix(0.0032552083333333326,0,0,0.0032552083333333326,21.276041666666664,0)" xlink:href="#x"/><use transform="matrix(0.0032552083333333326,0,0,0.0032552083333333326,24.010416666666664,0)" xlink:href="#w"/><use transform="matrix(0.0032552083333333326,0,0,0.0032552083333333326,28.232421874999993,0)" xlink:href="#u"/><use transform="matrix(0.0032552083333333326,0,0,0.0032552083333333326,31.383463541666664,0)" xlink:href="#q"/></g><g id="m"><use transform="matrix(0.013333333333333329,0,0,0.013333333333333329,0,0)" xlink:href="#L"/><use transform="matrix(0.013333333333333329,0,0,0.013333333333333329,8.546666666666663,0)" xlink:href="#M"/><use transform="matrix(0.013333333333333329,0,0,0.013333333333333329,17.94666666666666,0)" xlink:href="#N"/><use transform="matrix(0.013333333333333329,0,0,0.013333333333333329,26.37333333333332,0)" xlink:href="#N"/></g><g id="n"><use transform="matrix(0.0032552083333333335,0,0,0.0032552083333333335,0,0)" xlink:href="#o"/><use transform="matrix(0.0032552083333333335,0,0,0.0032552083333333335,4.51171875,0)" xlink:href="#p"/><use transform="matrix(0.0032552083333333335,0,0,0.0032552083333333335,7.838541666666667,0)" xlink:href="#q"/><use transform="matrix(0.0032552083333333335,0,0,0.0032552083333333335,11.526692708333334,0)" xlink:href="#r"/><use transform="matrix(0.0032552083333333335,0,0,0.0032552083333333335,15.042317708333334,0)" xlink:href="#o"/><use transform="matrix(0.0032552083333333335,0,0,0.0032552083333333335,19.554036458333336,0)" xlink:href="#q"/><use transform="matrix(0.0032552083333333335,0,0,0.0032552083333333335,23.242187500000004,0)" xlink:href="#q"/><use transform="matrix(0.0032552083333333335,0,0,0.0032552083333333335,26.930338541666675,0)" xlink:href="#s"/><use transform="matrix(0.0032552083333333335,0,0,0.0032552083333333335,30.758463541666675,0)" xlink:href="#t"/><use transform="matrix(0.0032552083333333335,0,0,0.0032552083333333335,34.38151041666667,0)" xlink:href="#t"/></g></defs></g></svg>