<svg xmlns="http://www.w3.org/2000/svg" xmlns:xlink="http://www.w3.org/1999/xlink" xmlns:lucid="lucid" width="642.43" height="440"><g transform="translate(520 380)" lucid:page-tab-id="0_0"><path d="M-500-354a6 6 0 0 1 6-6h168a6 6 0 0 1 6 6v28a6 6 0 0 1-6 6h-168a6 6 0 0 1-6-6z" fill="none"/><use xlink:href="#a" transform="matrix(1,0,0,1,-500,-360) translate(54.63333333333333 30.244444444444444)"/><path d="M-311-354a6 6 0 0 1 6-6h168a6 6 0 0 1 6 6v28a6 6 0 0 1-6 6h-168a6 6 0 0 1-6-6z" fill="none"/><use xlink:href="#b" transform="matrix(1,0,0,1,-310.9999000000023,-360) translate(63.8 30.244444444444444)"/><path d="M-321-359.5a.5.5 0 0 1 .5.5V39a.5.5 0 0 1-.5.5.5.5 0 0 1-.5-.5v-398a.5.5 0 0 1 .5-.5z" stroke="#979ea8" fill="none"/><path d="M-467.32-319a.5.5 0 0 1 .5-.5h568.25a.5.5 0 0 1 .5.5.5.5 0 0 1-.5.5h-568.25a.5.5 0 0 1-.5-.5z" stroke="#979ea8" fill="none"/><path d="M-411-254a6 6 0 0 1 6-6h27a6 6 0 0 1 6 6v27a6 6 0 0 1-6 6h-27a6 6 0 0 1-6-6z" stroke="#000" fill="#dedeff"/><path d="M-380.5-240.5c0 6.07-4.93 11-11 11s-11-4.93-11-11 4.93-11 11-11 11 4.93 11 11z" stroke="#000"/><path d="M-282-264a6 6 0 0 1 6-6h148a6 6 0 0 1 6 6v48a6 6 0 0 1-6 6h-148a6 6 0 0 1-6-6z" stroke="#000" fill="#dedeff"/><path d="M-271.5-254.9a6 6 0 0 1 6-6h28a6 6 0 0 1 6 6v28a6 6 0 0 1-6 6h-28a6 6 0 0 1-6-6z" stroke="#000" fill="#f4d9ff"/><use xlink:href="#c" transform="matrix(1,0,0,1,-266.5065914551342,-255.8931551081859) translate(8.88888888888889 21.430555555555557)"/><path d="M-222-255.02a6 6 0 0 1 6-6h28a6 6 0 0 1 6 6v28a6 6 0 0 1-6 6h-28a6 6 0 0 1-6-6z" stroke="#000" fill="#f4d9ff"/><use xlink:href="#d" transform="matrix(1,0,0,1,-217,-256.0157331043696) translate(8.88888888888889 21.430555555555557)"/><path d="M-172.5-255.02a6 6 0 0 1 6-6h28a6 6 0 0 1 6 6v28a6 6 0 0 1-6 6h-28a6 6 0 0 1-6-6z" stroke="#000" fill="#f4d9ff"/><path d="M-141.5-241c0 6.07-4.92 11-11 11-6.07 0-11-4.93-11-11s4.93-11 11-11c6.08 0 11 4.93 11 11z" stroke="#000"/><path d="M-234.1-63a6 6 0 0 1-6-6v-27a6 6 0 0 1 6-6h27a6 6 0 0 1 6 6v27a6 6 0 0 1-6 6z" stroke="#000" fill="#dedeff"/><path d="M-220.6-93.5c6.06 0 11 4.93 11 11 0 6.08-4.94 11-11 11-6.1 0-11-4.92-11-11 0-6.07 4.9-11 11-11z" stroke="#000"/><path d="M-234.1-102a6 6 0 0 1-6-6v-27a6 6 0 0 1 6-6h27a6 6 0 0 1 6 6v27a6 6 0 0 1-6 6z" stroke="#000" fill="#dedeff"/><path d="M-220.6-132.5c6.06 0 11 4.93 11 11 0 6.08-4.94 11-11 11-6.1 0-11-4.92-11-11 0-6.07 4.9-11 11-11z" stroke="#000"/><path d="M-234.1-141a6 6 0 0 1-6-6v-27a6 6 0 0 1 6-6h27a6 6 0 0 1 6 6v27a6 6 0 0 1-6 6z" stroke="#000" fill="#dedeff"/><path d="M-220.6-171.5c6.06 0 11 4.93 11 11 0 6.08-4.94 11-11 11-6.1 0-11-4.92-11-11 0-6.07 4.9-11 11-11z" stroke="#000"/><path d="M-379-240.5h78" stroke="#000" stroke-width="2" stroke-linejoin="round" fill="none"/><path d="M-378.97-239.5h-1.16l.13-1-.13-1h1.16z" stroke="#000" stroke-width=".05"/><path d="M-285.74-240.5l-14.26 4.63v-9.26z" stroke="#000" stroke-width="2" fill="#fff"/><path d="M-152.53-228.5l-.03.72-.16 1.53-.26 1.38-.33 1.28-.42 1.2-.48 1.12-.56 1.07-.64 1.03-.73 1.02-.84 1-.98 1-1.15 1.03-1.38 1.06-1.67 1.1-2.1 1.16-2.8 1.28-3.97 1.48-7.08 2.05-24 6.04-3.96 1.5-2.78 1.27-2.1 1.17-1.37.9" stroke="#000" stroke-width="2" stroke-linejoin="round" fill="none"/><path d="M-151.53-228.43l-2-.08.04-1.13 1 .13 1-.13z" stroke="#000" stroke-width=".05"/><path d="M-219.1-183.36l2.6-14.77 8.2 4.34z" stroke="#000" stroke-width="2" fill="#fff"/><path d="M-259.62-157a6 6 0 0 1 6-6h4a6 6 0 0 1 6 6v10a6 6 0 0 1-6 6h-4a6 6 0 0 1-6-6z" fill="none"/><use xlink:href="#e" transform="matrix(1,0,0,1,-259.6183335448675,-163) translate(2.9444444444444446 17.77777777777778)"/><path d="M-259.62-118a6 6 0 0 1 6-6h4a6 6 0 0 1 6 6v10a6 6 0 0 1-6 6h-4a6 6 0 0 1-6-6z" fill="none"/><use xlink:href="#f" transform="matrix(1,0,0,1,-259.6183335448675,-124) translate(2.9444444444444446 17.77777777777778)"/><path d="M-260-79a6 6 0 0 1 6-6h4a6 6 0 0 1 6 6v10a6 6 0 0 1-6 6h-4a6 6 0 0 1-6-6z" fill="none"/><use xlink:href="#g" transform="matrix(1,0,0,1,-260,-85) translate(2.9444444444444446 17.77777777777778)"/><path d="M-217.8-52c0 1.38-1.13 2.5-2.5 2.5-1.4 0-2.5-1.12-2.5-2.5s1.1-2.5 2.5-2.5c1.37 0 2.5 1.12 2.5 2.5zM-217.8-38.5c0 1.38-1.13 2.5-2.5 2.5-1.4 0-2.5-1.12-2.5-2.5s1.1-2.5 2.5-2.5c1.37 0 2.5 1.12 2.5 2.5zM-217.8-25c0 1.38-1.13 2.5-2.5 2.5-1.4 0-2.5-1.12-2.5-2.5s1.1-2.5 2.5-2.5c1.37 0 2.5 1.12 2.5 2.5z" stroke="#000"/><path d="M-233.73 25a6 6 0 0 1-6-6V-8a6 6 0 0 1 6-6h27a6 6 0 0 1 6 6v27a6 6 0 0 1-6 6z" stroke="#000" fill="#dedeff"/><path d="M-220.23-5.5c6.07 0 11 4.92 11 11 0 6.07-4.93 11-11 11-6.08 0-11-4.93-11-11 0-6.08 4.92-11 11-11z" stroke="#000"/><path d="M-259.62 9a6 6 0 0 1 6-6h4a6 6 0 0 1 6 6v10a6 6 0 0 1-6 6h-4a6 6 0 0 1-6-6z" fill="none"/><use xlink:href="#h" transform="matrix(1,0,0,1,-259.6183335448675,3) translate(2.9444444444444446 17.77777777777778)"/><path d="M-160-165.5a6 6 0 0 1 6-6h54.5a6 6 0 0 1 6 6v9a6 6 0 0 1-6 6H-154a6 6 0 0 1-6-6z" fill="none"/><use xlink:href="#i" transform="matrix(1,0,0,1,-160,-171.5) translate(10.784071180555557 22.4609375)"/><path d="M-208.1-160.5l29.6.3" stroke="#000" stroke-width="2" stroke-linejoin="round" fill="none"/><path d="M-208.07-161.5l-.02 2h-1.14l.13-1-.14-1z" stroke="#000" stroke-width=".05"/><path d="M-163.24-160.03l-14.3 4.5.1-9.28z" stroke="#000" stroke-width="2" fill="#fff"/><path d="M-208.1-121.47l29.6.9" stroke="#000" stroke-width="2" stroke-linejoin="round" fill="none"/><path d="M-208.05-122.47l-.06 2-1.14-.03.13-1-.14-1z" stroke="#000" stroke-width=".05"/><path d="M-163.24-120.1l-14.4 4.2.3-9.27z" stroke="#000" stroke-width="2" fill="#fff"/><path d="M-208.1-82.5h29.6" stroke="#000" stroke-width="2" stroke-linejoin="round" fill="none"/><path d="M-208.08-81.5h-1.16l.13-1-.14-1h1.16z" stroke="#000" stroke-width=".05"/><path d="M-163.24-82.5l-14.26 4.64v-9.28z" stroke="#000" stroke-width="2" fill="#fff"/><path d="M-207.72 5.5h29.22" stroke="#000" stroke-width="2" stroke-linejoin="round" fill="none"/><path d="M-207.7 6.5h-1.16l.13-1-.13-1h1.16z" stroke="#000" stroke-width=".05"/><path d="M-163.24 5.5l-14.26 4.63V.87z" stroke="#000" stroke-width="2" fill="#fff"/><path d="M-160-125.5a6 6 0 0 1 6-6h54.5a6 6 0 0 1 6 6v9a6 6 0 0 1-6 6H-154a6 6 0 0 1-6-6z" fill="none"/><use xlink:href="#i" transform="matrix(1,0,0,1,-160,-131.5) translate(10.784071180555557 22.4609375)"/><path d="M-160-87.5a6 6 0 0 1 6-6h54.5a6 6 0 0 1 6 6v9a6 6 0 0 1-6 6H-154a6 6 0 0 1-6-6z" fill="none"/><use xlink:href="#i" transform="matrix(1,0,0,1,-160,-93.5) translate(10.784071180555557 22.4609375)"/><path d="M-160 .5a6 6 0 0 1 6-6h54.5a6 6 0 0 1 6 6v9a6 6 0 0 1-6 6H-154a6 6 0 0 1-6-6z" fill="none"/><use xlink:href="#i" transform="matrix(1,0,0,1,-160,-5.5) translate(10.784071180555557 22.4609375)"/><defs><path fill="#979ea8" d="M371-533c189 0 256 55 239 237-9 91-67 138-157 205C374-33 301-7 236-7 155-7 13-82 18-160c3-44 62-73 96-38 43 44 152 73 218 29 77-51 166-125 156-169 2-44-67-63-119-62-47 1-108 1-155 3C87-393 13-429 1-531c11-87 101-150 165-187 90-52 160-96 290-87 34 2 118 78 115 115-3 35-23 38-55 45-15 4-26-4-33-24-37-64-116-1-164 12-41 11-154 77-154 113 0 15 14 22 41 22 45 0 127-11 165-11" id="j"/><path fill="#979ea8" d="M382-556c-3 158-18 304-18 470 0 31 6 72-21 86-20 35-87 21-104-6-1-188 14-367 23-549 1-24 13-80-17-80-77 0-131 31-210 31-15-10-43-18-33-45 0-82 83-94 148-109 103-23 215-12 315-40 43-12 91-17 142-23 62-8 95 53 77 116-8 28-47 14-75 18-68 9-134 10-195 30-32 11-31 60-32 101" id="k"/><path fill="#979ea8" d="M103-24C79 10-2-14 8-59c42-186 129-353 193-524 23-62 63-135 99-197 39-38 106-10 109 47 27 100 51 209 81 307 8 25 72 24 72 63 0 44-26 46-37 75 12 83 46 156 55 243 7 63-106 47-114 11-13-58-36-170-57-231-3-4-7-8-9-14-69 4-134 40-198 52-53 21-53 108-81 160-4 16-8 29-18 43zm215-551c-16 18-92 195-73 208 46 2 100-12 123-31-5-30-32-162-38-171-2-3-6-5-12-6" id="l"/><path fill="#979ea8" d="M521-275c40-33 108-24 108 34 0 49-75 103-210 183-80 47-247 72-323 10-66-54-95-101-82-218 12-106 41-136 91-224 55-96 145-209 240-278 32-23 68-33 107-33 86 2 108 61 107 158 0 55-15 82-44 82-55 1-25-116-79-110-132 15-229 223-291 334-48 86-31 226 81 218 122-9 217-92 295-156" id="m"/><path fill="#979ea8" d="M583 1c26 5 52-17 51-41 24-60-22-103-43-144-74-69-132-138-184-228-37-64 44-88 81-120 65-56 138-104 195-168 35-39 5-108-40-113-66 17-104 68-150 105-81 65-158 127-245 187-18 12-48 33-70 13-6-6-8-14-7-23 3-63 18-122 28-181-3-53-39-88-92-91-82 12-51 140-71 216 1 133-13 257-20 381-3 58-27 167 27 193 35 29 78-2 98-20 30-59 16-164 24-251 3-31 38-61 73-59 78 41 118 121 174 184 38 44 71 96 112 139 15 15 32 34 59 21" id="n"/><g id="a"><use transform="matrix(0.022222222222222223,0,0,0.022222222222222223,0,0)" xlink:href="#j"/><use transform="matrix(0.022222222222222223,0,0,0.022222222222222223,12.666666666666668,0)" xlink:href="#k"/><use transform="matrix(0.022222222222222223,0,0,0.022222222222222223,27.91111111111111,0)" xlink:href="#l"/><use transform="matrix(0.022222222222222223,0,0,0.022222222222222223,40.955555555555556,0)" xlink:href="#m"/><use transform="matrix(0.022222222222222223,0,0,0.022222222222222223,55.044444444444444,0)" xlink:href="#n"/></g><path fill="#979ea8" d="M107-780c100 15 51 176 51 272 0 29 23 25 56 24 33-11 175 4 171-42 9-67 4-153 14-224 12-14 39-57 70-50 51 0 74 34 69 103L490-47c-6 28-25 57-57 56-118-5-54-182-54-299 0-34 3-75-15-85-65 6-127 12-191 19-52 29-23 162-29 239C135-7 87 19 22-30 10-48 7-67 13-88c-16-100 8-215 8-322 0-127-9-364 86-370" id="o"/><path fill="#979ea8" d="M330-158c82-22 193-18 286-31 38 11 58 81 24 113-25 24-71 25-116 25-135 0-238 34-358 47C61 7 4-52 15-159c12-113 37-213 32-340-2-59 2-121-2-178-2-44 35-62 81-61 104-31 222-52 345-64 68-7 103 34 111 94 2 12-3 22-9 31-33 14-62 15-103 16-100 2-196 10-270 40h-8c-18 23-11 79-15 106-1 13 5 22 16 25 82-10 176-25 264-12 44 7 78 26 71 72-7 49-76 30-125 30-78 0-138 22-210 29-24 1-35 28-36 52-2 41-10 83-8 126-19 84 122 51 181 35" id="p"/><path fill="#979ea8" d="M23-677c-68-88 127-122 212-122 113 0 253 24 291 82 92 144-48 310-153 365-52 27-102 48-161 69-56 20-53 15-58 80-4 49-8 103-13 153-3 31-19 46-43 46-44 0-65-28-63-81 5-162 8-330 16-486 3-53-4-75-28-106zm415 73c0-44-44-66-132-66-78 0-124 8-135 26-10 16-14 89-14 218 0 44 22 39 57 25 83-34 224-115 224-203" id="q"/><g id="b"><use transform="matrix(0.022222222222222223,0,0,0.022222222222222223,0,0)" xlink:href="#o"/><use transform="matrix(0.022222222222222223,0,0,0.022222222222222223,12.022222222222222,0)" xlink:href="#p"/><use transform="matrix(0.022222222222222223,0,0,0.022222222222222223,26.822222222222223,0)" xlink:href="#l"/><use transform="matrix(0.022222222222222223,0,0,0.022222222222222223,39.86666666666667,0)" xlink:href="#q"/></g><path d="M90-239c59 0 76 52 76 120S152 4 89 4C31 4 14-51 14-119c0-67 17-120 76-120zM89-10c45-6 45-58 45-109 0-50 0-101-45-106-45 4-43 57-43 106 0 50-2 104 43 109" id="r"/><use transform="matrix(0.06790123456790123,0,0,0.06790123456790123,0,0)" xlink:href="#r" id="c"/><path d="M125-118c4-37-41-34-68-26v132l23 4v8H8C5-13 21-9 28-12v-141c-7-3-23 1-20-12h47l2 13c31-23 98-29 98 31v109c7 3 23-1 20 12h-72v-8l22-4v-106" id="s"/><use transform="matrix(0.06790123456790123,0,0,0.06790123456790123,0,0)" xlink:href="#s" id="d"/><path fill="#979ea8" d="M90-239c59 0 76 52 76 120S152 4 89 4C31 4 14-51 14-119c0-67 17-120 76-120zM89-10c45-6 45-58 45-109 0-50 0-101-45-106-45 4-43 57-43 106 0 50-2 104 43 109" id="t"/><use transform="matrix(0.06172839506172839,0,0,0.06172839506172839,0,0)" xlink:href="#t" id="e"/><path fill="#979ea8" d="M110-14l48 5v9H32v-9l48-5v-192l-48 17v-10l69-39h9v224" id="u"/><use transform="matrix(0.06172839506172839,0,0,0.06172839506172839,0,0)" xlink:href="#u" id="f"/><path fill="#979ea8" d="M24-231c66-21 156 2 128 81C132-92 78-66 39-27h121V0H16v-26l59-54c26-25 47-47 47-97 0-48-47-57-81-37l-6 29H24v-46" id="v"/><use transform="matrix(0.06172839506172839,0,0,0.06172839506172839,0,0)" xlink:href="#v" id="g"/><path fill="#979ea8" d="M125-118c4-37-41-34-68-26v132l23 4v8H8C5-13 21-9 28-12v-141c-7-3-23 1-20-12h47l2 13c31-23 98-29 98 31v109c7 3 23-1 20 12h-72v-8l22-4v-106" id="w"/><use transform="matrix(0.06172839506172839,0,0,0.06172839506172839,0,0)" xlink:href="#w" id="h"/><path fill="#979ea8" d="M828-1263c0-55 41-106 95-102 140 10 133 224 150 372 25 219 36 341 36 365 0 117-18 227-54 328C982-97 873 5 730 5 530 5 400-187 341-570c-16 123-24 243-24 360C317-70 280 0 205 0c-53 0-99-44-99-97 0-314 85-1024 186-1197 27-46 56-71 94-71 52 0 87 33 104 99 5 21 8 92 8 213 0 153 26 313 55 481 43 253 101 379 172 379 116 0 183-303 183-438 0-120-80-513-80-632" id="x"/><path fill="#979ea8" d="M806-1260c0-54 39-105 95-105 43 0 76 24 99 73 18 39 27 131 27 277 0 274-20 484-61 631C894-128 756 0 553 0 384 0 262-90 188-270c-51-126-77-289-77-488 0-289 18-467 53-534 26-49 59-73 99-73 53 0 105 52 99 104-14 128-48 300-48 513 0 128 14 239 41 332 41 144 108 216 201 216 105 0 180-98 226-293 29-124 44-265 44-422 0-66-20-279-20-345" id="y"/><path fill="#979ea8" d="M758-451c66-46 150 20 150 87 0 27-17 54-48 86C767-182 488 0 328 0 185 0 113-109 113-326c0-170 46-508 46-695 0-141-8-341 119-344 53-2 103 46 101 99-3-2-26 472-39 636-16 198-28 312-28 343 0 57 11 86 33 86 60 0 168-62 324-185 19-16 49-38 89-65" id="z"/><g id="i"><use transform="matrix(0.010850694444444444,0,0,0.010850694444444444,0,0)" xlink:href="#x"/><use transform="matrix(0.010850694444444444,0,0,0.010850694444444444,13.237847222222221,0)" xlink:href="#y"/><use transform="matrix(0.010850694444444444,0,0,0.010850694444444444,25.575086805555554,0)" xlink:href="#z"/><use transform="matrix(0.010850694444444444,0,0,0.010850694444444444,35.50347222222222,0)" xlink:href="#z"/></g></defs></g></svg>