<svg xmlns="http://www.w3.org/2000/svg" xmlns:xlink="http://www.w3.org/1999/xlink" xmlns:lucid="lucid" width="766.43" height="486.65"><g transform="translate(826.4323689523067 660)" lucid:page-tab-id="0_0"><path d="M-638.5-631a6 6 0 0 1 6-6h168a6 6 0 0 1 6 6v28a6 6 0 0 1-6 6h-168a6 6 0 0 1-6-6z" fill="none"/><use xlink:href="#a" transform="matrix(1,0,0,1,-638.5131829102683,-637.0107909935116) translate(63.8 30.244444444444444)"/><path d="M-591-574a6 6 0 0 1 6-6h148a6 6 0 0 1 6 6v48a6 6 0 0 1-6 6h-148a6 6 0 0 1-6-6z" stroke="#000" fill="#dedeff"/><path d="M-580.5-564.9a6 6 0 0 1 6-6h28a6 6 0 0 1 6 6v28a6 6 0 0 1-6 6h-28a6 6 0 0 1-6-6z" stroke="#000" fill="#f4d9ff"/><use xlink:href="#b" transform="matrix(1,0,0,1,-575.5066914551319,-565.893155108186) translate(8.88888888888889 21.430555555555557)"/><path d="M-531-565.02a6 6 0 0 1 6-6h28a6 6 0 0 1 6 6v28a6 6 0 0 1-6 6h-28a6 6 0 0 1-6-6z" stroke="#000" fill="#f4d9ff"/><use xlink:href="#c" transform="matrix(1,0,0,1,-526.0000999999977,-566.0157331043696) translate(8.88888888888889 21.430555555555557)"/><path d="M-481.5-565.02a6 6 0 0 1 6-6h28a6 6 0 0 1 6 6v28a6 6 0 0 1-6 6h-28a6 6 0 0 1-6-6z" stroke="#000" fill="#f4d9ff"/><path d="M-450.5-551c0 6.08-4.92 11-11 11-6.07 0-11-4.92-11-11s4.93-11 11-11c6.08 0 11 4.92 11 11z" stroke="#000"/><path d="M-594.1-313.22a6 6 0 0 1-6-6v-27a6 6 0 0 1 6-6h27a6 6 0 0 1 6 6v27a6 6 0 0 1-6 6z" stroke="#000" fill="#dedeff"/><path d="M-580.6-343.72c6.06 0 11 4.92 11 11 0 6.07-4.94 11-11 11-6.1 0-11-4.93-11-11 0-6.08 4.9-11 11-11z" stroke="#000"/><path d="M-594.1-352.22a6 6 0 0 1-6-6v-27a6 6 0 0 1 6-6h27a6 6 0 0 1 6 6v27a6 6 0 0 1-6 6z" stroke="#000" fill="#dedeff"/><path d="M-580.6-382.72c6.06 0 11 4.92 11 11 0 6.07-4.94 11-11 11-6.1 0-11-4.93-11-11 0-6.08 4.9-11 11-11z" stroke="#000"/><path d="M-594.1-391.22a6 6 0 0 1-6-6v-27a6 6 0 0 1 6-6h27a6 6 0 0 1 6 6v27a6 6 0 0 1-6 6z" stroke="#000" fill="#dedeff"/><path d="M-580.6-421.72c6.06 0 11 4.92 11 11 0 6.07-4.94 11-11 11-6.1 0-11-4.93-11-11 0-6.08 4.9-11 11-11z" stroke="#000"/><path d="M-461.5-538.5l-.04 1.14-.12 2-.2 1.9-.27 1.8-.33 1.72-.4 1.65-.43 1.6-.5 1.54-.55 1.5-.62 1.47-.68 1.44-.74 1.42-.8 1.4-.88 1.4-.97 1.38-1.06 1.4-1.17 1.4-1.28 1.4-1.42 1.45-1.58 1.46-1.77 1.52-2 1.58-2.3 1.66-2.66 1.76-3.15 1.9-3.86 2.1-4.94 2.44-7.03 3.1-42.6 16.84-4.95 2.44-3.85 2.1-3.16 1.9-2.66 1.76-2.28 1.66-2 1.58-1.78 1.52-1.58 1.48-1.4 1.44-1.3 1.4-1.15 1.42-1.05 1.38-.97 1.4-.88 1.38-.82 1.4-.74 1.42-.37.78" stroke="#000" stroke-width="2" stroke-linejoin="round" fill="none"/><path d="M-460.5-538.45l-2-.04v-1.13l1 .13 1-.13z" stroke="#000" stroke-width=".05"/><path d="M-579.94-433.9l-1.6-14.9 9.07 1.9z" stroke="#000" stroke-width="2" fill="#fff"/><path d="M-619.62-407.22a6 6 0 0 1 6-6h4a6 6 0 0 1 6 6v10a6 6 0 0 1-6 6h-4a6 6 0 0 1-6-6z" fill="none"/><use xlink:href="#d" transform="matrix(1,0,0,1,-619.6183335448676,-413.2220052083333) translate(2.9444444444444446 17.77777777777778)"/><path d="M-619.62-368.22a6 6 0 0 1 6-6h4a6 6 0 0 1 6 6v10a6 6 0 0 1-6 6h-4a6 6 0 0 1-6-6z" fill="none"/><use xlink:href="#e" transform="matrix(1,0,0,1,-619.6183335448676,-374.2220052083333) translate(2.9444444444444446 17.77777777777778)"/><path d="M-620-329.22a6 6 0 0 1 6-6h4a6 6 0 0 1 6 6v10a6 6 0 0 1-6 6h-4a6 6 0 0 1-6-6z" fill="none"/><use xlink:href="#f" transform="matrix(1,0,0,1,-620,-335.2220052083333) translate(2.9444444444444446 17.77777777777778)"/><path d="M-480.5-454.43a6 6 0 0 1 6-6h123a6 6 0 0 1 6 6v28a6 6 0 0 1-6 6h-123a6 6 0 0 1-6-6z" stroke="#000" fill="#fff7a1"/><path d="M-470-449.43a6 6 0 0 1 6-6h18a6 6 0 0 1 6 6v18a6 6 0 0 1-6 6h-18a6 6 0 0 1-6-6z" stroke="#000" fill="#fcfcca"/><path d="M-447.5-440.43c0 4.14-3.37 7.5-7.5 7.5-4.15 0-7.5-3.36-7.5-7.5 0-4.14 3.35-7.5 7.5-7.5 4.13 0 7.5 3.36 7.5 7.5z" stroke="#000"/><path d="M-428-449.43a6 6 0 0 1 6-6h18a6 6 0 0 1 6 6v18a6 6 0 0 1-6 6h-18a6 6 0 0 1-6-6z" stroke="#000" fill="#fcfcca"/><path d="M-405.5-440.43c0 4.14-3.37 7.5-7.5 7.5-4.15 0-7.5-3.36-7.5-7.5 0-4.14 3.35-7.5 7.5-7.5 4.13 0 7.5 3.36 7.5 7.5z" stroke="#000"/><path d="M-386-449.43a6 6 0 0 1 6-6h18a6 6 0 0 1 6 6v18a6 6 0 0 1-6 6h-18a6 6 0 0 1-6-6z" stroke="#000" fill="#fcfcca"/><path d="M-363.5-440.43c0 4.14-3.36 7.5-7.5 7.5-4.14 0-7.5-3.36-7.5-7.5 0-4.14 3.36-7.5 7.5-7.5 4.14 0 7.5 3.36 7.5 7.5z" stroke="#000"/><path d="M-528.2-373.75a6 6 0 0 1 6-6h28a6 6 0 0 1 6 6v6a6 6 0 0 1-6 6h-28a6 6 0 0 1-6-6z" fill="none"/><use xlink:href="#g" transform="matrix(1,0,0,1,-528.1876124999975,-379.7535173993314) translate(2.713333333333342 15.719999999999995)"/><path d="M-568.1-332.7l3.62.1 3.07.26 2.27.32 1.88.38 1.7.44 1.76.57 2.82 1.1 5.8 2.33 3 .97 3.54.92 4.76.94 7.14 1 12.3 1.02 14.94.36" stroke="#000" stroke-width="2" stroke-linejoin="round" fill="none"/><path d="M-568.05-333.7l-.06 2-1.14-.03.13-1-.14-1z" stroke="#000" stroke-width=".05"/><path d="M-484.24-321.8l-14.32 4.47.1-9.27z" stroke="#000" stroke-width="2" fill="#fff"/><path d="M-568.1-371.75l21.42-.48" stroke="#000" stroke-width="2" stroke-linejoin="round" fill="none"/><path d="M-568.06-370.75l-1.18.03.13-1-.14-1 1.14-.02z" stroke="#000" stroke-width=".05"/><path d="M-531.42-372.58l-14.16 4.96-.2-9.27z" stroke="#000" stroke-width="2" fill="#fff"/><path d="M-455.26-383.25a6 6 0 0 1 6-6h8a6 6 0 0 1 6 6v8a6 6 0 0 1-6 6h-8a6 6 0 0 1-6-6z" stroke="#000" fill="#fcfcca"/><path d="M-442.76-379.25c0 1.38-1.12 2.5-2.5 2.5s-2.5-1.12-2.5-2.5 1.12-2.5 2.5-2.5 2.5 1.12 2.5 2.5z" stroke="#000"/><path d="M-454.96-431.42l.3 5.62.85 4.8 1.33 4.42 3.46 8.88" stroke="#000" stroke-width="2" stroke-linejoin="round" fill="none"/><path d="M-455.03-432.42l1-.16.07 1.13-2 .1-.07-1.3z" stroke="#000" stroke-width=".05"/><path d="M-445.93-392.92l-7.45-13.02 9.08-1.9z" stroke="#000" stroke-width="2" fill="#fff"/><path d="M-412.95-431.42l.07 1.25.36 2.02.57 1.9.8 1.8 1.07 1.86 1.48 1.98 2.17 2.25 3.75 3.08 14.23 10.05" stroke="#000" stroke-width="2" stroke-linejoin="round" fill="none"/><path d="M-413.02-432.42l1-.16.07 1.12-2 .12-.07-1.3z" stroke="#000" stroke-width=".05"/><path d="M-381.4-392.58l-11-10.22 8.1-4.5z" stroke="#000" stroke-width="2" fill="#fff"/><path d="M-415.26-383.25a6 6 0 0 1 6-6h58.86a6 6 0 0 1 6 6v7.32a6 6 0 0 1-6 6h-58.86a6 6 0 0 1-6-6z" stroke="#000" fill="#fcfcca"/><use xlink:href="#h" transform="matrix(1,0,0,1,-410.2634829102616,-384.2535173993313) translate(5.296006944444446 8.984374999999998)"/><path d="M-480.5-335.75a6 6 0 0 1 6-6h123a6 6 0 0 1 6 6v28a6 6 0 0 1-6 6h-123a6 6 0 0 1-6-6z" stroke="#000" fill="#fff7a1"/><path d="M-470-330.75a6 6 0 0 1 6-6h18a6 6 0 0 1 6 6v18a6 6 0 0 1-6 6h-18a6 6 0 0 1-6-6z" stroke="#000" fill="#fcfcca"/><path d="M-447.5-321.75c0 4.14-3.37 7.5-7.5 7.5-4.15 0-7.5-3.36-7.5-7.5 0-4.15 3.35-7.5 7.5-7.5 4.13 0 7.5 3.35 7.5 7.5z" stroke="#000"/><path d="M-428-330.75a6 6 0 0 1 6-6h18a6 6 0 0 1 6 6v18a6 6 0 0 1-6 6h-18a6 6 0 0 1-6-6z" stroke="#000" fill="#fcfcca"/><path d="M-405.5-321.75c0 4.14-3.37 7.5-7.5 7.5-4.15 0-7.5-3.36-7.5-7.5 0-4.15 3.35-7.5 7.5-7.5 4.13 0 7.5 3.35 7.5 7.5z" stroke="#000"/><path d="M-386-330.75a6 6 0 0 1 6-6h18a6 6 0 0 1 6 6v18a6 6 0 0 1-6 6h-18a6 6 0 0 1-6-6z" stroke="#000" fill="#fcfcca"/><path d="M-363.5-321.75c0 4.14-3.36 7.5-7.5 7.5-4.14 0-7.5-3.36-7.5-7.5 0-4.15 3.36-7.5 7.5-7.5 4.14 0 7.5 3.35 7.5 7.5z" stroke="#000"/><path d="M-465-264a6 6 0 0 1 6-6h8a6 6 0 0 1 6 6v8a6 6 0 0 1-6 6h-8a6 6 0 0 1-6-6z" stroke="#000" fill="#fcfcca"/><path d="M-452.5-260c0 1.38-1.13 2.5-2.5 2.5-1.4 0-2.5-1.12-2.5-2.5s1.1-2.5 2.5-2.5c1.37 0 2.5 1.12 2.5 2.5z" stroke="#000"/><path d="M-455-312.75V-289" stroke="#000" stroke-width="2" stroke-linejoin="round" fill="none"/><path d="M-455.03-313.75l1.02-.16v1.18h-2v-1.24z" stroke="#000" stroke-width=".05"/><path d="M-455-273.74l-4.65-14.26h9.27z" stroke="#000" stroke-width="2" fill="#fff"/><path d="M-412.95-312.75l.07 1.2.36 1.96.57 1.85.8 1.8 1.1 1.8 1.55 1.97 2.3 2.3 4.25 3.27 13.2 8.98" stroke="#000" stroke-width="2" stroke-linejoin="round" fill="none"/><path d="M-413.02-313.75l1-.16.07 1.12-2 .12-.07-1.3z" stroke="#000" stroke-width=".05"/><path d="M-381.46-275.13l-11.2-9.98 8-4.68z" stroke="#000" stroke-width="2" fill="#fff"/><path d="M-415.26-265.83a6 6 0 0 1 6-6h58.86a6 6 0 0 1 6 6v9.83a6 6 0 0 1-6 6h-58.86a6 6 0 0 1-6-6z" stroke="#000" fill="#fcfcca"/><use xlink:href="#i" transform="matrix(1,0,0,1,-410.2634829102616,-266.8307291666666) translate(4.413194444444457 11.382812499999996)"/><path d="M-568.1-410.75l2.84-.08 3.68-.3 3.56-.52 3.53-.7 3.58-.94 3.7-1.2 4.06-1.56 4.74-2.16 7-3.7 19.72-11 4.75-2.17 4.04-1.56 3.64-1.17" stroke="#000" stroke-width="2" stroke-linejoin="round" fill="none"/><path d="M-568.05-409.75l-1.2.03.14-1-.14-1 1.13-.03z" stroke="#000" stroke-width=".05"/><path d="M-484.2-439.97l-13.48 6.6-1.3-9.2z" stroke="#000" stroke-width="2" fill="#fff"/><path d="M-300.5-323.25a6 6 0 0 1 6-6h28a6 6 0 0 1 6 6v6a6 6 0 0 1-6 6h-28a6 6 0 0 1-6-6z" fill="none"/><use xlink:href="#g" transform="matrix(1,0,0,1,-300.5066914551319,-329.25351739933126) translate(2.713333333333342 15.719999999999995)"/><path d="M-362-321.74l43 .8" stroke="#000" stroke-width="2" stroke-linejoin="round" fill="none"/><path d="M-361.95-322.73l-.04 2-1.2-.03.2-.98-.15-1.02z" stroke="#000" stroke-width=".05"/><path d="M-303.74-320.65l-14.35 4.37.18-9.27z" stroke="#000" stroke-width="2" fill="#fff"/><path d="M-739.5-554a6 6 0 0 1 6-6h27a6 6 0 0 1 6 6v27a6 6 0 0 1-6 6h-27a6 6 0 0 1-6-6z" stroke="#000" fill="#dedeff"/><path d="M-709-540.5c0 6.08-4.92 11-11 11s-11-4.92-11-11 4.92-11 11-11 11 4.92 11 11z" stroke="#000"/><path d="M-641-639.5a.5.5 0 0 1 .5.5v398a.5.5 0 0 1-.5.5.5.5 0 0 1-.5-.5v-398a.5.5 0 0 1 .5-.5z" stroke="#979ea8" fill="none"/><path d="M-787.32-599a.5.5 0 0 1 .5-.5H-81a.5.5 0 0 1 .5.5.5.5 0 0 1-.5.5h-705.82a.5.5 0 0 1-.5-.5z" stroke="#979ea8" fill="none"/><path d="M-806.43-631a6 6 0 0 1 6-6h168a6 6 0 0 1 6 6v28a6 6 0 0 1-6 6h-168a6 6 0 0 1-6-6z" fill="none"/><use xlink:href="#j" transform="matrix(1,0,0,1,-806.4323689523067,-637.0107909935116) translate(54.63333333333333 30.244444444444444)"/><path d="M-707.5-540.52l17.5-.35 13.1-.83 11.46-1.23 42.35-5.87 13.1-.83" stroke="#000" stroke-width="2" stroke-linejoin="round" fill="none"/><path d="M-707.45-539.52l-1.18.02.13-1-.13-1 1.14-.02z" stroke="#000" stroke-width=".05"/><path d="M-594.74-549.94l-14.17 4.92-.2-9.27z" stroke="#000" stroke-width="2" fill="#fff"/><path d="M-300.5-454.43a6 6 0 0 1 6-6h123a6 6 0 0 1 6 6v28a6 6 0 0 1-6 6h-123a6 6 0 0 1-6-6z" stroke="#000" fill="#e81313"/><path d="M-290-449.43a6 6 0 0 1 6-6h18a6 6 0 0 1 6 6v18a6 6 0 0 1-6 6h-18a6 6 0 0 1-6-6z" stroke="#000" fill="#fe7070"/><path d="M-267.5-440.43c0 4.14-3.37 7.5-7.5 7.5-4.15 0-7.5-3.36-7.5-7.5 0-4.14 3.35-7.5 7.5-7.5 4.13 0 7.5 3.36 7.5 7.5z" stroke="#000"/><path d="M-248-449.43a6 6 0 0 1 6-6h18a6 6 0 0 1 6 6v18a6 6 0 0 1-6 6h-18a6 6 0 0 1-6-6z" stroke="#000" fill="#fe7070"/><path d="M-225.5-440.43c0 4.14-3.37 7.5-7.5 7.5-4.15 0-7.5-3.36-7.5-7.5 0-4.14 3.35-7.5 7.5-7.5 4.13 0 7.5 3.36 7.5 7.5z" stroke="#000"/><path d="M-206-449.43a6 6 0 0 1 6-6h18a6 6 0 0 1 6 6v18a6 6 0 0 1-6 6h-18a6 6 0 0 1-6-6z" stroke="#000" fill="#fe7070"/><path d="M-183.5-440.43c0 4.14-3.36 7.5-7.5 7.5-4.14 0-7.5-3.36-7.5-7.5 0-4.14 3.36-7.5 7.5-7.5 4.14 0 7.5 3.36 7.5 7.5z" stroke="#000"/><path d="M-233-274a6 6 0 0 1 6-6h8a6 6 0 0 1 6 6v8a6 6 0 0 1-6 6h-8a6 6 0 0 1-6-6z" stroke="#000" fill="#fe7070"/><path d="M-220.5-270c0 1.38-1.13 2.5-2.5 2.5-1.4 0-2.5-1.12-2.5-2.5s1.1-2.5 2.5-2.5c1.37 0 2.5 1.12 2.5 2.5z" stroke="#000"/><path d="M-275-431.42l.12 5.58.37 5.9.55 5.36.73 4.94.88 4.6 1.02 4.35 1.16 4.17 1.3 4.03 1.48 3.97 1.68 4 1.95 4.12 2.32 4.42 2.97 5.13 4.7 7.38 14.2 21.4 2.97 5.13 2.33 4.43 1.95 4.1 1.68 4 1.47 3.98 1.3 4.03 1.17 4.16 1.02 4.35.88 4.62.64 4.33" stroke="#000" stroke-width="2" stroke-linejoin="round" fill="none"/><path d="M-275.03-432.42l1-.16.04 1.16-2 .05-.02-1.26z" stroke="#000" stroke-width=".05"/><path d="M-223.2-283.73l-5.53-13.95 9.25-.58z" stroke="#000" stroke-width="2" fill="#fff"/><path d="M-232.97-431.42v.38l.16 1.32.24 1.27.33 1.23.44 1.23.55 1.23.66 1.24.83 1.3 1 1.33 1.27 1.43 1.6 1.56 2.07 1.74 2.84 2.04 4.24 2.58 8 4.04 25.6 11.9 4.22 2.57 2.84 2.04.68.58" stroke="#000" stroke-width="2" stroke-linejoin="round" fill="none"/><path d="M-233.02-432.42l1-.16.05 1.14-2 .08-.04-1.28z" stroke="#000" stroke-width=".05"/><path d="M-168.46-377.57l-10.87-10.33 8.15-4.42z" stroke="#000" stroke-width="2" fill="#fff"/><path d="M-202.35-368.22a6 6 0 0 1 6-6h58.86a6 6 0 0 1 6 6v8a6 6 0 0 1-6 6h-58.85a6 6 0 0 1-6-6z" stroke="#000" fill="#fe7070"/><use xlink:href="#k" transform="matrix(1,0,0,1,-197.3517299070346,-369.2220052083333) translate(4.057508680555554 9.882812499999998)"/><path d="M-362-440.45l2.68-.07 3.37-.24 3.13-.37 2.93-.5 2.8-.6 2.64-.7 2.57-.83 2.52-.93 2.47-1.06 2.47-1.2 2.52-1.38 2.58-1.58 2.75-1.87 3-2.24 3.5-2.9 4.62-4.2 23.3-22.84 4.37-3.6 3.94-2.97 3.75-2.54 3.7-2.23 3.68-2.02 3.75-1.82 3.86-1.65 4.03-1.5 3.07-1 4.07-1.17 4.64-1.1 5.3-1.04 5.94-.9 6.64-.74 7.28-.5 7.8-.2 8.2.12 8.3.48 8.27.82 7.96 1.13 7.5 1.4 6.96 1.58 6.35 1.73 5.74 1.83 5.14 1.9 4.6 1.88 4.08 1.9 3.65 1.88 3.25 1.84 2.9 1.82 2.58 1.77 2.3 1.72 2.08 1.7 1.87 1.65 1.67 1.62 1.5 1.58 1.37 1.56 1.24 1.53 1.1 1.5 1.02 1.5.9 1.48.7 1.24" stroke="#000" stroke-width="2" stroke-linejoin="round" fill="none"/><path d="M-361.94-439.45l-1.26.02.2-1-.15-1 1.16-.02z" stroke="#000" stroke-width=".05"/><path d="M-111.46-455.2l-8-12.7 9-2.27z" stroke="#000" stroke-width="2" fill="#fff"/><path d="M-120.5-446.06a6 6 0 0 1 6-6h28a6 6 0 0 1 6 6v7.13a6 6 0 0 1-6 6h-28a6 6 0 0 1-6-6z" fill="none"/><use xlink:href="#g" transform="matrix(1,0,0,1,-120.50669145513189,-452.0608325933061) translate(2.713333333333342 16.146666666666665)"/><path d="M-174.5-440.43h35.5" stroke="#000" stroke-width="2" stroke-linejoin="round" fill="none"/><path d="M-174.47-439.43h-1.03v-2h1.03z" stroke="#000" stroke-width=".05"/><path d="M-123.74-440.43L-138-435.8v-9.26z" stroke="#000" stroke-width="2" fill="#fff"/><path d="M-253-478a6 6 0 0 1 6-6h28a6 6 0 0 1 6 6v6a6 6 0 0 1-6 6h-28a6 6 0 0 1-6-6z" fill="none"/><use xlink:href="#l" transform="matrix(1,0,0,1,-253.0066914551319,-483.9892090064884) translate(-13.793333333333322 15.719999999999995)"/><path d="M-319-439.43a1 1 0 0 1 1-1h176a1 1 0 0 1 1 1 1 1 0 0 1-1 1h-176a1 1 0 0 1-1-1z" fill="none"/><path d="M-304.3-440.43h11.72m7.82 0h11.74m7.82 0h11.73m7.83 0h11.73m7.8 0h11.74m7.83 0h11.73m7.82 0h11.74m7.82 0h11.73m7.83 0h6.03l.15.05.15.06.14.08.1.1.1.12.1.14.05.14.04.15v.33l-.05.15-.06.14-.1.14-.1.12-.1.1-.15.08-.14.06-.14.04h-6.03m-7.82 0h-11.72m-7.82 0h-11.74m-7.82 0h-11.73m-7.83 0h-11.73m-7.8 0h-11.74m-7.83 0h-11.73m-7.82 0h-11.74m-7.82 0h-11.73m-7.83 0h-6.03l-.15-.04-.15-.06-.14-.08-.1-.1-.1-.12-.1-.14-.05-.14-.04-.15v-.32l.05-.14.06-.14.1-.14.1-.12.1-.1.15-.08.14-.06.14-.04h6.03" stroke="#fcce14" stroke-width="2" fill="none"/><path d="M-739.5-465.7a6 6 0 0 1 6-6h27a6 6 0 0 1 6 6v27a6 6 0 0 1-6 6h-27a6 6 0 0 1-6-6z" stroke="#000" fill="#008a0e"/><path d="M-709-452.2c0 6.07-4.92 11-11 11s-11-4.93-11-11c0-6.08 4.92-11 11-11s11 4.92 11 11z" stroke="#000"/><path d="M-719.98-439.7l.2 9.85.75 11.63 1.3 12.38 1.93 13.05 2.6 13.62 3.28 14 3.97 14.22 4.62 14.2 5.2 13.97 5.7 13.56 6.08 12.94 6.38 12.23 6.6 11.4 6.7 10.56 6.72 9.7 6.72 8.84 6.65 8.04 6.55 7.28 6.44 6.58 6.3 5.92 6.17 5.32 6.03 4.78 5.9 4.28 5.75 3.83 5.64 3.4 5.5 3.05 5.44 2.7 5.33 2.37 5.25 2.07 5.18 1.8 5.12 1.55 5.08 1.3.24.06 4.32.9 4.5.76 4.73.6 4.95.4 5.27.2h5.62l6.04-.27 6.57-.57 7.22-.93 8.04-1.38 9.1-1.97 10.57-2.74 12.67-3.87 16.17-5.68 23.73-9.5L-318-251.6l16.85-5.93 13.33-4.07 11.2-2.9 9.68-2.08 8.6-1.48 6.38-.82" stroke="#000" stroke-width="2" stroke-linejoin="round" fill="none"/><path d="M-720-440.7l1-.13.02 1.13-2 .05-.02-1.2z" stroke="#000" stroke-width=".05"/><path d="M-236.74-269.8l-13.95 5.5-.56-9.26z" stroke="#000" stroke-width="2" fill="#fff"/><path d="M-736.43-483.7a6 6 0 0 1 6-6h28a6 6 0 0 1 6 6v6a6 6 0 0 1-6 6h-28a6 6 0 0 1-6-6z" fill="none"/><use xlink:href="#m" transform="matrix(1,0,0,1,-736.4323689523067,-489.7085168304617) translate(-16.106666666666655 15.719999999999995)"/><defs><path fill="#979ea8" d="M107-780c100 15 51 176 51 272 0 29 23 25 56 24 33-11 175 4 171-42 9-67 4-153 14-224 12-14 39-57 70-50 51 0 74 34 69 103L490-47c-6 28-25 57-57 56-118-5-54-182-54-299 0-34 3-75-15-85-65 6-127 12-191 19-52 29-23 162-29 239C135-7 87 19 22-30 10-48 7-67 13-88c-16-100 8-215 8-322 0-127-9-364 86-370" id="n"/><path fill="#979ea8" d="M330-158c82-22 193-18 286-31 38 11 58 81 24 113-25 24-71 25-116 25-135 0-238 34-358 47C61 7 4-52 15-159c12-113 37-213 32-340-2-59 2-121-2-178-2-44 35-62 81-61 104-31 222-52 345-64 68-7 103 34 111 94 2 12-3 22-9 31-33 14-62 15-103 16-100 2-196 10-270 40h-8c-18 23-11 79-15 106-1 13 5 22 16 25 82-10 176-25 264-12 44 7 78 26 71 72-7 49-76 30-125 30-78 0-138 22-210 29-24 1-35 28-36 52-2 41-10 83-8 126-19 84 122 51 181 35" id="o"/><path fill="#979ea8" d="M103-24C79 10-2-14 8-59c42-186 129-353 193-524 23-62 63-135 99-197 39-38 106-10 109 47 27 100 51 209 81 307 8 25 72 24 72 63 0 44-26 46-37 75 12 83 46 156 55 243 7 63-106 47-114 11-13-58-36-170-57-231-3-4-7-8-9-14-69 4-134 40-198 52-53 21-53 108-81 160-4 16-8 29-18 43zm215-551c-16 18-92 195-73 208 46 2 100-12 123-31-5-30-32-162-38-171-2-3-6-5-12-6" id="p"/><path fill="#979ea8" d="M23-677c-68-88 127-122 212-122 113 0 253 24 291 82 92 144-48 310-153 365-52 27-102 48-161 69-56 20-53 15-58 80-4 49-8 103-13 153-3 31-19 46-43 46-44 0-65-28-63-81 5-162 8-330 16-486 3-53-4-75-28-106zm415 73c0-44-44-66-132-66-78 0-124 8-135 26-10 16-14 89-14 218 0 44 22 39 57 25 83-34 224-115 224-203" id="q"/><g id="a"><use transform="matrix(0.022222222222222223,0,0,0.022222222222222223,0,0)" xlink:href="#n"/><use transform="matrix(0.022222222222222223,0,0,0.022222222222222223,12.022222222222222,0)" xlink:href="#o"/><use transform="matrix(0.022222222222222223,0,0,0.022222222222222223,26.822222222222223,0)" xlink:href="#p"/><use transform="matrix(0.022222222222222223,0,0,0.022222222222222223,39.86666666666667,0)" xlink:href="#q"/></g><path d="M24-231c66-21 156 2 128 81C132-92 78-66 39-27h121V0H16v-26l59-54c26-25 47-47 47-97 0-48-47-57-81-37l-6 29H24v-46" id="r"/><use transform="matrix(0.06790123456790123,0,0,0.06790123456790123,0,0)" xlink:href="#r" id="b"/><path d="M104-123c39 3 61 21 62 59C167 7 83 12 19-4l-2-50h12c2 29 16 43 51 43 38 0 54-19 54-55 2-43-34-49-75-50v-14c37 0 64-7 64-48 0-47-47-56-81-36l-6 29H24v-46c51-13 135-13 131 51-2 34-20 52-51 57" id="s"/><use transform="matrix(0.06790123456790123,0,0,0.06790123456790123,0,0)" xlink:href="#s" id="c"/><path fill="#979ea8" d="M90-239c59 0 76 52 76 120S152 4 89 4C31 4 14-51 14-119c0-67 17-120 76-120zM89-10c45-6 45-58 45-109 0-50 0-101-45-106-45 4-43 57-43 106 0 50-2 104 43 109" id="t"/><use transform="matrix(0.06172839506172839,0,0,0.06172839506172839,0,0)" xlink:href="#t" id="d"/><path fill="#979ea8" d="M110-14l48 5v9H32v-9l48-5v-192l-48 17v-10l69-39h9v224" id="u"/><use transform="matrix(0.06172839506172839,0,0,0.06172839506172839,0,0)" xlink:href="#u" id="e"/><path fill="#979ea8" d="M24-231c66-21 156 2 128 81C132-92 78-66 39-27h121V0H16v-26l59-54c26-25 47-47 47-97 0-48-47-57-81-37l-6 29H24v-46" id="v"/><use transform="matrix(0.06172839506172839,0,0,0.06172839506172839,0,0)" xlink:href="#v" id="f"/><path fill="#6f7681" d="M24-128c0-158-18-313-5-472 6-74-11-192 62-191 78 1 88 68 113 130 59 143 102 191 174 297 50 73 81 109 92 109 8 0 12-3 13-9 24-163 3-322-12-477-6-63 62-76 101-37 65 64 45 212 54 340 10 141 7 304-15 413-8 15-20 23-37 23-76 0-203-132-244-200-33-54-79-109-116-169l4 4c-9-20-41-55-54-51-14 102-5 244 6 344 3 30-15 69-41 68-9 0-28-1-56-3-44-28-39-45-39-119" id="w"/><path fill="#6f7681" d="M109-754c29-56 120 5 113 55-24 164-73 311-76 498 0 44 17 66 52 66 44 0 193-39 283-82 16-8 27-24 32-45 27-114 44-316 44-439 0-57 27-86 82-86 38 0 57 27 57 82 0 195-35 406-61 587 5 33 20 94-14 106-8 12-30 10-67-7-15-20-33-39-52-56C437-54 255 2 210 0 80-5 5-44 13-182c11-186 48-366 83-531 3-12 5-27 13-41" id="x"/><path fill="#6f7681" d="M21-302C-7-136 9 24 196-12c147-28 263-93 386-142 57-23 26-120-26-120-111 32-240 115-378 126-13 1-22-26-25-45 30-174 59-350 88-524 10-62-86-124-120-61-39 73-49 196-69 277-19 77-22 145-31 199" id="y"/><g id="g"><use transform="matrix(0.013333333333333329,0,0,0.013333333333333329,0,0)" xlink:href="#w"/><use transform="matrix(0.013333333333333329,0,0,0.013333333333333329,8.546666666666663,0)" xlink:href="#x"/><use transform="matrix(0.013333333333333329,0,0,0.013333333333333329,17.94666666666666,0)" xlink:href="#y"/><use transform="matrix(0.013333333333333329,0,0,0.013333333333333329,26.37333333333332,0)" xlink:href="#y"/></g><path d="M666-1365c326 0 518 259 518 595 0 178-48 346-145 502C928-89 788 0 621 0 344 0 200-283 200-582c0-169 35-333 107-490 89-196 210-293 359-293zM401-582c0 173 76 381 229 381 86 0 168-71 247-214 71-127 106-239 106-334 0-219-129-422-336-417-153 61-246 349-246 584" id="z"/><path d="M172-1273c0-51 55-92 106-92 37 0 64 24 92 68 37 59 126 327 147 375 45-73 86-148 133-220 69-105 130-155 174-155 52 0 105 52 103 104-20 75-241 385-311 490 18 36 85 160 200 372 65 118 97 196 97 234 1 55-42 97-97 97-43 0-105-70-183-212-15-28-60-122-136-281-43 69-136 292-221 411-25 35-56 50-87 50-84 0-113-73-88-151 12-39 108-216 290-529-146-314-219-501-219-561" id="A"/><path d="M763-737c119 66 232 201 235 370C1002-138 781 0 539 0 307 0 164-187 164-411c0-153 57-265 171-337-87-71-130-164-130-279-1-207 116-338 324-338 198 0 387 157 387 358 0 119-51 209-153 270zM556-879c82 0 159-51 159-133 0-90-87-154-176-154s-133 55-133 164c0 75 73 123 150 123zM367-406c0 89 78 203 167 203 159 0 239-67 239-201 0-94-135-198-227-198-90 0-179 106-179 196" id="B"/><path d="M592-1365c194 7 272 184 272 399 0 120-87 574-93 628-13 114-25 181-30 201C717-46 678 0 625 0c-48 0-101-44-101-92 0-132 51-296 78-415C319-461 53-614 53-877c0-222 314-496 539-488zm-32 194c-138-8-294 169-294 307 0 106 68 159 203 159 53 0 111-8 174-25 14-93 21-185 21-277 1-103-17-159-104-164" id="C"/><path d="M387-1365c369 0 678 217 678 573 0 172-83 346-249 522C647-90 478 0 307 0 194 0 137-80 137-239c0-257 30-558 68-915-53-11-80-43-80-95 0-56 32-93 97-108 26-6 81-8 165-8zm21 204c-15 76-47 491-72 917 0 13 1 27 2 41 116-22 231-92 346-210 120-123 180-241 180-355-1-196-67-277-209-343-74-35-157-50-247-50" id="D"/><path d="M602-1365c226 0 427 132 427 346 0 137-77 248-230 335 105 61 197 186 199 339 3 281-357 407-648 316-78-24-131-56-167-92-63-64-18-172 66-171 17 0 42 10 75 29 69 40 136 60 203 60 99 0 270-46 270-132 0-65-34-119-101-162-30-30-193-73-257-109-51-48-33-144 39-165 105-30 195-49 270-118 51-47 80-92 80-140 0-76-136-135-220-135-54 0-174 34-292 55-51 9-103-51-103-103 0-108 251-153 389-153" id="E"/><path d="M722-1365c155 0 277 78 276 225 0 91-50 195-151 314-48 56-136 140-262 254-171 154-256 259-256 316 0 37 32 55 96 55 103 0 398-64 478-64 48 0 94 55 94 103 0 50-33 87-101 99C773-42 564-1 425 0 221 0 119-76 119-227c0-93 56-204 169-333 46-52 140-144 284-277s216-227 216-283c0-29-23-44-69-44-62 0-148 26-258 77-11 52-41 78-92 78-58 0-103-42-103-100 0-156 283-256 456-256" id="F"/><path d="M111-254c0-80 75-479 73-483 3-23 17-167 40-434-41-20-62-51-62-94 0-67 48-100 145-100 431 0 647 127 647 380 0 161-86 280-258 359 120 81 180 177 180 290 0 173-116 256-272 302C530-12 459 0 391 0 204 0 111-85 111-254zm642-722c0-105-210-177-326-186-9 140-24 282-43 426 246-59 369-139 369-240zm-77 638c-27-89-136-153-326-193-27 162-48 229-34 323 82 18 157 3 237-24 75-26 116-61 123-106" id="G"/><path d="M369 0C201 0 119-119 119-294c0-119 26-272 77-457 80-290 99-377 125-524 7-13 27-26 60-41 71-33 211-49 419-49 129 0 193 36 193 107 0 50-48 105-99 101-142-10-258-9-397 20-11 59-34 158-69 297 146-57 246-85 301-85 53 0 100 43 100 96 0 43-23 80-73 99-127 49-178 54-389 129-29 119-44 224-44 314 0 58 10 87 30 87 66 0 151-30 256-90s173-91 205-91c50 0 101 49 101 99 0 30-19 57-51 87C794-129 500 0 369 0" id="H"/><g id="h"><use transform="matrix(0.004340277777777777,0,0,0.004340277777777777,0,0)" xlink:href="#z"/><use transform="matrix(0.004340277777777777,0,0,0.004340277777777777,6.015624999999999,0)" xlink:href="#A"/><use transform="matrix(0.004340277777777777,0,0,0.004340277777777777,10.451388888888888,0)" xlink:href="#B"/><use transform="matrix(0.004340277777777777,0,0,0.004340277777777777,15.38628472222222,0)" xlink:href="#C"/><use transform="matrix(0.004340277777777777,0,0,0.004340277777777777,19.869791666666664,0)" xlink:href="#D"/><use transform="matrix(0.004340277777777777,0,0,0.004340277777777777,24.787326388888886,0)" xlink:href="#E"/><use transform="matrix(0.004340277777777777,0,0,0.004340277777777777,29.95225694444444,0)" xlink:href="#F"/><use transform="matrix(0.004340277777777777,0,0,0.004340277777777777,35.05642361111111,0)" xlink:href="#G"/><use transform="matrix(0.004340277777777777,0,0,0.004340277777777777,39.56163194444444,0)" xlink:href="#H"/><use transform="matrix(0.004340277777777777,0,0,0.004340277777777777,44.39236111111111,0)" xlink:href="#z"/></g><path d="M200-1365c95 3 162 6 292 6 343 0 515 81 515 243 0 172-258 535-348 706-53 101-82 215-127 338-18 49-50 72-90 72-61 0-126-55-104-125 63-205 151-424 283-648 32-54 84-133 147-241 14-24 20-43 20-56 0-67-104-101-312-101-139 0-364 56-370-92-2-49 45-103 94-102" id="I"/><path d="M324-1236c5 23-37 369-37 466 0 156 45 234 136 234 188 0 282-184 282-553 11-40 18-100 31-177 11-67 49-99 100-99 69 0 103 44 103 133 0 160-19 698-19 858 0 51 8 229 8 280 0 49-51 94-100 94-77 0-115-76-115-227v-230c-84 79-185 119-303 119-217 0-325-140-325-421 0-92 40-385 36-477-2-55 48-97 103-97 54 0 102 42 100 97" id="J"/><path d="M295-1038c-53 2-99-46-99-99 0-31 18-59 51-87 37-32 224-141 280-141 69 0 104 33 104 99v735c-33 116-21 386-54 459-21 48-54 72-99 72-64 1-108-57-94-125 18-88 24-194 24-317 1 31 2-75 2-317v-328c-50 33-88 49-115 49" id="K"/><path d="M922-654c-9 182 20 369 29 555 5 90-140 139-183 58-2-3-13-31-31-85-54-160-191-263-414-306-19 75-30 243-58 360-12 50-51 72-98 72-55 0-99-53-99-108 1-366 195-896 360-1117 69-92 141-140 222-140 182 0 273 207 273 621 0 19 1 49-1 90zM724-476v-400c-20-103-13-145-35-225-11-40-25-60-40-60-32 0-83 65-154 195-56 103-99 215-130 336 137 27 256 79 359 154" id="L"/><g id="i"><use transform="matrix(0.004774305555555554,0,0,0.004774305555555554,0,0)" xlink:href="#z"/><use transform="matrix(0.004774305555555554,0,0,0.004774305555555554,6.617187499999998,0)" xlink:href="#A"/><use transform="matrix(0.004774305555555554,0,0,0.004774305555555554,11.496527777777775,0)" xlink:href="#I"/><use transform="matrix(0.004774305555555554,0,0,0.004774305555555554,16.65277777777777,0)" xlink:href="#J"/><use transform="matrix(0.004774305555555554,0,0,0.004774305555555554,22.15277777777777,0)" xlink:href="#G"/><use transform="matrix(0.004774305555555554,0,0,0.004774305555555554,27.108506944444436,0)" xlink:href="#K"/><use transform="matrix(0.004774305555555554,0,0,0.004774305555555554,31.118923611111097,0)" xlink:href="#D"/><use transform="matrix(0.004774305555555554,0,0,0.004774305555555554,36.52821180555554,0)" xlink:href="#F"/><use transform="matrix(0.004774305555555554,0,0,0.004774305555555554,42.14279513888887,0)" xlink:href="#C"/><use transform="matrix(0.004774305555555554,0,0,0.004774305555555554,47.07465277777776,0)" xlink:href="#L"/></g><path fill="#979ea8" d="M371-533c189 0 256 55 239 237-9 91-67 138-157 205C374-33 301-7 236-7 155-7 13-82 18-160c3-44 62-73 96-38 43 44 152 73 218 29 77-51 166-125 156-169 2-44-67-63-119-62-47 1-108 1-155 3C87-393 13-429 1-531c11-87 101-150 165-187 90-52 160-96 290-87 34 2 118 78 115 115-3 35-23 38-55 45-15 4-26-4-33-24-37-64-116-1-164 12-41 11-154 77-154 113 0 15 14 22 41 22 45 0 127-11 165-11" id="M"/><path fill="#979ea8" d="M382-556c-3 158-18 304-18 470 0 31 6 72-21 86-20 35-87 21-104-6-1-188 14-367 23-549 1-24 13-80-17-80-77 0-131 31-210 31-15-10-43-18-33-45 0-82 83-94 148-109 103-23 215-12 315-40 43-12 91-17 142-23 62-8 95 53 77 116-8 28-47 14-75 18-68 9-134 10-195 30-32 11-31 60-32 101" id="N"/><path fill="#979ea8" d="M521-275c40-33 108-24 108 34 0 49-75 103-210 183-80 47-247 72-323 10-66-54-95-101-82-218 12-106 41-136 91-224 55-96 145-209 240-278 32-23 68-33 107-33 86 2 108 61 107 158 0 55-15 82-44 82-55 1-25-116-79-110-132 15-229 223-291 334-48 86-31 226 81 218 122-9 217-92 295-156" id="O"/><path fill="#979ea8" d="M583 1c26 5 52-17 51-41 24-60-22-103-43-144-74-69-132-138-184-228-37-64 44-88 81-120 65-56 138-104 195-168 35-39 5-108-40-113-66 17-104 68-150 105-81 65-158 127-245 187-18 12-48 33-70 13-6-6-8-14-7-23 3-63 18-122 28-181-3-53-39-88-92-91-82 12-51 140-71 216 1 133-13 257-20 381-3 58-27 167 27 193 35 29 78-2 98-20 30-59 16-164 24-251 3-31 38-61 73-59 78 41 118 121 174 184 38 44 71 96 112 139 15 15 32 34 59 21" id="P"/><g id="j"><use transform="matrix(0.022222222222222223,0,0,0.022222222222222223,0,0)" xlink:href="#M"/><use transform="matrix(0.022222222222222223,0,0,0.022222222222222223,12.666666666666668,0)" xlink:href="#N"/><use transform="matrix(0.022222222222222223,0,0,0.022222222222222223,27.91111111111111,0)" xlink:href="#p"/><use transform="matrix(0.022222222222222223,0,0,0.022222222222222223,40.955555555555556,0)" xlink:href="#O"/><use transform="matrix(0.022222222222222223,0,0,0.022222222222222223,55.044444444444444,0)" xlink:href="#P"/></g><path d="M108-101c0-144 39-657 39-763 0-78 7-179 29-235 46-116 122-195 235-232 69-23 183-34 342-34 78 0 117 33 117 99 0 83-48 100-162 100-195-1-308 48-343 145-25 70-17 205-22 302 195-81 317-121 367-121 54 0 101 56 101 110 0 37-23 69-72 88-119 47-231 77-408 144-1 97 0 317-24 397C287-35 257 0 208 0c-50 0-100-50-100-101" id="Q"/><path d="M457-877c340-69 656 129 656 435C1113-201 859 0 613 0 335 0 184-205 184-495c0-227 70-468 210-724 53-97 102-146 147-146 52 0 111 45 104 97-8 57-146 305-188 391zm163 674c127 0 293-116 293-242 0-134-166-244-304-244-63 0-133 13-210 39-10 73-15 126-15 160-1 165 79 287 236 287" id="R"/><g id="k"><use transform="matrix(0.004774305555555555,0,0,0.004774305555555555,0,0)" xlink:href="#z"/><use transform="matrix(0.004774305555555555,0,0,0.004774305555555555,6.617187499999999,0)" xlink:href="#A"/><use transform="matrix(0.004774305555555555,0,0,0.004774305555555555,11.496527777777777,0)" xlink:href="#K"/><use transform="matrix(0.004774305555555555,0,0,0.004774305555555555,15.506944444444443,0)" xlink:href="#Q"/><use transform="matrix(0.004774305555555555,0,0,0.004774305555555555,19.760850694444443,0)" xlink:href="#D"/><use transform="matrix(0.004774305555555555,0,0,0.004774305555555555,25.170138888888886,0)" xlink:href="#L"/><use transform="matrix(0.004774305555555555,0,0,0.004774305555555555,30.269097222222218,0)" xlink:href="#B"/><use transform="matrix(0.004774305555555555,0,0,0.004774305555555555,35.697482638888886,0)" xlink:href="#E"/><use transform="matrix(0.004774305555555555,0,0,0.004774305555555555,41.37890624999999,0)" xlink:href="#R"/><use transform="matrix(0.004774305555555555,0,0,0.004774305555555555,47.57118055555556,0)" xlink:href="#H"/></g><path fill="#e81313" d="M330-158c82-22 193-18 286-31 38 11 58 81 24 113-25 24-71 25-116 25-135 0-238 34-358 47C61 7 4-52 15-159c12-113 37-213 32-340-2-59 2-121-2-178-2-44 35-62 81-61 104-31 222-52 345-64 68-7 103 34 111 94 2 12-3 22-9 31-33 14-62 15-103 16-100 2-196 10-270 40h-8c-18 23-11 79-15 106-1 13 5 22 16 25 82-10 176-25 264-12 44 7 78 26 71 72-7 49-76 30-125 30-78 0-138 22-210 29-24 1-35 28-36 52-2 41-10 83-8 126-19 84 122 51 181 35" id="S"/><path fill="#e81313" d="M21-302C-7-136 9 24 196-12c147-28 263-93 386-142 57-23 26-120-26-120-111 32-240 115-378 126-13 1-22-26-25-45 30-174 59-350 88-524 10-62-86-124-120-61-39 73-49 196-69 277-19 77-22 145-31 199" id="T"/><path fill="#e81313" d="M292-638c-67 2-113 14-176 21-81 9-112-68-58-103 132-46 304-52 470-66l65 5c50 52 43 111-50 111-45 0-75 15-112 18-18 16-19 83-24 152-7 108-21 214-33 322-5 46 36 20 67 20 54 0 81-10 139-16 43 25 50 62 23 110-151 29-311 50-490 79C58 24-8 22 3-44c14-83 161-45 224-90 22-16 24-69 29-107 17-126 33-258 36-397" id="U"/><path fill="#e81313" d="M629-645c28 177 9 401 28 582 3 29-18 50-47 50-97 0-67-194-71-306-1-24-4-66-3-92 1-39-15-57-30-33-49 79-88 161-139 243-9 15-21 23-34 23-33 0-70-69-89-115-10-23-57-152-73-152-28 0-27 119-31 162-9 93-16 174-27 265-2 3-35 21-48 20-71-3-50-117-43-176 24-211 38-410 84-595 39-67 121 2 138 59 22 73 63 167 84 249 7 23 13 34 20 34 17 0 54-75 107-225 17-48 42-155 115-96 31 25 52 57 59 103" id="V"/><path fill="#e81313" d="M24-128c0-158-18-313-5-472 6-74-11-192 62-191 78 1 88 68 113 130 59 143 102 191 174 297 50 73 81 109 92 109 8 0 12-3 13-9 24-163 3-322-12-477-6-63 62-76 101-37 65 64 45 212 54 340 10 141 7 304-15 413-8 15-20 23-37 23-76 0-203-132-244-200-33-54-79-109-116-169l4 4c-9-20-41-55-54-51-14 102-5 244 6 344 3 30-15 69-41 68-9 0-28-1-56-3-44-28-39-45-39-119" id="W"/><path fill="#e81313" d="M103-24C79 10-2-14 8-59c42-186 129-353 193-524 23-62 63-135 99-197 39-38 106-10 109 47 27 100 51 209 81 307 8 25 72 24 72 63 0 44-26 46-37 75 12 83 46 156 55 243 7 63-106 47-114 11-13-58-36-170-57-231-3-4-7-8-9-14-69 4-134 40-198 52-53 21-53 108-81 160-4 16-8 29-18 43zm215-551c-16 18-92 195-73 208 46 2 100-12 123-31-5-30-32-162-38-171-2-3-6-5-12-6" id="X"/><path fill="#e81313" d="M608-642l-20 77c-36 56-69 94-113 138-49 48-58 40-29 81 33 46 69 89 97 147 44 89 52 141 40 147-3 38-20 49-63 52-68 5-97-106-129-160-40-68-56-162-144-164-53-1-27 78-45 121-7 56-12 123-28 170C157-4 113 24 66-1 46-11 40-39 49-87c19-111 19-139 19-313 0-144 1-187-40-242-27-37-13-94 26-108 103-36 250-59 389-41 63 8 182 85 165 149zm-140 11c-10-39-42-58-96-57-53 12-154 21-179 43-5 9-8 31-8 65 0 151 19 135 127 94 94-36 148-79 156-145" id="Y"/><g id="l"><use transform="matrix(0.013333333333333329,0,0,0.013333333333333329,0,0)" xlink:href="#S"/><use transform="matrix(0.013333333333333329,0,0,0.013333333333333329,8.879999999999997,0)" xlink:href="#T"/><use transform="matrix(0.013333333333333329,0,0,0.013333333333333329,17.079999999999995,0)" xlink:href="#U"/><use transform="matrix(0.013333333333333329,0,0,0.013333333333333329,25.54666666666666,0)" xlink:href="#V"/><use transform="matrix(0.013333333333333329,0,0,0.013333333333333329,34.50666666666666,0)" xlink:href="#U"/><use transform="matrix(0.013333333333333329,0,0,0.013333333333333329,42.97333333333332,0)" xlink:href="#W"/><use transform="matrix(0.013333333333333329,0,0,0.013333333333333329,51.51999999999998,0)" xlink:href="#X"/><use transform="matrix(0.013333333333333329,0,0,0.013333333333333329,59.34666666666665,0)" xlink:href="#Y"/></g><path fill="#008a0e" d="M608-642l-20 77c-36 56-69 94-113 138-49 48-58 40-29 81 33 46 69 89 97 147 44 89 52 141 40 147-3 38-20 49-63 52-68 5-97-106-129-160-40-68-56-162-144-164-53-1-27 78-45 121-7 56-12 123-28 170C157-4 113 24 66-1 46-11 40-39 49-87c19-111 19-139 19-313 0-144 1-187-40-242-27-37-13-94 26-108 103-36 250-59 389-41 63 8 182 85 165 149zm-140 11c-10-39-42-58-96-57-53 12-154 21-179 43-5 9-8 31-8 65 0 151 19 135 127 94 94-36 148-79 156-145" id="Z"/><path fill="#008a0e" d="M330-158c82-22 193-18 286-31 38 11 58 81 24 113-25 24-71 25-116 25-135 0-238 34-358 47C61 7 4-52 15-159c12-113 37-213 32-340-2-59 2-121-2-178-2-44 35-62 81-61 104-31 222-52 345-64 68-7 103 34 111 94 2 12-3 22-9 31-33 14-62 15-103 16-100 2-196 10-270 40h-8c-18 23-11 79-15 106-1 13 5 22 16 25 82-10 176-25 264-12 44 7 78 26 71 72-7 49-76 30-125 30-78 0-138 22-210 29-24 1-35 28-36 52-2 41-10 83-8 126-19 84 122 51 181 35" id="aa"/><path fill="#008a0e" d="M629-645c28 177 9 401 28 582 3 29-18 50-47 50-97 0-67-194-71-306-1-24-4-66-3-92 1-39-15-57-30-33-49 79-88 161-139 243-9 15-21 23-34 23-33 0-70-69-89-115-10-23-57-152-73-152-28 0-27 119-31 162-9 93-16 174-27 265-2 3-35 21-48 20-71-3-50-117-43-176 24-211 38-410 84-595 39-67 121 2 138 59 22 73 63 167 84 249 7 23 13 34 20 34 17 0 54-75 107-225 17-48 42-155 115-96 31 25 52 57 59 103" id="ab"/><path fill="#008a0e" d="M44-443c79-191 208-366 448-366 141 0 239 118 267 253 46 222-61 413-213 490-83 42-221 78-338 30-55-23-106-43-129-82-26-14-80-140-57-202 2-41 8-89 22-123zm103 115c1 136 75 191 208 191 130 0 180-50 241-135 38-53 55-111 55-169 0-109-73-236-179-227-143 12-260 151-311 271-9 24-14 47-14 69" id="ac"/><path fill="#008a0e" d="M109-735c-25-57-110-11-99 37 30 130 91 291 122 410 18 69 44 132 72 190 44 90 75 116 148 73 102-105 149-290 208-441 32-82 48-168 48-261 0-51-15-77-46-77-38 0-59 34-73 100-35 160-89 312-149 454-40 95-58 66-91-37-28-90-54-179-79-263-24-79-42-141-61-185" id="ad"/><path fill="#008a0e" d="M292-638c-67 2-113 14-176 21-81 9-112-68-58-103 132-46 304-52 470-66l65 5c50 52 43 111-50 111-45 0-75 15-112 18-18 16-19 83-24 152-7 108-21 214-33 322-5 46 36 20 67 20 54 0 81-10 139-16 43 25 50 62 23 110-151 29-311 50-490 79C58 24-8 22 3-44c14-83 161-45 224-90 22-16 24-69 29-107 17-126 33-258 36-397" id="ae"/><path fill="#008a0e" d="M19-91c0-222 71-428 58-668-3-62 121-44 170-33 118 27 229 50 293 128 44 53 63 97 63 217 0 165-189 328-383 400-36 13-62 45-108 45-66 0-93-23-93-89zm185-582c-30 151-43 322-58 489 5 39 27 28 60 14 129-54 276-147 276-304 0-155-106-203-278-199" id="af"/><g id="m"><use transform="matrix(0.013333333333333329,0,0,0.013333333333333329,0,0)" xlink:href="#Z"/><use transform="matrix(0.013333333333333329,0,0,0.013333333333333329,8.239999999999997,0)" xlink:href="#aa"/><use transform="matrix(0.013333333333333329,0,0,0.013333333333333329,17.119999999999994,0)" xlink:href="#ab"/><use transform="matrix(0.013333333333333329,0,0,0.013333333333333329,26.07999999999999,0)" xlink:href="#ac"/><use transform="matrix(0.013333333333333329,0,0,0.013333333333333329,36.786666666666655,0)" xlink:href="#ad"/><use transform="matrix(0.013333333333333329,0,0,0.013333333333333329,44.98666666666665,0)" xlink:href="#ae"/><use transform="matrix(0.013333333333333329,0,0,0.013333333333333329,53.45333333333331,0)" xlink:href="#af"/><use transform="matrix(0.013333333333333329,0,0,0.013333333333333329,61.506666666666646,0)" xlink:href="#ac"/></g></defs></g></svg>