<svg xmlns="http://www.w3.org/2000/svg" xmlns:xlink="http://www.w3.org/1999/xlink" xmlns:lucid="lucid" width="1680" height="520"><g transform="translate(520 380)" lucid:page-tab-id="0_0"><path d="M-500-354a6 6 0 0 1 6-6h168a6 6 0 0 1 6 6v28a6 6 0 0 1-6 6h-168a6 6 0 0 1-6-6z" fill="none"/><use xlink:href="#a" transform="matrix(1,0,0,1,-500,-360) translate(54.63333333333333 30.244444444444444)"/><path d="M-311-354a6 6 0 0 1 6-6h168a6 6 0 0 1 6 6v28a6 6 0 0 1-6 6h-168a6 6 0 0 1-6-6z" fill="none"/><use xlink:href="#b" transform="matrix(1,0,0,1,-310.9999000000023,-360) translate(63.8 30.244444444444444)"/><path d="M-321-359.5a.5.5 0 0 1 .5.5v478a.5.5 0 0 1-.5.5.5.5 0 0 1-.5-.5v-478a.5.5 0 0 1 .5-.5z" stroke="#979ea8" fill="none"/><path d="M-467.32-319a.5.5 0 0 1 .5-.5H219a.5.5 0 0 1 .5.5.5.5 0 0 1-.5.5h-685.82a.5.5 0 0 1-.5-.5z" stroke="#979ea8" fill="none"/><path d="M-411-254a6 6 0 0 1 6-6h27a6 6 0 0 1 6 6v27a6 6 0 0 1-6 6h-27a6 6 0 0 1-6-6z" stroke="#000" fill="#dedeff"/><path d="M-380.5-240.5c0 6.07-4.93 11-11 11s-11-4.93-11-11 4.93-11 11-11 11 4.93 11 11z" stroke="#000"/><path d="M-282-264a6 6 0 0 1 6-6h148a6 6 0 0 1 6 6v48a6 6 0 0 1-6 6h-148a6 6 0 0 1-6-6z" stroke="#000" fill="#dedeff"/><path d="M-271.5-254.9a6 6 0 0 1 6-6h28a6 6 0 0 1 6 6v28a6 6 0 0 1-6 6h-28a6 6 0 0 1-6-6z" stroke="#000" fill="#f4d9ff"/><use xlink:href="#c" transform="matrix(1,0,0,1,-266.5065914551342,-255.8931551081859) translate(5.493827160493828 21.430555555555557)"/><path d="M-222-255.02a6 6 0 0 1 6-6h28a6 6 0 0 1 6 6v28a6 6 0 0 1-6 6h-28a6 6 0 0 1-6-6z" stroke="#000" fill="#f4d9ff"/><use xlink:href="#d" transform="matrix(1,0,0,1,-217,-256.0157331043696) translate(8.88888888888889 21.430555555555557)"/><path d="M-172.5-255.02a6 6 0 0 1 6-6h28a6 6 0 0 1 6 6v28a6 6 0 0 1-6 6h-28a6 6 0 0 1-6-6z" stroke="#000" fill="#f4d9ff"/><path d="M-141.5-241c0 6.07-4.92 11-11 11-6.07 0-11-4.93-11-11s4.93-11 11-11c6.08 0 11 4.93 11 11z" stroke="#000"/><path d="M-281.74-36.4a6 6 0 0 1-6-6v-27a6 6 0 0 1 6-6h27a6 6 0 0 1 6 6v27a6 6 0 0 1-6 6z" stroke="#000" fill="#dedeff"/><path d="M-268.24-66.9c6.08 0 11 4.93 11 11 0 6.08-4.92 11-11 11-6.07 0-11-4.92-11-11 0-6.07 4.93-11 11-11z" stroke="#000"/><path d="M-281.74-75.4a6 6 0 0 1-6-6v-27a6 6 0 0 1 6-6h27a6 6 0 0 1 6 6v27a6 6 0 0 1-6 6z" stroke="#000" fill="#dedeff"/><path d="M-268.24-105.9c6.08 0 11 4.93 11 11 0 6.08-4.92 11-11 11-6.07 0-11-4.92-11-11 0-6.07 4.93-11 11-11z" stroke="#000"/><path d="M-281.74-114.4a6 6 0 0 1-6-6v-27a6 6 0 0 1 6-6h27a6 6 0 0 1 6 6v27a6 6 0 0 1-6 6z" stroke="#000" fill="#dedeff"/><path d="M-268.24-144.9c6.08 0 11 4.93 11 11 0 6.08-4.92 11-11 11-6.07 0-11-4.92-11-11 0-6.07 4.93-11 11-11z" stroke="#000"/><path d="M-379-240.5h78" stroke="#000" stroke-width="2" stroke-linejoin="round" fill="none"/><path d="M-378.97-239.5h-1.16l.13-1-.13-1h1.16z" stroke="#000" stroke-width=".05"/><path d="M-285.74-240.5l-14.26 4.63v-9.26z" stroke="#000" stroke-width="2" fill="#fff"/><path d="M-152.5-228.5l-.03.65-.1 1.53-.15 1.43-.2 1.35-.26 1.27-.3 1.2-.32 1.15-.36 1.1-.4 1.05-.46 1.02-.48 1-.52.95-.57.94-.6.92-.67.9-.7.92-.78.9-.85.88-.9.9-1.02.9-1.1.9-1.23.9-1.36.94-1.53.95-1.73.97-2 1-2.3 1.06-2.76 1.1-3.34 1.2-4.25 1.28-5.8 1.5-9.94 2.1-31.58 5.98-5.82 1.5-4.25 1.3-3.34 1.18-2.75 1.1-2.3 1.05-2 1-1.74 1-1.53.94-1.36.94-1.22.9-1.1.9-1.02.9-.9.9-.85.9-.78.9-.7.9-.1.1" stroke="#000" stroke-width="2" stroke-linejoin="round" fill="none"/><path d="M-151.52-228.45l-2-.04.03-1.13 1 .13 1-.13z" stroke="#000" stroke-width=".05"/><path d="M-267.28-157l-.23-15 8.85 2.74z" stroke="#000" stroke-width="2" fill="#fff"/><path d="M-307.24-130.4a6 6 0 0 1 6-6h4a6 6 0 0 1 6 6v10a6 6 0 0 1-6 6h-4a6 6 0 0 1-6-6z" fill="none"/><use xlink:href="#e" transform="matrix(1,0,0,1,-307.2432085448703,-136.39831084032937) translate(2.9444444444444446 17.77777777777778)"/><path d="M-307.24-91.4a6 6 0 0 1 6-6h4a6 6 0 0 1 6 6v10a6 6 0 0 1-6 6h-4a6 6 0 0 1-6-6z" fill="none"/><use xlink:href="#f" transform="matrix(1,0,0,1,-307.2432085448703,-97.39831084032937) translate(2.9444444444444446 17.77777777777778)"/><path d="M-307.63-52.4a6 6 0 0 1 6-6h4a6 6 0 0 1 6 6v10a6 6 0 0 1-6 6h-4a6 6 0 0 1-6-6z" fill="none"/><use xlink:href="#g" transform="matrix(1,0,0,1,-307.62487500000276,-58.3983108403294) translate(2.9444444444444446 17.77777777777778)"/><path d="M-185.24-148.4a6 6 0 0 1 6-6h123a6 6 0 0 1 6 6v28a6 6 0 0 1-6 6h-123a6 6 0 0 1-6-6z" stroke="#000" fill="#fff7a1"/><path d="M-174.75-143.4a6 6 0 0 1 6-6h18a6 6 0 0 1 6 6v18a6 6 0 0 1-6 6h-18a6 6 0 0 1-6-6z" stroke="#000" fill="#fcfcca"/><path d="M-152.25-134.4c0 4.14-3.36 7.5-7.5 7.5-4.14 0-7.5-3.36-7.5-7.5 0-4.14 3.36-7.5 7.5-7.5 4.14 0 7.5 3.36 7.5 7.5z" stroke="#000"/><path d="M-132.74-143.4a6 6 0 0 1 6-6h18a6 6 0 0 1 6 6v18a6 6 0 0 1-6 6h-18a6 6 0 0 1-6-6z" stroke="#000" fill="#fcfcca"/><path d="M-110.24-134.4c0 4.14-3.36 7.5-7.5 7.5-4.15 0-7.5-3.36-7.5-7.5 0-4.14 3.35-7.5 7.5-7.5 4.14 0 7.5 3.36 7.5 7.5z" stroke="#000"/><path d="M-90.74-143.4a6 6 0 0 1 6-6h18a6 6 0 0 1 6 6v18a6 6 0 0 1-6 6h-18a6 6 0 0 1-6-6z" stroke="#000" fill="#fcfcca"/><path d="M-68.24-134.4c0 4.14-3.35 7.5-7.5 7.5-4.14 0-7.5-3.36-7.5-7.5 0-4.14 3.36-7.5 7.5-7.5 4.15 0 7.5 3.36 7.5 7.5z" stroke="#000"/><path d="M-255.73-133.9h51.48" stroke="#000" stroke-width="2" stroke-linejoin="round" fill="none"/><path d="M-255.7-132.9h-1.16l.13-1-.13-1h1.15z" stroke="#000" stroke-width=".05"/><path d="M-188.98-133.9l-14.27 4.64v-9.27z" stroke="#000" stroke-width="2" fill="#fff"/><path d="M-263.74-18.4c0 2.5-2 4.5-4.5 4.5-2.48 0-4.5-2-4.5-4.5 0-2.48 2.02-4.5 4.5-4.5 2.5 0 4.5 2.02 4.5 4.5zM-263.44 4.1c0 2.5-2 4.5-4.5 4.5s-4.5-2-4.5-4.5c0-2.48 2-4.5 4.5-4.5s4.5 2.02 4.5 4.5zM-263.44 26.6c0 2.5-2 4.5-4.5 4.5s-4.5-2-4.5-4.5c0-2.48 2-4.5 4.5-4.5s4.5 2.02 4.5 4.5z" stroke="#000"/><path d="M-281.74 87.6a6 6 0 0 1-6-6v-27a6 6 0 0 1 6-6h27a6 6 0 0 1 6 6v27a6 6 0 0 1-6 6z" stroke="#000" fill="#dedeff"/><path d="M-268.24 57.1c6.08 0 11 4.93 11 11 0 6.08-4.92 11-11 11-6.07 0-11-4.92-11-11 0-6.07 4.93-11 11-11z" stroke="#000"/><path d="M-307.63 71.6a6 6 0 0 1 6-6h4a6 6 0 0 1 6 6v10a6 6 0 0 1-6 6h-4a6 6 0 0 1-6-6z" fill="none"/><use xlink:href="#h" transform="matrix(1,0,0,1,-307.62487500000276,65.60168915967063) translate(2.9444444444444446 17.77777777777778)"/><path d="M-185.24 53.6a6 6 0 0 1 6-6h123a6 6 0 0 1 6 6v28a6 6 0 0 1-6 6h-123a6 6 0 0 1-6-6z" stroke="#000" fill="#fff7a1"/><path d="M-174.75 58.6a6 6 0 0 1 6-6h18a6 6 0 0 1 6 6v18a6 6 0 0 1-6 6h-18a6 6 0 0 1-6-6z" stroke="#000" fill="#fcfcca"/><path d="M-152.25 67.6c0 4.14-3.36 7.5-7.5 7.5-4.14 0-7.5-3.36-7.5-7.5 0-4.14 3.36-7.5 7.5-7.5 4.14 0 7.5 3.36 7.5 7.5z" stroke="#000"/><path d="M-132.74 58.6a6 6 0 0 1 6-6h18a6 6 0 0 1 6 6v18a6 6 0 0 1-6 6h-18a6 6 0 0 1-6-6z" stroke="#000" fill="#fcfcca"/><path d="M-110.24 67.6c0 4.14-3.36 7.5-7.5 7.5-4.15 0-7.5-3.36-7.5-7.5 0-4.14 3.35-7.5 7.5-7.5 4.14 0 7.5 3.36 7.5 7.5z" stroke="#000"/><path d="M-90.74 58.6a6 6 0 0 1 6-6h18a6 6 0 0 1 6 6v18a6 6 0 0 1-6 6h-18a6 6 0 0 1-6-6z" stroke="#000" fill="#fcfcca"/><path d="M-68.24 67.6c0 4.14-3.35 7.5-7.5 7.5-4.14 0-7.5-3.36-7.5-7.5 0-4.14 3.36-7.5 7.5-7.5 4.15 0 7.5 3.36 7.5 7.5z" stroke="#000"/><path d="M82.5-148.4a6 6 0 0 1 6-6h123a6 6 0 0 1 6 6v28a6 6 0 0 1-6 6h-123a6 6 0 0 1-6-6z" stroke="#000" fill="#fff7a1"/><path d="M93-143.4a6 6 0 0 1 6-6h18a6 6 0 0 1 6 6v18a6 6 0 0 1-6 6H99a6 6 0 0 1-6-6z" stroke="#000" fill="#fcfcca"/><path d="M115.5-134.4c0 4.14-3.36 7.5-7.5 7.5-4.15 0-7.5-3.36-7.5-7.5 0-4.14 3.35-7.5 7.5-7.5 4.14 0 7.5 3.36 7.5 7.5z" stroke="#000"/><path d="M135-143.4a6 6 0 0 1 6-6h18a6 6 0 0 1 6 6v18a6 6 0 0 1-6 6h-18a6 6 0 0 1-6-6z" stroke="#000" fill="#fcfcca"/><path d="M157.5-134.4c0 4.14-3.36 7.5-7.5 7.5-4.14 0-7.5-3.36-7.5-7.5 0-4.14 3.36-7.5 7.5-7.5 4.14 0 7.5 3.36 7.5 7.5z" stroke="#000"/><path d="M177-143.4a6 6 0 0 1 6-6h18a6 6 0 0 1 6 6v18a6 6 0 0 1-6 6h-18a6 6 0 0 1-6-6z" stroke="#000" fill="#fcfcca"/><path d="M199.5-134.4c0 4.14-3.35 7.5-7.5 7.5-4.14 0-7.5-3.36-7.5-7.5 0-4.14 3.36-7.5 7.5-7.5 4.15 0 7.5 3.36 7.5 7.5zM-5.74-127.4c0 2.5-2.02 4.5-4.5 4.5-2.5 0-4.5-2-4.5-4.5 0-2.48 2-4.5 4.5-4.5 2.48 0 4.5 2.02 4.5 4.5zM39.26-127.9c0 2.5-2.02 4.5-4.5 4.5-2.5 0-4.5-2-4.5-4.5 0-2.48 2-4.5 4.5-4.5 2.48 0 4.5 2.02 4.5 4.5z" stroke="#000"/><path d="M-66.73-134.38l26.32.57 7.48 1.06" stroke="#000" stroke-width="2" stroke-linejoin="round" fill="none"/><path d="M-66.68-135.38l-.05 2-1.2-.02.2-.98-.16-1.02z" stroke="#000" stroke-width=".05"/><path d="M-18.22-128.75l-14.98.74 2.43-8.96z" stroke="#000" stroke-width="2" fill="#fff"/><path d="M40.76-127.95l8.03-.43 6.34-1.14 8.65-2.13" stroke="#000" stroke-width="2" stroke-linejoin="round" fill="none"/><path d="M40.84-126.95l-1.42.07.34-.95-.1-1.03v-.03l1.07-.05z" stroke="#000" stroke-width=".05"/><path d="M78.8-133.9l-13.4 6.7-1.4-9.17z" stroke="#000" stroke-width="2" fill="#fff"/><path d="M16.76-127.9c0 2.5-2.02 4.5-4.5 4.5-2.5 0-4.5-2-4.5-4.5 0-2.48 2-4.5 4.5-4.5 2.48 0 4.5 2.02 4.5 4.5z" stroke="#000"/><path d="M-22.82 64.6a6 6 0 0 1 6-6h28a6 6 0 0 1 6 6v6a6 6 0 0 1-6 6h-28a6 6 0 0 1-6-6z" fill="none"/><use xlink:href="#i" transform="matrix(1,0,0,1,-22.815382974593433,58.6016891596706) translate(2.713333333333342 15.719999999999995)"/><path d="M-66.73 67.6h25.4" stroke="#000" stroke-width="2" stroke-linejoin="round" fill="none"/><path d="M-66.7 68.6h-1.24l.2-.98-.15-1.02h1.2z" stroke="#000" stroke-width=".05"/><path d="M-26.05 67.6l-14.27 4.64v-9.27z" stroke="#000" stroke-width="2" fill="#fff"/><path d="M-216.44-60a6 6 0 0 1 6-6h28a6 6 0 0 1 6 6v6a6 6 0 0 1-6 6h-28a6 6 0 0 1-6-6z" fill="none"/><use xlink:href="#i" transform="matrix(1,0,0,1,-216.44441795360083,-65.99966209329378) translate(2.713333333333342 15.719999999999995)"/><path d="M-222.04-96a6 6 0 0 1 6-6h28a6 6 0 0 1 6 6v6a6 6 0 0 1-6 6h-28a6 6 0 0 1-6-6z" fill="none"/><use xlink:href="#i" transform="matrix(1,0,0,1,-222.04440053413353,-101.99955011100391) translate(2.713333333333342 15.719999999999995)"/><path d="M-255.73-55.9l6.43.07h.03l-.02.02-.97.04-6.78.2.86.02 21.23-.2" stroke="#000" stroke-width="2" stroke-linejoin="round" fill="none"/><path d="M-255.7-56.9l-.02 2h-1.14l.13-1-.13-1z" stroke="#000" stroke-width=".05"/><path d="M-219.7-55.87l-14.23 4.77-.08-9.27z" stroke="#000" stroke-width="2" fill="#fff"/><path d="M-255.73-94.9h15.18" stroke="#000" stroke-width="2" stroke-linejoin="round" fill="none"/><path d="M-255.7-93.9h-1.16l.13-1-.13-1h1.15z" stroke="#000" stroke-width=".05"/><path d="M-225.28-94.9l-14.27 4.64v-9.27z" stroke="#000" stroke-width="2" fill="#fff"/><path d="M-255.73 68.1h51.48" stroke="#000" stroke-width="2" stroke-linejoin="round" fill="none"/><path d="M-255.7 69.1h-1.16l.13-1-.13-1h1.15z" stroke="#000" stroke-width=".05"/><path d="M-188.98 68.1l-14.27 4.64v-9.27z" stroke="#000" stroke-width="2" fill="#fff"/><path d="M61.25-133.4a1.25 1.25 0 0 1 1.25-1.25h175a1.25 1.25 0 0 1 1.25 1.25 1.25 1.25 0 0 1-1.25 1.25h-175a1.25 1.25 0 0 1-1.25-1.25z" fill="none"/><path d="M80-134.65h15m10 0h15m10 0h15m10 0h15m10 0h15m10 0h15m10 0h7.5l.2.02.2.04.17.1.17.1.14.12.13.15.1.16.1.2.04.18v.4l-.05.2-.1.17-.1.17-.12.15-.14.1-.17.12-.18.07-.2.04H230m-10 0h-15m-10 0h-15m-10 0h-15m-10 0h-15m-10 0h-15m-10 0H80m-10 0h-7.7l-.2-.05-.17-.1-.16-.1-.15-.1-.13-.16-.1-.17-.1-.18-.03-.2-.02-.2.02-.2.04-.2.1-.17.1-.16.12-.15.15-.13.16-.1.18-.1.2-.03.2-.02H70" stroke="#e81313" stroke-width="2.5" fill="none"/><path d="M-206.5 68.6a1.25 1.25 0 0 1 1.26-1.25h175A1.25 1.25 0 0 1-29 68.6a1.25 1.25 0 0 1-1.24 1.25h-175a1.25 1.25 0 0 1-1.25-1.25z" fill="none"/><path d="M-187.74 67.35h15m10 0h15m10 0h15m10 0h15m10 0h15m10 0h15m10 0h7.5l.2.02.18.04.18.1.17.1.14.12.13.15.1.16.08.2.04.18v.4l-.05.2-.08.17-.1.17-.13.15-.15.1-.18.12-.18.07-.2.04h-7.68m-10 0h-15m-10 0h-15m-10 0h-15m-10 0h-15m-10 0h-15m-10 0h-15m-10 0h-7.7l-.2-.05-.17-.08-.18-.1-.15-.13-.12-.16-.1-.17-.08-.18-.05-.2v-.4l.05-.2.07-.17.1-.16.13-.15.15-.13.17-.1.17-.1.2-.03.2-.02h7.5" stroke="#e81313" stroke-width="2.5" fill="none"/><path d="M-201.56-133.9a1.25 1.25 0 0 1 1.25-1.25h175a1.25 1.25 0 0 1 1.23 1.25 1.25 1.25 0 0 1-1.25 1.25h-175a1.25 1.25 0 0 1-1.25-1.25z" fill="none"/><path d="M-182.8-135.15h15m10 0h15m10 0h15m9.98 0h15m10 0h15m10 0h15m10 0h7.5l.2.02.2.04.17.1.17.1.15.12.13.15.1.16.07.2.05.18v.4l-.05.2-.07.17-.1.17-.13.15-.15.1-.17.12-.18.07-.2.04H-32.8m-10.02 0h-15m-10 0h-15m-10 0h-15m-10 0h-15m-10 0h-15m-10 0h-15m-10 0h-7.7l-.18-.05-.18-.1-.17-.1-.15-.1-.13-.16-.1-.17-.07-.18-.05-.2v-.4l.05-.2.07-.17.1-.16.13-.15.15-.13.17-.1.18-.1.2-.03.2-.02h7.5" stroke="#e81313" stroke-width="2.5" fill="none"/><path d="M281.68-117.1a6 6 0 0 1 6.1-5.88l85.1 1.42a6 6 0 0 0 6.1-5.9l.9-53.98a2.5 2.5 0 0 1 4.28-1.7l76.6 78.9a5.98 5.98 0 0 1-.15 8.46L381.43-19.5a2.5 2.5 0 0 1-4.22-1.85l.9-53.98a6 6 0 0 0-5.9-6.1l-85.1-1.42a6 6 0 0 1-5.9-6.1z" fill-opacity="0"/><path d="M282.68-117.07c0 .55-.47 1-1.02.98-.55 0-1-.45-.98-1 0-.55.46-1 1.02-1 .55.02 1 .48.98 1.03zm1.83-4.2c0 .54-.46.98-1 .97-.56 0-1-.46-1-1.02.02-.55.47-1 1.02-.98.56 0 1 .47 1 1.02zm4.28-1.7c0 .55-.47 1-1.02 1-.55-.02-1-.48-.98-1.03 0-.55.46-1 1.02-.98.55 0 1 .46.98 1zm4.05.07c0 .55-.46 1-1.02.98-.54 0-.98-.46-.97-1 0-.57.46-1 1.02-1 .55 0 1 .47.98 1.02zm4.05.07c0 .55-.46 1-1 .98-.57 0-1-.46-1-1.02 0-.55.47-1 1.02-.98.55 0 1 .47.98 1.02zm4.05.07c0 .55-.46 1-1 .98-.56 0-1-.47-1-1.02s.47-1 1.02-.98c.55 0 1 .46.98 1.02zm4.06.06c-.02.56-.48 1-1.03 1-.55-.02-1-.48-.98-1.03 0-.55.45-1 1-.98.56 0 1 .45 1 1zm4.04.07c0 .55-.47 1-1.02.98-.55 0-1-.46-.98-1 0-.56.46-1 1.02-1 .55 0 1 .47.98 1.02zm4.05.07c-.02.55-.47 1-1.02.98-.56 0-1-.46-1-1 .02-.57.48-1 1.03-1 .56 0 1 .47 1 1.02zm4.04.07c0 .56-.46 1-1 1-.57-.02-1-.47-1-1.03 0-.55.47-1 1.02-.98.55 0 1 .46.98 1zm4.06.08c0 .55-.47 1-1.02.98-.55 0-1-.47-.98-1.02 0-.55.46-1 1-.98.57 0 1 .46 1 1.02zm4.05.06c0 .56-.47 1-1.02 1-.55-.02-1-.48-.98-1.03 0-.54.46-.98 1.02-.97.55 0 1 .46.98 1zm4.05.07c0 .56-.46 1-1.02 1-.55 0-1-.47-.98-1.02 0-.55.47-1 1.02-1 .55.02 1 .48.98 1.03zm4.05.08c0 .55-.46 1-1 .98-.57 0-1-.46-1-1 0-.57.47-1 1.02-1s1 .47.98 1.02zm4.06.07c0 .55-.46 1-1 .98-.56 0-1-.46-1-1.02 0-.54.47-.98 1.02-.97.55 0 1 .47 1 1.02zm4.06.07c0 .55-.47 1-1.02.98-.55 0-1-.47-.98-1.02 0-.55.46-1 1-.98.57 0 1 .46 1 1.02zm4.05.06c0 .56-.45 1-1 1-.56-.02-1-.48-1-1.03.02-.55.47-1 1.03-.98.55 0 1 .46.98 1zm4.06.07c0 .55-.46 1-1 .98-.57 0-1-.46-1-1 0-.56.47-1 1.02-1s1 .47.98 1.02zm4.05.07c0 .55-.45 1-1 .98-.55 0-1-.46-1-1 .02-.57.48-1 1.03-1s1 .47.98 1.02zm4.07.07c0 .54-.47.98-1.02.97-.55 0-1-.46-.98-1.02 0-.55.46-1 1-.98.57 0 1 .47 1 1.02zm4.05.05c0 .56-.47 1-1.02 1-.55-.02-1-.48-.98-1.03 0-.55.46-1 1.02-.98.55 0 1 .46.98 1zm4.05.07c0 .55-.46 1-1.02 1-.55-.02-1-.48-.98-1.03 0-.56.47-1 1.02-1 .54.02.98.47.97 1.02zm4.05.07c0 .54-.46.98-1 .97-.57 0-1-.46-1-1 0-.56.47-1 1.02-1s1 .47.98 1.02zm4.06.06c0 .55-.47 1-1.02.98-.55 0-1-.46-.98-1 0-.57.46-1 1-1 .57 0 1 .47 1 1.02zm4.27-1.7c0 .57-.47 1-1.02 1s-1-.47-.98-1.02c0-.55.46-1 1-.98.57 0 1 .46 1 1zm1.83-4.2c0 .55-.47 1-1.02.98-.55 0-1-.46-.98-1 0-.57.46-1 1-1 .56 0 1 .47 1 1.02zm.06-4.15c0 .56-.46 1-1 1-.56-.02-1-.47-1-1.03 0-.55.47-1 1.02-.98.55 0 1 .46.98 1zm.07-4.14c0 .55-.45 1-1 .98-.55 0-1-.47-1-1.02.02-.55.48-1 1.03-.98.55 0 1 .46.98 1.02zm.08-4.16c0 .55-.46 1-1 1-.56-.02-1-.48-1-1.03s.47-1 1.02-.98c.55 0 1 .45.98 1zm.07-4.15c0 .55-.46 1-1 .98-.57 0-1-.46-1-1 0-.56.47-1 1.02-1s1 .47.98 1.02zm.07-4.15c0 .55-.46 1-1 .98-.57 0-1-.46-1-1.02 0-.55.47-1 1.02-.98.55 0 1 .47.98 1.02zm.07-4.15c-.02.55-.47 1-1.02.98-.56 0-1-.46-1-1.02.02-.54.48-.98 1.03-.97.56 0 1 .46 1 1.02zm.06-4.16c0 .55-.46 1-1 .98-.57 0-1-.47-1-1.02s.47-1 1.02-.98c.55 0 1 .46.98 1zm.07-4.16c0 .55-.46 1-1 .98-.57 0-1-.46-1-1 0-.56.47-1 1.02-1s1 .47.98 1.02zm.07-4.15c0 .54-.46.98-1.02.97-.55 0-1-.46-.98-1.02 0-.55.47-1 1.02-.98.55 0 1 .47.98 1.02zm.07-4.16c0 .55-.46 1-1.02.98-.55 0-1-.46-.98-1.02 0-.55.47-1 1.02-.98.54 0 .98.46.97 1.02zm.07-4.16c0 .56-.46 1-1.02 1-.55-.02-1-.48-.98-1.03 0-.55.47-1 1.02-.98.55 0 1 .46.98 1zm.07-4.15c0 .55-.45 1-1 1-.56-.02-1-.48-1-1.03.02-.55.48-1 1.03-.98.55 0 1 .46.98 1zm.08-4.15c0 .55-.46 1-1.02.98-.55 0-1-.46-.98-1 0-.57.46-1 1.02-1 .55 0 1 .47.98 1.02zm4.28-1.7c0 .56-.46 1-1.02 1-.55-.02-1-.48-.98-1.03 0-.55.46-1 1.02-.98.55 0 1 .46.98 1.02zm2.84 2.93c0 .56-.47 1-1.02 1-.55-.02-1-.47-.98-1.03 0-.55.46-1 1-.98.57 0 1 .45 1 1zm2.83 2.93c0 .55-.46 1-1 .98-.56 0-1-.45-1-1 0-.56.47-1 1.02-1 .55.02 1 .48.98 1.03zm2.84 2.92c0 .55-.46 1-1.02.98-.55 0-1-.46-.98-1 0-.57.47-1 1.02-1 .54 0 .98.47.97 1.02zm2.84 2.92c0 .55-.46 1-1 .98-.56 0-1-.46-1-1 .02-.56.47-1 1.02-1 .56 0 1 .47 1 1.02zm2.84 2.92c0 .54-.46 1-1 .98-.56 0-1-.47-1-1.02s.47-1 1.02-.98c.55 0 1 .46.98 1zm2.84 2.9c0 .57-.46 1-1.02 1-.55 0-1-.47-.98-1.02 0-.55.47-1 1.02-.98.55 0 1 .46.98 1zm2.84 2.94c0 .55-.47 1-1.02.98-.55 0-1-.46-.98-1.02 0-.55.46-1 1-.98.57 0 1 .46 1 1.02zm2.83 2.92c0 .55-.46 1-1 .98-.57 0-1-.46-1-1.02 0-.55.47-1 1.02-.98.55 0 1 .47.98 1.02zm2.84 2.92c-.02.55-.47 1-1.03.98-.55 0-1-.46-.98-1 0-.57.46-1 1-1 .56 0 1 .47 1 1.02zm2.83 2.92c0 .55-.47 1-1.02.98-.54 0-.98-.46-.97-1 0-.56.46-1 1-1 .57 0 1 .47 1 1.02zm2.83 2.92c0 .55-.46 1-1 1-.56-.02-1-.48-1-1.03 0-.56.47-1 1.02-1 .55.02 1 .47.98 1.02zm2.84 2.92c0 .56-.46 1-1.02 1-.55-.02-1-.48-.98-1.03 0-.54.47-.98 1.02-.97.55 0 1 .46.98 1zm2.84 2.93c0 .55-.47 1-1.02.98-.55 0-1-.46-.98-1.02 0-.55.46-1 1-.98.57 0 1 .46 1 1.02zm2.83 2.92c0 .54-.46.98-1 .97-.56 0-1-.46-1-1.02 0-.55.47-1 1.02-.98.54 0 .98.47.97 1.02zm2.84 2.9c0 .56-.45 1-1 1-.56-.02-1-.47-1-1.02.02-.56.48-1 1.03-1 .55.02 1 .48.98 1.03zm2.85 2.93c0 .55-.47 1-1.02.98-.55 0-1-.45-.98-1 0-.55.46-1 1-1 .57.02 1 .48 1 1.03zm2.84 2.92c-.02.55-.48 1-1.03 1-.55-.02-1-.48-.98-1.03 0-.55.45-1 1-.98.55 0 1 .46 1 1zm2.82 2.92c0 .56-.46 1-1 1-.57-.02-1-.48-1-1.03s.47-1 1.02-.98c.55 0 1 .46.98 1zm2.84 2.93c0 .55-.47 1-1.02.98-.55 0-1-.47-.98-1.02 0-.55.46-1 1.02-.98.55 0 1 .46.98 1.02zm2.83 2.92c0 .55-.47 1-1.02.98-.55 0-1-.46-1-1.02.02-.55.48-1 1.03-.98.56 0 1 .47 1 1.02zm2.83 2.92c0 .55-.46 1-1 .98-.57 0-1-.46-1-1 0-.57.47-1 1.02-1s1 .47.98 1.02zm2.84 2.92c0 .55-.47 1-1.02.98-.55 0-1-.46-.98-1 0-.57.46-1 1.02-1 .54 0 .98.47.97 1.02zm2.83 2.92c0 .55-.46 1-1 1-.56-.02-1-.48-1-1.03s.47-1 1.02-.98c.55 0 1 .46.98 1zm2.84 2.92c0 .56-.46 1-1 1-.57-.02-1-.48-1-1.03s.47-1 1.02-.98c.55 0 1 .45.98 1zm2.84 2.93c0 .55-.47 1-1.02.98-.55 0-1-.46-.98-1 0-.56.46-1 1.02-1 .55.02 1 .47.98 1.03zm2.84 2.92c0 .55-.47 1-1.02.98-.55 0-1-.46-.98-1.02 0-.54.46-.98 1-.97.56 0 1 .47 1 1.02zm2.83 2.92c0 .55-.46 1-1 .98-.57 0-1-.46-1-1 0-.57.47-1 1.02-1s1 .47.98 1.02zm1.7 4.26c-.02.55-.47 1-1.03 1-.55-.02-1-.48-.98-1.03 0-.55.46-1 1.02-.98.55 0 1 .46.98 1zm-1.84 4.2c0 .56-.45 1-1 1-.56-.02-1-.48-1-1.03.02-.55.47-1 1.03-.98.55 0 1 .46.98 1.02zm-2.92 2.83c0 .55-.47 1-1.02.98-.55 0-1-.46-.98-1 0-.57.46-1 1-1 .57 0 1 .47 1 1.02zm-2.94 2.83c0 .54-.46.98-1 .97-.56 0-1-.47-1-1.02s.47-1 1.02-.98c.55 0 1 .46.98 1.02zm-2.93 2.8c0 .56-.45 1-1 1-.56-.02-1-.47-1-1.02.02-.56.48-1 1.03-1 .55.02 1 .48.98 1.03zm-2.92 2.83c0 .56-.47 1-1.02 1-.55-.02-1-.48-.98-1.03 0-.55.46-1 1-.98.57 0 1 .46 1 1zm-2.94 2.83c0 .55-.46 1-1 .98-.56 0-1-.46-1-1 0-.57.47-1 1.02-1s1 .47.98 1.02zM444-78.8c0 .54-.45.98-1 .97-.56 0-1-.47-1-1.02.02-.55.48-1 1.03-.98.55 0 1 .46.98 1.02zM441.1-76c0 .56-.47 1-1.02 1-.55-.02-1-.47-.98-1.02 0-.56.46-1 1.02-1 .55.02 1 .48.98 1.03zm-2.93 2.83c0 .56-.47 1-1.02 1-.55-.02-1-.48-.98-1.03 0-.55.46-1 1-.98.56 0 1 .46 1 1zm-2.94 2.83c0 .55-.45 1-1 .98-.56 0-1-.46-1-1 .02-.57.48-1 1.03-1s1 .47.98 1.02zm-2.92 2.82c0 .56-.46 1-1.02 1-.55-.02-1-.48-.98-1.03 0-.55.46-1 1.02-.98.55 0 1 .46.98 1zm-2.93 2.83c0 .56-.47 1-1.02 1-.55-.02-1-.47-.98-1.02 0-.56.46-1 1-1 .57.02 1 .48 1 1.03zm-2.94 2.83c0 .56-.45 1-1 1-.56-.02-1-.48-1-1.03.02-.55.48-1 1.03-.98.55 0 1 .46.98 1zm-2.92 2.83c0 .55-.46 1-1.02.98-.55 0-1-.46-.98-1 0-.57.46-1 1.02-1 .55 0 1 .47.98 1.02zm-2.93 2.82c0 .56-.47 1-1.02 1-.55-.02-1-.48-.98-1.03 0-.55.46-1 1-.98.57 0 1 .46 1 1zm-2.94 2.83c0 .56-.45 1-1 1-.55-.02-1-.47-1-1.02.02-.56.48-1 1.03-1 .55.02 1 .48.98 1.03zm-2.92 2.83c0 .56-.46 1-1.02 1-.55-.02-1-.48-.98-1.03 0-.55.47-1 1.02-.98.55 0 1 .46.98 1zm-2.93 2.83c0 .55-.47 1-1.02.98-.55 0-1-.46-.98-1 0-.57.46-1 1-1 .57 0 1 .47 1 1.02zm-2.94 2.82c0 .56-.45 1-1 1-.55-.02-1-.48-.98-1.03 0-.55.46-1 1-.98.56 0 1 .46 1 1zm-2.92 2.83c0 .56-.46 1-1 1-.57-.02-1-.47-1-1.03 0-.55.47-1 1.02-.98.55 0 1 .46.98 1zm-2.93 2.83c0 .56-.47 1-1.02 1-.55-.02-1-.48-.98-1.03 0-.55.46-1 1.02-.98.55 0 1 .46.98 1zm-2.93 2.83c0 .55-.47 1-1.02.98-.55 0-1-.46-.98-1 0-.57.46-1 1-1 .57 0 1 .47 1 1.02zm-2.94 2.82c0 .56-.46 1-1 1-.57-.02-1-.48-1-1.03s.47-1 1.02-.98c.55 0 1 .46.98 1zm-2.93 2.83c0 .56-.46 1-1.02 1-.55-.02-1-.47-.98-1.03 0-.55.46-1 1.02-.98.55 0 1 .46.98 1zm-2.93 2.83c0 .56-.47 1-1.02 1-.55-.02-1-.48-.98-1.03 0-.55.46-1 1-.98.57 0 1 .46 1 1zm-2.94 2.83c0 .55-.46 1-1 .98-.57 0-1-.46-1-1.02 0-.55.47-1 1.02-.98.55 0 1 .47.98 1.02zm-2.93 2.82c0 .55-.46 1-1.02 1-.55-.02-1-.48-.98-1.03 0-.55.46-1 1.02-.98.55 0 1 .46.98 1zm-2.93 2.83c0 .56-.47 1-1.02 1-.55-.02-1-.47-.98-1.03 0-.55.46-1 1-.98.57 0 1 .46 1 1zm-4.22-1.83c0 .55-.47 1-1.02.98-.55 0-1-.46-.98-1 0-.57.46-1 1-1 .57 0 1 .47 1 1.02zm.07-4.15c0 .55-.47 1-1.02.98-.55 0-1-.46-.98-1 0-.57.46-1 1-1 .57 0 1 .47 1 1.02zm.07-4.15c0 .55-.47 1-1.02.98-.55 0-1-.47-.98-1.02 0-.55.46-1 1-.98.57 0 1 .46 1 1.02zm.07-4.16c0 .57-.46 1-1 1-.56 0-1-.47-1-1.02s.47-1 1.02-.98c.55 0 1 .46 1 1zm.07-4.14c0 .55-.46 1-1 .98-.56 0-1-.46-1-1 0-.56.47-1 1.02-1 .54 0 .98.47.97 1.02zm.07-4.15c0 .56-.46 1-1 1-.56-.02-1-.47-1-1.02 0-.56.47-1 1.02-1 .55.02 1 .48.98 1.03zm.07-4.14c0 .55-.45 1-1 .98-.55 0-1-.46-1-1.02.02-.55.48-1 1.03-.98.55 0 1 .46.98 1.02zm.08-4.16c0 .56-.46 1-1 1-.57-.02-1-.48-1-1.03s.47-1 1.02-.98c.55 0 1 .45.98 1zm.07-4.15c0 .55-.46 1-1 .98-.57 0-1-.46-1-1 0-.56.47-1 1.02-1s1 .47.98 1.02zm.07-4.15c0 .55-.46 1-1 .98-.57 0-1-.46-1-1 0-.57.47-1 1.02-1s1 .47.98 1.02zm.07-4.15c-.02.55-.47 1-1.02.98-.56 0-1-.46-1-1.02.02-.54.48-.98 1.03-.97.56 0 1 .47 1 1.02zm.06-4.16c0 .55-.46 1-1 .98-.57 0-1-.47-1-1.02s.47-1 1.02-.98c.55 0 1 .46.98 1zm.07-4.16c0 .56-.46 1-1.02 1-.54-.02-.98-.48-.97-1.03 0-.54.47-.98 1.02-.97.55 0 1 .46.98 1zm.07-4.15c0 .54-.46.98-1.02.97-.55 0-1-.46-.98-1 0-.57.47-1 1.02-1s1 .47.98 1.02zm-1.68-4.28c0 .55-.47 1-1.02.98-.55 0-1-.46-.98-1 0-.57.46-1 1-1 .56 0 1 .47 1 1.02zm-4.22-1.83c0 .54-.46.98-1 .97-.57 0-1-.46-1-1 0-.57.47-1 1.02-1s1 .47.98 1.02zm-4.05-.08c0 .56-.46 1-1.02 1-.55-.02-1-.48-.98-1.03 0-.56.47-1 1.02-1 .55.02 1 .47.98 1.02zm-4.05-.06c0 .55-.47 1-1.02.98-.55 0-1-.47-.98-1.02 0-.55.46-1 1.02-.98.55 0 1 .46.98 1.02zm-4.05-.07c0 .54-.47.98-1.02.97-.55 0-1-.46-.98-1.02 0-.55.46-1 1-.98.57 0 1 .46 1 1.02zM357-81.7c-.02.55-.47 1-1.02.98-.55 0-1-.46-1-1 .02-.57.48-1 1.03-1 .56 0 1 .47 1 1.02zm-4.06-.07c0 .55-.46 1-1.02.98-.55 0-1-.46-.98-1 0-.57.47-1 1.02-1s1 .47.98 1.02zm-4.05-.07c-.02.56-.48 1-1.03 1-.55-.02-1-.48-.98-1.03 0-.55.45-1 1-.98.56 0 1 .46 1 1zm-4.06-.06c0 .55-.47 1-1.02.98-.55 0-1-.47-.98-1.02 0-.55.46-1 1-.98.57 0 1 .46 1 1.02zm-4.05-.07c-.02.55-.48 1-1.03.98-.55 0-1-.46-.98-1.02 0-.54.45-.98 1-.97.55 0 1 .46 1 1.02zm-4.07-.07c0 .55-.46 1-1 .98-.57 0-1-.46-1-1 0-.57.47-1 1.02-1s1 .47.98 1.02zm-4.05-.07c0 .56-.46 1-1.02 1-.55 0-1-.47-.98-1.02 0-.55.47-1 1.02-.98.55 0 1 .46.98 1zm-4.05-.06c0 .56-.47 1-1.02 1-.54-.02-.98-.48-.97-1.03 0-.54.46-.98 1-.97.57 0 1 .46 1 1zm-4.05-.07c0 .56-.47 1-1.02 1-.55-.02-1-.48-.98-1.03 0-.55.46-1 1-.98.56 0 1 .46 1 1zm-4.06-.06c0 .56-.46 1-1 1-.57-.02-1-.47-1-1.03 0-.55.47-1 1.02-.98.55 0 1 .46.98 1zm-4.05-.06c0 .55-.46 1-1.02.98-.55 0-1-.46-.98-1 0-.57.47-1 1.02-1 .54 0 .98.47.97 1.02zm-4.05-.07c0 .55-.47 1-1.02.98-.55 0-1-.46-.98-1 0-.56.46-1 1.02-1 .55 0 1 .47.98 1.02zm-4.05-.07c0 .56-.47 1-1.02 1-.55-.02-1-.48-.98-1.03 0-.55.46-1 1-.98.57 0 1 .45 1 1zm-4.06-.06c0 .55-.45 1-1 .98-.55 0-1-.47-1-1.02.02-.55.48-1 1.03-.98.55 0 1 .46.98 1.02zm-4.04-.07c0 .55-.46 1-1 .98-.57 0-1-.46-1-1.02 0-.55.47-1 1.02-.98.55 0 1 .47.98 1.02zm-4.05-.07c0 .55-.45 1-1 .98-.56 0-1-.46-1-1 .02-.57.47-1 1.03-1 .55 0 1 .47.98 1.02zm-4.04-.07c0 .55-.47 1-1.02.98-.55 0-1-.45-.98-1 0-.55.46-1 1-1 .57.02 1 .48 1 1.03zm-4.05-.07c0 .56-.46 1-1 1-.56-.02-1-.48-1-1.03.02-.55.47-1 1.02-.98.55 0 1 .46 1 1zm-4.2-1.82c-.02.55-.47 1-1.02.98-.56 0-1-.47-1-1.02.02-.55.48-1 1.03-.98.56 0 1 .46 1 1.02zm-1.7-4.28c0 .56-.46 1-1 1-.56-.02-1-.48-1-1.03.02-.55.47-1 1.02-.98.56 0 1 .46 1 1zm.07-4c0 .54-.46.98-1 .97-.57 0-1-.47-1-1.02 0-.54.47-.98 1.02-.97.54 0 .98.46.97 1.02zm.07-4.03c0 .55-.46 1-1 .98-.57 0-1-.46-1-1 0-.56.47-1 1.02-1 .55.02 1 .47.98 1.03zm.07-4.02c0 .56-.46 1-1 1-.56-.02-1-.47-1-1.03.02-.55.47-1 1.03-.98.55 0 1 .45.98 1zm.08-4c0 .54-.47.98-1.02.97-.55 0-1-.46-.98-1.02 0-.55.46-1 1-.98.57 0 1 .47 1 1.02zm.06-4.03c0 .55-.46 1-1 .98-.57 0-1-.46-1-1 0-.57.47-1 1.02-1s1 .47.98 1.02zm.07-4.02c0 .55-.45 1-1 .98-.56 0-1-.46-1-1 .02-.57.48-1 1.03-1s1 .47.98 1.02z" fill="#d916a8"/><path d="M340-354a6 6 0 0 1 6-6h168a6 6 0 0 1 6 6v28a6 6 0 0 1-6 6H346a6 6 0 0 1-6-6z" fill="none"/><use xlink:href="#j" transform="matrix(1,0,0,1,340,-360) translate(54.63333333333333 30.244444444444444)"/><path d="M529-354a6 6 0 0 1 6-6h168a6 6 0 0 1 6 6v28a6 6 0 0 1-6 6H535a6 6 0 0 1-6-6z" fill="none"/><use xlink:href="#k" transform="matrix(1,0,0,1,529.0000999999977,-360) translate(63.8 30.244444444444444)"/><path d="M519-359.5a.5.5 0 0 1 .5.5v478a.5.5 0 0 1-.5.5.5.5 0 0 1-.5-.5v-478a.5.5 0 0 1 .5-.5z" stroke="#979ea8" fill="none"/><path d="M372.68-319a.5.5 0 0 1 .5-.5H719a.5.5 0 0 1 .5.5.5.5 0 0 1-.5.5H373.18a.5.5 0 0 1-.5-.5z" stroke="#979ea8" fill="none"/><path d="M429-254a6 6 0 0 1 6-6h27a6 6 0 0 1 6 6v27a6 6 0 0 1-6 6h-27a6 6 0 0 1-6-6z" stroke="#000" fill="#dedeff"/><path d="M459.5-240.5c0 6.07-4.93 11-11 11s-11-4.93-11-11 4.93-11 11-11 11 4.93 11 11z" stroke="#000"/><path d="M558-264a6 6 0 0 1 6-6h148a6 6 0 0 1 6 6v48a6 6 0 0 1-6 6H564a6 6 0 0 1-6-6z" stroke="#000" fill="#dedeff"/><path d="M568.5-254.9a6 6 0 0 1 6-6h28a6 6 0 0 1 6 6v28a6 6 0 0 1-6 6h-28a6 6 0 0 1-6-6z" stroke="#000" fill="#f4d9ff"/><use xlink:href="#c" transform="matrix(1,0,0,1,573.4934085448658,-255.8931551081859) translate(5.493827160493828 21.430555555555557)"/><path d="M618-255.02a6 6 0 0 1 6-6h28a6 6 0 0 1 6 6v28a6 6 0 0 1-6 6h-28a6 6 0 0 1-6-6z" stroke="#000" fill="#f4d9ff"/><use xlink:href="#d" transform="matrix(1,0,0,1,623,-256.0157331043696) translate(8.88888888888889 21.430555555555557)"/><path d="M667.5-255.02a6 6 0 0 1 6-6h28a6 6 0 0 1 6 6v28a6 6 0 0 1-6 6h-28a6 6 0 0 1-6-6z" stroke="#000" fill="#f4d9ff"/><path d="M698.5-241c0 6.07-4.92 11-11 11-6.07 0-11-4.93-11-11s4.93-11 11-11c6.08 0 11 4.93 11 11z" stroke="#000"/><path d="M558.26-36.4a6 6 0 0 1-6-6v-27a6 6 0 0 1 6-6h27a6 6 0 0 1 6 6v27a6 6 0 0 1-6 6z" stroke="#000" fill="#dedeff"/><path d="M571.76-66.9c6.08 0 11 4.93 11 11 0 6.08-4.92 11-11 11-6.07 0-11-4.92-11-11 0-6.07 4.93-11 11-11z" stroke="#000"/><path d="M558.26-75.4a6 6 0 0 1-6-6v-27a6 6 0 0 1 6-6h27a6 6 0 0 1 6 6v27a6 6 0 0 1-6 6z" stroke="#000" fill="#dedeff"/><path d="M571.76-105.9c6.08 0 11 4.93 11 11 0 6.08-4.92 11-11 11-6.07 0-11-4.92-11-11 0-6.07 4.93-11 11-11z" stroke="#000"/><path d="M558.26-114.4a6 6 0 0 1-6-6v-27a6 6 0 0 1 6-6h27a6 6 0 0 1 6 6v27a6 6 0 0 1-6 6z" stroke="#000" fill="#dedeff"/><path d="M571.76-144.9c6.08 0 11 4.93 11 11 0 6.08-4.92 11-11 11-6.07 0-11-4.92-11-11 0-6.07 4.93-11 11-11z" stroke="#000"/><path d="M461-240.5h78" stroke="#000" stroke-width="2" stroke-linejoin="round" fill="none"/><path d="M461.03-239.5h-1.16l.13-1-.13-1h1.16z" stroke="#000" stroke-width=".05"/><path d="M554.26-240.5L540-235.87v-9.26z" stroke="#000" stroke-width="2" fill="#fff"/><path d="M687.5-228.5l-.03.65-.1 1.53-.15 1.43-.2 1.35-.25 1.27-.3 1.2-.33 1.15-.37 1.1-.4 1.05-.45 1.02-.48 1-.52.95-.57.94-.6.92-.67.9-.7.92-.78.9-.85.88-.9.9-1.02.9-1.1.9-1.23.9-1.36.94-1.53.95-1.73.97-2 1-2.3 1.06-2.76 1.1-3.34 1.2-4.25 1.28-5.8 1.5-9.94 2.1-31.58 5.98-5.82 1.5-4.25 1.3-3.34 1.18-2.75 1.1-2.3 1.05-2 1-1.74 1-1.53.94-1.36.94-1.23.9-1.1.9-1 .9-.92.9-.85.9-.77.9-.7.9-.1.1" stroke="#000" stroke-width="2" stroke-linejoin="round" fill="none"/><path d="M688.48-228.45l-2-.04.03-1.13 1 .13 1-.13z" stroke="#000" stroke-width=".05"/><path d="M572.72-157l-.23-15 8.85 2.74z" stroke="#000" stroke-width="2" fill="#fff"/><path d="M532.76-130.4a6 6 0 0 1 6-6h4a6 6 0 0 1 6 6v10a6 6 0 0 1-6 6h-4a6 6 0 0 1-6-6z" fill="none"/><use xlink:href="#l" transform="matrix(1,0,0,1,532.7567914551297,-136.39831084032937) translate(2.9444444444444446 17.77777777777778)"/><path d="M532.76-91.4a6 6 0 0 1 6-6h4a6 6 0 0 1 6 6v10a6 6 0 0 1-6 6h-4a6 6 0 0 1-6-6z" fill="none"/><use xlink:href="#m" transform="matrix(1,0,0,1,532.7567914551297,-97.39831084032937) translate(2.9444444444444446 17.77777777777778)"/><path d="M532.38-52.4a6 6 0 0 1 6-6h4a6 6 0 0 1 6 6v10a6 6 0 0 1-6 6h-4a6 6 0 0 1-6-6z" fill="none"/><use xlink:href="#n" transform="matrix(1,0,0,1,532.3751249999973,-58.39831084032937) translate(2.9444444444444446 17.77777777777778)"/><path d="M576.26-18.4c0 2.5-2 4.5-4.5 4.5-2.48 0-4.5-2-4.5-4.5 0-2.48 2.02-4.5 4.5-4.5 2.5 0 4.5 2.02 4.5 4.5zM576.56 4.1c0 2.5-2 4.5-4.5 4.5-2.48 0-4.5-2-4.5-4.5 0-2.48 2.02-4.5 4.5-4.5 2.5 0 4.5 2.02 4.5 4.5zM576.56 26.6c0 2.5-2 4.5-4.5 4.5-2.48 0-4.5-2-4.5-4.5 0-2.48 2.02-4.5 4.5-4.5 2.5 0 4.5 2.02 4.5 4.5z" stroke="#000"/><path d="M558.26 87.6a6 6 0 0 1-6-6v-27a6 6 0 0 1 6-6h27a6 6 0 0 1 6 6v27a6 6 0 0 1-6 6z" stroke="#000" fill="#dedeff"/><path d="M571.76 57.1c6.08 0 11 4.93 11 11 0 6.08-4.92 11-11 11-6.07 0-11-4.92-11-11 0-6.07 4.93-11 11-11z" stroke="#000"/><path d="M532.38 71.6a6 6 0 0 1 6-6h4a6 6 0 0 1 6 6v10a6 6 0 0 1-6 6h-4a6 6 0 0 1-6-6z" fill="none"/><use xlink:href="#h" transform="matrix(1,0,0,1,532.3751249999973,65.60168915967063) translate(2.9444444444444446 17.77777777777778)"/><path d="M623.56-60a6 6 0 0 1 6-6h28a6 6 0 0 1 6 6v6a6 6 0 0 1-6 6h-28a6 6 0 0 1-6-6z" fill="none"/><use xlink:href="#i" transform="matrix(1,0,0,1,623.5555820463992,-65.99966209329378) translate(2.713333333333342 15.719999999999995)"/><path d="M617.96-96a6 6 0 0 1 6-6h28a6 6 0 0 1 6 6v6a6 6 0 0 1-6 6h-28a6 6 0 0 1-6-6z" fill="none"/><use xlink:href="#i" transform="matrix(1,0,0,1,617.9555994658665,-101.99955011100391) translate(2.713333333333342 15.719999999999995)"/><path d="M584.27-55.9l6.43.07h.03l-.02.02-.97.04-6.77.2.85.02 21.23-.2" stroke="#000" stroke-width="2" stroke-linejoin="round" fill="none"/><path d="M584.3-56.9v2h-1.16l.13-1-.13-1z" stroke="#000" stroke-width=".05"/><path d="M620.3-55.87l-14.23 4.77-.08-9.27z" stroke="#000" stroke-width="2" fill="#fff"/><path d="M584.27-94.9h15.18" stroke="#000" stroke-width="2" stroke-linejoin="round" fill="none"/><path d="M584.3-93.9h-1.16l.13-1-.13-1h1.15z" stroke="#000" stroke-width=".05"/><path d="M614.72-94.9l-14.27 4.64v-9.27z" stroke="#000" stroke-width="2" fill="#fff"/><g fill="none"><path d="M572.06-160.25a1.25 1.25 0 0 1 1.25 1.25v266.4a1.25 1.25 0 0 1-1.24 1.25 1.25 1.25 0 0 1-1.25-1.25V-159a1.25 1.25 0 0 1 1.26-1.25z"/><path d="M573.3-142.05v14.53m0 9.7v14.52m0 9.7v14.52m0 9.7v14.52m0 9.7v14.52m0 9.68v14.53m0 9.7v14.52m0 9.68V42m0 9.7v14.53m0 9.7v14.52m0 9.68v7.47l-.05.18-.08.2-.1.15-.13.15-.14.13-.17.1-.18.1-.2.03-.2.02-.2-.02-.18-.04-.18-.1-.17-.1-.15-.12-.13-.15-.1-.16-.08-.2-.04-.18-.02-.2v-7.27m0-9.68V75.92m0-9.7V51.7m0-9.7V27.5m0-9.7V3.27m0-9.7v-14.52m0-9.68v-14.53m0-9.7v-14.52m0-9.68V-93.6m0-9.7v-14.53m0-9.7v-14.52m0-9.68V-159l.03-.2.04-.2.08-.17.1-.16.13-.15.15-.13.16-.1.17-.1.2-.03.2-.02.2.02.18.04.18.1.17.1.14.12.13.15.1.16.08.18.04.2v7.47" stroke="#e81313" stroke-width="2.5"/></g><path d="M681.68-117.1a6 6 0 0 1 6.1-5.88l85.1 1.42a6 6 0 0 0 6.1-5.9l.9-53.98a2.5 2.5 0 0 1 4.28-1.7l76.6 78.9a5.98 5.98 0 0 1-.15 8.46L781.43-19.5a2.5 2.5 0 0 1-4.22-1.85l.9-53.98a6 6 0 0 0-5.9-6.1l-85.1-1.42a6 6 0 0 1-5.9-6.1z" fill-opacity="0"/><path d="M682.68-117.07c0 .55-.47 1-1.02.98-.55 0-1-.45-.98-1 0-.55.46-1 1.02-1 .55.02 1 .48.98 1.03zm1.83-4.2c0 .54-.46.98-1 .97-.56 0-1-.46-1-1.02.02-.55.47-1 1.02-.98.56 0 1 .47 1 1.02zm4.28-1.7c0 .55-.47 1-1.02 1-.55-.02-1-.48-.98-1.03 0-.55.46-1 1.02-.98.55 0 1 .46.98 1zm4.05.07c0 .55-.46 1-1.02.98-.54 0-.98-.46-.97-1 0-.57.46-1 1.02-1 .55 0 1 .47.98 1.02zm4.05.07c0 .55-.46 1-1 .98-.57 0-1-.46-1-1.02 0-.55.47-1 1.02-.98.55 0 1 .47.98 1.02zm4.05.07c0 .55-.46 1-1 .98-.56 0-1-.47-1-1.02s.47-1 1.02-.98c.55 0 1 .46.98 1.02zm4.06.06c-.02.56-.48 1-1.03 1-.55-.02-1-.48-.98-1.03 0-.55.45-1 1-.98.56 0 1 .45 1 1zm4.04.07c0 .55-.47 1-1.02.98-.55 0-1-.46-.98-1 0-.56.46-1 1.02-1 .55 0 1 .47.98 1.02zm4.05.07c-.02.55-.47 1-1.02.98-.56 0-1-.46-1-1 .02-.57.48-1 1.03-1 .56 0 1 .47 1 1.02zm4.04.07c0 .56-.46 1-1 1-.57-.02-1-.47-1-1.03 0-.55.47-1 1.02-.98.55 0 1 .46.98 1zm4.06.08c0 .55-.47 1-1.02.98-.55 0-1-.47-.98-1.02 0-.55.46-1 1-.98.57 0 1 .46 1 1.02zm4.05.06c0 .56-.47 1-1.02 1-.55-.02-1-.48-.98-1.03 0-.54.46-.98 1.02-.97.55 0 1 .46.98 1zm4.05.07c0 .56-.46 1-1.02 1-.55 0-1-.47-.98-1.02 0-.55.47-1 1.02-1 .55.02 1 .48.98 1.03zm4.05.08c0 .55-.46 1-1 .98-.57 0-1-.46-1-1 0-.57.47-1 1.02-1s1 .47.98 1.02zm4.06.07c0 .55-.46 1-1 .98-.56 0-1-.46-1-1.02 0-.54.47-.98 1.02-.97.55 0 1 .47 1 1.02zm4.06.07c0 .55-.47 1-1.02.98-.55 0-1-.47-.98-1.02 0-.55.46-1 1-.98.57 0 1 .46 1 1.02zm4.05.06c0 .56-.45 1-1 1-.56-.02-1-.48-1-1.03.02-.55.47-1 1.03-.98.55 0 1 .46.98 1zm4.06.07c0 .55-.46 1-1 .98-.57 0-1-.46-1-1 0-.56.47-1 1.02-1s1 .47.98 1.02zm4.05.07c0 .55-.45 1-1 .98-.55 0-1-.46-1-1 .02-.57.48-1 1.03-1s1 .47.98 1.02zm4.07.07c0 .54-.47.98-1.02.97-.55 0-1-.46-.98-1.02 0-.55.46-1 1-.98.57 0 1 .47 1 1.02zm4.05.05c0 .56-.47 1-1.02 1-.55-.02-1-.48-.98-1.03 0-.55.46-1 1.02-.98.55 0 1 .46.98 1zm4.05.07c0 .55-.46 1-1.02 1-.55-.02-1-.48-.98-1.03 0-.56.47-1 1.02-1 .54.02.98.47.97 1.02zm4.05.07c0 .54-.46.98-1 .97-.57 0-1-.46-1-1 0-.56.47-1 1.02-1s1 .47.98 1.02zm4.06.06c0 .55-.47 1-1.02.98-.55 0-1-.46-.98-1 0-.57.46-1 1-1 .57 0 1 .47 1 1.02zm4.27-1.7c0 .57-.47 1-1.02 1s-1-.47-.98-1.02c0-.55.46-1 1-.98.57 0 1 .46 1 1zm1.83-4.2c0 .55-.47 1-1.02.98-.55 0-1-.46-.98-1 0-.57.46-1 1-1 .56 0 1 .47 1 1.02zm.06-4.15c0 .56-.46 1-1 1-.56-.02-1-.47-1-1.03 0-.55.47-1 1.02-.98.55 0 1 .46.98 1zm.07-4.14c0 .55-.45 1-1 .98-.55 0-1-.47-1-1.02.02-.55.48-1 1.03-.98.55 0 1 .46.98 1.02zm.08-4.16c0 .55-.46 1-1 1-.56-.02-1-.48-1-1.03s.47-1 1.02-.98c.55 0 1 .45.98 1zm.07-4.15c0 .55-.46 1-1 .98-.57 0-1-.46-1-1 0-.56.47-1 1.02-1s1 .47.98 1.02zm.07-4.15c0 .55-.46 1-1 .98-.57 0-1-.46-1-1.02 0-.55.47-1 1.02-.98.55 0 1 .47.98 1.02zm.07-4.15c-.02.55-.47 1-1.02.98-.56 0-1-.46-1-1.02.02-.54.48-.98 1.03-.97.56 0 1 .46 1 1.02zm.06-4.16c0 .55-.46 1-1 .98-.57 0-1-.47-1-1.02s.47-1 1.02-.98c.55 0 1 .46.98 1zm.07-4.16c0 .55-.46 1-1 .98-.57 0-1-.46-1-1 0-.56.47-1 1.02-1s1 .47.98 1.02zm.07-4.15c0 .54-.46.98-1.02.97-.55 0-1-.46-.98-1.02 0-.55.47-1 1.02-.98.55 0 1 .47.98 1.02zm.07-4.16c0 .55-.46 1-1.02.98-.55 0-1-.46-.98-1.02 0-.55.47-1 1.02-.98.54 0 .98.46.97 1.02zm.07-4.16c0 .56-.46 1-1.02 1-.55-.02-1-.48-.98-1.03 0-.55.47-1 1.02-.98.55 0 1 .46.98 1zm.07-4.15c0 .55-.45 1-1 1-.56-.02-1-.48-1-1.03.02-.55.48-1 1.03-.98.55 0 1 .46.98 1zm.08-4.15c0 .55-.46 1-1.02.98-.55 0-1-.46-.98-1 0-.57.46-1 1.02-1 .55 0 1 .47.98 1.02zm4.28-1.7c0 .56-.46 1-1.02 1-.55-.02-1-.48-.98-1.03 0-.55.46-1 1.02-.98.55 0 1 .46.98 1.02zm2.84 2.93c0 .56-.47 1-1.02 1-.55-.02-1-.47-.98-1.03 0-.55.46-1 1-.98.57 0 1 .45 1 1zm2.83 2.93c0 .55-.46 1-1 .98-.56 0-1-.45-1-1 0-.56.47-1 1.02-1 .55.02 1 .48.98 1.03zm2.84 2.92c0 .55-.46 1-1.02.98-.55 0-1-.46-.98-1 0-.57.47-1 1.02-1 .54 0 .98.47.97 1.02zm2.84 2.92c0 .55-.46 1-1 .98-.56 0-1-.46-1-1 .02-.56.47-1 1.02-1 .56 0 1 .47 1 1.02zm2.84 2.92c0 .54-.46 1-1 .98-.56 0-1-.47-1-1.02s.47-1 1.02-.98c.55 0 1 .46.98 1zm2.84 2.9c0 .57-.46 1-1.02 1-.55 0-1-.47-.98-1.02 0-.55.47-1 1.02-.98.55 0 1 .46.98 1zm2.84 2.94c0 .55-.47 1-1.02.98-.55 0-1-.46-.98-1.02 0-.55.46-1 1-.98.57 0 1 .46 1 1.02zm2.83 2.92c0 .55-.46 1-1 .98-.57 0-1-.46-1-1.02 0-.55.47-1 1.02-.98.55 0 1 .47.98 1.02zm2.84 2.92c-.02.55-.47 1-1.03.98-.55 0-1-.46-.98-1 0-.57.46-1 1-1 .56 0 1 .47 1 1.02zm2.83 2.92c0 .55-.47 1-1.02.98-.54 0-.98-.46-.97-1 0-.56.46-1 1-1 .57 0 1 .47 1 1.02zm2.83 2.92c0 .55-.46 1-1 1-.56-.02-1-.48-1-1.03 0-.56.47-1 1.02-1 .55.02 1 .47.98 1.02zm2.84 2.92c0 .56-.46 1-1.02 1-.55-.02-1-.48-.98-1.03 0-.54.47-.98 1.02-.97.55 0 1 .46.98 1zm2.84 2.93c0 .55-.47 1-1.02.98-.55 0-1-.46-.98-1.02 0-.55.46-1 1-.98.57 0 1 .46 1 1.02zm2.83 2.92c0 .54-.46.98-1 .97-.56 0-1-.46-1-1.02 0-.55.47-1 1.02-.98.54 0 .98.47.97 1.02zm2.84 2.9c0 .56-.45 1-1 1-.56-.02-1-.47-1-1.02.02-.56.48-1 1.03-1 .55.02 1 .48.98 1.03zm2.85 2.93c0 .55-.47 1-1.02.98-.55 0-1-.45-.98-1 0-.55.46-1 1-1 .57.02 1 .48 1 1.03zm2.84 2.92c-.02.55-.48 1-1.03 1-.55-.02-1-.48-.98-1.03 0-.55.45-1 1-.98.55 0 1 .46 1 1zm2.82 2.92c0 .56-.46 1-1 1-.57-.02-1-.48-1-1.03s.47-1 1.02-.98c.55 0 1 .46.98 1zm2.84 2.93c0 .55-.47 1-1.02.98-.55 0-1-.47-.98-1.02 0-.55.46-1 1.02-.98.55 0 1 .46.98 1.02zm2.83 2.92c0 .55-.47 1-1.02.98-.55 0-1-.46-1-1.02.02-.55.48-1 1.03-.98.56 0 1 .47 1 1.02zm2.83 2.92c0 .55-.46 1-1 .98-.57 0-1-.46-1-1 0-.57.47-1 1.02-1s1 .47.98 1.02zm2.84 2.92c0 .55-.47 1-1.02.98-.55 0-1-.46-.98-1 0-.57.46-1 1.02-1 .54 0 .98.47.97 1.02zm2.83 2.92c0 .55-.46 1-1 1-.56-.02-1-.48-1-1.03s.47-1 1.02-.98c.55 0 1 .46.98 1zm2.84 2.92c0 .56-.46 1-1 1-.57-.02-1-.48-1-1.03s.47-1 1.02-.98c.55 0 1 .45.98 1zm2.84 2.93c0 .55-.47 1-1.02.98-.55 0-1-.46-.98-1 0-.56.46-1 1.02-1 .55.02 1 .47.98 1.03zm2.84 2.92c0 .55-.47 1-1.02.98-.55 0-1-.46-.98-1.02 0-.54.46-.98 1-.97.56 0 1 .47 1 1.02zm2.83 2.92c0 .55-.46 1-1 .98-.57 0-1-.46-1-1 0-.57.47-1 1.02-1s1 .47.98 1.02zm1.7 4.26c-.02.55-.47 1-1.03 1-.55-.02-1-.48-.98-1.03 0-.55.46-1 1.02-.98.55 0 1 .46.98 1zm-1.84 4.2c0 .56-.45 1-1 1-.56-.02-1-.48-1-1.03.02-.55.47-1 1.03-.98.55 0 1 .46.98 1.02zm-2.92 2.83c0 .55-.47 1-1.02.98-.55 0-1-.46-.98-1 0-.57.46-1 1-1 .57 0 1 .47 1 1.02zm-2.94 2.83c0 .54-.46.98-1 .97-.56 0-1-.47-1-1.02s.47-1 1.02-.98c.55 0 1 .46.98 1.02zm-2.93 2.8c0 .56-.45 1-1 1-.56-.02-1-.47-1-1.02.02-.56.48-1 1.03-1 .55.02 1 .48.98 1.03zm-2.92 2.83c0 .56-.47 1-1.02 1-.55-.02-1-.48-.98-1.03 0-.55.46-1 1-.98.57 0 1 .46 1 1zm-2.94 2.83c0 .55-.46 1-1 .98-.56 0-1-.46-1-1 0-.57.47-1 1.02-1s1 .47.98 1.02zM844-78.8c0 .54-.45.98-1 .97-.56 0-1-.47-1-1.02.02-.55.48-1 1.03-.98.55 0 1 .46.98 1.02zM841.1-76c0 .56-.47 1-1.02 1-.55-.02-1-.47-.98-1.02 0-.56.46-1 1.02-1 .55.02 1 .48.98 1.03zm-2.93 2.83c0 .56-.47 1-1.02 1-.55-.02-1-.48-.98-1.03 0-.55.46-1 1-.98.56 0 1 .46 1 1zm-2.94 2.83c0 .55-.45 1-1 .98-.56 0-1-.46-1-1 .02-.57.48-1 1.03-1s1 .47.98 1.02zm-2.92 2.82c0 .56-.46 1-1.02 1-.55-.02-1-.48-.98-1.03 0-.55.46-1 1.02-.98.55 0 1 .46.98 1zm-2.93 2.83c0 .56-.47 1-1.02 1-.55-.02-1-.47-.98-1.02 0-.56.46-1 1-1 .57.02 1 .48 1 1.03zm-2.94 2.83c0 .56-.45 1-1 1-.56-.02-1-.48-1-1.03.02-.55.48-1 1.03-.98.55 0 1 .46.98 1zm-2.92 2.83c0 .55-.46 1-1.02.98-.55 0-1-.46-.98-1 0-.57.46-1 1.02-1 .55 0 1 .47.98 1.02zm-2.93 2.82c0 .56-.47 1-1.02 1-.55-.02-1-.48-.98-1.03 0-.55.46-1 1-.98.57 0 1 .46 1 1zm-2.94 2.83c0 .56-.45 1-1 1-.55-.02-1-.47-1-1.02.02-.56.48-1 1.03-1 .55.02 1 .48.98 1.03zm-2.92 2.83c0 .56-.46 1-1.02 1-.55-.02-1-.48-.98-1.03 0-.55.47-1 1.02-.98.55 0 1 .46.98 1zm-2.93 2.83c0 .55-.47 1-1.02.98-.55 0-1-.46-.98-1 0-.57.46-1 1-1 .57 0 1 .47 1 1.02zm-2.94 2.82c0 .56-.45 1-1 1-.55-.02-1-.48-.98-1.03 0-.55.46-1 1-.98.56 0 1 .46 1 1zm-2.92 2.83c0 .56-.46 1-1 1-.57-.02-1-.47-1-1.03 0-.55.47-1 1.02-.98.55 0 1 .46.98 1zm-2.93 2.83c0 .56-.47 1-1.02 1-.55-.02-1-.48-.98-1.03 0-.55.46-1 1.02-.98.55 0 1 .46.98 1zm-2.93 2.83c0 .55-.47 1-1.02.98-.55 0-1-.46-.98-1 0-.57.46-1 1-1 .57 0 1 .47 1 1.02zm-2.94 2.82c0 .56-.46 1-1 1-.57-.02-1-.48-1-1.03s.47-1 1.02-.98c.55 0 1 .46.98 1zm-2.93 2.83c0 .56-.46 1-1.02 1-.55-.02-1-.47-.98-1.03 0-.55.46-1 1.02-.98.55 0 1 .46.98 1zm-2.93 2.83c0 .56-.47 1-1.02 1-.55-.02-1-.48-.98-1.03 0-.55.46-1 1-.98.57 0 1 .46 1 1zm-2.94 2.83c0 .55-.46 1-1 .98-.57 0-1-.46-1-1.02 0-.55.47-1 1.02-.98.55 0 1 .47.98 1.02zm-2.93 2.82c0 .55-.46 1-1.02 1-.55-.02-1-.48-.98-1.03 0-.55.46-1 1.02-.98.55 0 1 .46.98 1zm-2.93 2.83c0 .56-.47 1-1.02 1-.55-.02-1-.47-.98-1.03 0-.55.46-1 1-.98.57 0 1 .46 1 1zm-4.22-1.83c0 .55-.47 1-1.02.98-.55 0-1-.46-.98-1 0-.57.46-1 1-1 .57 0 1 .47 1 1.02zm.07-4.15c0 .55-.47 1-1.02.98-.55 0-1-.46-.98-1 0-.57.46-1 1-1 .57 0 1 .47 1 1.02zm.07-4.15c0 .55-.47 1-1.02.98-.55 0-1-.47-.98-1.02 0-.55.46-1 1-.98.57 0 1 .46 1 1.02zm.07-4.16c0 .57-.46 1-1 1-.56 0-1-.47-1-1.02s.47-1 1.02-.98c.55 0 1 .46 1 1zm.07-4.14c0 .55-.46 1-1 .98-.56 0-1-.46-1-1 0-.56.47-1 1.02-1 .54 0 .98.47.97 1.02zm.07-4.15c0 .56-.46 1-1 1-.56-.02-1-.47-1-1.02 0-.56.47-1 1.02-1 .55.02 1 .48.98 1.03zm.07-4.14c0 .55-.45 1-1 .98-.55 0-1-.46-1-1.02.02-.55.48-1 1.03-.98.55 0 1 .46.98 1.02zm.08-4.16c0 .56-.46 1-1 1-.57-.02-1-.48-1-1.03s.47-1 1.02-.98c.55 0 1 .45.98 1zm.07-4.15c0 .55-.46 1-1 .98-.57 0-1-.46-1-1 0-.56.47-1 1.02-1s1 .47.98 1.02zm.07-4.15c0 .55-.46 1-1 .98-.57 0-1-.46-1-1 0-.57.47-1 1.02-1s1 .47.98 1.02zm.07-4.15c-.02.55-.47 1-1.02.98-.56 0-1-.46-1-1.02.02-.54.48-.98 1.03-.97.56 0 1 .47 1 1.02zm.06-4.16c0 .55-.46 1-1 .98-.57 0-1-.47-1-1.02s.47-1 1.02-.98c.55 0 1 .46.98 1zm.07-4.16c0 .56-.46 1-1.02 1-.54-.02-.98-.48-.97-1.03 0-.54.47-.98 1.02-.97.55 0 1 .46.98 1zm.07-4.15c0 .54-.46.98-1.02.97-.55 0-1-.46-.98-1 0-.57.47-1 1.02-1s1 .47.98 1.02zm-1.68-4.28c0 .55-.47 1-1.02.98-.55 0-1-.46-.98-1 0-.57.46-1 1-1 .56 0 1 .47 1 1.02zm-4.22-1.83c0 .54-.46.98-1 .97-.57 0-1-.46-1-1 0-.57.47-1 1.02-1s1 .47.98 1.02zm-4.05-.08c0 .56-.46 1-1.02 1-.55-.02-1-.48-.98-1.03 0-.56.47-1 1.02-1 .55.02 1 .47.98 1.02zm-4.05-.06c0 .55-.47 1-1.02.98-.55 0-1-.47-.98-1.02 0-.55.46-1 1.02-.98.55 0 1 .46.98 1.02zm-4.05-.07c0 .54-.47.98-1.02.97-.55 0-1-.46-.98-1.02 0-.55.46-1 1-.98.57 0 1 .46 1 1.02zM757-81.7c-.02.55-.47 1-1.02.98-.55 0-1-.46-1-1 .02-.57.48-1 1.03-1 .56 0 1 .47 1 1.02zm-4.06-.07c0 .55-.46 1-1.02.98-.55 0-1-.46-.98-1 0-.57.47-1 1.02-1s1 .47.98 1.02zm-4.05-.07c-.02.56-.48 1-1.03 1-.55-.02-1-.48-.98-1.03 0-.55.45-1 1-.98.56 0 1 .46 1 1zm-4.06-.06c0 .55-.47 1-1.02.98-.55 0-1-.47-.98-1.02 0-.55.46-1 1-.98.57 0 1 .46 1 1.02zm-4.05-.07c-.02.55-.48 1-1.03.98-.55 0-1-.46-.98-1.02 0-.54.45-.98 1-.97.55 0 1 .46 1 1.02zm-4.07-.07c0 .55-.46 1-1 .98-.57 0-1-.46-1-1 0-.57.47-1 1.02-1s1 .47.98 1.02zm-4.05-.07c0 .56-.46 1-1.02 1-.55 0-1-.47-.98-1.02 0-.55.47-1 1.02-.98.55 0 1 .46.98 1zm-4.05-.06c0 .56-.47 1-1.02 1-.54-.02-.98-.48-.97-1.03 0-.54.46-.98 1-.97.57 0 1 .46 1 1zm-4.05-.07c0 .56-.47 1-1.02 1-.55-.02-1-.48-.98-1.03 0-.55.46-1 1-.98.56 0 1 .46 1 1zm-4.06-.06c0 .56-.46 1-1 1-.57-.02-1-.47-1-1.03 0-.55.47-1 1.02-.98.55 0 1 .46.98 1zm-4.05-.06c0 .55-.46 1-1.02.98-.55 0-1-.46-.98-1 0-.57.47-1 1.02-1 .54 0 .98.47.97 1.02zm-4.05-.07c0 .55-.47 1-1.02.98-.55 0-1-.46-.98-1 0-.56.46-1 1.02-1 .55 0 1 .47.98 1.02zm-4.05-.07c0 .56-.47 1-1.02 1-.55-.02-1-.48-.98-1.03 0-.55.46-1 1-.98.57 0 1 .45 1 1zm-4.06-.06c0 .55-.45 1-1 .98-.55 0-1-.47-1-1.02.02-.55.48-1 1.03-.98.55 0 1 .46.98 1.02zm-4.04-.07c0 .55-.46 1-1 .98-.57 0-1-.46-1-1.02 0-.55.47-1 1.02-.98.55 0 1 .47.98 1.02zm-4.05-.07c0 .55-.45 1-1 .98-.56 0-1-.46-1-1 .02-.57.47-1 1.03-1 .55 0 1 .47.98 1.02zm-4.04-.07c0 .55-.47 1-1.02.98-.55 0-1-.45-.98-1 0-.55.46-1 1-1 .57.02 1 .48 1 1.03zm-4.05-.07c0 .56-.46 1-1 1-.56-.02-1-.48-1-1.03.02-.55.47-1 1.02-.98.55 0 1 .46 1 1zm-4.2-1.82c-.02.55-.47 1-1.02.98-.56 0-1-.47-1-1.02.02-.55.48-1 1.03-.98.56 0 1 .46 1 1.02zm-1.7-4.28c0 .56-.46 1-1 1-.56-.02-1-.48-1-1.03.02-.55.47-1 1.02-.98.56 0 1 .46 1 1zm.07-4c0 .54-.46.98-1 .97-.57 0-1-.47-1-1.02 0-.54.47-.98 1.02-.97.54 0 .98.46.97 1.02zm.07-4.03c0 .55-.46 1-1 .98-.57 0-1-.46-1-1 0-.56.47-1 1.02-1 .55.02 1 .47.98 1.03zm.07-4.02c0 .56-.46 1-1 1-.56-.02-1-.47-1-1.03.02-.55.47-1 1.03-.98.55 0 1 .45.98 1zm.08-4c0 .54-.47.98-1.02.97-.55 0-1-.46-.98-1.02 0-.55.46-1 1-.98.57 0 1 .47 1 1.02zm.06-4.03c0 .55-.46 1-1 .98-.57 0-1-.46-1-1 0-.57.47-1 1.02-1s1 .47.98 1.02zm.07-4.02c0 .55-.45 1-1 .98-.56 0-1-.46-1-1 .02-.57.48-1 1.03-1s1 .47.98 1.02z" fill="#d916a8"/><path d="M740-354a6 6 0 0 1 6-6h168a6 6 0 0 1 6 6v28a6 6 0 0 1-6 6H746a6 6 0 0 1-6-6z" fill="none"/><use xlink:href="#j" transform="matrix(1,0,0,1,740,-360) translate(54.63333333333333 30.244444444444444)"/><path d="M929-354a6 6 0 0 1 6-6h168a6 6 0 0 1 6 6v28a6 6 0 0 1-6 6H935a6 6 0 0 1-6-6z" fill="none"/><use xlink:href="#k" transform="matrix(1,0,0,1,929.0000999999977,-360) translate(63.8 30.244444444444444)"/><path d="M919-359.5a.5.5 0 0 1 .5.5v478a.5.5 0 0 1-.5.5.5.5 0 0 1-.5-.5v-478a.5.5 0 0 1 .5-.5z" stroke="#979ea8" fill="none"/><path d="M772.68-319a.5.5 0 0 1 .5-.5H1119a.5.5 0 0 1 .5.5.5.5 0 0 1-.5.5H773.18a.5.5 0 0 1-.5-.5z" stroke="#979ea8" fill="none"/><path d="M829-254a6 6 0 0 1 6-6h27a6 6 0 0 1 6 6v27a6 6 0 0 1-6 6h-27a6 6 0 0 1-6-6z" stroke="#000" fill="#dedeff"/><path d="M859.5-240.5c0 6.07-4.92 11-11 11s-11-4.93-11-11 4.92-11 11-11 11 4.93 11 11z" stroke="#000"/><path d="M958-264a6 6 0 0 1 6-6h148a6 6 0 0 1 6 6v48a6 6 0 0 1-6 6H964a6 6 0 0 1-6-6z" stroke="#000" fill="#dedeff"/><path d="M968.5-254.9a6 6 0 0 1 6-6h28a6 6 0 0 1 6 6v28a6 6 0 0 1-6 6h-28a6 6 0 0 1-6-6z" stroke="#000" fill="#f4d9ff"/><use xlink:href="#c" transform="matrix(1,0,0,1,973.4934085448658,-255.8931551081859) translate(5.493827160493828 21.430555555555557)"/><path d="M1018-255.02a6 6 0 0 1 6-6h28a6 6 0 0 1 6 6v28a6 6 0 0 1-6 6h-28a6 6 0 0 1-6-6z" stroke="#000" fill="#f4d9ff"/><use xlink:href="#d" transform="matrix(1,0,0,1,1023,-256.0157331043696) translate(8.88888888888889 21.430555555555557)"/><path d="M1067.5-255.02a6 6 0 0 1 6-6h28a6 6 0 0 1 6 6v28a6 6 0 0 1-6 6h-28a6 6 0 0 1-6-6z" stroke="#000" fill="#f4d9ff"/><path d="M1098.5-241c0 6.07-4.92 11-11 11-6.07 0-11-4.93-11-11s4.93-11 11-11c6.08 0 11 4.93 11 11z" stroke="#000"/><path d="M861-240.5h78" stroke="#000" stroke-width="2" stroke-linejoin="round" fill="none"/><path d="M861.03-239.5h-1.16l.13-1-.13-1h1.16z" stroke="#000" stroke-width=".05"/><path d="M954.26-240.5L940-235.87v-9.26z" stroke="#000" stroke-width="2" fill="#fff"/><path d="M941.25-237.5a1.25 1.25 0 0 1 1.25-1.25h195a1.25 1.25 0 0 1 1.25 1.25 1.25 1.25 0 0 1-1.25 1.25h-195a1.25 1.25 0 0 1-1.25-1.25z" fill="none"/><path d="M959.56-238.75h14.63m9.74 0h14.62m9.75 0h14.64m9.75 0h14.6m9.76 0h14.63m9.74 0h14.62m9.75 0h14.64m9.75 0h7.5l.2.06.17.1.16.1.15.12.13.14.1.17.1.18.03.2.02.2-.02.2-.04.2-.1.17-.1.17-.12.14-.15.13-.16.1-.18.1-.2.04h-7.5m-9.76 0h-14.63m-9.74 0h-14.62m-9.75 0h-14.64m-9.75 0h-14.6m-9.76 0h-14.63m-9.74 0h-14.62m-9.75 0h-14.64m-9.75 0h-7.5l-.2-.05-.17-.1-.16-.1-.15-.12-.13-.14-.1-.17-.1-.18-.03-.2-.02-.2v-.2l.06-.2.1-.17.1-.17.12-.14.14-.13.17-.1.18-.1.2-.04h7.5" stroke="#e81313" stroke-width="2.5" fill="none"/><defs><path fill="#979ea8" d="M371-533c189 0 256 55 239 237-9 91-67 138-157 205C374-33 301-7 236-7 155-7 13-82 18-160c3-44 62-73 96-38 43 44 152 73 218 29 77-51 166-125 156-169 2-44-67-63-119-62-47 1-108 1-155 3C87-393 13-429 1-531c11-87 101-150 165-187 90-52 160-96 290-87 34 2 118 78 115 115-3 35-23 38-55 45-15 4-26-4-33-24-37-64-116-1-164 12-41 11-154 77-154 113 0 15 14 22 41 22 45 0 127-11 165-11" id="o"/><path fill="#979ea8" d="M382-556c-3 158-18 304-18 470 0 31 6 72-21 86-20 35-87 21-104-6-1-188 14-367 23-549 1-24 13-80-17-80-77 0-131 31-210 31-15-10-43-18-33-45 0-82 83-94 148-109 103-23 215-12 315-40 43-12 91-17 142-23 62-8 95 53 77 116-8 28-47 14-75 18-68 9-134 10-195 30-32 11-31 60-32 101" id="p"/><path fill="#979ea8" d="M103-24C79 10-2-14 8-59c42-186 129-353 193-524 23-62 63-135 99-197 39-38 106-10 109 47 27 100 51 209 81 307 8 25 72 24 72 63 0 44-26 46-37 75 12 83 46 156 55 243 7 63-106 47-114 11-13-58-36-170-57-231-3-4-7-8-9-14-69 4-134 40-198 52-53 21-53 108-81 160-4 16-8 29-18 43zm215-551c-16 18-92 195-73 208 46 2 100-12 123-31-5-30-32-162-38-171-2-3-6-5-12-6" id="q"/><path fill="#979ea8" d="M521-275c40-33 108-24 108 34 0 49-75 103-210 183-80 47-247 72-323 10-66-54-95-101-82-218 12-106 41-136 91-224 55-96 145-209 240-278 32-23 68-33 107-33 86 2 108 61 107 158 0 55-15 82-44 82-55 1-25-116-79-110-132 15-229 223-291 334-48 86-31 226 81 218 122-9 217-92 295-156" id="r"/><path fill="#979ea8" d="M583 1c26 5 52-17 51-41 24-60-22-103-43-144-74-69-132-138-184-228-37-64 44-88 81-120 65-56 138-104 195-168 35-39 5-108-40-113-66 17-104 68-150 105-81 65-158 127-245 187-18 12-48 33-70 13-6-6-8-14-7-23 3-63 18-122 28-181-3-53-39-88-92-91-82 12-51 140-71 216 1 133-13 257-20 381-3 58-27 167 27 193 35 29 78-2 98-20 30-59 16-164 24-251 3-31 38-61 73-59 78 41 118 121 174 184 38 44 71 96 112 139 15 15 32 34 59 21" id="s"/><g id="a"><use transform="matrix(0.022222222222222223,0,0,0.022222222222222223,0,0)" xlink:href="#o"/><use transform="matrix(0.022222222222222223,0,0,0.022222222222222223,12.666666666666668,0)" xlink:href="#p"/><use transform="matrix(0.022222222222222223,0,0,0.022222222222222223,27.91111111111111,0)" xlink:href="#q"/><use transform="matrix(0.022222222222222223,0,0,0.022222222222222223,40.955555555555556,0)" xlink:href="#r"/><use transform="matrix(0.022222222222222223,0,0,0.022222222222222223,55.044444444444444,0)" xlink:href="#s"/></g><path fill="#979ea8" d="M107-780c100 15 51 176 51 272 0 29 23 25 56 24 33-11 175 4 171-42 9-67 4-153 14-224 12-14 39-57 70-50 51 0 74 34 69 103L490-47c-6 28-25 57-57 56-118-5-54-182-54-299 0-34 3-75-15-85-65 6-127 12-191 19-52 29-23 162-29 239C135-7 87 19 22-30 10-48 7-67 13-88c-16-100 8-215 8-322 0-127-9-364 86-370" id="t"/><path fill="#979ea8" d="M330-158c82-22 193-18 286-31 38 11 58 81 24 113-25 24-71 25-116 25-135 0-238 34-358 47C61 7 4-52 15-159c12-113 37-213 32-340-2-59 2-121-2-178-2-44 35-62 81-61 104-31 222-52 345-64 68-7 103 34 111 94 2 12-3 22-9 31-33 14-62 15-103 16-100 2-196 10-270 40h-8c-18 23-11 79-15 106-1 13 5 22 16 25 82-10 176-25 264-12 44 7 78 26 71 72-7 49-76 30-125 30-78 0-138 22-210 29-24 1-35 28-36 52-2 41-10 83-8 126-19 84 122 51 181 35" id="u"/><path fill="#979ea8" d="M23-677c-68-88 127-122 212-122 113 0 253 24 291 82 92 144-48 310-153 365-52 27-102 48-161 69-56 20-53 15-58 80-4 49-8 103-13 153-3 31-19 46-43 46-44 0-65-28-63-81 5-162 8-330 16-486 3-53-4-75-28-106zm415 73c0-44-44-66-132-66-78 0-124 8-135 26-10 16-14 89-14 218 0 44 22 39 57 25 83-34 224-115 224-203" id="v"/><g id="b"><use transform="matrix(0.022222222222222223,0,0,0.022222222222222223,0,0)" xlink:href="#t"/><use transform="matrix(0.022222222222222223,0,0,0.022222222222222223,12.022222222222222,0)" xlink:href="#u"/><use transform="matrix(0.022222222222222223,0,0,0.022222222222222223,26.822222222222223,0)" xlink:href="#q"/><use transform="matrix(0.022222222222222223,0,0,0.022222222222222223,39.86666666666667,0)" xlink:href="#v"/></g><path d="M126-118c4-37-42-32-68-25v131l24 4v8H8C5-13 21-9 28-12v-141c-7-3-23 1-20-12h48l1 13c22-15 77-30 92 2 32-22 104-36 104 29v109c8 3 24-2 21 12h-75v-8l25-4v-106c3-39-45-31-72-24 7 37 1 88 3 130l25 4v8h-78v-8l24-4v-106" id="w"/><use transform="matrix(0.06790123456790123,0,0,0.06790123456790123,0,0)" xlink:href="#w" id="c"/><path d="M125-118c4-37-41-34-68-26v132l23 4v8H8C5-13 21-9 28-12v-141c-7-3-23 1-20-12h47l2 13c31-23 98-29 98 31v109c7 3 23-1 20 12h-72v-8l22-4v-106" id="x"/><use transform="matrix(0.06790123456790123,0,0,0.06790123456790123,0,0)" xlink:href="#x" id="d"/><path fill="#979ea8" d="M90-239c59 0 76 52 76 120S152 4 89 4C31 4 14-51 14-119c0-67 17-120 76-120zM89-10c45-6 45-58 45-109 0-50 0-101-45-106-45 4-43 57-43 106 0 50-2 104 43 109" id="y"/><use transform="matrix(0.06172839506172839,0,0,0.06172839506172839,0,0)" xlink:href="#y" id="e"/><path fill="#979ea8" d="M110-14l48 5v9H32v-9l48-5v-192l-48 17v-10l69-39h9v224" id="z"/><use transform="matrix(0.06172839506172839,0,0,0.06172839506172839,0,0)" xlink:href="#z" id="f"/><path fill="#979ea8" d="M24-231c66-21 156 2 128 81C132-92 78-66 39-27h121V0H16v-26l59-54c26-25 47-47 47-97 0-48-47-57-81-37l-6 29H24v-46" id="A"/><use transform="matrix(0.06172839506172839,0,0,0.06172839506172839,0,0)" xlink:href="#A" id="g"/><path fill="#979ea8" d="M125-118c4-37-41-34-68-26v132l23 4v8H8C5-13 21-9 28-12v-141c-7-3-23 1-20-12h47l2 13c31-23 98-29 98 31v109c7 3 23-1 20 12h-72v-8l22-4v-106" id="B"/><use transform="matrix(0.06172839506172839,0,0,0.06172839506172839,0,0)" xlink:href="#B" id="h"/><path fill="#6f7681" d="M24-128c0-158-18-313-5-472 6-74-11-192 62-191 78 1 88 68 113 130 59 143 102 191 174 297 50 73 81 109 92 109 8 0 12-3 13-9 24-163 3-322-12-477-6-63 62-76 101-37 65 64 45 212 54 340 10 141 7 304-15 413-8 15-20 23-37 23-76 0-203-132-244-200-33-54-79-109-116-169l4 4c-9-20-41-55-54-51-14 102-5 244 6 344 3 30-15 69-41 68-9 0-28-1-56-3-44-28-39-45-39-119" id="C"/><path fill="#6f7681" d="M109-754c29-56 120 5 113 55-24 164-73 311-76 498 0 44 17 66 52 66 44 0 193-39 283-82 16-8 27-24 32-45 27-114 44-316 44-439 0-57 27-86 82-86 38 0 57 27 57 82 0 195-35 406-61 587 5 33 20 94-14 106-8 12-30 10-67-7-15-20-33-39-52-56C437-54 255 2 210 0 80-5 5-44 13-182c11-186 48-366 83-531 3-12 5-27 13-41" id="D"/><path fill="#6f7681" d="M21-302C-7-136 9 24 196-12c147-28 263-93 386-142 57-23 26-120-26-120-111 32-240 115-378 126-13 1-22-26-25-45 30-174 59-350 88-524 10-62-86-124-120-61-39 73-49 196-69 277-19 77-22 145-31 199" id="E"/><g id="i"><use transform="matrix(0.013333333333333329,0,0,0.013333333333333329,0,0)" xlink:href="#C"/><use transform="matrix(0.013333333333333329,0,0,0.013333333333333329,8.546666666666663,0)" xlink:href="#D"/><use transform="matrix(0.013333333333333329,0,0,0.013333333333333329,17.94666666666666,0)" xlink:href="#E"/><use transform="matrix(0.013333333333333329,0,0,0.013333333333333329,26.37333333333332,0)" xlink:href="#E"/></g><g id="j"><use transform="matrix(0.022222222222222223,0,0,0.022222222222222223,0,0)" xlink:href="#o"/><use transform="matrix(0.022222222222222223,0,0,0.022222222222222223,12.666666666666668,0)" xlink:href="#p"/><use transform="matrix(0.022222222222222223,0,0,0.022222222222222223,27.91111111111111,0)" xlink:href="#q"/><use transform="matrix(0.022222222222222223,0,0,0.022222222222222223,40.955555555555556,0)" xlink:href="#r"/><use transform="matrix(0.022222222222222223,0,0,0.022222222222222223,55.044444444444444,0)" xlink:href="#s"/></g><g id="k"><use transform="matrix(0.022222222222222223,0,0,0.022222222222222223,0,0)" xlink:href="#t"/><use transform="matrix(0.022222222222222223,0,0,0.022222222222222223,12.022222222222222,0)" xlink:href="#u"/><use transform="matrix(0.022222222222222223,0,0,0.022222222222222223,26.822222222222223,0)" xlink:href="#q"/><use transform="matrix(0.022222222222222223,0,0,0.022222222222222223,39.86666666666667,0)" xlink:href="#v"/></g><use transform="matrix(0.06172839506172839,0,0,0.06172839506172839,0,0)" xlink:href="#y" id="l"/><use transform="matrix(0.06172839506172839,0,0,0.06172839506172839,0,0)" xlink:href="#z" id="m"/><use transform="matrix(0.06172839506172839,0,0,0.06172839506172839,0,0)" xlink:href="#A" id="n"/></defs></g></svg>