<svg xmlns="http://www.w3.org/2000/svg" xmlns:xlink="http://www.w3.org/1999/xlink" xmlns:lucid="lucid" width="1226.48" height="521.53"><g transform="translate(840 660)" lucid:page-tab-id="0_0"><path d="M-820-474a6 6 0 0 1 6-6h168a6 6 0 0 1 6 6v28a6 6 0 0 1-6 6h-168a6 6 0 0 1-6-6z" fill="none"/><use xlink:href="#a" transform="matrix(1,0,0,1,-820,-480) translate(54.63333333333333 30.244444444444444)"/><path d="M-638.5-631a6 6 0 0 1 6-6h168a6 6 0 0 1 6 6v28a6 6 0 0 1-6 6h-168a6 6 0 0 1-6-6z" fill="none"/><use xlink:href="#b" transform="matrix(1,0,0,1,-638.5131829102683,-637.0107909935116) translate(63.8 30.244444444444444)"/><path d="M-641-479.5a.5.5 0 0 1 .5.5v318a.5.5 0 0 1-.5.5.5.5 0 0 1-.5-.5v-318a.5.5 0 0 1 .5-.5z" stroke="#979ea8" fill="none"/><path d="M-787.32-439a.5.5 0 0 1 .5-.5H-641a.5.5 0 0 1 .5.5.5.5 0 0 1-.5.5h-145.82a.5.5 0 0 1-.5-.5z" stroke="#979ea8" fill="none"/><path d="M-749.5-411.97a6 6 0 0 1 6-6h27a6 6 0 0 1 6 6v27a6 6 0 0 1-6 6h-27a6 6 0 0 1-6-6z" stroke="#000" fill="#dedeff"/><path d="M-719-398.47c0 6.08-4.92 11-11 11s-11-4.92-11-11c0-6.07 4.92-11 11-11s11 4.93 11 11z" stroke="#000"/><path d="M-564-493.82a6 6 0 0 1 6-6h148a6 6 0 0 1 6 6v48a6 6 0 0 1-6 6h-148a6 6 0 0 1-6-6z" stroke="#000" fill="#dedeff"/><path d="M-553.52-484.7a6 6 0 0 1 6-6h28a6 6 0 0 1 6 6v28a6 6 0 0 1-6 6h-28a6 6 0 0 1-6-6z" stroke="#000" fill="#f4d9ff"/><use xlink:href="#c" transform="matrix(1,0,0,1,-548.5186385063759,-485.7117038592707) translate(8.88888888888889 21.430555555555557)"/><path d="M-504-484.83a6 6 0 0 1 6-6h28a6 6 0 0 1 6 6v28a6 6 0 0 1-6 6h-28a6 6 0 0 1-6-6z" stroke="#000" fill="#f4d9ff"/><use xlink:href="#d" transform="matrix(1,0,0,1,-499.01204705124167,-485.8342818554544) translate(8.88888888888889 21.430555555555557)"/><path d="M-454.5-484.83a6 6 0 0 1 6-6h28a6 6 0 0 1 6 6v28a6 6 0 0 1-6 6h-28a6 6 0 0 1-6-6z" stroke="#000" fill="#f4d9ff"/><path d="M-423.5-470.82c0 6.08-4.93 11-11 11-6.08 0-11-4.92-11-11 0-6.07 4.92-11 11-11 6.07 0 11 4.93 11 11z" stroke="#000"/><path d="M-567.12-233.04a6 6 0 0 1-6-6v-27a6 6 0 0 1 6-6h27a6 6 0 0 1 6 6v27a6 6 0 0 1-6 6z" stroke="#000" fill="#dedeff"/><path d="M-553.62-263.54c6.07 0 11 4.92 11 11 0 6.07-4.93 11-11 11-6.08 0-11-4.93-11-11 0-6.08 4.92-11 11-11z" stroke="#000"/><path d="M-567.12-272.04a6 6 0 0 1-6-6v-27a6 6 0 0 1 6-6h27a6 6 0 0 1 6 6v27a6 6 0 0 1-6 6z" stroke="#000" fill="#dedeff"/><path d="M-553.62-302.54c6.07 0 11 4.92 11 11 0 6.07-4.93 11-11 11-6.08 0-11-4.93-11-11 0-6.08 4.92-11 11-11z" stroke="#000"/><path d="M-567.12-311.04a6 6 0 0 1-6-6v-27a6 6 0 0 1 6-6h27a6 6 0 0 1 6 6v27a6 6 0 0 1-6 6z" stroke="#000" fill="#dedeff"/><path d="M-553.62-341.54c6.07 0 11 4.92 11 11 0 6.07-4.93 11-11 11-6.08 0-11-4.93-11-11 0-6.08 4.92-11 11-11z" stroke="#000"/><path d="M-717.5-398.5l3.97-.07 4.58-.3 4.27-.44 4-.6 3.78-.72 3.6-.84 3.48-.97 3.37-1.1 3.3-1.22 3.24-1.37 3.23-1.52 3.27-1.7 3.36-1.96 3.52-2.23 3.8-2.64 4.3-3.26 5.37-4.46 28.47-25.46 4.3-3.26 3.8-2.64 3.5-2.23 3.37-1.93 3.26-1.72 3.25-1.52 3.25-1.37 3.3-1.22 3.36-1.1 3.48-.96 3.6-.85 3.2-.6" stroke="#000" stroke-width="2" stroke-linejoin="round" fill="none"/><path d="M-717.45-397.5l-1.18.03.13-1-.13-1 1.14-.02z" stroke="#000" stroke-width=".05"/><path d="M-567.74-470.05l-13.83 5.8-.77-9.23z" stroke="#000" stroke-width="2" fill="#fff"/><path d="M-434.53-458.3l-.02 1.12-.13 2-.2 1.9-.26 1.8-.33 1.72-.4 1.65-.43 1.58-.5 1.54-.56 1.5-.62 1.47-.68 1.43-.74 1.4-.8 1.4-.9 1.4-.96 1.4-1.06 1.38-1.17 1.4-1.26 1.43-1.42 1.44-1.58 1.47-1.77 1.53-2 1.57-2.3 1.66-2.66 1.76-3.15 1.9-3.85 2.1-4.95 2.44-7.04 3.1-42.58 16.84-4.95 2.44-3.85 2.1-3.16 1.9-2.66 1.76-2.3 1.66-2 1.58-1.77 1.52-1.58 1.48-1.4 1.44-1.3 1.42-1.16 1.4-1.07 1.4-.96 1.37-.9 1.4-.8 1.4-.74 1.42-.37.78" stroke="#000" stroke-width="2" stroke-linejoin="round" fill="none"/><path d="M-433.53-458.27l-2-.04.03-1.14 1 .13 1-.15z" stroke="#000" stroke-width=".05"/><path d="M-552.96-353.7l-1.6-14.92 9.08 1.9z" stroke="#000" stroke-width="2" fill="#fff"/><path d="M-592.63-327.04a6 6 0 0 1 6-6h4a6 6 0 0 1 6 6v10a6 6 0 0 1-6 6h-4a6 6 0 0 1-6-6z" fill="none"/><use xlink:href="#e" transform="matrix(1,0,0,1,-592.6302805961116,-333.0405539594181) translate(2.9444444444444446 17.77777777777778)"/><path d="M-592.63-288.04a6 6 0 0 1 6-6h4a6 6 0 0 1 6 6v10a6 6 0 0 1-6 6h-4a6 6 0 0 1-6-6z" fill="none"/><use xlink:href="#f" transform="matrix(1,0,0,1,-592.6302805961116,-294.0405539594181) translate(2.9444444444444446 17.77777777777778)"/><path d="M-593-249.04a6 6 0 0 1 6-6h4a6 6 0 0 1 6 6v10a6 6 0 0 1-6 6h-4a6 6 0 0 1-6-6z" fill="none"/><use xlink:href="#g" transform="matrix(1,0,0,1,-593.011947051244,-255.0405539594181) translate(2.9444444444444446 17.77777777777778)"/><path d="M-453.52-374.25a6 6 0 0 1 6-6h123a6 6 0 0 1 6 6v28a6 6 0 0 1-6 6h-123a6 6 0 0 1-6-6z" stroke="#000" fill="#fff7a1"/><path d="M-443.02-369.25a6 6 0 0 1 6-6h18a6 6 0 0 1 6 6v18a6 6 0 0 1-6 6h-18a6 6 0 0 1-6-6z" stroke="#000" fill="#fcfcca"/><path d="M-420.52-360.25c0 4.14-3.36 7.5-7.5 7.5-4.15 0-7.5-3.36-7.5-7.5 0-4.14 3.35-7.5 7.5-7.5 4.14 0 7.5 3.36 7.5 7.5z" stroke="#000"/><path d="M-401.02-369.25a6 6 0 0 1 6-6h18a6 6 0 0 1 6 6v18a6 6 0 0 1-6 6h-18a6 6 0 0 1-6-6z" stroke="#000" fill="#fcfcca"/><path d="M-378.52-360.25c0 4.14-3.36 7.5-7.5 7.5-4.14 0-7.5-3.36-7.5-7.5 0-4.14 3.36-7.5 7.5-7.5 4.14 0 7.5 3.36 7.5 7.5z" stroke="#000"/><path d="M-359-369.25a6 6 0 0 1 6-6h18a6 6 0 0 1 6 6v18a6 6 0 0 1-6 6h-18a6 6 0 0 1-6-6z" stroke="#000" fill="#fcfcca"/><path d="M-336.5-360.25c0 4.14-3.37 7.5-7.5 7.5-4.15 0-7.5-3.36-7.5-7.5 0-4.14 3.35-7.5 7.5-7.5 4.13 0 7.5 3.36 7.5 7.5z" stroke="#000"/><path d="M-501.2-293.57a6 6 0 0 1 6-6h28a6 6 0 0 1 6 6v6a6 6 0 0 1-6 6h-28a6 6 0 0 1-6-6z" fill="none"/><use xlink:href="#h" transform="matrix(1,0,0,1,-501.19955955124146,-299.57206615041616) translate(2.713333333333342 15.719999999999995)"/><path d="M-541.12-252.5l3.63.08 3.07.26 2.3.32 1.87.38 1.7.44 1.76.57 2.8 1.1 5.8 2.33 3 .97 3.55.92 4.75.95 7.15 1 12.3 1.02 14.93.37" stroke="#000" stroke-width="2" stroke-linejoin="round" fill="none"/><path d="M-541.07-253.5l-.05 2-1.13-.04.13-1-.13-1z" stroke="#000" stroke-width=".05"/><path d="M-457.25-241.6l-14.32 4.45.1-9.27z" stroke="#000" stroke-width="2" fill="#fff"/><path d="M-541.12-291.56l21.42-.5" stroke="#000" stroke-width="2" stroke-linejoin="round" fill="none"/><path d="M-541.07-290.56l-1.18.02.13-1-.13-1 1.13-.02z" stroke="#000" stroke-width=".05"/><path d="M-504.44-292.4l-14.15 4.96-.2-9.27z" stroke="#000" stroke-width="2" fill="#fff"/><path d="M-428.27-303.07a6 6 0 0 1 6-6h8a6 6 0 0 1 6 6v8a6 6 0 0 1-6 6h-8a6 6 0 0 1-6-6z" stroke="#000" fill="#fcfcca"/><path d="M-415.77-299.07c0 1.38-1.13 2.5-2.5 2.5-1.4 0-2.5-1.12-2.5-2.5s1.1-2.5 2.5-2.5c1.38 0 2.5 1.12 2.5 2.5z" stroke="#000"/><path d="M-427.97-351.24l.3 5.62.85 4.8 1.34 4.43 3.46 8.9" stroke="#000" stroke-width="2" stroke-linejoin="round" fill="none"/><path d="M-428.04-352.24l1-.16.07 1.13-2 .1-.07-1.28z" stroke="#000" stroke-width=".05"/><path d="M-418.94-312.74l-7.45-13.02 9.1-1.9z" stroke="#000" stroke-width="2" fill="#fff"/><path d="M-385.96-351.24l.07 1.25.37 2.03.57 1.9.8 1.82 1.07 1.84 1.5 1.96 2.16 2.26 3.75 3.07 14.23 10.03" stroke="#000" stroke-width="2" stroke-linejoin="round" fill="none"/><path d="M-386.03-352.24l1-.16.07 1.13-2 .1-.07-1.28z" stroke="#000" stroke-width=".05"/><path d="M-354.42-312.4l-10.98-10.22 8.1-4.5z" stroke="#000" stroke-width="2" fill="#fff"/><path d="M-388.27-303.07a6 6 0 0 1 6-6h58.85a6 6 0 0 1 6 6v7.32a6 6 0 0 1-6 6h-58.85a6 6 0 0 1-6-6z" stroke="#000" fill="#fcfcca"/><use xlink:href="#i" transform="matrix(1,0,0,1,-383.27542996150555,-304.0720661504161) translate(5.296006944444446 8.984374999999998)"/><path d="M-453.52-255.57a6 6 0 0 1 6-6h123a6 6 0 0 1 6 6v28a6 6 0 0 1-6 6h-123a6 6 0 0 1-6-6z" stroke="#000" fill="#008a0e"/><path d="M-443.02-250.57a6 6 0 0 1 6-6h18a6 6 0 0 1 6 6v18a6 6 0 0 1-6 6h-18a6 6 0 0 1-6-6z" stroke="#000" fill="#54c45e"/><path d="M-420.52-241.57c0 4.14-3.36 7.5-7.5 7.5-4.15 0-7.5-3.36-7.5-7.5 0-4.14 3.35-7.5 7.5-7.5 4.14 0 7.5 3.36 7.5 7.5z" stroke="#000"/><path d="M-401.02-250.57a6 6 0 0 1 6-6h18a6 6 0 0 1 6 6v18a6 6 0 0 1-6 6h-18a6 6 0 0 1-6-6z" stroke="#000" fill="#54c45e"/><path d="M-378.52-241.57c0 4.14-3.36 7.5-7.5 7.5-4.14 0-7.5-3.36-7.5-7.5 0-4.14 3.36-7.5 7.5-7.5 4.14 0 7.5 3.36 7.5 7.5z" stroke="#000"/><path d="M-359-250.57a6 6 0 0 1 6-6h18a6 6 0 0 1 6 6v18a6 6 0 0 1-6 6h-18a6 6 0 0 1-6-6z" stroke="#000" fill="#54c45e"/><path d="M-336.5-241.57c0 4.14-3.37 7.5-7.5 7.5-4.15 0-7.5-3.36-7.5-7.5 0-4.14 3.35-7.5 7.5-7.5 4.13 0 7.5 3.36 7.5 7.5z" stroke="#000"/><path d="M-739-234a6 6 0 0 1 6-6h8a6 6 0 0 1 6 6v8a6 6 0 0 1-6 6h-8a6 6 0 0 1-6-6z" stroke="#000" fill="#54c45e"/><path d="M-726.5-230c0 1.38-1.12 2.5-2.5 2.5s-2.5-1.12-2.5-2.5 1.12-2.5 2.5-2.5 2.5 1.12 2.5 2.5z" stroke="#000"/><path d="M-428.05-232.56l-.07 3.53-.25 3.97-.36 3.5-.46 3.1-.52 2.78-.6 2.52-.63 2.3-.68 2.1-.72 1.9-.74 1.8-.77 1.65-.8 1.53-.84 1.45-.88 1.36-.9 1.3-.92 1.2-.96 1.17-1 1.1-1.02 1.06-1.07 1-1.13.98-1.17.93-1.23.9-1.3.85-1.36.83-1.45.8-1.54.77-1.65.73-1.77.7-1.92.67-2.08.63-2.28.6-2.5.52-2.8.47-3.12.4-3.53.3-4.06.16h-4.7l-5.56-.24-6.73-.57-8.43-1.1-11.07-1.87-16-3.43-31.36-8.17-86.6-23.78-20.72-4.43-15.28-2.6-12.2-1.55-4.23-.36" stroke="#000" stroke-width="2" stroke-linejoin="round" fill="none"/><path d="M-428.04-233.56l1.02-.17-.03 1.2-2-.03.03-1.22z" stroke="#000" stroke-width=".05"/><path d="M-715.27-229.84l14.48-3.93-.45 9.26z" stroke="#000" stroke-width="2" fill="#fff"/><path d="M-385.96-232.57l.07 1.2.37 1.96.57 1.83.8 1.8 1.1 1.8 1.55 1.97 2.3 2.3 4.24 3.27 13.2 9" stroke="#000" stroke-width="2" stroke-linejoin="round" fill="none"/><path d="M-386.03-233.56l1-.17.07 1.13-2 .12-.07-1.3z" stroke="#000" stroke-width=".05"/><path d="M-354.48-194.94l-11.2-10 8.02-4.66z" stroke="#000" stroke-width="2" fill="#fff"/><path d="M-388.27-185.65a6 6 0 0 1 6-6h58.85a6 6 0 0 1 6 6v9.83a6 6 0 0 1-6 6h-58.85a6 6 0 0 1-6-6z" stroke="#000" fill="#54c45e"/><use xlink:href="#j" transform="matrix(1,0,0,1,-383.27542996150555,-186.6492779177514) translate(4.413194444444457 11.382812499999996)"/><path d="M-408.27-275.57a6 6 0 0 1 6-6h28a6 6 0 0 1 6 6v6a6 6 0 0 1-6 6h-28a6 6 0 0 1-6-6z" fill="none"/><use xlink:href="#k" transform="matrix(1,0,0,1,-408.27542996150555,-281.57206615041605) translate(-1.953333333333326 15.719999999999995)"/><path d="M-273.52-363.25a6 6 0 0 1 6-6h28a6 6 0 0 1 6 6v6a6 6 0 0 1-6 6h-28a6 6 0 0 1-6-6z" fill="none"/><use xlink:href="#h" transform="matrix(1,0,0,1,-273.51863850637585,-369.24837178241216) translate(2.713333333333342 15.719999999999995)"/><path d="M-335-360.25h42.98" stroke="#000" stroke-width="2" stroke-linejoin="round" fill="none"/><path d="M-334.98-359.25h-1.24l.22-1-.17-1h1.2z" stroke="#000" stroke-width=".05"/><path d="M-276.75-360.25l-14.27 4.64v-9.28z" stroke="#000" stroke-width="2" fill="#fff"/><path d="M-541.12-330.57l2.85-.08 3.67-.3 3.57-.52 3.53-.7 3.57-.94 3.7-1.2 4.05-1.58 4.75-2.16 7-3.7 19.72-11 4.74-2.17 4.04-1.58 3.65-1.17" stroke="#000" stroke-width="2" stroke-linejoin="round" fill="none"/><path d="M-541.07-329.57l-1.18.03.13-1-.13-1 1.13-.03z" stroke="#000" stroke-width=".05"/><path d="M-457.22-359.8l-13.47 6.6-1.3-9.17z" stroke="#000" stroke-width="2" fill="#fff"/><path d="M-273.52-243.07a6 6 0 0 1 6-6h28a6 6 0 0 1 6 6v6a6 6 0 0 1-6 6h-28a6 6 0 0 1-6-6z" fill="none"/><use xlink:href="#h" transform="matrix(1,0,0,1,-273.51863850637585,-249.07206615041608) translate(2.713333333333342 15.719999999999995)"/><path d="M-335-241.55l42.98.8" stroke="#000" stroke-width="2" stroke-linejoin="round" fill="none"/><path d="M-334.96-242.55l-.04 2-1.2-.03.2-.98-.17-1z" stroke="#000" stroke-width=".05"/><path d="M-276.75-240.46l-14.35 4.36.17-9.27z" stroke="#000" stroke-width="2" fill="#fff"/><path d="M-748-357.54a6 6 0 0 1 6-6h27a6 6 0 0 1 6 6v27a6 6 0 0 1-6 6h-27a6 6 0 0 1-6-6z" stroke="#000" fill="#dedeff"/><path d="M-717.5-344.04c0 6.08-4.92 11-11 11s-11-4.92-11-11 4.92-11 11-11 11 4.92 11 11z" stroke="#000"/><path d="M-739.5-554a6 6 0 0 1 6-6h27a6 6 0 0 1 6 6v27a6 6 0 0 1-6 6h-27a6 6 0 0 1-6-6z" stroke="#000" fill="#dedeff"/><path d="M-709-540.5c0 6.08-4.92 11-11 11s-11-4.92-11-11 4.92-11 11-11 11 4.92 11 11z" stroke="#000"/><path d="M-641-639.5a.5.5 0 0 1 .5.5v418a.5.5 0 0 1-.5.5.5.5 0 0 1-.5-.5v-418a.5.5 0 0 1 .5-.5z" stroke="#979ea8" fill="none"/><path d="M-787.32-599a.5.5 0 0 1 .5-.5H-241a.5.5 0 0 1 .5.5.5.5 0 0 1-.5.5h-545.82a.5.5 0 0 1-.5-.5z" stroke="#979ea8" fill="none"/><path d="M-806.43-631a6 6 0 0 1 6-6h168a6 6 0 0 1 6 6v28a6 6 0 0 1-6 6h-168a6 6 0 0 1-6-6z" fill="none"/><use xlink:href="#a" transform="matrix(1,0,0,1,-806.4323689523067,-637.0107909935116) translate(54.63333333333333 30.244444444444444)"/><path d="M-741-344.06l-.95-.02-1.88-.12-1.84-.2-1.8-.26-1.74-.33-1.73-.4-1.7-.47-1.67-.54-1.65-.63-1.64-.7-1.62-.75-1.63-.85-1.62-.94-1.63-1.03-1.62-1.13-1.64-1.25-1.65-1.36-1.67-1.5-1.68-1.64-1.7-1.8-1.7-2-1.74-2.18-1.74-2.4-1.76-2.66-1.78-2.94-1.78-3.24-1.78-3.6-1.76-3.96-1.74-4.38-1.68-4.83-1.6-5.3-1.48-5.77-1.32-6.27-1.14-6.73-.9-7.12-.62-7.43-.32-7.64v-7.7l.32-7.65.63-7.43.9-7.12 1.13-6.72 1.33-6.26 1.5-5.78 1.6-5.3 1.67-4.82 1.73-4.38 1.77-3.97 1.78-3.6 1.78-3.24 1.78-2.92 1.77-2.66 1.75-2.4 1.73-2.2 1.7-1.98 1.7-1.8 1.7-1.64 1.65-1.5 1.64-1.37 1.64-1.24 1.63-1.14 1.64-1.03 1.62-.94 1.63-.86 1.25-.6" stroke="#000" stroke-width="2" stroke-linejoin="round" fill="none"/><path d="M-739.87-345.04l-.13 1 .13 1-1.18-.02.04-2z" stroke="#000" stroke-width=".05"/><path d="M-743.16-539.82l-12.98 7.52-1.95-9.07z" stroke="#000" stroke-width="2" fill="#fff"/><path d="M-707.5-540.52l6.26-.13 6.2-.4 5.46-.6 4.9-.73 4.5-.9 4.3-1.02 4.16-1.2 4.28-1.44 4.76-1.83 6.74-2.95 17.5-8 4.75-1.84 4.3-1.43 4.17-1.2 4.27-1.03 4.5-.9 4.9-.73.47-.05" stroke="#000" stroke-width="2" stroke-linejoin="round" fill="none"/><path d="M-707.45-539.52l-1.18.02.13-1-.13-1 1.14-.02z" stroke="#000" stroke-width=".05"/><path d="M-595.86-567.8l-13.97 5.46-.54-9.25z" stroke="#000" stroke-width="2" fill="#fff"/><path d="M-592.63-574a6 6 0 0 1 6-6h28a6 6 0 0 1 6 6v6a6 6 0 0 1-6 6h-28a6 6 0 0 1-6-6z" fill="none"/><use xlink:href="#h" transform="matrix(1,0,0,1,-592.6302805961116,-580) translate(2.713333333333342 15.719999999999995)"/><path d="M-220-472.47a6 6 0 0 1 6-6h168a6 6 0 0 1 6 6v28a6 6 0 0 1-6 6h-168a6 6 0 0 1-6-6z" fill="none"/><use xlink:href="#a" transform="matrix(1,0,0,1,-220,-478.4684878090021) translate(54.63333333333333 30.244444444444444)"/><path d="M-38.5-629.48a6 6 0 0 1 6-6h168a6 6 0 0 1 6 6v28a6 6 0 0 1-6 6h-168a6 6 0 0 1-6-6z" fill="none"/><use xlink:href="#b" transform="matrix(1,0,0,1,-38.513182910268256,-635.4792788025137) translate(63.8 30.244444444444444)"/><path d="M-41-477.97a.5.5 0 0 1 .5.5v318a.5.5 0 0 1-.5.5.5.5 0 0 1-.5-.5v-318a.5.5 0 0 1 .5-.5z" stroke="#979ea8" fill="none"/><path d="M-187.32-437.47a.5.5 0 0 1 .5-.5H-41a.5.5 0 0 1 .5.5.5.5 0 0 1-.5.5h-145.82a.5.5 0 0 1-.5-.5z" stroke="#979ea8" fill="none"/><path d="M-149.5-410.44a6 6 0 0 1 6-6h27a6 6 0 0 1 6 6v27a6 6 0 0 1-6 6h-27a6 6 0 0 1-6-6z" stroke="#000" fill="#dedeff"/><path d="M-119-396.94c0 6.08-4.92 11-11 11-6.07 0-11-4.92-11-11 0-6.07 4.93-11 11-11 6.08 0 11 4.93 11 11z" stroke="#000"/><path d="M36-492.3a6 6 0 0 1 6-6h148a6 6 0 0 1 6 6v48a6 6 0 0 1-6 6H42a6 6 0 0 1-6-6z" stroke="#000" fill="#dedeff"/><path d="M46.48-483.18a6 6 0 0 1 6-6h28a6 6 0 0 1 6 6v28a6 6 0 0 1-6 6h-28a6 6 0 0 1-6-6z" stroke="#000" fill="#f4d9ff"/><use xlink:href="#l" transform="matrix(1,0,0,1,51.48136149362415,-484.18019166827276) translate(8.88888888888889 21.430555555555557)"/><path d="M96-483.3a6 6 0 0 1 6-6h28a6 6 0 0 1 6 6v28a6 6 0 0 1-6 6h-28a6 6 0 0 1-6-6z" stroke="#000" fill="#f4d9ff"/><use xlink:href="#d" transform="matrix(1,0,0,1,100.98795294875833,-484.3027696644565) translate(8.88888888888889 21.430555555555557)"/><path d="M145.5-483.3a6 6 0 0 1 6-6h28a6 6 0 0 1 6 6v28a6 6 0 0 1-6 6h-28a6 6 0 0 1-6-6z" stroke="#000" fill="#f4d9ff"/><path d="M176.5-469.3c0 6.1-4.93 11-11 11-6.08 0-11-4.9-11-11 0-6.06 4.92-11 11-11 6.07 0 11 4.94 11 11z" stroke="#000"/><path d="M13.48-216.04a6 6 0 0 1-6-6v-27a6 6 0 0 1 6-6h27a6 6 0 0 1 6 6v27a6 6 0 0 1-6 6z" stroke="#000" fill="#dedeff"/><path d="M26.98-246.54c6.08 0 11 4.92 11 11 0 6.07-4.92 11-11 11-6.07 0-11-4.93-11-11 0-6.08 4.93-11 11-11z" stroke="#000"/><path d="M13.48-255.04a6 6 0 0 1-6-6v-27a6 6 0 0 1 6-6h27a6 6 0 0 1 6 6v27a6 6 0 0 1-6 6z" stroke="#000" fill="#dedeff"/><path d="M26.98-285.54c6.08 0 11 4.92 11 11 0 6.07-4.92 11-11 11-6.07 0-11-4.93-11-11 0-6.08 4.93-11 11-11z" stroke="#000"/><path d="M13.48-294.04a6 6 0 0 1-6-6v-27a6 6 0 0 1 6-6h27a6 6 0 0 1 6 6v27a6 6 0 0 1-6 6z" stroke="#000" fill="#dedeff"/><path d="M26.98-324.54c6.08 0 11 4.92 11 11 0 6.07-4.92 11-11 11-6.07 0-11-4.93-11-11 0-6.08 4.93-11 11-11z" stroke="#000"/><path d="M-117.5-396.96l3.97-.08 4.58-.3 4.27-.43 4-.6 3.78-.7 3.6-.86 3.48-.97 3.37-1.1 3.3-1.22 3.24-1.36 3.23-1.53 3.27-1.72 3.36-1.94 3.52-2.24 3.8-2.64 4.3-3.26 5.37-4.46 28.47-25.46 4.3-3.27 3.8-2.63 3.5-2.23 3.37-1.94 3.26-1.7 3.25-1.54 3.25-1.37 3.3-1.23 3.36-1.1 3.48-.96 3.6-.84 3.2-.6" stroke="#000" stroke-width="2" stroke-linejoin="round" fill="none"/><path d="M-117.45-395.96l-1.18.03.13-1-.13-1 1.14-.03z" stroke="#000" stroke-width=".05"/><path d="M32.26-468.52l-13.83 5.8-.77-9.23z" stroke="#000" stroke-width="2" fill="#fff"/><path d="M165.47-456.78l-.03 1.43-.14 2.3-.23 2.15-.3 2.05-.37 1.96-.44 1.9-.5 1.8-.58 1.76-.63 1.7-.7 1.67-.77 1.63-.84 1.6-.92 1.6-1 1.57-1.1 1.57-1.18 1.57-1.3 1.58-1.45 1.6-1.6 1.62-1.77 1.66-1.97 1.7-2.23 1.77-2.55 1.85-2.94 1.95-3.46 2.1-4.2 2.3-5.26 2.6-7.2 3.2-12.6 4.95-34.57 12.93-7.2 3.2-5.27 2.6-4.18 2.3-3.47 2.1-2.94 1.95-2.55 1.85-2.23 1.76-1.98 1.7-1.77 1.67-1.6 1.63-1.42 1.6-1.3 1.58-1.2 1.58-1.1 1.57-1 1.57-.9 1.6-.85 1.6-.77 1.63-.68 1.6" stroke="#000" stroke-width="2" stroke-linejoin="round" fill="none"/><path d="M166.47-456.73l-2-.05.03-1.13 1 .12 1-.13z" stroke="#000" stroke-width=".05"/><path d="M27.56-336.73l-2.03-14.86 9.12 1.66z" stroke="#000" stroke-width="2" fill="#fff"/><path d="M-12.03-310.04a6 6 0 0 1 6-6h4a6 6 0 0 1 6 6v10a6 6 0 0 1-6 6h-4a6 6 0 0 1-6-6z" fill="none"/><use xlink:href="#e" transform="matrix(1,0,0,1,-12.025229961510036,-316.04055395941805) translate(2.9444444444444446 17.77777777777778)"/><path d="M-12.03-271.04a6 6 0 0 1 6-6h4a6 6 0 0 1 6 6v10a6 6 0 0 1-6 6h-4a6 6 0 0 1-6-6z" fill="none"/><use xlink:href="#f" transform="matrix(1,0,0,1,-12.025229961510036,-277.04055395941805) translate(2.9444444444444446 17.77777777777778)"/><path d="M-12.4-232.04a6 6 0 0 1 6-6h4a6 6 0 0 1 6 6v10a6 6 0 0 1-6 6h-4a6 6 0 0 1-6-6z" fill="none"/><use xlink:href="#g" transform="matrix(1,0,0,1,-12.406896416642411,-238.04055395941805) translate(2.9444444444444446 17.77777777777778)"/><path d="M146.48-372.72a6 6 0 0 1 6-6h123a6 6 0 0 1 6 6v28a6 6 0 0 1-6 6h-123a6 6 0 0 1-6-6z" stroke="#000" fill="#fff7a1"/><path d="M156.97-367.72a6 6 0 0 1 6-6h18a6 6 0 0 1 6 6v18a6 6 0 0 1-6 6h-18a6 6 0 0 1-6-6z" stroke="#000" fill="#fcfcca"/><path d="M179.47-358.72c0 4.15-3.35 7.5-7.5 7.5-4.14 0-7.5-3.35-7.5-7.5 0-4.14 3.36-7.5 7.5-7.5 4.15 0 7.5 3.36 7.5 7.5z" stroke="#000"/><path d="M198.98-367.72a6 6 0 0 1 6-6h18a6 6 0 0 1 6 6v18a6 6 0 0 1-6 6h-18a6 6 0 0 1-6-6z" stroke="#000" fill="#fcfcca"/><path d="M221.48-358.72c0 4.15-3.36 7.5-7.5 7.5-4.14 0-7.5-3.35-7.5-7.5 0-4.14 3.36-7.5 7.5-7.5 4.14 0 7.5 3.36 7.5 7.5z" stroke="#000"/><path d="M241-367.72a6 6 0 0 1 6-6h18a6 6 0 0 1 6 6v18a6 6 0 0 1-6 6h-18a6 6 0 0 1-6-6z" stroke="#000" fill="#fcfcca"/><path d="M263.5-358.72c0 4.15-3.37 7.5-7.5 7.5-4.15 0-7.5-3.35-7.5-7.5 0-4.14 3.35-7.5 7.5-7.5 4.13 0 7.5 3.36 7.5 7.5z" stroke="#000"/><path d="M93.3-275.57a6 6 0 0 1 6-6h28a6 6 0 0 1 6 6v6a6 6 0 0 1-6 6h-28a6 6 0 0 1-6-6z" fill="none"/><use xlink:href="#h" transform="matrix(1,0,0,1,93.30157630778507,-281.57206615041605) translate(2.713333333333342 15.719999999999995)"/><path d="M39.5-274.54l35.3.05" stroke="#000" stroke-width="2" stroke-linejoin="round" fill="none"/><path d="M39.5-275.54v2h-1.15l.14-1-.15-1z" stroke="#000" stroke-width=".05"/><path d="M90.07-274.48l-14.28 4.62v-9.27z" stroke="#000" stroke-width="2" fill="#fff"/><path d="M136.97-310.57a6 6 0 0 1 6-6h8a6 6 0 0 1 6 6v8a6 6 0 0 1-6 6h-8a6 6 0 0 1-6-6z" stroke="#000" fill="#fcfcca"/><path d="M149.47-306.57c0 1.38-1.12 2.5-2.5 2.5s-2.5-1.12-2.5-2.5 1.12-2.5 2.5-2.5 2.5 1.12 2.5 2.5z" stroke="#000"/><path d="M214.04-349.7l.07 1.25.37 2.02.57 1.88.8 1.83 1.07 1.85 1.5 1.96 2.16 2.25 3.75 3.07 14.23 10.04" stroke="#000" stroke-width="2" stroke-linejoin="round" fill="none"/><path d="M213.97-350.7l1-.17.07 1.13-2 .1-.07-1.28z" stroke="#000" stroke-width=".05"/><path d="M245.58-310.87l-10.98-10.2 8.1-4.52z" stroke="#000" stroke-width="2" fill="#fff"/><path d="M211.72-301.54a6 6 0 0 1 6-6h58.86a6 6 0 0 1 6 6v7.32a6 6 0 0 1-6 6h-58.85a6 6 0 0 1-6-6z" stroke="#000" fill="#fcfcca"/><use xlink:href="#i" transform="matrix(1,0,0,1,216.72457003849445,-302.5405539594182) translate(5.296006944444446 8.984374999999998)"/><path d="M-100.5-212.47a6 6 0 0 1 6-6h8a6 6 0 0 1 6 6v8a6 6 0 0 1-6 6h-8a6 6 0 0 1-6-6z" stroke="#000" fill="#54c45e"/><path d="M-88-208.47c0 1.38-1.12 2.5-2.5 2.5s-2.5-1.12-2.5-2.5 1.12-2.5 2.5-2.5 2.5 1.12 2.5 2.5z" stroke="#000"/><path d="M-149.34-253.87a6 6 0 0 1 6-6h58.86a6 6 0 0 1 6 6v9.83a6 6 0 0 1-6 6h-58.86a6 6 0 0 1-6-6z" stroke="#000" fill="#54c45e"/><use xlink:href="#i" transform="matrix(1,0,0,1,-144.33974417764307,-254.87128312608468) translate(5.296006944444446 10.484374999999998)"/><path d="M-159-220.57a6 6 0 0 1 6-6h28a6 6 0 0 1 6 6v6a6 6 0 0 1-6 6h-28a6 6 0 0 1-6-6z" fill="none"/><use xlink:href="#k" transform="matrix(1,0,0,1,-159,-226.57206615041605) translate(-1.953333333333326 15.719999999999995)"/><path d="M326.48-361.72a6 6 0 0 1 6-6h28a6 6 0 0 1 6 6v6a6 6 0 0 1-6 6h-28a6 6 0 0 1-6-6z" fill="none"/><use xlink:href="#h" transform="matrix(1,0,0,1,326.48136149362415,-367.7168595914143) translate(2.713333333333342 15.719999999999995)"/><path d="M265-358.72h42.98" stroke="#000" stroke-width="2" stroke-linejoin="round" fill="none"/><path d="M265.02-357.72h-1.24l.22-.98-.17-1.02h1.2z" stroke="#000" stroke-width=".05"/><path d="M323.25-358.72l-14.27 4.64v-9.27z" stroke="#000" stroke-width="2" fill="#fff"/><path d="M39.5-313.56l2.27-.06 3.13-.2 3.04-.37 2.96-.48 2.92-.62 2.9-.75 2.92-.92 3-1.08 3.1-1.3L69-320.9l3.6-1.93 4.2-2.5 5.52-3.63 25.3-17.98 4.2-2.5 3.6-1.9 3.3-1.57 3.1-1.3 2.98-1.1 2.9-.9" stroke="#000" stroke-width="2" stroke-linejoin="round" fill="none"/><path d="M39.53-312.56l-1.18.02.14-1-.15-1 1.14-.02z" stroke="#000" stroke-width=".05"/><path d="M142.78-358.27l-13.5 6.54-1.27-9.18z" stroke="#000" stroke-width="2" fill="#fff"/><path d="M-148-357.54a6 6 0 0 1 6-6h27a6 6 0 0 1 6 6v27a6 6 0 0 1-6 6h-27a6 6 0 0 1-6-6z" stroke="#000" fill="#dedeff"/><path d="M-117.5-344.04c0 6.08-4.92 11-11 11-6.07 0-11-4.92-11-11s4.93-11 11-11c6.08 0 11 4.92 11 11z" stroke="#000"/><path d="M-139.5-552.47a6 6 0 0 1 6-6h27a6 6 0 0 1 6 6v27a6 6 0 0 1-6 6h-27a6 6 0 0 1-6-6z" stroke="#000" fill="#dedeff"/><path d="M-109-538.97c0 6.08-4.92 11-11 11s-11-4.92-11-11c0-6.07 4.92-11 11-11s11 4.93 11 11z" stroke="#000"/><path d="M-41-637.97a.5.5 0 0 1 .5.5v418a.5.5 0 0 1-.5.5.5.5 0 0 1-.5-.5v-418a.5.5 0 0 1 .5-.5z" stroke="#979ea8" fill="none"/><path d="M-187.32-597.47a.5.5 0 0 1 .5-.5H359a.5.5 0 0 1 .5.5.5.5 0 0 1-.5.5h-545.82a.5.5 0 0 1-.5-.5z" stroke="#979ea8" fill="none"/><path d="M-206.43-629.48a6 6 0 0 1 6-6h168a6 6 0 0 1 6 6v28a6 6 0 0 1-6 6h-168a6 6 0 0 1-6-6z" fill="none"/><use xlink:href="#a" transform="matrix(1,0,0,1,-206.43236895230666,-635.4792788025137) translate(54.63333333333333 30.244444444444444)"/><path d="M-141-344.06l-.94-.02-1.87-.12-1.82-.2-1.78-.25-1.74-.33-1.7-.4-1.7-.47-1.65-.54-1.63-.6-1.62-.7-1.62-.75-1.6-.84-1.62-.92-1.6-1.02-1.62-1.13-1.63-1.23-1.63-1.36-1.65-1.48-1.67-1.63-1.68-1.8-1.7-1.96-1.7-2.17-1.75-2.4-1.75-2.63-1.76-2.9-1.77-3.23-1.78-3.56-1.75-3.94-1.72-4.34-1.66-4.8-1.6-5.25-1.47-5.73-1.32-6.22-1.12-6.66-.9-7.07-.6-7.38-.32-7.58v-7.65l.32-7.58.62-7.4.9-7.06 1.1-6.66 1.33-6.2 1.47-5.75 1.6-5.25 1.66-4.8 1.72-4.34 1.75-3.93 1.76-3.55 1.76-3.22 1.77-2.92 1.75-2.62 1.73-2.4 1.73-2.16 1.7-1.97 1.68-1.8 1.67-1.62 1.65-1.48 1.64-1.36 1.62-1.24 1.62-1.13 1.6-1.02 1.62-.92 1.62-.84 1.12-.53" stroke="#000" stroke-width="2" stroke-linejoin="round" fill="none"/><path d="M-139.87-345.04l-.13 1 .13 1-1.18-.02.04-2z" stroke="#000" stroke-width=".05"/><path d="M-143.16-538.3l-12.97 7.56-1.96-9.06z" stroke="#000" stroke-width="2" fill="#fff"/><path d="M-107.5-538.95l2.98.06 3.82.25 3.7.4 3.56.52 3.5.67 3.4.8 3.37.93 3.32 1.08 3.3 1.23 3.27 1.38 3.28 1.54 3.3 1.73 3.35 1.93 3.4 2.15 3.45 2.42 3.56 2.7 3.68 3.05 3.84 3.46 4.04 3.96 4.3 4.57 4.63 5.37 5.08 6.42 5.75 7.92 6.8 10.26 8.92 14.78 48.7 88 6.8 10.26 5.75 7.92 5.08 6.42 4.63 5.37 4.3 4.57 4.03 3.96 3.83 3.46 3.7 3.03 3.55 2.7 3.46 2.42 3.4 2.15 3.33 1.93 3.3 1.73 3.3 1.54 3.27 1.38 3.3 1.23 3.3 1.08 3.37.94 3.43.8.17.04" stroke="#000" stroke-width="2" stroke-linejoin="round" fill="none"/><path d="M-107.45-539.95l-.04 2-1.13-.02.13-1-.13-1z" stroke="#000" stroke-width=".05"/><path d="M133.25-306.9l-14.66 3.17.93-9.23z" stroke="#000" stroke-width="2" fill="#fff"/><path d="M96-237.54a6 6 0 0 1 6-6h28a6 6 0 0 1 6 6v6a6 6 0 0 1-6 6h-28a6 6 0 0 1-6-6z" fill="none"/><use xlink:href="#h" transform="matrix(1,0,0,1,95.98795294875833,-243.54055395941805) translate(2.713333333333342 15.719999999999995)"/><path d="M39.5-235.53l38 .52" stroke="#000" stroke-width="2" stroke-linejoin="round" fill="none"/><path d="M39.52-236.53l-.02 2h-1.15l.14-1-.15-1z" stroke="#000" stroke-width=".05"/><path d="M92.75-234.8l-14.33 4.43.13-9.27z" stroke="#000" stroke-width="2" fill="#fff"/><path d="M171.97-349.7l-.22 57.22-.84 13.68-1.04 10.1-1.2 8.06-1.26 6.68-1.33 5.7-1.38 4.93-1.4 4.34-1.45 3.87-1.45 3.46-1.48 3.14-1.5 2.86-1.5 2.63-1.54 2.4-1.56 2.25-1.58 2.1-1.6 1.95-1.65 1.82-1.7 1.72-1.7 1.6-1.78 1.53-1.82 1.44-1.88 1.37-1.95 1.3-2.03 1.22-2.1 1.16-2.22 1.1-1.65.74-2.47 1.02-2.74 1-3.08.95-3.46.94-3.96.9-4.55.8-5.3.74-6.3.62-7.65.4-9.52.1-12.4-.37-17.5-1.28-32.06-3.76-74.6-9.9-5.1-.4" stroke="#000" stroke-width="2" stroke-linejoin="round" fill="none"/><path d="M171.96-350.7l1-.17v1.2l-2-.02.02-1.22z" stroke="#000" stroke-width=".05"/><path d="M-76.77-208.3l14.47-3.97-.44 9.26z" stroke="#000" stroke-width="2" fill="#fff"/><defs><path fill="#979ea8" d="M371-533c189 0 256 55 239 237-9 91-67 138-157 205C374-33 301-7 236-7 155-7 13-82 18-160c3-44 62-73 96-38 43 44 152 73 218 29 77-51 166-125 156-169 2-44-67-63-119-62-47 1-108 1-155 3C87-393 13-429 1-531c11-87 101-150 165-187 90-52 160-96 290-87 34 2 118 78 115 115-3 35-23 38-55 45-15 4-26-4-33-24-37-64-116-1-164 12-41 11-154 77-154 113 0 15 14 22 41 22 45 0 127-11 165-11" id="m"/><path fill="#979ea8" d="M382-556c-3 158-18 304-18 470 0 31 6 72-21 86-20 35-87 21-104-6-1-188 14-367 23-549 1-24 13-80-17-80-77 0-131 31-210 31-15-10-43-18-33-45 0-82 83-94 148-109 103-23 215-12 315-40 43-12 91-17 142-23 62-8 95 53 77 116-8 28-47 14-75 18-68 9-134 10-195 30-32 11-31 60-32 101" id="n"/><path fill="#979ea8" d="M103-24C79 10-2-14 8-59c42-186 129-353 193-524 23-62 63-135 99-197 39-38 106-10 109 47 27 100 51 209 81 307 8 25 72 24 72 63 0 44-26 46-37 75 12 83 46 156 55 243 7 63-106 47-114 11-13-58-36-170-57-231-3-4-7-8-9-14-69 4-134 40-198 52-53 21-53 108-81 160-4 16-8 29-18 43zm215-551c-16 18-92 195-73 208 46 2 100-12 123-31-5-30-32-162-38-171-2-3-6-5-12-6" id="o"/><path fill="#979ea8" d="M521-275c40-33 108-24 108 34 0 49-75 103-210 183-80 47-247 72-323 10-66-54-95-101-82-218 12-106 41-136 91-224 55-96 145-209 240-278 32-23 68-33 107-33 86 2 108 61 107 158 0 55-15 82-44 82-55 1-25-116-79-110-132 15-229 223-291 334-48 86-31 226 81 218 122-9 217-92 295-156" id="p"/><path fill="#979ea8" d="M583 1c26 5 52-17 51-41 24-60-22-103-43-144-74-69-132-138-184-228-37-64 44-88 81-120 65-56 138-104 195-168 35-39 5-108-40-113-66 17-104 68-150 105-81 65-158 127-245 187-18 12-48 33-70 13-6-6-8-14-7-23 3-63 18-122 28-181-3-53-39-88-92-91-82 12-51 140-71 216 1 133-13 257-20 381-3 58-27 167 27 193 35 29 78-2 98-20 30-59 16-164 24-251 3-31 38-61 73-59 78 41 118 121 174 184 38 44 71 96 112 139 15 15 32 34 59 21" id="q"/><g id="a"><use transform="matrix(0.022222222222222223,0,0,0.022222222222222223,0,0)" xlink:href="#m"/><use transform="matrix(0.022222222222222223,0,0,0.022222222222222223,12.666666666666668,0)" xlink:href="#n"/><use transform="matrix(0.022222222222222223,0,0,0.022222222222222223,27.91111111111111,0)" xlink:href="#o"/><use transform="matrix(0.022222222222222223,0,0,0.022222222222222223,40.955555555555556,0)" xlink:href="#p"/><use transform="matrix(0.022222222222222223,0,0,0.022222222222222223,55.044444444444444,0)" xlink:href="#q"/></g><path fill="#979ea8" d="M107-780c100 15 51 176 51 272 0 29 23 25 56 24 33-11 175 4 171-42 9-67 4-153 14-224 12-14 39-57 70-50 51 0 74 34 69 103L490-47c-6 28-25 57-57 56-118-5-54-182-54-299 0-34 3-75-15-85-65 6-127 12-191 19-52 29-23 162-29 239C135-7 87 19 22-30 10-48 7-67 13-88c-16-100 8-215 8-322 0-127-9-364 86-370" id="r"/><path fill="#979ea8" d="M330-158c82-22 193-18 286-31 38 11 58 81 24 113-25 24-71 25-116 25-135 0-238 34-358 47C61 7 4-52 15-159c12-113 37-213 32-340-2-59 2-121-2-178-2-44 35-62 81-61 104-31 222-52 345-64 68-7 103 34 111 94 2 12-3 22-9 31-33 14-62 15-103 16-100 2-196 10-270 40h-8c-18 23-11 79-15 106-1 13 5 22 16 25 82-10 176-25 264-12 44 7 78 26 71 72-7 49-76 30-125 30-78 0-138 22-210 29-24 1-35 28-36 52-2 41-10 83-8 126-19 84 122 51 181 35" id="s"/><path fill="#979ea8" d="M23-677c-68-88 127-122 212-122 113 0 253 24 291 82 92 144-48 310-153 365-52 27-102 48-161 69-56 20-53 15-58 80-4 49-8 103-13 153-3 31-19 46-43 46-44 0-65-28-63-81 5-162 8-330 16-486 3-53-4-75-28-106zm415 73c0-44-44-66-132-66-78 0-124 8-135 26-10 16-14 89-14 218 0 44 22 39 57 25 83-34 224-115 224-203" id="t"/><g id="b"><use transform="matrix(0.022222222222222223,0,0,0.022222222222222223,0,0)" xlink:href="#r"/><use transform="matrix(0.022222222222222223,0,0,0.022222222222222223,12.022222222222222,0)" xlink:href="#s"/><use transform="matrix(0.022222222222222223,0,0,0.022222222222222223,26.822222222222223,0)" xlink:href="#o"/><use transform="matrix(0.022222222222222223,0,0,0.022222222222222223,39.86666666666667,0)" xlink:href="#t"/></g><path d="M24-231c66-21 156 2 128 81C132-92 78-66 39-27h121V0H16v-26l59-54c26-25 47-47 47-97 0-48-47-57-81-37l-6 29H24v-46" id="u"/><use transform="matrix(0.06790123456790123,0,0,0.06790123456790123,0,0)" xlink:href="#u" id="c"/><path d="M104-123c39 3 61 21 62 59C167 7 83 12 19-4l-2-50h12c2 29 16 43 51 43 38 0 54-19 54-55 2-43-34-49-75-50v-14c37 0 64-7 64-48 0-47-47-56-81-36l-6 29H24v-46c51-13 135-13 131 51-2 34-20 52-51 57" id="v"/><use transform="matrix(0.06790123456790123,0,0,0.06790123456790123,0,0)" xlink:href="#v" id="d"/><path fill="#979ea8" d="M90-239c59 0 76 52 76 120S152 4 89 4C31 4 14-51 14-119c0-67 17-120 76-120zM89-10c45-6 45-58 45-109 0-50 0-101-45-106-45 4-43 57-43 106 0 50-2 104 43 109" id="w"/><use transform="matrix(0.06172839506172839,0,0,0.06172839506172839,0,0)" xlink:href="#w" id="e"/><path fill="#979ea8" d="M110-14l48 5v9H32v-9l48-5v-192l-48 17v-10l69-39h9v224" id="x"/><use transform="matrix(0.06172839506172839,0,0,0.06172839506172839,0,0)" xlink:href="#x" id="f"/><path fill="#979ea8" d="M24-231c66-21 156 2 128 81C132-92 78-66 39-27h121V0H16v-26l59-54c26-25 47-47 47-97 0-48-47-57-81-37l-6 29H24v-46" id="y"/><use transform="matrix(0.06172839506172839,0,0,0.06172839506172839,0,0)" xlink:href="#y" id="g"/><path fill="#6f7681" d="M24-128c0-158-18-313-5-472 6-74-11-192 62-191 78 1 88 68 113 130 59 143 102 191 174 297 50 73 81 109 92 109 8 0 12-3 13-9 24-163 3-322-12-477-6-63 62-76 101-37 65 64 45 212 54 340 10 141 7 304-15 413-8 15-20 23-37 23-76 0-203-132-244-200-33-54-79-109-116-169l4 4c-9-20-41-55-54-51-14 102-5 244 6 344 3 30-15 69-41 68-9 0-28-1-56-3-44-28-39-45-39-119" id="z"/><path fill="#6f7681" d="M109-754c29-56 120 5 113 55-24 164-73 311-76 498 0 44 17 66 52 66 44 0 193-39 283-82 16-8 27-24 32-45 27-114 44-316 44-439 0-57 27-86 82-86 38 0 57 27 57 82 0 195-35 406-61 587 5 33 20 94-14 106-8 12-30 10-67-7-15-20-33-39-52-56C437-54 255 2 210 0 80-5 5-44 13-182c11-186 48-366 83-531 3-12 5-27 13-41" id="A"/><path fill="#6f7681" d="M21-302C-7-136 9 24 196-12c147-28 263-93 386-142 57-23 26-120-26-120-111 32-240 115-378 126-13 1-22-26-25-45 30-174 59-350 88-524 10-62-86-124-120-61-39 73-49 196-69 277-19 77-22 145-31 199" id="B"/><g id="h"><use transform="matrix(0.013333333333333329,0,0,0.013333333333333329,0,0)" xlink:href="#z"/><use transform="matrix(0.013333333333333329,0,0,0.013333333333333329,8.546666666666663,0)" xlink:href="#A"/><use transform="matrix(0.013333333333333329,0,0,0.013333333333333329,17.94666666666666,0)" xlink:href="#B"/><use transform="matrix(0.013333333333333329,0,0,0.013333333333333329,26.37333333333332,0)" xlink:href="#B"/></g><path d="M666-1365c326 0 518 259 518 595 0 178-48 346-145 502C928-89 788 0 621 0 344 0 200-283 200-582c0-169 35-333 107-490 89-196 210-293 359-293zM401-582c0 173 76 381 229 381 86 0 168-71 247-214 71-127 106-239 106-334 0-219-129-422-336-417-153 61-246 349-246 584" id="C"/><path d="M172-1273c0-51 55-92 106-92 37 0 64 24 92 68 37 59 126 327 147 375 45-73 86-148 133-220 69-105 130-155 174-155 52 0 105 52 103 104-20 75-241 385-311 490 18 36 85 160 200 372 65 118 97 196 97 234 1 55-42 97-97 97-43 0-105-70-183-212-15-28-60-122-136-281-43 69-136 292-221 411-25 35-56 50-87 50-84 0-113-73-88-151 12-39 108-216 290-529-146-314-219-501-219-561" id="D"/><path d="M763-737c119 66 232 201 235 370C1002-138 781 0 539 0 307 0 164-187 164-411c0-153 57-265 171-337-87-71-130-164-130-279-1-207 116-338 324-338 198 0 387 157 387 358 0 119-51 209-153 270zM556-879c82 0 159-51 159-133 0-90-87-154-176-154s-133 55-133 164c0 75 73 123 150 123zM367-406c0 89 78 203 167 203 159 0 239-67 239-201 0-94-135-198-227-198-90 0-179 106-179 196" id="E"/><path d="M592-1365c194 7 272 184 272 399 0 120-87 574-93 628-13 114-25 181-30 201C717-46 678 0 625 0c-48 0-101-44-101-92 0-132 51-296 78-415C319-461 53-614 53-877c0-222 314-496 539-488zm-32 194c-138-8-294 169-294 307 0 106 68 159 203 159 53 0 111-8 174-25 14-93 21-185 21-277 1-103-17-159-104-164" id="F"/><path d="M387-1365c369 0 678 217 678 573 0 172-83 346-249 522C647-90 478 0 307 0 194 0 137-80 137-239c0-257 30-558 68-915-53-11-80-43-80-95 0-56 32-93 97-108 26-6 81-8 165-8zm21 204c-15 76-47 491-72 917 0 13 1 27 2 41 116-22 231-92 346-210 120-123 180-241 180-355-1-196-67-277-209-343-74-35-157-50-247-50" id="G"/><path d="M602-1365c226 0 427 132 427 346 0 137-77 248-230 335 105 61 197 186 199 339 3 281-357 407-648 316-78-24-131-56-167-92-63-64-18-172 66-171 17 0 42 10 75 29 69 40 136 60 203 60 99 0 270-46 270-132 0-65-34-119-101-162-30-30-193-73-257-109-51-48-33-144 39-165 105-30 195-49 270-118 51-47 80-92 80-140 0-76-136-135-220-135-54 0-174 34-292 55-51 9-103-51-103-103 0-108 251-153 389-153" id="H"/><path d="M722-1365c155 0 277 78 276 225 0 91-50 195-151 314-48 56-136 140-262 254-171 154-256 259-256 316 0 37 32 55 96 55 103 0 398-64 478-64 48 0 94 55 94 103 0 50-33 87-101 99C773-42 564-1 425 0 221 0 119-76 119-227c0-93 56-204 169-333 46-52 140-144 284-277s216-227 216-283c0-29-23-44-69-44-62 0-148 26-258 77-11 52-41 78-92 78-58 0-103-42-103-100 0-156 283-256 456-256" id="I"/><path d="M111-254c0-80 75-479 73-483 3-23 17-167 40-434-41-20-62-51-62-94 0-67 48-100 145-100 431 0 647 127 647 380 0 161-86 280-258 359 120 81 180 177 180 290 0 173-116 256-272 302C530-12 459 0 391 0 204 0 111-85 111-254zm642-722c0-105-210-177-326-186-9 140-24 282-43 426 246-59 369-139 369-240zm-77 638c-27-89-136-153-326-193-27 162-48 229-34 323 82 18 157 3 237-24 75-26 116-61 123-106" id="J"/><path d="M369 0C201 0 119-119 119-294c0-119 26-272 77-457 80-290 99-377 125-524 7-13 27-26 60-41 71-33 211-49 419-49 129 0 193 36 193 107 0 50-48 105-99 101-142-10-258-9-397 20-11 59-34 158-69 297 146-57 246-85 301-85 53 0 100 43 100 96 0 43-23 80-73 99-127 49-178 54-389 129-29 119-44 224-44 314 0 58 10 87 30 87 66 0 151-30 256-90s173-91 205-91c50 0 101 49 101 99 0 30-19 57-51 87C794-129 500 0 369 0" id="K"/><g id="i"><use transform="matrix(0.004340277777777777,0,0,0.004340277777777777,0,0)" xlink:href="#C"/><use transform="matrix(0.004340277777777777,0,0,0.004340277777777777,6.015624999999999,0)" xlink:href="#D"/><use transform="matrix(0.004340277777777777,0,0,0.004340277777777777,10.451388888888888,0)" xlink:href="#E"/><use transform="matrix(0.004340277777777777,0,0,0.004340277777777777,15.38628472222222,0)" xlink:href="#F"/><use transform="matrix(0.004340277777777777,0,0,0.004340277777777777,19.869791666666664,0)" xlink:href="#G"/><use transform="matrix(0.004340277777777777,0,0,0.004340277777777777,24.787326388888886,0)" xlink:href="#H"/><use transform="matrix(0.004340277777777777,0,0,0.004340277777777777,29.95225694444444,0)" xlink:href="#I"/><use transform="matrix(0.004340277777777777,0,0,0.004340277777777777,35.05642361111111,0)" xlink:href="#J"/><use transform="matrix(0.004340277777777777,0,0,0.004340277777777777,39.56163194444444,0)" xlink:href="#K"/><use transform="matrix(0.004340277777777777,0,0,0.004340277777777777,44.39236111111111,0)" xlink:href="#C"/></g><path d="M200-1365c95 3 162 6 292 6 343 0 515 81 515 243 0 172-258 535-348 706-53 101-82 215-127 338-18 49-50 72-90 72-61 0-126-55-104-125 63-205 151-424 283-648 32-54 84-133 147-241 14-24 20-43 20-56 0-67-104-101-312-101-139 0-364 56-370-92-2-49 45-103 94-102" id="L"/><path d="M324-1236c5 23-37 369-37 466 0 156 45 234 136 234 188 0 282-184 282-553 11-40 18-100 31-177 11-67 49-99 100-99 69 0 103 44 103 133 0 160-19 698-19 858 0 51 8 229 8 280 0 49-51 94-100 94-77 0-115-76-115-227v-230c-84 79-185 119-303 119-217 0-325-140-325-421 0-92 40-385 36-477-2-55 48-97 103-97 54 0 102 42 100 97" id="M"/><path d="M295-1038c-53 2-99-46-99-99 0-31 18-59 51-87 37-32 224-141 280-141 69 0 104 33 104 99v735c-33 116-21 386-54 459-21 48-54 72-99 72-64 1-108-57-94-125 18-88 24-194 24-317 1 31 2-75 2-317v-328c-50 33-88 49-115 49" id="N"/><path d="M922-654c-9 182 20 369 29 555 5 90-140 139-183 58-2-3-13-31-31-85-54-160-191-263-414-306-19 75-30 243-58 360-12 50-51 72-98 72-55 0-99-53-99-108 1-366 195-896 360-1117 69-92 141-140 222-140 182 0 273 207 273 621 0 19 1 49-1 90zM724-476v-400c-20-103-13-145-35-225-11-40-25-60-40-60-32 0-83 65-154 195-56 103-99 215-130 336 137 27 256 79 359 154" id="O"/><g id="j"><use transform="matrix(0.004774305555555554,0,0,0.004774305555555554,0,0)" xlink:href="#C"/><use transform="matrix(0.004774305555555554,0,0,0.004774305555555554,6.617187499999998,0)" xlink:href="#D"/><use transform="matrix(0.004774305555555554,0,0,0.004774305555555554,11.496527777777775,0)" xlink:href="#L"/><use transform="matrix(0.004774305555555554,0,0,0.004774305555555554,16.65277777777777,0)" xlink:href="#M"/><use transform="matrix(0.004774305555555554,0,0,0.004774305555555554,22.15277777777777,0)" xlink:href="#J"/><use transform="matrix(0.004774305555555554,0,0,0.004774305555555554,27.108506944444436,0)" xlink:href="#N"/><use transform="matrix(0.004774305555555554,0,0,0.004774305555555554,31.118923611111097,0)" xlink:href="#G"/><use transform="matrix(0.004774305555555554,0,0,0.004774305555555554,36.52821180555554,0)" xlink:href="#I"/><use transform="matrix(0.004774305555555554,0,0,0.004774305555555554,42.14279513888887,0)" xlink:href="#F"/><use transform="matrix(0.004774305555555554,0,0,0.004774305555555554,47.07465277777776,0)" xlink:href="#O"/></g><path fill="#008a0e" d="M24-128c0-158-18-313-5-472 6-74-11-192 62-191 78 1 88 68 113 130 59 143 102 191 174 297 50 73 81 109 92 109 8 0 12-3 13-9 24-163 3-322-12-477-6-63 62-76 101-37 65 64 45 212 54 340 10 141 7 304-15 413-8 15-20 23-37 23-76 0-203-132-244-200-33-54-79-109-116-169l4 4c-9-20-41-55-54-51-14 102-5 244 6 344 3 30-15 69-41 68-9 0-28-1-56-3-44-28-39-45-39-119" id="P"/><path fill="#008a0e" d="M109-754c29-56 120 5 113 55-24 164-73 311-76 498 0 44 17 66 52 66 44 0 193-39 283-82 16-8 27-24 32-45 27-114 44-316 44-439 0-57 27-86 82-86 38 0 57 27 57 82 0 195-35 406-61 587 5 33 20 94-14 106-8 12-30 10-67-7-15-20-33-39-52-56C437-54 255 2 210 0 80-5 5-44 13-182c11-186 48-366 83-531 3-12 5-27 13-41" id="Q"/><path fill="#008a0e" d="M330-158c82-22 193-18 286-31 38 11 58 81 24 113-25 24-71 25-116 25-135 0-238 34-358 47C61 7 4-52 15-159c12-113 37-213 32-340-2-59 2-121-2-178-2-44 35-62 81-61 104-31 222-52 345-64 68-7 103 34 111 94 2 12-3 22-9 31-33 14-62 15-103 16-100 2-196 10-270 40h-8c-18 23-11 79-15 106-1 13 5 22 16 25 82-10 176-25 264-12 44 7 78 26 71 72-7 49-76 30-125 30-78 0-138 22-210 29-24 1-35 28-36 52-2 41-10 83-8 126-19 84 122 51 181 35" id="R"/><path fill="#008a0e" d="M109-735c-25-57-110-11-99 37 30 130 91 291 122 410 18 69 44 132 72 190 44 90 75 116 148 73 102-105 149-290 208-441 32-82 48-168 48-261 0-51-15-77-46-77-38 0-59 34-73 100-35 160-89 312-149 454-40 95-58 66-91-37-28-90-54-179-79-263-24-79-42-141-61-185" id="S"/><path fill="#008a0e" d="M44-443c79-191 208-366 448-366 141 0 239 118 267 253 46 222-61 413-213 490-83 42-221 78-338 30-55-23-106-43-129-82-26-14-80-140-57-202 2-41 8-89 22-123zm103 115c1 136 75 191 208 191 130 0 180-50 241-135 38-53 55-111 55-169 0-109-73-236-179-227-143 12-260 151-311 271-9 24-14 47-14 69" id="T"/><g id="k"><use transform="matrix(0.013333333333333329,0,0,0.013333333333333329,0,0)" xlink:href="#P"/><use transform="matrix(0.013333333333333329,0,0,0.013333333333333329,8.546666666666663,0)" xlink:href="#Q"/><use transform="matrix(0.013333333333333329,0,0,0.013333333333333329,17.94666666666666,0)" xlink:href="#R"/><use transform="matrix(0.013333333333333329,0,0,0.013333333333333329,25.386666666666656,0)" xlink:href="#S"/><use transform="matrix(0.013333333333333329,0,0,0.013333333333333329,33.19999999999999,0)" xlink:href="#T"/></g><path d="M110-14l48 5v9H32v-9l48-5v-192l-48 17v-10l69-39h9v224" id="U"/><use transform="matrix(0.06790123456790123,0,0,0.06790123456790123,0,0)" xlink:href="#U" id="l"/></defs></g></svg>