<svg xmlns="http://www.w3.org/2000/svg" xmlns:xlink="http://www.w3.org/1999/xlink" xmlns:lucid="lucid" width="1636.23" height="279.04"><g transform="translate(-582.5 457.0388402233468)" lucid:page-tab-id="0_0"><path d="M603-394a6 6 0 0 1 6-6h108a6 6 0 0 1 6 6v28a6 6 0 0 1-6 6H609a6 6 0 0 1-6-6z" fill="#fff"/><path d="M603.9-397.13l.25-.4.6-.7.72-.62.4-.25m1.73-.72l.46-.1.94-.08h1.47m1.97 0h2.94m1.97 0h2.94m1.96 0h2.94m1.96 0h2.95m1.97 0h2.95m1.96 0h2.95m1.96 0h2.94m1.96 0h2.95m1.96 0h2.95m1.97 0h2.94m1.97 0h2.94m1.97 0h2.94m1.97 0h2.94m1.96 0h2.94m1.96 0h2.95m1.97 0h2.95m1.96 0h2.95m1.96 0h2.94m1.96 0h2.95m1.96 0h2.95m1.97 0h2.94m1.97 0H717l.94.07.46.1m1.73.73l.4.25.7.6.62.72.25.4m.72 1.73l.1.46.08.94v1.4m0 1.87v2.8m0 1.86v2.8m0 1.87v2.8m0 1.87v2.8m0 1.86v2.8m0 1.87v1.4l-.07.94-.1.46m-.73 1.73l-.25.4-.6.7-.72.62-.4.25m-1.73.72l-.46.1-.94.08h-1.47m-1.97 0h-2.94m-1.97 0h-2.94m-1.96 0h-2.94m-1.96 0h-2.95m-1.97 0h-2.95m-1.96 0h-2.95m-1.96 0h-2.94m-1.96 0h-2.95m-1.96 0h-2.95m-1.97 0h-2.94m-1.97 0h-2.94m-1.97 0h-2.94m-1.97 0h-2.94m-1.96 0h-2.94m-1.96 0h-2.95m-1.97 0h-2.95m-1.96 0h-2.95m-1.96 0h-2.94m-1.96 0h-2.95m-1.96 0h-2.95m-1.97 0h-2.94m-1.97 0H609l-.94-.07-.46-.1m-1.73-.73l-.4-.25-.7-.6-.62-.72-.25-.4m-.72-1.73l-.1-.46-.08-.94v-1.4m0-1.87v-2.8m0-1.86v-2.8m0-1.87v-2.8m0-1.87v-2.8m0-1.86v-2.8m0-1.87v-1.4l.07-.94.1-.46" stroke="#d916a8" fill="none"/><use xlink:href="#a" transform="matrix(1,0,0,1,608,-395) translate(16.99544270833333 20.9765625)"/><path d="M603-336.96a6 6 0 0 1 6-6h108a6 6 0 0 1 6 6v28a6 6 0 0 1-6 6H609a6 6 0 0 1-6-6z" fill="#fff"/><path d="M603.9-340.1l.25-.4.6-.7.72-.62.4-.24m1.73-.72l.46-.1.94-.08h1.47m1.97 0h2.94m1.97 0h2.94m1.96 0h2.94m1.96 0h2.95m1.97 0h2.95m1.96 0h2.95m1.96 0h2.94m1.96 0h2.95m1.96 0h2.95m1.97 0h2.94m1.97 0h2.94m1.97 0h2.94m1.97 0h2.94m1.96 0h2.94m1.96 0h2.95m1.97 0h2.95m1.96 0h2.95m1.96 0h2.94m1.96 0h2.95m1.96 0h2.95m1.97 0h2.94m1.97 0H717l.94.07.46.12m1.73.72l.4.25.7.6.62.7.25.4m.72 1.74l.1.46.08.94v1.4m0 1.87v2.8m0 1.87v2.8m0 1.87v2.8m0 1.87v2.8m0 1.87v2.8m0 1.87v1.4l-.07.94-.1.45m-.73 1.73l-.25.4-.6.72-.72.6-.4.26m-1.73.72l-.46.1-.94.08h-1.47m-1.97 0h-2.94m-1.97 0h-2.94m-1.96 0h-2.94m-1.96 0h-2.95m-1.97 0h-2.95m-1.96 0h-2.95m-1.96 0h-2.94m-1.96 0h-2.95m-1.96 0h-2.95m-1.97 0h-2.94m-1.97 0h-2.94m-1.97 0h-2.94m-1.97 0h-2.94m-1.96 0h-2.94m-1.96 0h-2.95m-1.97 0h-2.95m-1.96 0h-2.95m-1.96 0h-2.94m-1.96 0h-2.95m-1.96 0h-2.95m-1.97 0h-2.94m-1.97 0H609l-.94-.08-.46-.1m-1.73-.72l-.4-.25-.7-.62-.62-.7-.25-.42m-.72-1.73l-.1-.45-.08-.94v-1.4m0-1.87v-2.8m0-1.86v-2.8m0-1.86v-2.8m0-1.87v-2.8m0-1.86v-2.8m0-1.86v-1.4l.07-.94.1-.46" stroke="#d916a8" fill="none"/><use xlink:href="#b" transform="matrix(1,0,0,1,608,-337.9611597766532) translate(18.209635416666664 20.9765625)"/><path d="M603-234a6 6 0 0 1 6-6h108a6 6 0 0 1 6 6v28a6 6 0 0 1-6 6H609a6 6 0 0 1-6-6z" fill="#fff"/><path d="M603.9-237.13l.25-.4.6-.7.72-.62.4-.25m1.73-.72l.46-.1.94-.08h1.47m1.97 0h2.94m1.97 0h2.94m1.96 0h2.94m1.96 0h2.95m1.97 0h2.95m1.96 0h2.95m1.96 0h2.94m1.96 0h2.95m1.96 0h2.95m1.97 0h2.94m1.97 0h2.94m1.97 0h2.94m1.97 0h2.94m1.96 0h2.94m1.96 0h2.95m1.97 0h2.95m1.96 0h2.95m1.96 0h2.94m1.96 0h2.95m1.96 0h2.95m1.97 0h2.94m1.97 0H717l.94.07.46.1m1.73.73l.4.25.7.6.62.72.25.4m.72 1.73l.1.46.08.94v1.4m0 1.87v2.8m0 1.86v2.8m0 1.87v2.8m0 1.87v2.8m0 1.86v2.8m0 1.87v1.4l-.07.94-.1.46m-.73 1.72l-.25.4-.6.72-.72.6-.4.26m-1.73.72l-.46.1-.94.08h-1.47m-1.97 0h-2.94m-1.97 0h-2.94m-1.96 0h-2.94m-1.96 0h-2.95m-1.97 0h-2.95m-1.96 0h-2.95m-1.96 0h-2.94m-1.96 0h-2.95m-1.96 0h-2.95m-1.97 0h-2.94m-1.97 0h-2.94m-1.97 0h-2.94m-1.97 0h-2.94m-1.96 0h-2.94m-1.96 0h-2.95m-1.97 0h-2.95m-1.96 0h-2.95m-1.96 0h-2.94m-1.96 0h-2.95m-1.96 0h-2.95m-1.97 0h-2.94m-1.97 0H609l-.94-.07-.46-.1m-1.73-.73l-.4-.25-.7-.6-.62-.72-.25-.4m-.72-1.73l-.1-.46-.08-.94v-1.4m0-1.87v-2.8m0-1.86v-2.8m0-1.87v-2.8m0-1.87v-2.8m0-1.86v-2.8m0-1.87v-1.4l.07-.94.1-.46" stroke="#d916a8" fill="none"/><use xlink:href="#c" transform="matrix(1,0,0,1,608,-235) translate(19.928385416666664 20.9765625)"/><path d="M816.5-336.96a6 6 0 0 1 6-6h108a6 6 0 0 1 6 6v28a6 6 0 0 1-6 6h-108a6 6 0 0 1-6-6z" fill="#fff"/><path d="M817.4-340.1l.24-.4.62-.7.7-.62.4-.24m1.74-.72l.46-.1.94-.08h1.47m1.96 0h2.95m1.96 0h2.95m1.95 0h2.95m1.96 0h2.95m1.97 0h2.95m1.96 0h2.94m1.97 0h2.93m1.97 0h2.94m1.97 0h2.95m1.97 0h2.94m1.97 0h2.94m1.96 0h2.95m1.96 0h2.95m1.95 0h2.95m1.96 0h2.95m1.97 0h2.95m1.96 0h2.94m1.97 0h2.93m1.97 0h2.94m1.97 0h2.95m1.97 0h2.94m1.97 0h1.47l.94.07.45.12m1.72.72l.4.25.72.6.6.7.26.4m.7 1.74l.12.46.08.94v1.4m0 1.87v2.8m0 1.87v2.8m0 1.87v2.8m0 1.87v2.8m0 1.87v2.8m0 1.87v1.4l-.08.94-.1.45m-.72 1.73l-.25.4-.6.72-.73.6-.4.26m-1.73.72l-.46.1-.94.08h-1.48m-1.96 0h-2.94m-1.97 0h-2.94m-1.96 0h-2.94m-1.97 0h-2.94m-1.98 0h-2.94m-1.96 0h-2.95m-1.96 0h-2.94m-1.96 0h-2.95m-1.96 0h-2.96m-1.96 0h-2.95m-1.96 0h-2.95m-1.96 0h-2.94m-1.97 0h-2.94m-1.96 0h-2.94m-1.97 0h-2.94m-1.98 0h-2.94m-1.96 0h-2.95m-1.96 0h-2.94m-1.96 0h-2.95m-1.96 0h-2.96m-1.96 0h-2.95m-1.96 0h-1.47l-.94-.08-.46-.1m-1.73-.72l-.4-.25-.72-.62-.6-.7-.25-.42m-.72-1.73l-.1-.45-.08-.94v-1.4m0-1.87v-2.8m0-1.86v-2.8m0-1.86v-2.8m0-1.87v-2.8m0-1.86v-2.8m0-1.86v-1.4l.07-.94.1-.46" stroke="#fcce14" fill="none"/><use xlink:href="#d" transform="matrix(1,0,0,1,821.4980025193215,-337.9611597766532) translate(40.33854166666667 20.9765625)"/><path d="M816.5-234a6 6 0 0 1 6-6h108a6 6 0 0 1 6 6v28a6 6 0 0 1-6 6h-108a6 6 0 0 1-6-6z" fill="#fff"/><path d="M817.4-237.13l.24-.4.62-.7.7-.62.4-.25m1.74-.72l.46-.1.94-.08h1.47m1.96 0h2.95m1.96 0h2.95m1.95 0h2.95m1.96 0h2.95m1.97 0h2.95m1.96 0h2.94m1.97 0h2.93m1.97 0h2.94m1.97 0h2.95m1.97 0h2.94m1.97 0h2.94m1.96 0h2.95m1.96 0h2.95m1.95 0h2.95m1.96 0h2.95m1.97 0h2.95m1.96 0h2.94m1.97 0h2.93m1.97 0h2.94m1.97 0h2.95m1.97 0h2.94m1.97 0h1.47l.94.07.45.1m1.72.73l.4.25.72.6.6.72.26.4m.7 1.73l.12.46.08.94v1.4m0 1.87v2.8m0 1.86v2.8m0 1.87v2.8m0 1.87v2.8m0 1.86v2.8m0 1.87v1.4l-.08.94-.1.46m-.72 1.72l-.25.4-.6.72-.73.6-.4.26m-1.73.72l-.46.1-.94.08h-1.48m-1.96 0h-2.94m-1.97 0h-2.94m-1.96 0h-2.94m-1.97 0h-2.94m-1.98 0h-2.94m-1.96 0h-2.95m-1.96 0h-2.94m-1.96 0h-2.95m-1.96 0h-2.96m-1.96 0h-2.95m-1.96 0h-2.95m-1.96 0h-2.94m-1.97 0h-2.94m-1.96 0h-2.94m-1.97 0h-2.94m-1.98 0h-2.94m-1.96 0h-2.95m-1.96 0h-2.94m-1.96 0h-2.95m-1.96 0h-2.96m-1.96 0h-2.95m-1.96 0h-1.47l-.94-.07-.46-.1m-1.73-.73l-.4-.25-.72-.6-.6-.72-.25-.4m-.72-1.73l-.1-.46-.08-.94v-1.4m0-1.87v-2.8m0-1.86v-2.8m0-1.87v-2.8m0-1.87v-2.8m0-1.86v-2.8m0-1.87v-1.4l.07-.94.1-.46" stroke="#fcce14" fill="none"/><use xlink:href="#e" transform="matrix(1,0,0,1,821.4980025193215,-235) translate(38.505859375 20.9765625)"/><path d="M614.5-431.04a6 6 0 0 1 6-6h85a6 6 0 0 1 6 6v8a6 6 0 0 1-6 6h-85a6 6 0 0 1-6-6z" fill="none"/><use xlink:href="#f" transform="matrix(1,0,0,1,614.5,-437.0388402233468) translate(25.250217013888893 16.311848958333332)"/><path d="M828-431.04a6 6 0 0 1 6-6h85a6 6 0 0 1 6 6v8a6 6 0 0 1-6 6h-85a6 6 0 0 1-6-6z" fill="none"/><use xlink:href="#g" transform="matrix(1,0,0,1,827.9980025193215,-437.0388402233468) translate(20.275173611111118 16.311848958333332)"/><path d="M796.5-374a6 6 0 0 1 6-6h4a6 6 0 0 1 6 6v10a6 6 0 0 1-6 6h-4a6 6 0 0 1-6-6z" fill="none"/><use xlink:href="#h" transform="matrix(1,0,0,1,796.4980025193215,-380) translate(2.9444444444444446 17.77777777777778)"/><path d="M796.5-314a6 6 0 0 1 6-6h4a6 6 0 0 1 6 6v10a6 6 0 0 1-6 6h-4a6 6 0 0 1-6-6z" fill="none"/><use xlink:href="#i" transform="matrix(1,0,0,1,796.4980025193215,-320) translate(2.9444444444444446 17.77777777777778)"/><path d="M796.5-214a6 6 0 0 1 6-6h4a6 6 0 0 1 6 6v10a6 6 0 0 1-6 6h-4a6 6 0 0 1-6-6z" fill="none"/><use xlink:href="#j" transform="matrix(1,0,0,1,796.4980025193215,-220) translate(2.9444444444444446 17.77777777777778)"/><path d="M936.5-336.96a6 6 0 0 1 6-6h108a6 6 0 0 1 6 6v28a6 6 0 0 1-6 6h-108a6 6 0 0 1-6-6z" fill="#fff"/><path d="M937.4-340.1l.24-.4.62-.7.7-.62.4-.24m1.74-.72l.46-.1.94-.08h1.47m1.96 0h2.95m1.96 0h2.95m1.95 0h2.95m1.96 0h2.95m1.97 0h2.95m1.96 0h2.94m1.97 0h2.93m1.97 0h2.94m1.97 0h2.95m1.97 0h2.94m1.97 0h2.94m1.96 0h2.95m1.96 0h2.95m1.95 0h2.95m1.96 0h2.95m1.97 0h2.95m1.96 0h2.94m1.97 0h2.93m1.97 0h2.94m1.97 0h2.95m1.97 0h2.94m1.97 0h1.47l.94.07.45.12m1.72.72l.4.25.72.6.6.7.26.4m.7 1.74l.12.46.08.94v1.4m0 1.87v2.8m0 1.87v2.8m0 1.87v2.8m0 1.87v2.8m0 1.87v2.8m0 1.87v1.4l-.08.94-.1.45m-.72 1.73l-.25.4-.6.72-.72.6-.4.26m-1.74.72l-.46.1-.94.08h-1.47m-1.97 0h-2.94m-1.97 0h-2.94m-1.96 0h-2.94m-1.97 0h-2.94m-1.98 0h-2.94m-1.96 0h-2.95m-1.96 0h-2.94m-1.96 0h-2.95m-1.96 0h-2.96m-1.96 0h-2.95m-1.96 0h-2.95m-1.96 0h-2.94m-1.97 0h-2.94m-1.96 0h-2.94m-1.97 0h-2.94m-1.98 0h-2.94m-1.96 0h-2.95m-1.96 0h-2.94m-1.96 0h-2.95m-1.96 0h-2.96m-1.96 0h-2.95m-1.96 0h-1.47l-.94-.08-.46-.1m-1.73-.72l-.4-.25-.72-.62-.6-.7-.25-.42m-.72-1.73l-.1-.45-.08-.94v-1.4m0-1.87v-2.8m0-1.86v-2.8m0-1.86v-2.8m0-1.87v-2.8m0-1.86v-2.8m0-1.86v-1.4l.07-.94.1-.46" stroke="#fcce14" fill="none"/><use xlink:href="#b" transform="matrix(1,0,0,1,941.4980025193215,-337.9611597766532) translate(18.209635416666664 20.9765625)"/><path d="M936.5-234a6 6 0 0 1 6-6h108a6 6 0 0 1 6 6v28a6 6 0 0 1-6 6h-108a6 6 0 0 1-6-6z" fill="#fff"/><path d="M937.4-237.13l.24-.4.62-.7.7-.62.4-.25m1.74-.72l.46-.1.94-.08h1.47m1.96 0h2.95m1.96 0h2.95m1.95 0h2.95m1.96 0h2.95m1.97 0h2.95m1.96 0h2.94m1.97 0h2.93m1.97 0h2.94m1.97 0h2.95m1.97 0h2.94m1.97 0h2.94m1.96 0h2.95m1.96 0h2.95m1.95 0h2.95m1.96 0h2.95m1.97 0h2.95m1.96 0h2.94m1.97 0h2.93m1.97 0h2.94m1.97 0h2.95m1.97 0h2.94m1.97 0h1.47l.94.07.45.1m1.72.73l.4.25.72.6.6.72.26.4m.7 1.73l.12.46.08.94v1.4m0 1.87v2.8m0 1.86v2.8m0 1.87v2.8m0 1.87v2.8m0 1.86v2.8m0 1.87v1.4l-.08.94-.1.46m-.72 1.72l-.25.4-.6.72-.72.6-.4.26m-1.74.72l-.46.1-.94.08h-1.47m-1.97 0h-2.94m-1.97 0h-2.94m-1.96 0h-2.94m-1.97 0h-2.94m-1.98 0h-2.94m-1.96 0h-2.95m-1.96 0h-2.94m-1.96 0h-2.95m-1.96 0h-2.96m-1.96 0h-2.95m-1.96 0h-2.95m-1.96 0h-2.94m-1.97 0h-2.94m-1.96 0h-2.94m-1.97 0h-2.94m-1.98 0h-2.94m-1.96 0h-2.95m-1.96 0h-2.94m-1.96 0h-2.95m-1.96 0h-2.96m-1.96 0h-2.95m-1.96 0h-1.47l-.94-.07-.46-.1m-1.73-.73l-.4-.25-.72-.6-.6-.72-.25-.4m-.72-1.73l-.1-.46-.08-.94v-1.4m0-1.87v-2.8m0-1.86v-2.8m0-1.87v-2.8m0-1.87v-2.8m0-1.86v-2.8m0-1.87v-1.4l.07-.94.1-.46" stroke="#fcce14" fill="none"/><use xlink:href="#a" transform="matrix(1,0,0,1,941.4980025193215,-235) translate(16.99544270833333 20.9765625)"/><path d="M816.5-394a6 6 0 0 1 6-6h108a6 6 0 0 1 6 6v28a6 6 0 0 1-6 6h-108a6 6 0 0 1-6-6z" fill="#fff"/><path d="M817.4-397.13l.24-.4.62-.7.7-.62.4-.25m1.74-.72l.46-.1.94-.08h1.47m1.96 0h2.95m1.96 0h2.95m1.95 0h2.95m1.96 0h2.95m1.97 0h2.95m1.96 0h2.94m1.97 0h2.93m1.97 0h2.94m1.97 0h2.95m1.97 0h2.94m1.97 0h2.94m1.96 0h2.95m1.96 0h2.95m1.95 0h2.95m1.96 0h2.95m1.97 0h2.95m1.96 0h2.94m1.97 0h2.93m1.97 0h2.94m1.97 0h2.95m1.97 0h2.94m1.97 0h1.47l.94.07.45.1m1.72.73l.4.25.72.6.6.72.26.4m.7 1.73l.12.46.08.94v1.4m0 1.87v2.8m0 1.86v2.8m0 1.87v2.8m0 1.87v2.8m0 1.86v2.8m0 1.87v1.4l-.08.94-.1.46m-.72 1.73l-.25.4-.6.7-.73.62-.4.25m-1.73.72l-.46.1-.94.08h-1.48m-1.96 0h-2.94m-1.97 0h-2.94m-1.96 0h-2.94m-1.97 0h-2.94m-1.98 0h-2.94m-1.96 0h-2.95m-1.96 0h-2.94m-1.96 0h-2.95m-1.96 0h-2.96m-1.96 0h-2.95m-1.96 0h-2.95m-1.96 0h-2.94m-1.97 0h-2.94m-1.96 0h-2.94m-1.97 0h-2.94m-1.98 0h-2.94m-1.96 0h-2.95m-1.96 0h-2.94m-1.96 0h-2.95m-1.96 0h-2.96m-1.96 0h-2.95m-1.96 0h-1.47l-.94-.07-.46-.1m-1.73-.73l-.4-.25-.72-.6-.6-.72-.25-.4m-.72-1.73l-.1-.46-.08-.94v-1.4m0-1.87v-2.8m0-1.86v-2.8m0-1.87v-2.8m0-1.87v-2.8m0-1.86v-2.8m0-1.87v-1.4l.07-.94.1-.46" stroke="#fcce14" fill="none"/><use xlink:href="#k" transform="matrix(1,0,0,1,821.4980025193215,-395) translate(40.33854166666667 20.9765625)"/><path d="M936.5-394a6 6 0 0 1 6-6h108a6 6 0 0 1 6 6v28a6 6 0 0 1-6 6h-108a6 6 0 0 1-6-6z" fill="#fff"/><path d="M937.4-397.13l.24-.4.62-.7.7-.62.4-.25m1.74-.72l.46-.1.94-.08h1.47m1.96 0h2.95m1.96 0h2.95m1.95 0h2.95m1.96 0h2.95m1.97 0h2.95m1.96 0h2.94m1.97 0h2.93m1.97 0h2.94m1.97 0h2.95m1.97 0h2.94m1.97 0h2.94m1.96 0h2.95m1.96 0h2.95m1.95 0h2.95m1.96 0h2.95m1.97 0h2.95m1.96 0h2.94m1.97 0h2.93m1.97 0h2.94m1.97 0h2.95m1.97 0h2.94m1.97 0h1.47l.94.07.45.1m1.72.73l.4.25.72.6.6.72.26.4m.7 1.73l.12.46.08.94v1.4m0 1.87v2.8m0 1.86v2.8m0 1.87v2.8m0 1.87v2.8m0 1.86v2.8m0 1.87v1.4l-.08.94-.1.46m-.72 1.73l-.25.4-.6.7-.72.62-.4.25m-1.74.72l-.46.1-.94.08h-1.47m-1.97 0h-2.94m-1.97 0h-2.94m-1.96 0h-2.94m-1.97 0h-2.94m-1.98 0h-2.94m-1.96 0h-2.95m-1.96 0h-2.94m-1.96 0h-2.95m-1.96 0h-2.96m-1.96 0h-2.95m-1.96 0h-2.95m-1.96 0h-2.94m-1.97 0h-2.94m-1.96 0h-2.94m-1.97 0h-2.94m-1.98 0h-2.94m-1.96 0h-2.95m-1.96 0h-2.94m-1.96 0h-2.95m-1.96 0h-2.96m-1.96 0h-2.95m-1.96 0h-1.47l-.94-.07-.46-.1m-1.73-.73l-.4-.25-.72-.6-.6-.72-.25-.4m-.72-1.73l-.1-.46-.08-.94v-1.4m0-1.87v-2.8m0-1.86v-2.8m0-1.87v-2.8m0-1.87v-2.8m0-1.86v-2.8m0-1.87v-1.4l.07-.94.1-.46" stroke="#fcce14" fill="none"/><use xlink:href="#l" transform="matrix(1,0,0,1,941.4980025193215,-395) translate(19.928385416666664 20.9765625)"/><path d="M948-431.04a6 6 0 0 1 6-6h85a6 6 0 0 1 6 6v8a6 6 0 0 1-6 6h-85a6 6 0 0 1-6-6z" fill="none"/><use xlink:href="#m" transform="matrix(1,0,0,1,947.9980025193215,-437.0388402233468) translate(25.250217013888893 16.311848958333332)"/><path d="M724.5-379.97l.7.04.8.1.82.1.8.16.8.2.8.2.78.27.8.3.8.33.83.4.83.43.85.5.9.54.88.62.93.7.98.8 1 .92 1.07 1.04 1.12 1.2 1.2 1.37 1.26 1.6 1.38 1.9 1.52 2.28 1.66 2.75 1.86 3.4 2.14 4.3 2.52 5.7 3.16 8 4.56 13.2 19.6 62.43 3.18 8.03 2.52 5.7 2.14 4.3 1.86 3.4 1.66 2.74 1.5 2.27 1.38 1.9 1.28 1.6 1.2 1.4 1.1 1.18.06.05" stroke="#979ea8" stroke-width="2" stroke-linejoin="round" fill="none"/><path d="M724.55-380.98l-.04 2-1-.02v-2z" stroke="#979ea8" stroke-width=".05" fill="#979ea8"/><path d="M813.07-225.37l-14.9-1.85 3.94-8.4z" stroke="#979ea8" stroke-width="2" fill="#979ea8"/><path d="M724.5-220.03l.53-.03.75-.08.74-.1.73-.15.74-.16.72-.2.73-.25.74-.28.73-.3.76-.37.77-.4.8-.46.8-.53.84-.58.87-.67.9-.75.95-.85 1-.98 1.05-1.12 1.12-1.3 1.2-1.5 1.3-1.8 1.4-2.13 1.56-2.6 1.75-3.16 2-4 2.3-5.2 2.8-7.1 3.67-10.58 6.2-20.84 15.76-55.88 3.67-10.57 2.8-7.1 2.3-5.2 2-4 1.73-3.2 1.56-2.56 1.4-2.13 1.3-1.8 1.2-1.5 1.13-1.3.15-.17" stroke="#e81313" stroke-width="2" stroke-linejoin="round" fill="none"/><path d="M724.55-219.02l-1.05.02v-2l1-.02z" stroke="#e81313" stroke-width=".05" fill="#e81313"/><path d="M813.1-390.54l-10.63 10.58-4.18-8.28z" stroke="#e81313" stroke-width="2" fill="#e81313"/><path d="M724.5-323l12.6-.3 9.82-.8 8.4-1.13 10.88-2.13 17.98-3.7 8.4-1.14 4.94-.4" stroke="#979ea8" stroke-width="2" stroke-linejoin="round" fill="none"/><path d="M724.55-322l-1.05.04v-2l1-.03z" stroke="#979ea8" stroke-width=".05" fill="#979ea8"/><path d="M812.76-333.2L798.7-328l-.37-9.27z" stroke="#979ea8" stroke-width="2" fill="#979ea8"/><path d="M816.5-285.48a6 6 0 0 1 6-6h108a6 6 0 0 1 6 6v28a6 6 0 0 1-6 6h-108a6 6 0 0 1-6-6z" fill="#fff"/><path d="M817.4-288.6l.24-.4.62-.72.7-.6.4-.26m1.74-.72l.46-.1.94-.08h1.47m1.96 0h2.95m1.96 0h2.95m1.95 0h2.95m1.96 0h2.95m1.97 0h2.95m1.96 0h2.94m1.97 0h2.93m1.97 0h2.94m1.97 0h2.95m1.97 0h2.94m1.97 0h2.94m1.96 0h2.95m1.96 0h2.95m1.95 0h2.95m1.96 0h2.95m1.97 0h2.95m1.96 0h2.94m1.97 0h2.93m1.97 0h2.94m1.97 0h2.95m1.97 0h2.94m1.97 0h1.47l.94.07.45.1m1.72.72l.4.25.72.6.6.72.26.4m.7 1.72l.12.46.08.94v1.4m0 1.87v2.8m0 1.85v2.8m0 1.87v2.8m0 1.87v2.8m0 1.85v2.8m0 1.87v1.4l-.08.94-.1.46m-.72 1.72l-.25.4-.6.72-.73.6-.4.26m-1.73.72l-.46.1-.94.08h-1.48m-1.96 0h-2.94m-1.97 0h-2.94m-1.96 0h-2.94m-1.97 0h-2.94m-1.98 0h-2.94m-1.96 0h-2.95m-1.96 0h-2.94m-1.96 0h-2.95m-1.96 0h-2.96m-1.96 0h-2.95m-1.96 0h-2.95m-1.96 0h-2.94m-1.97 0h-2.94m-1.96 0h-2.94m-1.97 0h-2.94m-1.98 0h-2.94m-1.96 0h-2.95m-1.96 0h-2.94m-1.96 0h-2.95m-1.96 0h-2.96m-1.96 0h-2.95m-1.96 0h-1.47l-.94-.07-.46-.1m-1.73-.73l-.4-.25-.72-.6-.6-.72-.25-.4m-.72-1.73l-.1-.46-.08-.94v-1.4m0-1.87v-2.8m0-1.86v-2.8m0-1.88v-2.8m0-1.87v-2.8m0-1.86v-2.8m0-1.88v-1.4l.07-.94.1-.46" stroke="#fcce14" fill="none"/><path d="M936.5-285.48a6 6 0 0 1 6-6h108a6 6 0 0 1 6 6v28a6 6 0 0 1-6 6h-108a6 6 0 0 1-6-6z" fill="#fff"/><path d="M937.4-288.6l.24-.4.62-.72.7-.6.4-.26m1.74-.72l.46-.1.94-.08h1.47m1.96 0h2.95m1.96 0h2.95m1.95 0h2.95m1.96 0h2.95m1.97 0h2.95m1.96 0h2.94m1.97 0h2.93m1.97 0h2.94m1.97 0h2.95m1.97 0h2.94m1.97 0h2.94m1.96 0h2.95m1.96 0h2.95m1.95 0h2.95m1.96 0h2.95m1.97 0h2.95m1.96 0h2.94m1.97 0h2.93m1.97 0h2.94m1.97 0h2.95m1.97 0h2.94m1.97 0h1.47l.94.07.45.1m1.72.72l.4.25.72.6.6.72.26.4m.7 1.72l.12.46.08.94v1.4m0 1.87v2.8m0 1.85v2.8m0 1.87v2.8m0 1.87v2.8m0 1.85v2.8m0 1.87v1.4l-.08.94-.1.46m-.72 1.72l-.25.4-.6.72-.72.6-.4.26m-1.74.72l-.46.1-.94.08h-1.47m-1.97 0h-2.94m-1.97 0h-2.94m-1.96 0h-2.94m-1.97 0h-2.94m-1.98 0h-2.94m-1.96 0h-2.95m-1.96 0h-2.94m-1.96 0h-2.95m-1.96 0h-2.96m-1.96 0h-2.95m-1.96 0h-2.95m-1.96 0h-2.94m-1.97 0h-2.94m-1.96 0h-2.94m-1.97 0h-2.94m-1.98 0h-2.94m-1.96 0h-2.95m-1.96 0h-2.94m-1.96 0h-2.95m-1.96 0h-2.96m-1.96 0h-2.95m-1.96 0h-1.47l-.94-.07-.46-.1m-1.73-.73l-.4-.25-.72-.6-.6-.72-.25-.4m-.72-1.73l-.1-.46-.08-.94v-1.4m0-1.87v-2.8m0-1.86v-2.8m0-1.88v-2.8m0-1.87v-2.8m0-1.86v-2.8m0-1.88v-1.4l.07-.94.1-.46" stroke="#fcce14" fill="none"/><path d="M603-285.48a6 6 0 0 1 6-6h108a6 6 0 0 1 6 6v28a6 6 0 0 1-6 6H609a6 6 0 0 1-6-6z" fill="#fff"/><path d="M603.9-288.6l.25-.4.6-.72.72-.6.4-.26m1.73-.72l.46-.1.94-.08h1.47m1.97 0h2.94m1.97 0h2.94m1.96 0h2.94m1.96 0h2.95m1.97 0h2.95m1.96 0h2.95m1.96 0h2.94m1.96 0h2.95m1.96 0h2.95m1.97 0h2.94m1.97 0h2.94m1.97 0h2.94m1.97 0h2.94m1.96 0h2.94m1.96 0h2.95m1.97 0h2.95m1.96 0h2.95m1.96 0h2.94m1.96 0h2.95m1.96 0h2.95m1.97 0h2.94m1.97 0H717l.94.07.46.1m1.73.72l.4.25.7.6.62.72.25.4m.72 1.72l.1.46.08.94v1.4m0 1.87v2.8m0 1.85v2.8m0 1.87v2.8m0 1.87v2.8m0 1.85v2.8m0 1.87v1.4l-.07.94-.1.46m-.73 1.72l-.25.4-.6.72-.72.6-.4.26m-1.73.72l-.46.1-.94.08h-1.47m-1.97 0h-2.94m-1.97 0h-2.94m-1.96 0h-2.94m-1.96 0h-2.95m-1.97 0h-2.95m-1.96 0h-2.95m-1.96 0h-2.94m-1.96 0h-2.95m-1.96 0h-2.95m-1.97 0h-2.94m-1.97 0h-2.94m-1.97 0h-2.94m-1.97 0h-2.94m-1.96 0h-2.94m-1.96 0h-2.95m-1.97 0h-2.95m-1.96 0h-2.95m-1.96 0h-2.94m-1.96 0h-2.95m-1.96 0h-2.95m-1.97 0h-2.94m-1.97 0H609l-.94-.07-.46-.1m-1.73-.73l-.4-.25-.7-.6-.62-.72-.25-.4m-.72-1.73l-.1-.46-.08-.94v-1.4m0-1.87v-2.8m0-1.86v-2.8m0-1.88v-2.8m0-1.87v-2.8m0-1.86v-2.8m0-1.88v-1.4l.07-.94.1-.46" stroke="#d916a8" fill="none"/><use xlink:href="#n" transform="matrix(1,0,0,1,608,-286.4805798883266) translate(18.623046874999993 20.9765625)"/><path d="M724.5-271.5l.7-.02 1.58-.1 1.5-.15 1.45-.22 1.38-.25 1.33-.3 1.28-.37 1.25-.4 1.2-.45 1.18-.5 1.16-.54 1.12-.6 1.13-.65 1.1-.7 1.12-.77 1.1-.84 1.1-.92 1.13-1 1.12-1.1 1.15-1.23 1.16-1.36 1.2-1.5 1.22-1.7 1.27-1.9 1.33-2.2 1.4-2.53 1.47-2.97 1.6-3.6 1.74-4.43 2.02-5.8 2.57-8.56L777.32-364l1.8-5.18 1.52-3.87 1.36-3.07 1.25-2.5 1.15-2.12 1.1-1.8 1.03-1.56 1-1.36.94-1.2.92-1.08.9-.96.88-.86.86-.78.85-.7.84-.65.84-.57.84-.54.85-.5.85-.44.84-.4" stroke="#008a0e" stroke-width="2" stroke-linejoin="round" fill="none"/><path d="M724.55-270.5l-1.05.02v-2l1-.02z" stroke="#008a0e" stroke-width=".05" fill="#008a0e"/><path d="M812.87-394.95l-14 5.4-.5-9.25z" stroke="#008a0e" stroke-width="2" fill="#008a0e"/><path d="M1095.64-297.78a5.18 5.18 0 0 1 5.27-5.1l31.74.54a6 6 0 0 0 6.1-5.9l.08-5.04a2.5 2.5 0 0 1 4.28-1.7l13.58 14a5.98 5.98 0 0 1-.14 8.46L1142.5-279a2.5 2.5 0 0 1-4.22-1.84l.08-5.04a6 6 0 0 0-5.9-6.1l-31.73-.53a5.18 5.18 0 0 1-5.1-5.28z" fill-opacity="0"/><path d="M1096.64-297.76c0 .55-.46 1-1.02.98-.55 0-1-.46-.98-1.02 0-.55.46-1 1.02-.98.55 0 1 .46.98 1.02zm1.58-3.64c0 .55-.47 1-1.02.98-.55 0-1-.46-.98-1.02 0-.55.46-1 1.02-.98.55 0 1 .47.98 1.02zm3.7-1.46c-.02.55-.48 1-1.03.98-.56 0-1-.46-1-1 .02-.56.47-1 1.03-1 .55 0 1 .47.98 1.02zm3.96.07c0 .56-.47 1-1.02 1-.55-.02-1-.47-.98-1.03 0-.55.46-1 1-.98.56 0 1 .46 1 1zm3.96.07c0 .56-.46 1-1.02 1-.55-.02-1-.48-.98-1.03 0-.55.47-1 1.02-.98.55 0 1 .46.98 1zm3.97.07c0 .55-.46 1-1 .98-.56 0-1-.46-1-1 .02-.56.47-1 1.02-1 .56 0 1 .47 1 1.02zm3.97.07c0 .56-.46 1-1 1-.57-.02-1-.47-1-1.03 0-.55.47-1 1.02-.98.54 0 .98.46.97 1zm3.97.07c0 .56-.47 1-1.02 1-.55-.02-1-.48-.98-1.03 0-.55.46-1 1-.98.57 0 1 .46 1 1zm3.96.07c0 .55-.46 1-1 .98-.57 0-1-.46-1-1 0-.56.47-1 1.02-1s1 .47.98 1.02zm3.97.07c0 .56-.47 1-1.02 1-.55-.02-1-.47-.98-1.03 0-.55.46-1 1.02-.98.54 0 .98.46.97 1zm3.97.07c0 .56-.47 1-1.02 1-.55-.02-1-.48-.98-1.03 0-.55.46-1 1-.98.56 0 1 .46 1 1zm4.27-1.68c0 .54-.46.98-1 .97-.56 0-1-.46-1-1.02.02-.55.47-1 1.02-.98.56 0 1 .47 1 1.02zm1.83-4.23c0 .56-.46 1-1 1-.56-.02-1-.48-1-1.03s.47-1 1.02-.98c.55 0 1 .46.98 1zm.1-5.03c-.02.55-.48 1-1.03.98-.55 0-1-.47-.98-1.02 0-.55.46-1 1.02-.98.55 0 1 .46.98 1.02zm4.27-1.7c0 .55-.46 1-1.02.98-.55 0-1-.46-.98-1 0-.57.46-1 1.02-1 .55 0 1 .47.98 1.02zm2.7 2.8c0 .55-.45 1-1 .98-.55 0-1-.46-.98-1.02 0-.55.46-1 1-.98.56 0 1 .47 1 1.02zm2.73 2.8c0 .55-.46 1-1.02.98-.54 0-.98-.47-.97-1.02 0-.55.47-1 1.02-.98.55 0 1 .46.98 1.02zm2.72 2.8c0 .54-.47.98-1.02.98s-1-.47-.98-1.02c0-.55.46-1 1-.98.57 0 1 .46 1 1zm2.7 2.8c0 .54-.45.98-1 .97-.56 0-1-.45-1-1 .02-.56.48-1 1.03-1 .55.02 1 .48.98 1.03zm2.73 2.8c0 .54-.47.98-1.02.97-.55 0-1-.46-.98-1 0-.56.46-1 1-1 .57.02 1 .47 1 1.03zm1.7 4.25c-.02.54-.48.98-1.03.97-.55 0-1-.46-.98-1 0-.57.46-1 1-1 .56 0 1 .47 1 1.02zm-1.84 4.2c0 .54-.47.98-1.02.98s-1-.47-.98-1.02c0-.55.46-1 1-.98.56 0 1 .46 1 1zm-2.8 2.7c-.02.55-.48 1-1.03.98-.54 0-.98-.46-.97-1.02 0-.55.46-1 1.02-.98.55 0 1 .46.98 1.02zm-2.82 2.7c0 .55-.46 1-1.02.98-.55 0-1-.46-.98-1 0-.57.47-1 1.02-1s1 .47.98 1.02zm-2.8 2.7c-.02.56-.47 1-1.02 1-.56-.02-1-.48-1-1.03.02-.55.48-1 1.03-.98.55 0 1 .45.98 1zm-2.8 2.7c-.02.56-.48 1-1.03 1-.56-.02-1-.47-1-1.02 0-.56.47-1 1.02-1 .55.02 1 .48 1 1.03zm-2.82 2.7c0 .57-.47 1-1.02 1s-1-.47-.98-1.02c0-.55.46-1 1-.98.57 0 1 .46 1 1zm-4.22-1.82c0 .55-.47 1-1.02.98-.55 0-1-.46-.98-1.02 0-.55.46-1 1-.98.57 0 1 .47 1 1.02zm.08-5.04c0 .55-.46 1-1.02.98-.55 0-1-.46-.98-1.02 0-.55.46-1 1.02-.98.55 0 1 .46.98 1.02zm-1.7-4.27c0 .55-.45 1-1 .98-.55 0-1-.47-1-1.02.02-.55.48-1 1.03-.98.54 0 .98.46.97 1.02zm-4.2-1.83c0 .55-.46 1-1.02.98-.55 0-1-.46-.98-1.02 0-.55.47-1 1.02-.98.55 0 1 .47.98 1.02zm-3.96-.07c0 .55-.47 1-1.02.98-.55 0-1-.46-.98-1 0-.56.46-1 1-1 .56 0 1 .47 1 1.02zm-3.97-.07c0 .56-.46 1-1.02 1-.54-.02-.98-.48-.97-1.03 0-.55.46-1 1.02-.98.55 0 1 .45.98 1zm-3.97-.06c0 .55-.46 1-1 .98-.56 0-1-.46-1-1.02 0-.55.47-1 1.02-.98.55 0 1 .47.98 1.02zm-3.96-.07c0 .55-.47 1-1.02.98-.55 0-1-.46-.98-1 0-.56.46-1 1.02-1 .55 0 1 .47.98 1.02zm-3.97-.07c0 .56-.46 1-1 1-.57-.02-1-.48-1-1.03s.47-1 1.02-.98c.55 0 1 .45.98 1zm-3.96-.06c0 .55-.47 1-1.02.98-.55 0-1-.46-.98-1.02 0-.55.46-1 1-.98.57 0 1 .47 1 1.02zm-3.97-.07c0 .55-.46 1-1.02.98-.55 0-1-.46-.98-1 0-.56.47-1 1.02-1s1 .47.98 1.02zm-3.97-.06c0 .56-.46 1-1 1-.56-.02-1-.48-1-1.03s.47-1 1.02-.98c.55 0 1 .45.98 1zm-3.63-1.57c0 .55-.47 1-1.02.98-.55 0-1-.45-.98-1 0-.56.46-1 1-1 .57.02 1 .47 1 1.03zm-1.46-3.7c0 .56-.46 1-1.02 1-.55-.02-1-.47-.98-1.03 0-.55.46-1 1.02-.98.55 0 1 .46.98 1.02z" fill="#d916a8"/><path d="M1180-394a6 6 0 0 1 6-6h108a6 6 0 0 1 6 6v28a6 6 0 0 1-6 6h-108a6 6 0 0 1-6-6z" fill="#fff"/><path d="M1180.9-397.13l.25-.4.6-.7.72-.62.4-.25m1.73-.72l.46-.1.94-.08h1.47m1.97 0h2.94m1.96 0h2.95m1.96 0h2.94m1.96 0h2.95m1.97 0h2.95m1.96 0h2.95m1.96 0h2.94m1.96 0h2.94m1.97 0h2.95m1.97 0h2.94m1.97 0h2.94m1.97 0h2.94m1.96 0h2.95m1.96 0h2.94m1.96 0h2.95m1.97 0h2.95m1.96 0h2.95m1.96 0h2.94m1.96 0h2.94m1.97 0h2.95m1.97 0h2.94m1.97 0h1.47l.94.07.46.1m1.72.73l.4.25.72.6.6.72.26.4m.72 1.73l.1.46.08.94v1.4m0 1.87v2.8m0 1.86v2.8m0 1.87v2.8m0 1.87v2.8m0 1.86v2.8m0 1.87v1.4l-.07.94-.1.46m-.73 1.73l-.25.4-.6.7-.72.62-.4.25m-1.73.72l-.46.1-.94.08h-1.47m-1.97 0h-2.94m-1.96 0h-2.95m-1.96 0h-2.94m-1.96 0h-2.95m-1.97 0h-2.95m-1.96 0h-2.95m-1.96 0h-2.94m-1.96 0h-2.94m-1.97 0h-2.95m-1.97 0h-2.94m-1.97 0h-2.94m-1.97 0h-2.94m-1.96 0h-2.95m-1.96 0h-2.94m-1.96 0h-2.95m-1.97 0h-2.95m-1.96 0h-2.95m-1.96 0h-2.94m-1.96 0h-2.94m-1.97 0h-2.95m-1.97 0h-2.94m-1.97 0H1186l-.94-.07-.46-.1m-1.72-.73l-.4-.25-.72-.6-.6-.72-.26-.4m-.72-1.73l-.1-.46-.08-.94v-1.4m0-1.87v-2.8m0-1.86v-2.8m0-1.87v-2.8m0-1.87v-2.8m0-1.86v-2.8m0-1.87v-1.4l.07-.94.1-.46" stroke="#d916a8" fill="none"/><use xlink:href="#o" transform="matrix(1,0,0,1,1185,-395) translate(16.99544270833333 20.9765625)"/><path d="M1180-336.96a6 6 0 0 1 6-6h108a6 6 0 0 1 6 6v28a6 6 0 0 1-6 6h-108a6 6 0 0 1-6-6z" fill="#fff"/><path d="M1180.9-340.1l.25-.4.6-.7.72-.62.4-.24m1.73-.72l.46-.1.94-.08h1.47m1.97 0h2.94m1.96 0h2.95m1.96 0h2.94m1.96 0h2.95m1.97 0h2.95m1.96 0h2.95m1.96 0h2.94m1.96 0h2.94m1.97 0h2.95m1.97 0h2.94m1.97 0h2.94m1.97 0h2.94m1.96 0h2.95m1.96 0h2.94m1.96 0h2.95m1.97 0h2.95m1.96 0h2.95m1.96 0h2.94m1.96 0h2.94m1.97 0h2.95m1.97 0h2.94m1.97 0h1.47l.94.07.46.12m1.72.72l.4.25.72.6.6.7.26.4m.72 1.74l.1.46.08.94v1.4m0 1.87v2.8m0 1.87v2.8m0 1.87v2.8m0 1.87v2.8m0 1.87v2.8m0 1.87v1.4l-.07.94-.1.45m-.73 1.73l-.25.4-.6.72-.72.6-.4.26m-1.73.72l-.46.1-.94.08h-1.47m-1.97 0h-2.94m-1.96 0h-2.95m-1.96 0h-2.94m-1.96 0h-2.95m-1.97 0h-2.95m-1.96 0h-2.95m-1.96 0h-2.94m-1.96 0h-2.94m-1.97 0h-2.95m-1.97 0h-2.94m-1.97 0h-2.94m-1.97 0h-2.94m-1.96 0h-2.95m-1.96 0h-2.94m-1.96 0h-2.95m-1.97 0h-2.95m-1.96 0h-2.95m-1.96 0h-2.94m-1.96 0h-2.94m-1.97 0h-2.95m-1.97 0h-2.94m-1.97 0H1186l-.94-.08-.46-.1m-1.72-.72l-.4-.25-.72-.62-.6-.7-.26-.42m-.72-1.73l-.1-.45-.08-.94v-1.4m0-1.87v-2.8m0-1.86v-2.8m0-1.86v-2.8m0-1.87v-2.8m0-1.86v-2.8m0-1.86v-1.4l.07-.94.1-.46" stroke="#d916a8" fill="none"/><use xlink:href="#p" transform="matrix(1,0,0,1,1185,-337.9611597766532) translate(18.209635416666664 20.9765625)"/><path d="M1180-234a6 6 0 0 1 6-6h108a6 6 0 0 1 6 6v28a6 6 0 0 1-6 6h-108a6 6 0 0 1-6-6z" fill="#fff"/><path d="M1180.9-237.13l.25-.4.6-.7.72-.62.4-.25m1.73-.72l.46-.1.94-.08h1.47m1.97 0h2.94m1.96 0h2.95m1.96 0h2.94m1.96 0h2.95m1.97 0h2.95m1.96 0h2.95m1.96 0h2.94m1.96 0h2.94m1.97 0h2.95m1.97 0h2.94m1.97 0h2.94m1.97 0h2.94m1.96 0h2.95m1.96 0h2.94m1.96 0h2.95m1.97 0h2.95m1.96 0h2.95m1.96 0h2.94m1.96 0h2.94m1.97 0h2.95m1.97 0h2.94m1.97 0h1.47l.94.07.46.1m1.72.73l.4.25.72.6.6.72.26.4m.72 1.73l.1.46.08.94v1.4m0 1.87v2.8m0 1.86v2.8m0 1.87v2.8m0 1.87v2.8m0 1.86v2.8m0 1.87v1.4l-.07.94-.1.46m-.73 1.72l-.25.4-.6.72-.72.6-.4.26m-1.73.72l-.46.1-.94.08h-1.47m-1.97 0h-2.94m-1.96 0h-2.95m-1.96 0h-2.94m-1.96 0h-2.95m-1.97 0h-2.95m-1.96 0h-2.95m-1.96 0h-2.94m-1.96 0h-2.94m-1.97 0h-2.95m-1.97 0h-2.94m-1.97 0h-2.94m-1.97 0h-2.94m-1.96 0h-2.95m-1.96 0h-2.94m-1.96 0h-2.95m-1.97 0h-2.95m-1.96 0h-2.95m-1.96 0h-2.94m-1.96 0h-2.94m-1.97 0h-2.95m-1.97 0h-2.94m-1.97 0H1186l-.94-.07-.46-.1m-1.72-.73l-.4-.25-.72-.6-.6-.72-.26-.4m-.72-1.73l-.1-.46-.08-.94v-1.4m0-1.87v-2.8m0-1.86v-2.8m0-1.87v-2.8m0-1.87v-2.8m0-1.86v-2.8m0-1.87v-1.4l.07-.94.1-.46" stroke="#d916a8" fill="none"/><use xlink:href="#l" transform="matrix(1,0,0,1,1185,-235) translate(19.928385416666664 20.9765625)"/><path d="M1393.5-336.96a6 6 0 0 1 6-6h108a6 6 0 0 1 6 6v28a6 6 0 0 1-6 6h-108a6 6 0 0 1-6-6z" fill="#fff"/><path d="M1394.4-340.1l.24-.4.62-.7.7-.62.4-.24m1.74-.72l.46-.1.94-.08h1.47m1.96 0h2.95m1.96 0h2.95m1.95 0h2.95m1.96 0h2.95m1.97 0h2.95m1.96 0h2.94m1.97 0h2.93m1.97 0h2.94m1.97 0h2.95m1.97 0h2.94m1.97 0h2.94m1.96 0h2.95m1.96 0h2.95m1.95 0h2.95m1.96 0h2.95m1.97 0h2.95m1.96 0h2.94m1.97 0h2.93m1.97 0h2.94m1.97 0h2.95m1.97 0h2.94m1.97 0h1.47l.94.07.45.12m1.72.72l.4.25.72.6.6.7.26.4m.7 1.74l.12.46.08.94v1.4m0 1.87v2.8m0 1.87v2.8m0 1.87v2.8m0 1.87v2.8m0 1.87v2.8m0 1.87v1.4l-.08.94-.1.45m-.72 1.73l-.25.4-.6.72-.72.6-.4.26m-1.74.72l-.46.1-.94.08h-1.47m-1.97 0h-2.94m-1.97 0h-2.94m-1.96 0h-2.94m-1.97 0h-2.94m-1.98 0h-2.94m-1.96 0h-2.95m-1.96 0h-2.94m-1.96 0h-2.95m-1.96 0h-2.96m-1.96 0h-2.95m-1.96 0h-2.94m-1.97 0h-2.94m-1.97 0h-2.94m-1.96 0h-2.94m-1.97 0h-2.94m-1.98 0h-2.94m-1.96 0h-2.95m-1.96 0h-2.94m-1.96 0h-2.95m-1.96 0h-2.96m-1.96 0h-2.95m-1.96 0h-1.47l-.94-.08-.46-.1m-1.73-.72l-.4-.25-.7-.62-.63-.7-.24-.42m-.72-1.73l-.1-.45-.08-.94v-1.4m0-1.87v-2.8m0-1.86v-2.8m0-1.86v-2.8m0-1.87v-2.8m0-1.86v-2.8m0-1.86v-1.4l.07-.94.1-.46" stroke="#fcce14" fill="none"/><use xlink:href="#k" transform="matrix(1,0,0,1,1398.4980025193217,-337.9611597766532) translate(40.33854166666667 20.9765625)"/><path d="M1393.5-234a6 6 0 0 1 6-6h108a6 6 0 0 1 6 6v28a6 6 0 0 1-6 6h-108a6 6 0 0 1-6-6z" fill="#fff"/><path d="M1394.4-237.13l.24-.4.62-.7.7-.62.4-.25m1.74-.72l.46-.1.94-.08h1.47m1.96 0h2.95m1.96 0h2.95m1.95 0h2.95m1.96 0h2.95m1.97 0h2.95m1.96 0h2.94m1.97 0h2.93m1.97 0h2.94m1.97 0h2.95m1.97 0h2.94m1.97 0h2.94m1.96 0h2.95m1.96 0h2.95m1.95 0h2.95m1.96 0h2.95m1.97 0h2.95m1.96 0h2.94m1.97 0h2.93m1.97 0h2.94m1.97 0h2.95m1.97 0h2.94m1.97 0h1.47l.94.07.45.1m1.72.73l.4.25.72.6.6.72.26.4m.7 1.73l.12.46.08.94v1.4m0 1.87v2.8m0 1.86v2.8m0 1.87v2.8m0 1.87v2.8m0 1.86v2.8m0 1.87v1.4l-.08.94-.1.46m-.72 1.72l-.25.4-.6.72-.72.6-.4.26m-1.74.72l-.46.1-.94.08h-1.47m-1.97 0h-2.94m-1.97 0h-2.94m-1.96 0h-2.94m-1.97 0h-2.94m-1.98 0h-2.94m-1.96 0h-2.95m-1.96 0h-2.94m-1.96 0h-2.95m-1.96 0h-2.96m-1.96 0h-2.95m-1.96 0h-2.94m-1.97 0h-2.94m-1.97 0h-2.94m-1.96 0h-2.94m-1.97 0h-2.94m-1.98 0h-2.94m-1.96 0h-2.95m-1.96 0h-2.94m-1.96 0h-2.95m-1.96 0h-2.96m-1.96 0h-2.95m-1.96 0h-1.47l-.94-.07-.46-.1m-1.73-.73l-.4-.25-.7-.6-.63-.72-.24-.4m-.72-1.73l-.1-.46-.08-.94v-1.4m0-1.87v-2.8m0-1.86v-2.8m0-1.87v-2.8m0-1.87v-2.8m0-1.86v-2.8m0-1.87v-1.4l.07-.94.1-.46" stroke="#fcce14" fill="none"/><use xlink:href="#q" transform="matrix(1,0,0,1,1398.4980025193217,-235) translate(38.505859375 20.9765625)"/><path d="M1191.5-431.04a6 6 0 0 1 6-6h85a6 6 0 0 1 6 6v8a6 6 0 0 1-6 6h-85a6 6 0 0 1-6-6z" fill="none"/><use xlink:href="#r" transform="matrix(1,0,0,1,1191.5,-437.0388402233468) translate(25.250217013888893 16.311848958333332)"/><path d="M1405-431.04a6 6 0 0 1 6-6h85a6 6 0 0 1 6 6v8a6 6 0 0 1-6 6h-85a6 6 0 0 1-6-6z" fill="none"/><use xlink:href="#s" transform="matrix(1,0,0,1,1404.9980025193217,-437.0388402233468) translate(20.275173611111118 16.311848958333332)"/><path d="M1373.5-374a6 6 0 0 1 6-6h4a6 6 0 0 1 6 6v10a6 6 0 0 1-6 6h-4a6 6 0 0 1-6-6z" fill="none"/><use xlink:href="#t" transform="matrix(1,0,0,1,1373.4980025193217,-380) translate(2.9444444444444446 17.77777777777778)"/><path d="M1373.5-314a6 6 0 0 1 6-6h4a6 6 0 0 1 6 6v10a6 6 0 0 1-6 6h-4a6 6 0 0 1-6-6z" fill="none"/><use xlink:href="#u" transform="matrix(1,0,0,1,1373.4980025193217,-320) translate(2.9444444444444446 17.77777777777778)"/><path d="M1373.5-214a6 6 0 0 1 6-6h4a6 6 0 0 1 6 6v10a6 6 0 0 1-6 6h-4a6 6 0 0 1-6-6z" fill="none"/><use xlink:href="#v" transform="matrix(1,0,0,1,1373.4980025193217,-220) translate(2.9444444444444446 17.77777777777778)"/><path d="M1513.5-336.96a6 6 0 0 1 6-6h108a6 6 0 0 1 6 6v28a6 6 0 0 1-6 6h-108a6 6 0 0 1-6-6z" fill="#fff"/><path d="M1514.4-340.1l.24-.4.62-.7.7-.62.4-.24m1.74-.72l.46-.1.94-.08h1.47m1.96 0h2.95m1.96 0h2.95m1.95 0h2.95m1.96 0h2.95m1.97 0h2.95m1.96 0h2.94m1.97 0h2.93m1.97 0h2.94m1.97 0h2.95m1.97 0h2.94m1.97 0h2.94m1.96 0h2.95m1.96 0h2.95m1.95 0h2.95m1.96 0h2.95m1.97 0h2.95m1.96 0h2.94m1.97 0h2.93m1.97 0h2.94m1.97 0h2.95m1.97 0h2.94m1.97 0h1.47l.94.07.45.12m1.72.72l.4.25.72.6.6.7.26.4m.7 1.74l.12.46.08.94v1.4m0 1.87v2.8m0 1.87v2.8m0 1.87v2.8m0 1.87v2.8m0 1.87v2.8m0 1.87v1.4l-.08.94-.1.45m-.72 1.73l-.25.4-.6.72-.72.6-.4.26m-1.74.72l-.46.1-.94.08h-1.47m-1.97 0h-2.94m-1.97 0h-2.94m-1.96 0h-2.94m-1.97 0h-2.94m-1.98 0h-2.94m-1.96 0h-2.95m-1.96 0h-2.94m-1.96 0h-2.95m-1.96 0h-2.96m-1.96 0h-2.95m-1.96 0h-2.94m-1.97 0h-2.94m-1.97 0h-2.94m-1.96 0h-2.94m-1.97 0h-2.94m-1.98 0h-2.94m-1.96 0h-2.95m-1.96 0h-2.94m-1.96 0h-2.95m-1.96 0h-2.96m-1.96 0h-2.95m-1.96 0h-1.47l-.94-.08-.46-.1m-1.73-.72l-.4-.25-.7-.62-.63-.7-.24-.42m-.72-1.73l-.1-.45-.08-.94v-1.4m0-1.87v-2.8m0-1.86v-2.8m0-1.86v-2.8m0-1.87v-2.8m0-1.86v-2.8m0-1.86v-1.4l.07-.94.1-.46" stroke="#fcce14" fill="none"/><use xlink:href="#p" transform="matrix(1,0,0,1,1518.4980025193217,-337.9611597766532) translate(18.209635416666664 20.9765625)"/><path d="M1513.5-234a6 6 0 0 1 6-6h108a6 6 0 0 1 6 6v28a6 6 0 0 1-6 6h-108a6 6 0 0 1-6-6z" fill="#fff"/><path d="M1514.4-237.13l.24-.4.62-.7.7-.62.4-.25m1.74-.72l.46-.1.94-.08h1.47m1.96 0h2.95m1.96 0h2.95m1.95 0h2.95m1.96 0h2.95m1.97 0h2.95m1.96 0h2.94m1.97 0h2.93m1.97 0h2.94m1.97 0h2.95m1.97 0h2.94m1.97 0h2.94m1.96 0h2.95m1.96 0h2.95m1.95 0h2.95m1.96 0h2.95m1.97 0h2.95m1.96 0h2.94m1.97 0h2.93m1.97 0h2.94m1.97 0h2.95m1.97 0h2.94m1.97 0h1.47l.94.07.45.1m1.72.73l.4.25.72.6.6.72.26.4m.7 1.73l.12.46.08.94v1.4m0 1.87v2.8m0 1.86v2.8m0 1.87v2.8m0 1.87v2.8m0 1.86v2.8m0 1.87v1.4l-.08.94-.1.46m-.72 1.72l-.25.4-.6.72-.72.6-.4.26m-1.74.72l-.46.1-.94.08h-1.47m-1.97 0h-2.94m-1.97 0h-2.94m-1.96 0h-2.94m-1.97 0h-2.94m-1.98 0h-2.94m-1.96 0h-2.95m-1.96 0h-2.94m-1.96 0h-2.95m-1.96 0h-2.96m-1.96 0h-2.95m-1.96 0h-2.94m-1.97 0h-2.94m-1.97 0h-2.94m-1.96 0h-2.94m-1.97 0h-2.94m-1.98 0h-2.94m-1.96 0h-2.95m-1.96 0h-2.94m-1.96 0h-2.95m-1.96 0h-2.96m-1.96 0h-2.95m-1.96 0h-1.47l-.94-.07-.46-.1m-1.73-.73l-.4-.25-.7-.6-.63-.72-.24-.4m-.72-1.73l-.1-.46-.08-.94v-1.4m0-1.87v-2.8m0-1.86v-2.8m0-1.87v-2.8m0-1.87v-2.8m0-1.86v-2.8m0-1.87v-1.4l.07-.94.1-.46" stroke="#fcce14" fill="none"/><use xlink:href="#o" transform="matrix(1,0,0,1,1518.4980025193217,-235) translate(16.99544270833333 20.9765625)"/><path d="M1393.5-394a6 6 0 0 1 6-6h108a6 6 0 0 1 6 6v28a6 6 0 0 1-6 6h-108a6 6 0 0 1-6-6z" fill="#fff"/><path d="M1394.4-397.13l.24-.4.62-.7.7-.62.4-.25m1.74-.72l.46-.1.94-.08h1.47m1.96 0h2.95m1.96 0h2.95m1.95 0h2.95m1.96 0h2.95m1.97 0h2.95m1.96 0h2.94m1.97 0h2.93m1.97 0h2.94m1.97 0h2.95m1.97 0h2.94m1.97 0h2.94m1.96 0h2.95m1.96 0h2.95m1.95 0h2.95m1.96 0h2.95m1.97 0h2.95m1.96 0h2.94m1.97 0h2.93m1.97 0h2.94m1.97 0h2.95m1.97 0h2.94m1.97 0h1.47l.94.07.45.1m1.72.73l.4.25.72.6.6.72.26.4m.7 1.73l.12.46.08.94v1.4m0 1.87v2.8m0 1.86v2.8m0 1.87v2.8m0 1.87v2.8m0 1.86v2.8m0 1.87v1.4l-.08.94-.1.46m-.72 1.73l-.25.4-.6.7-.72.62-.4.25m-1.74.72l-.46.1-.94.08h-1.47m-1.97 0h-2.94m-1.97 0h-2.94m-1.96 0h-2.94m-1.97 0h-2.94m-1.98 0h-2.94m-1.96 0h-2.95m-1.96 0h-2.94m-1.96 0h-2.95m-1.96 0h-2.96m-1.96 0h-2.95m-1.96 0h-2.94m-1.97 0h-2.94m-1.97 0h-2.94m-1.96 0h-2.94m-1.97 0h-2.94m-1.98 0h-2.94m-1.96 0h-2.95m-1.96 0h-2.94m-1.96 0h-2.95m-1.96 0h-2.96m-1.96 0h-2.95m-1.96 0h-1.47l-.94-.07-.46-.1m-1.73-.73l-.4-.25-.7-.6-.63-.72-.24-.4m-.72-1.73l-.1-.46-.08-.94v-1.4m0-1.87v-2.8m0-1.86v-2.8m0-1.87v-2.8m0-1.87v-2.8m0-1.86v-2.8m0-1.87v-1.4l.07-.94.1-.46" stroke="#fcce14" fill="none"/><use xlink:href="#k" transform="matrix(1,0,0,1,1398.4980025193217,-395) translate(40.33854166666667 20.9765625)"/><path d="M1513.5-394a6 6 0 0 1 6-6h108a6 6 0 0 1 6 6v28a6 6 0 0 1-6 6h-108a6 6 0 0 1-6-6z" fill="#fff"/><path d="M1514.4-397.13l.24-.4.62-.7.7-.62.4-.25m1.74-.72l.46-.1.94-.08h1.47m1.96 0h2.95m1.96 0h2.95m1.95 0h2.95m1.96 0h2.95m1.97 0h2.95m1.96 0h2.94m1.97 0h2.93m1.97 0h2.94m1.97 0h2.95m1.97 0h2.94m1.97 0h2.94m1.96 0h2.95m1.96 0h2.95m1.95 0h2.95m1.96 0h2.95m1.97 0h2.95m1.96 0h2.94m1.97 0h2.93m1.97 0h2.94m1.97 0h2.95m1.97 0h2.94m1.97 0h1.47l.94.07.45.1m1.72.73l.4.25.72.6.6.72.26.4m.7 1.73l.12.46.08.94v1.4m0 1.87v2.8m0 1.86v2.8m0 1.87v2.8m0 1.87v2.8m0 1.86v2.8m0 1.87v1.4l-.08.94-.1.46m-.72 1.73l-.25.4-.6.7-.72.62-.4.25m-1.74.72l-.46.1-.94.08h-1.47m-1.97 0h-2.94m-1.97 0h-2.94m-1.96 0h-2.94m-1.97 0h-2.94m-1.98 0h-2.94m-1.96 0h-2.95m-1.96 0h-2.94m-1.96 0h-2.95m-1.96 0h-2.96m-1.96 0h-2.95m-1.96 0h-2.94m-1.97 0h-2.94m-1.97 0h-2.94m-1.96 0h-2.94m-1.97 0h-2.94m-1.98 0h-2.94m-1.96 0h-2.95m-1.96 0h-2.94m-1.96 0h-2.95m-1.96 0h-2.96m-1.96 0h-2.95m-1.96 0h-1.47l-.94-.07-.46-.1m-1.73-.73l-.4-.25-.7-.6-.63-.72-.24-.4m-.72-1.73l-.1-.46-.08-.94v-1.4m0-1.87v-2.8m0-1.86v-2.8m0-1.87v-2.8m0-1.87v-2.8m0-1.86v-2.8m0-1.87v-1.4l.07-.94.1-.46" stroke="#fcce14" fill="none"/><use xlink:href="#l" transform="matrix(1,0,0,1,1518.4980025193217,-395) translate(19.928385416666664 20.9765625)"/><path d="M1525-431.04a6 6 0 0 1 6-6h85a6 6 0 0 1 6 6v8a6 6 0 0 1-6 6h-85a6 6 0 0 1-6-6z" fill="none"/><use xlink:href="#m" transform="matrix(1,0,0,1,1524.9980025193217,-437.0388402233468) translate(25.250217013888893 16.311848958333332)"/><path d="M1301.5-379.97l.7.04.8.1.82.1.8.16.8.2.8.2.78.27.8.3.8.33.83.4.83.43.85.5.9.54.88.62.93.7.98.8 1 .92 1.07 1.04 1.12 1.2 1.2 1.37 1.26 1.6 1.38 1.9 1.52 2.28 1.66 2.75 1.86 3.4 2.14 4.3 2.52 5.7 3.16 8 4.56 13.2 19.6 62.43 3.18 8.03 2.52 5.7 2.14 4.3 1.86 3.4 1.66 2.74 1.5 2.27 1.38 1.9 1.28 1.6 1.2 1.4 1.1 1.18.06.05" stroke="#979ea8" stroke-width="2" stroke-linejoin="round" fill="none"/><path d="M1301.55-380.98l-.04 2-1-.02v-2z" stroke="#979ea8" stroke-width=".05" fill="#979ea8"/><path d="M1390.07-225.37l-14.9-1.85 3.94-8.4z" stroke="#979ea8" stroke-width="2" fill="#979ea8"/><path d="M1301.5-220.03l.53-.03.75-.08.74-.1.73-.15.73-.16.74-.2.73-.25.74-.28.73-.3.76-.37.77-.4.8-.46.8-.53.84-.58.87-.67.9-.75.95-.85 1-.98 1.05-1.12 1.12-1.3 1.2-1.5 1.3-1.8 1.4-2.13 1.57-2.6 1.74-3.16 2-4 2.3-5.2 2.8-7.1 3.67-10.58 6.2-20.84 15.76-55.88 3.67-10.57 2.8-7.1 2.3-5.2 2-4 1.73-3.2 1.56-2.56 1.4-2.13 1.3-1.8 1.2-1.5 1.13-1.3.15-.17" stroke="#e81313" stroke-width="2" stroke-linejoin="round" fill="none"/><path d="M1301.55-219.02l-1.05.02v-2l1-.02z" stroke="#e81313" stroke-width=".05" fill="#e81313"/><path d="M1390.1-390.54l-10.63 10.58-4.18-8.28z" stroke="#e81313" stroke-width="2" fill="#e81313"/><path d="M1301.5-323l12.6-.3 9.82-.8 8.4-1.13 10.88-2.13 17.98-3.7 8.4-1.14 4.94-.4" stroke="#979ea8" stroke-width="2" stroke-linejoin="round" fill="none"/><path d="M1301.55-322l-1.05.04v-2l1-.03z" stroke="#979ea8" stroke-width=".05" fill="#979ea8"/><path d="M1389.76-333.2l-14.07 5.2-.37-9.27z" stroke="#979ea8" stroke-width="2" fill="#979ea8"/><path d="M1393.5-285.48a6 6 0 0 1 6-6h108a6 6 0 0 1 6 6v28a6 6 0 0 1-6 6h-108a6 6 0 0 1-6-6z" fill="#fff"/><path d="M1394.4-288.6l.24-.4.62-.72.7-.6.4-.26m1.74-.72l.46-.1.94-.08h1.47m1.96 0h2.95m1.96 0h2.95m1.95 0h2.95m1.96 0h2.95m1.97 0h2.95m1.96 0h2.94m1.97 0h2.93m1.97 0h2.94m1.97 0h2.95m1.97 0h2.94m1.97 0h2.94m1.96 0h2.95m1.96 0h2.95m1.95 0h2.95m1.96 0h2.95m1.97 0h2.95m1.96 0h2.94m1.97 0h2.93m1.97 0h2.94m1.97 0h2.95m1.97 0h2.94m1.97 0h1.47l.94.07.45.1m1.72.72l.4.25.72.6.6.72.26.4m.7 1.72l.12.46.08.94v1.4m0 1.87v2.8m0 1.85v2.8m0 1.87v2.8m0 1.87v2.8m0 1.85v2.8m0 1.87v1.4l-.08.94-.1.46m-.72 1.72l-.25.4-.6.72-.72.6-.4.26m-1.74.72l-.46.1-.94.08h-1.47m-1.97 0h-2.94m-1.97 0h-2.94m-1.96 0h-2.94m-1.97 0h-2.94m-1.98 0h-2.94m-1.96 0h-2.95m-1.96 0h-2.94m-1.96 0h-2.95m-1.96 0h-2.96m-1.96 0h-2.95m-1.96 0h-2.94m-1.97 0h-2.94m-1.97 0h-2.94m-1.96 0h-2.94m-1.97 0h-2.94m-1.98 0h-2.94m-1.96 0h-2.95m-1.96 0h-2.94m-1.96 0h-2.95m-1.96 0h-2.96m-1.96 0h-2.95m-1.96 0h-1.47l-.94-.07-.46-.1m-1.73-.73l-.4-.25-.7-.6-.63-.72-.24-.4m-.72-1.73l-.1-.46-.08-.94v-1.4m0-1.87v-2.8m0-1.86v-2.8m0-1.88v-2.8m0-1.87v-2.8m0-1.86v-2.8m0-1.88v-1.4l.07-.94.1-.46" stroke="#fcce14" fill="none"/><path d="M1513.5-285.48a6 6 0 0 1 6-6h108a6 6 0 0 1 6 6v28a6 6 0 0 1-6 6h-108a6 6 0 0 1-6-6z" fill="#fff"/><path d="M1514.4-288.6l.24-.4.62-.72.7-.6.4-.26m1.74-.72l.46-.1.94-.08h1.47m1.96 0h2.95m1.96 0h2.95m1.95 0h2.95m1.96 0h2.95m1.97 0h2.95m1.96 0h2.94m1.97 0h2.93m1.97 0h2.94m1.97 0h2.95m1.97 0h2.94m1.97 0h2.94m1.96 0h2.95m1.96 0h2.95m1.95 0h2.95m1.96 0h2.95m1.97 0h2.95m1.96 0h2.94m1.97 0h2.93m1.97 0h2.94m1.97 0h2.95m1.97 0h2.94m1.97 0h1.47l.94.07.45.1m1.72.72l.4.25.72.6.6.72.26.4m.7 1.72l.12.46.08.94v1.4m0 1.87v2.8m0 1.85v2.8m0 1.87v2.8m0 1.87v2.8m0 1.85v2.8m0 1.87v1.4l-.08.94-.1.46m-.72 1.72l-.25.4-.6.72-.72.6-.4.26m-1.74.72l-.46.1-.94.08h-1.47m-1.97 0h-2.94m-1.97 0h-2.94m-1.96 0h-2.94m-1.97 0h-2.94m-1.98 0h-2.94m-1.96 0h-2.95m-1.96 0h-2.94m-1.96 0h-2.95m-1.96 0h-2.96m-1.96 0h-2.95m-1.96 0h-2.94m-1.97 0h-2.94m-1.97 0h-2.94m-1.96 0h-2.94m-1.97 0h-2.94m-1.98 0h-2.94m-1.96 0h-2.95m-1.96 0h-2.94m-1.96 0h-2.95m-1.96 0h-2.96m-1.96 0h-2.95m-1.96 0h-1.47l-.94-.07-.46-.1m-1.73-.73l-.4-.25-.7-.6-.63-.72-.24-.4m-.72-1.73l-.1-.46-.08-.94v-1.4m0-1.87v-2.8m0-1.86v-2.8m0-1.88v-2.8m0-1.87v-2.8m0-1.86v-2.8m0-1.88v-1.4l.07-.94.1-.46" stroke="#fcce14" fill="none"/><path d="M1180-285.48a6 6 0 0 1 6-6h108a6 6 0 0 1 6 6v28a6 6 0 0 1-6 6h-108a6 6 0 0 1-6-6z" fill="#fff"/><path d="M1180.9-288.6l.25-.4.6-.72.72-.6.4-.26m1.73-.72l.46-.1.94-.08h1.47m1.97 0h2.94m1.96 0h2.95m1.96 0h2.94m1.96 0h2.95m1.97 0h2.95m1.96 0h2.95m1.96 0h2.94m1.96 0h2.94m1.97 0h2.95m1.97 0h2.94m1.97 0h2.94m1.97 0h2.94m1.96 0h2.95m1.96 0h2.94m1.96 0h2.95m1.97 0h2.95m1.96 0h2.95m1.96 0h2.94m1.96 0h2.94m1.97 0h2.95m1.97 0h2.94m1.97 0h1.47l.94.07.46.1m1.72.72l.4.25.72.6.6.72.26.4m.72 1.72l.1.46.08.94v1.4m0 1.87v2.8m0 1.85v2.8m0 1.87v2.8m0 1.87v2.8m0 1.85v2.8m0 1.87v1.4l-.07.94-.1.46m-.73 1.72l-.25.4-.6.72-.72.6-.4.26m-1.73.72l-.46.1-.94.08h-1.47m-1.97 0h-2.94m-1.96 0h-2.95m-1.96 0h-2.94m-1.96 0h-2.95m-1.97 0h-2.95m-1.96 0h-2.95m-1.96 0h-2.94m-1.96 0h-2.94m-1.97 0h-2.95m-1.97 0h-2.94m-1.97 0h-2.94m-1.97 0h-2.94m-1.96 0h-2.95m-1.96 0h-2.94m-1.96 0h-2.95m-1.97 0h-2.95m-1.96 0h-2.95m-1.96 0h-2.94m-1.96 0h-2.94m-1.97 0h-2.95m-1.97 0h-2.94m-1.97 0H1186l-.94-.07-.46-.1m-1.72-.73l-.4-.25-.72-.6-.6-.72-.26-.4m-.72-1.73l-.1-.46-.08-.94v-1.4m0-1.87v-2.8m0-1.86v-2.8m0-1.88v-2.8m0-1.87v-2.8m0-1.86v-2.8m0-1.88v-1.4l.07-.94.1-.46" stroke="#d916a8" fill="none"/><use xlink:href="#n" transform="matrix(1,0,0,1,1185,-286.4805798883266) translate(18.623046874999993 20.9765625)"/><path d="M1301.5-271.5l1.92-.06 2.7-.22 2.53-.34 2.4-.46 2.28-.56 2.2-.68 2.15-.8 2.12-.9 2.1-1.04 2.13-1.2 2.17-1.38 2.26-1.63 2.42-1.94 2.68-2.4 3.18-3.18 4.5-5.03 15.52-18.4 3.17-3.17 2.68-2.4 2.43-1.94 2.27-1.64 2.17-1.38 2.13-1.2 2.1-1.04 1.26-.54" stroke="#008a0e" stroke-width="2" stroke-linejoin="round" fill="none"/><path d="M1301.55-270.5l-1.05.02v-2l1-.03z" stroke="#008a0e" stroke-width=".05" fill="#008a0e"/><path d="M1389.82-327.88l-13.12 7.26-1.77-9.1z" stroke="#008a0e" stroke-width="2" fill="#008a0e"/><path d="M1660.37-297.78a5.18 5.18 0 0 1 5.27-5.1l31.73.54a6 6 0 0 0 6.1-5.9l.08-5.04a2.5 2.5 0 0 1 4.28-1.7l13.58 14a5.98 5.98 0 0 1-.13 8.46L1707.23-279a2.5 2.5 0 0 1-4.22-1.84l.1-5.04a6 6 0 0 0-5.9-6.1l-31.73-.53a5.18 5.18 0 0 1-5.1-5.28z" fill-opacity="0"/><path d="M1661.37-297.76c0 .55-.46 1-1 .98-.57 0-1-.46-1-1.02 0-.55.47-1 1.02-.98.54 0 .98.46.97 1.02zm1.58-3.64c0 .55-.46 1-1 .98-.57 0-1-.46-1-1.02 0-.55.47-1 1.02-.98.55 0 1 .47.98 1.02zm3.7-1.46c-.02.55-.47 1-1.03.98-.55 0-1-.46-.98-1 0-.56.47-1 1.02-1s1 .47.98 1.02zm3.96.07c0 .56-.46 1-1 1-.56-.02-1-.47-1-1.03.02-.55.47-1 1.02-.98.56 0 1 .46 1 1zm3.97.07c0 .56-.46 1-1 1-.57-.02-1-.48-1-1.03s.47-1 1.02-.98c.54 0 .98.46.97 1zm3.97.07c0 .55-.47 1-1.02.98-.55 0-1-.46-.98-1 0-.56.46-1 1.02-1 .55 0 1 .47.98 1.02zm3.96.07c0 .56-.46 1-1 1-.56-.02-1-.47-1-1.03 0-.55.47-1 1.02-.98.55 0 1 .46.98 1zm3.97.07c0 .56-.46 1-1.02 1-.55-.02-1-.48-.98-1.03 0-.55.46-1 1.02-.98.54 0 .98.46.97 1zm3.97.07c0 .55-.47 1-1.02.98-.55 0-1-.46-.98-1 0-.56.46-1 1-1 .57 0 1 .47 1 1.02zm3.96.07c0 .56-.46 1-1 1-.57-.02-1-.47-1-1.03 0-.55.47-1 1.02-.98.55 0 1 .46.98 1zm3.97.07c0 .56-.47 1-1.02 1-.55-.02-1-.48-.98-1.03 0-.55.46-1 1-.98.57 0 1 .46 1 1zm4.27-1.68c0 .54-.47.98-1.02.97-.55 0-1-.46-.98-1.02 0-.55.46-1 1.02-.98.55 0 1 .47.98 1.02zm1.83-4.23c0 .56-.47 1-1.02 1-.55-.02-1-.48-.98-1.03 0-.55.46-1 1-.98.57 0 1 .46 1 1zm.08-5.03c0 .55-.46 1-1.02.98-.55 0-1-.47-.98-1.02 0-.55.47-1 1.02-.98.55 0 1 .46.98 1.02zm4.28-1.7c0 .55-.46 1-1 .98-.57 0-1-.46-1-1 0-.57.47-1 1.02-1s1 .47.98 1.02zm2.72 2.8c0 .55-.47 1-1.02.98-.55 0-1-.46-.98-1.02 0-.55.46-1 1-.98.57 0 1 .47 1 1.02zm2.7 2.8c0 .55-.45 1-1 .98-.56 0-1-.47-1-1.02.02-.55.48-1 1.03-.98.55 0 1 .46.98 1.02zm2.73 2.8c0 .54-.47.98-1.02.98s-1-.47-.98-1.02c0-.55.46-1 1.02-.98.55 0 1 .46.98 1zm2.7 2.8c0 .54-.45.98-1 .97-.55 0-1-.45-1-1 .02-.56.48-1 1.03-1 .56.02 1 .48 1 1.03zm2.73 2.8c0 .54-.45.98-1 .97-.56 0-1-.46-1-1 .02-.56.47-1 1.03-1 .55.02 1 .47.98 1.03zm1.7 4.25c0 .54-.47.98-1.02.97-.55 0-1-.46-.98-1 0-.57.46-1 1-1 .57 0 1 .47 1 1.02zm-1.83 4.2c0 .54-.47.98-1.02.98s-1-.47-.98-1.02c0-.55.46-1 1-.98.57 0 1 .46 1 1zm-2.8 2.7c-.02.55-.47 1-1.03.98-.55 0-1-.46-.98-1.02 0-.55.47-1 1.02-.98.55 0 1 .46.98 1.02zm-2.82 2.7c0 .55-.46 1-1 .98-.57 0-1-.46-1-1 0-.57.47-1 1.02-1s1 .47.98 1.02zm-2.8 2.7c0 .56-.47 1-1.02 1-.55-.02-1-.48-.98-1.03 0-.55.46-1 1-.98.56 0 1 .45 1 1zm-2.8 2.7c-.02.56-.48 1-1.03 1-.55-.02-1-.47-.98-1.02 0-.56.46-1 1-1 .57.02 1 .48 1 1.03zm-2.82 2.7c0 .57-.47 1-1.02 1-.54 0-.98-.47-.97-1.02 0-.55.46-1 1.02-.98.55 0 1 .46.98 1zm-4.22-1.82c0 .55-.46 1-1 .98-.56 0-1-.46-1-1.02.02-.55.47-1 1.03-.98.55 0 1 .47.98 1.02zm.1-5.04c-.02.55-.47 1-1.02.98-.56 0-1-.46-1-1.02.02-.55.48-1 1.03-.98.56 0 1 .46 1 1.02zm-1.7-4.27c0 .55-.46 1-1 .98-.56 0-1-.47-1-1.02.02-.55.47-1 1.02-.98.56 0 1 .46 1 1.02zm-4.2-1.83c-.02.55-.47 1-1.02.98-.56 0-1-.46-1-1.02.02-.55.48-1 1.03-.98.56 0 1 .47 1 1.02zm-3.97-.07c0 .55-.47 1-1.02.98-.54 0-.98-.46-.97-1 0-.56.46-1 1-1 .57 0 1 .47 1 1.02zm-3.97-.07c0 .56-.46 1-1 1-.57-.02-1-.48-1-1.03s.47-1 1.02-.98c.55 0 1 .45.98 1zm-3.96-.06c0 .55-.47 1-1.02.98-.55 0-1-.46-.98-1.02 0-.55.46-1 1-.98.57 0 1 .47 1 1.02zm-3.97-.07c0 .55-.46 1-1.02.98-.54 0-.98-.46-.97-1 0-.56.47-1 1.02-1s1 .47.98 1.02zm-3.96-.07c0 .56-.47 1-1.02 1-.55-.02-1-.48-.98-1.03 0-.55.46-1 1-.98.56 0 1 .45 1 1zm-3.97-.06c0 .55-.47 1-1.02.98-.55 0-1-.46-.98-1.02 0-.55.46-1 1.02-.98.55 0 1 .47.98 1.02zm-3.97-.07c0 .55-.46 1-1 .98-.57 0-1-.46-1-1 0-.56.47-1 1.02-1s1 .47.98 1.02zm-3.96-.06c0 .56-.47 1-1.02 1-.55-.02-1-.48-.98-1.03 0-.55.46-1 1-.98.57 0 1 .45 1 1zm-3.64-1.57c0 .55-.47 1-1.02.98-.54 0-.98-.45-.97-1 0-.56.46-1 1.02-1 .55.02 1 .47.98 1.03zm-1.46-3.7c0 .56-.46 1-1 1-.57-.02-1-.47-1-1.03 0-.55.47-1 1.02-.98.54 0 .98.46.97 1.02z" fill="#d916a8"/><path d="M1744.73-394a6 6 0 0 1 6-6h108a6 6 0 0 1 6 6v28a6 6 0 0 1-6 6h-108a6 6 0 0 1-6-6z" fill="#fff"/><path d="M1745.63-397.13l.25-.4.6-.7.73-.62.4-.25m1.74-.72l.45-.1.93-.08h1.47m1.97 0h2.94m1.98 0h2.94m1.97 0h2.93m1.97 0h2.94m1.97 0h2.95m1.96 0h2.96m1.96 0h2.95m1.96 0h2.95m1.96 0h2.95m1.95 0h2.95m1.96 0h2.94m1.97 0h2.94m1.98 0h2.94m1.97 0h2.93m1.97 0h2.94m1.97 0h2.95m1.96 0h2.96m1.96 0h2.95m1.96 0h2.95m1.96 0h2.95m1.95 0h2.95m1.96 0h1.47l.94.07.46.1m1.73.73l.4.25.7.6.63.72.23.4m.72 1.73l.1.46.08.94v1.4m0 1.87v2.8m0 1.86v2.8m0 1.87v2.8m0 1.87v2.8m0 1.86v2.8m0 1.87v1.4l-.07.94-.1.46m-.73 1.73l-.24.4-.63.7-.7.62-.4.25m-1.74.72l-.46.1-.94.08h-1.47m-1.96 0h-2.95m-1.96 0h-2.96m-1.96 0h-2.95m-1.96 0h-2.95m-1.96 0h-2.95m-1.95 0h-2.94m-1.96 0h-2.94m-1.97 0H1818m-1.98 0h-2.94m-1.97 0h-2.93m-1.97 0h-2.94m-1.96 0h-2.95m-1.96 0h-2.96m-1.96 0h-2.95m-1.96 0h-2.95m-1.96 0h-2.95m-1.95 0h-2.94m-1.96 0h-2.94m-1.97 0H1764m-1.98 0h-2.94m-1.97 0h-2.93m-1.97 0h-1.47l-.94-.07-.46-.1m-1.73-.73l-.4-.25-.7-.6-.62-.72-.25-.4m-.7-1.73l-.12-.46-.07-.94v-1.4m0-1.87v-2.8m0-1.86v-2.8m0-1.87v-2.8m0-1.87v-2.8m0-1.86v-2.8m0-1.87v-1.4l.08-.94.12-.46" stroke="#d916a8" fill="none"/><use xlink:href="#o" transform="matrix(1,0,0,1,1749.7322717470388,-395) translate(16.99544270833333 20.9765625)"/><path d="M1744.73-336.96a6 6 0 0 1 6-6h108a6 6 0 0 1 6 6v28a6 6 0 0 1-6 6h-108a6 6 0 0 1-6-6z" fill="#fff"/><path d="M1745.63-340.1l.25-.4.6-.7.73-.62.4-.24m1.74-.72l.45-.1.93-.08h1.47m1.97 0h2.94m1.98 0h2.94m1.97 0h2.93m1.97 0h2.94m1.97 0h2.95m1.96 0h2.96m1.96 0h2.95m1.96 0h2.95m1.96 0h2.95m1.95 0h2.95m1.96 0h2.94m1.97 0h2.94m1.98 0h2.94m1.97 0h2.93m1.97 0h2.94m1.97 0h2.95m1.96 0h2.96m1.96 0h2.95m1.96 0h2.95m1.96 0h2.95m1.95 0h2.95m1.96 0h1.47l.94.07.46.12m1.73.72l.4.25.7.6.63.7.23.4m.72 1.74l.1.46.08.94v1.4m0 1.87v2.8m0 1.87v2.8m0 1.87v2.8m0 1.87v2.8m0 1.87v2.8m0 1.87v1.4l-.07.94-.1.45m-.73 1.73l-.24.4-.63.72-.7.6-.4.26m-1.74.72l-.46.1-.94.08h-1.47m-1.96 0h-2.95m-1.96 0h-2.96m-1.96 0h-2.95m-1.96 0h-2.95m-1.96 0h-2.95m-1.95 0h-2.94m-1.96 0h-2.94m-1.97 0H1818m-1.98 0h-2.94m-1.97 0h-2.93m-1.97 0h-2.94m-1.96 0h-2.95m-1.96 0h-2.96m-1.96 0h-2.95m-1.96 0h-2.95m-1.96 0h-2.95m-1.95 0h-2.94m-1.96 0h-2.94m-1.97 0H1764m-1.98 0h-2.94m-1.97 0h-2.93m-1.97 0h-1.47l-.94-.08-.46-.1m-1.73-.72l-.4-.25-.7-.62-.62-.7-.25-.42m-.7-1.73l-.12-.45-.07-.94v-1.4m0-1.87v-2.8m0-1.86v-2.8m0-1.86v-2.8m0-1.87v-2.8m0-1.86v-2.8m0-1.86v-1.4l.08-.94.12-.46" stroke="#d916a8" fill="none"/><use xlink:href="#p" transform="matrix(1,0,0,1,1749.7322717470388,-337.9611597766532) translate(18.209635416666664 20.9765625)"/><path d="M1744.73-234a6 6 0 0 1 6-6h108a6 6 0 0 1 6 6v28a6 6 0 0 1-6 6h-108a6 6 0 0 1-6-6z" fill="#fff"/><path d="M1745.63-237.13l.25-.4.6-.7.73-.62.4-.25m1.74-.72l.45-.1.93-.08h1.47m1.97 0h2.94m1.98 0h2.94m1.97 0h2.93m1.97 0h2.94m1.97 0h2.95m1.96 0h2.96m1.96 0h2.95m1.96 0h2.95m1.96 0h2.95m1.95 0h2.95m1.96 0h2.94m1.97 0h2.94m1.98 0h2.94m1.97 0h2.93m1.97 0h2.94m1.97 0h2.95m1.96 0h2.96m1.96 0h2.95m1.96 0h2.95m1.96 0h2.95m1.95 0h2.95m1.96 0h1.47l.94.07.46.1m1.73.73l.4.25.7.6.63.72.23.4m.72 1.73l.1.46.08.94v1.4m0 1.87v2.8m0 1.86v2.8m0 1.87v2.8m0 1.87v2.8m0 1.86v2.8m0 1.87v1.4l-.07.94-.1.46m-.73 1.72l-.24.4-.63.72-.7.6-.4.26m-1.74.72l-.46.1-.94.08h-1.47m-1.96 0h-2.95m-1.96 0h-2.96m-1.96 0h-2.95m-1.96 0h-2.95m-1.96 0h-2.95m-1.95 0h-2.94m-1.96 0h-2.94m-1.97 0H1818m-1.98 0h-2.94m-1.97 0h-2.93m-1.97 0h-2.94m-1.96 0h-2.95m-1.96 0h-2.96m-1.96 0h-2.95m-1.96 0h-2.95m-1.96 0h-2.95m-1.95 0h-2.94m-1.96 0h-2.94m-1.97 0H1764m-1.98 0h-2.94m-1.97 0h-2.93m-1.97 0h-1.47l-.94-.07-.46-.1m-1.73-.73l-.4-.25-.7-.6-.62-.72-.25-.4m-.7-1.73l-.12-.46-.07-.94v-1.4m0-1.87v-2.8m0-1.86v-2.8m0-1.87v-2.8m0-1.87v-2.8m0-1.86v-2.8m0-1.87v-1.4l.08-.94.12-.46" stroke="#d916a8" fill="none"/><use xlink:href="#l" transform="matrix(1,0,0,1,1749.7322717470388,-235) translate(19.928385416666664 20.9765625)"/><path d="M1958.23-336.96a6 6 0 0 1 6-6h108a6 6 0 0 1 6 6v28a6 6 0 0 1-6 6h-108a6 6 0 0 1-6-6z" fill="#fff"/><path d="M1959.13-340.1l.25-.4.6-.7.72-.62.4-.24m1.73-.72l.46-.1.93-.08h1.47m1.97 0h2.94m1.98 0h2.94m1.96 0h2.95m1.96 0h2.94m1.96 0h2.95m1.96 0h2.96m1.96 0h2.95m1.96 0h2.95m1.96 0h2.94m1.97 0h2.94m1.96 0h2.94m1.97 0h2.94m1.98 0h2.94m1.96 0h2.95m1.96 0h2.94m1.96 0h2.95m1.96 0h2.96m1.96 0h2.95m1.96 0h2.95m1.96 0h2.95m1.95 0h2.94m1.96 0h1.47l.94.07.46.12m1.73.72l.4.25.7.6.62.7.25.4m.72 1.74l.1.46.08.94v1.4m0 1.87v2.8m0 1.87v2.8m0 1.87v2.8m0 1.87v2.8m0 1.87v2.8m0 1.87v1.4l-.07.94-.1.45m-.73 1.73l-.25.4-.6.72-.72.6-.4.26m-1.73.72l-.46.1-.94.08h-1.47m-1.97 0h-2.95m-1.96 0h-2.96m-1.96 0h-2.95m-1.96 0h-2.95m-1.96 0h-2.95m-1.95 0h-2.95m-1.96 0h-2.95m-1.97 0h-2.95m-1.96 0h-2.94m-1.97 0h-2.93m-1.97 0h-2.94m-1.97 0h-2.95m-1.96 0h-2.96m-1.96 0h-2.95m-1.96 0h-2.95m-1.96 0h-2.95m-1.95 0h-2.95m-1.96 0h-2.95m-1.97 0h-2.95m-1.96 0h-2.94m-1.97 0h-2.93m-1.97 0h-1.47l-.94-.08-.47-.1m-1.72-.72l-.4-.25-.7-.62-.62-.7-.25-.42m-.72-1.73l-.1-.45-.07-.94v-1.4m0-1.87v-2.8m0-1.86v-2.8m0-1.86v-2.8m0-1.87v-2.8m0-1.86v-2.8m0-1.86v-1.4l.07-.94.1-.46" stroke="#fcce14" fill="none"/><use xlink:href="#k" transform="matrix(1,0,0,1,1963.2302742663605,-337.9611597766532) translate(40.33854166666667 20.9765625)"/><path d="M1958.23-234a6 6 0 0 1 6-6h108a6 6 0 0 1 6 6v28a6 6 0 0 1-6 6h-108a6 6 0 0 1-6-6z" fill="#fff"/><path d="M1959.13-237.13l.25-.4.6-.7.72-.62.4-.25m1.73-.72l.46-.1.93-.08h1.47m1.97 0h2.94m1.98 0h2.94m1.96 0h2.95m1.96 0h2.94m1.96 0h2.95m1.96 0h2.96m1.96 0h2.95m1.96 0h2.95m1.96 0h2.94m1.97 0h2.94m1.96 0h2.94m1.97 0h2.94m1.98 0h2.94m1.96 0h2.95m1.96 0h2.94m1.96 0h2.95m1.96 0h2.96m1.96 0h2.95m1.96 0h2.95m1.96 0h2.95m1.95 0h2.94m1.96 0h1.47l.94.07.46.1m1.73.73l.4.25.7.6.62.72.25.4m.72 1.73l.1.46.08.94v1.4m0 1.87v2.8m0 1.86v2.8m0 1.87v2.8m0 1.87v2.8m0 1.86v2.8m0 1.87v1.4l-.07.94-.1.46m-.73 1.72l-.25.4-.6.72-.72.6-.4.26m-1.73.72l-.46.1-.94.08h-1.47m-1.97 0h-2.95m-1.96 0h-2.96m-1.96 0h-2.95m-1.96 0h-2.95m-1.96 0h-2.95m-1.95 0h-2.95m-1.96 0h-2.95m-1.97 0h-2.95m-1.96 0h-2.94m-1.97 0h-2.93m-1.97 0h-2.94m-1.97 0h-2.95m-1.96 0h-2.96m-1.96 0h-2.95m-1.96 0h-2.95m-1.96 0h-2.95m-1.95 0h-2.95m-1.96 0h-2.95m-1.97 0h-2.95m-1.96 0h-2.94m-1.97 0h-2.93m-1.97 0h-1.47l-.94-.07-.47-.1m-1.72-.73l-.4-.25-.7-.6-.62-.72-.25-.4m-.72-1.73l-.1-.46-.07-.94v-1.4m0-1.87v-2.8m0-1.86v-2.8m0-1.87v-2.8m0-1.87v-2.8m0-1.86v-2.8m0-1.87v-1.4l.07-.94.1-.46" stroke="#fcce14" fill="none"/><use xlink:href="#q" transform="matrix(1,0,0,1,1963.2302742663605,-235) translate(38.505859375 20.9765625)"/><path d="M1756.23-431.04a6 6 0 0 1 6-6h85a6 6 0 0 1 6 6v8a6 6 0 0 1-6 6h-85a6 6 0 0 1-6-6z" fill="none"/><use xlink:href="#r" transform="matrix(1,0,0,1,1756.2322717470388,-437.0388402233468) translate(25.250217013888893 16.311848958333332)"/><path d="M1969.73-431.04a6 6 0 0 1 6-6h85a6 6 0 0 1 6 6v8a6 6 0 0 1-6 6h-85a6 6 0 0 1-6-6z" fill="none"/><use xlink:href="#s" transform="matrix(1,0,0,1,1969.7302742663605,-437.0388402233468) translate(20.275173611111118 16.311848958333332)"/><path d="M1938.23-374a6 6 0 0 1 6-6h4a6 6 0 0 1 6 6v10a6 6 0 0 1-6 6h-4a6 6 0 0 1-6-6z" fill="none"/><use xlink:href="#t" transform="matrix(1,0,0,1,1938.2302742663605,-380) translate(2.9444444444444446 17.77777777777778)"/><path d="M1938.23-314a6 6 0 0 1 6-6h4a6 6 0 0 1 6 6v10a6 6 0 0 1-6 6h-4a6 6 0 0 1-6-6z" fill="none"/><use xlink:href="#u" transform="matrix(1,0,0,1,1938.2302742663605,-320) translate(2.9444444444444446 17.77777777777778)"/><path d="M1938.23-214a6 6 0 0 1 6-6h4a6 6 0 0 1 6 6v10a6 6 0 0 1-6 6h-4a6 6 0 0 1-6-6z" fill="none"/><use xlink:href="#v" transform="matrix(1,0,0,1,1938.2302742663605,-220) translate(2.9444444444444446 17.77777777777778)"/><path d="M2078.23-336.96a6 6 0 0 1 6-6h108a6 6 0 0 1 6 6v28a6 6 0 0 1-6 6h-108a6 6 0 0 1-6-6z" fill="#fff"/><path d="M2079.13-340.1l.25-.4.6-.7.72-.62.4-.24m1.73-.72l.46-.1.93-.08h1.47m1.97 0h2.94m1.98 0h2.94m1.97 0h2.93m1.96 0h2.94m1.96 0h2.95m1.96 0h2.96m1.96 0h2.95m1.96 0h2.95m1.96 0h2.95m1.95 0h2.94m1.96 0h2.94m1.97 0h2.94m1.98 0h2.94m1.97 0h2.93m1.96 0h2.94m1.96 0h2.95m1.96 0h2.96m1.96 0h2.95m1.96 0h2.95m1.96 0h2.95m1.95 0h2.94m1.96 0h1.47l.94.07.46.12m1.73.72l.4.25.7.6.62.7.25.4m.72 1.74l.1.46.08.94v1.4m0 1.87v2.8m0 1.87v2.8m0 1.87v2.8m0 1.87v2.8m0 1.87v2.8m0 1.87v1.4l-.07.94-.1.45m-.73 1.73l-.25.4-.6.72-.72.6-.4.26m-1.73.72l-.46.1-.94.08h-1.47m-1.97 0h-2.95m-1.96 0h-2.96m-1.96 0h-2.95m-1.96 0h-2.95m-1.96 0h-2.95m-1.95 0h-2.95m-1.96 0h-2.95m-1.97 0h-2.94m-1.98 0h-2.94m-1.97 0h-2.93m-1.97 0h-2.94m-1.97 0h-2.95m-1.96 0h-2.96m-1.96 0h-2.95m-1.96 0h-2.95m-1.96 0h-2.95m-1.95 0h-2.95m-1.96 0h-2.95m-1.97 0h-2.94m-1.98 0h-2.94m-1.97 0h-2.93m-1.97 0h-1.47l-.94-.08-.47-.1m-1.72-.72l-.4-.25-.7-.62-.62-.7-.25-.42m-.72-1.73l-.1-.45-.07-.94v-1.4m0-1.87v-2.8m0-1.86v-2.8m0-1.86v-2.8m0-1.87v-2.8m0-1.86v-2.8m0-1.86v-1.4l.07-.94.1-.46" stroke="#fcce14" fill="none"/><use xlink:href="#p" transform="matrix(1,0,0,1,2083.2302742663605,-337.9611597766532) translate(18.209635416666664 20.9765625)"/><path d="M2078.23-234a6 6 0 0 1 6-6h108a6 6 0 0 1 6 6v28a6 6 0 0 1-6 6h-108a6 6 0 0 1-6-6z" fill="#fff"/><path d="M2079.13-237.13l.25-.4.6-.7.72-.62.4-.25m1.73-.72l.46-.1.93-.08h1.47m1.97 0h2.94m1.98 0h2.94m1.97 0h2.93m1.96 0h2.94m1.96 0h2.95m1.96 0h2.96m1.96 0h2.95m1.96 0h2.95m1.96 0h2.95m1.95 0h2.94m1.96 0h2.94m1.97 0h2.94m1.98 0h2.94m1.97 0h2.93m1.96 0h2.94m1.96 0h2.95m1.96 0h2.96m1.96 0h2.95m1.96 0h2.95m1.96 0h2.95m1.95 0h2.94m1.96 0h1.47l.94.07.46.1m1.73.73l.4.25.7.6.62.72.25.4m.72 1.73l.1.46.08.94v1.4m0 1.87v2.8m0 1.86v2.8m0 1.87v2.8m0 1.87v2.8m0 1.86v2.8m0 1.87v1.4l-.07.94-.1.46m-.73 1.72l-.25.4-.6.72-.72.6-.4.26m-1.73.72l-.46.1-.94.08h-1.47m-1.97 0h-2.95m-1.96 0h-2.96m-1.96 0h-2.95m-1.96 0h-2.95m-1.96 0h-2.95m-1.95 0h-2.95m-1.96 0h-2.95m-1.97 0h-2.94m-1.98 0h-2.94m-1.97 0h-2.93m-1.97 0h-2.94m-1.97 0h-2.95m-1.96 0h-2.96m-1.96 0h-2.95m-1.96 0h-2.95m-1.96 0h-2.95m-1.95 0h-2.95m-1.96 0h-2.95m-1.97 0h-2.94m-1.98 0h-2.94m-1.97 0h-2.93m-1.97 0h-1.47l-.94-.07-.47-.1m-1.72-.73l-.4-.25-.7-.6-.62-.72-.25-.4m-.72-1.73l-.1-.46-.07-.94v-1.4m0-1.87v-2.8m0-1.86v-2.8m0-1.87v-2.8m0-1.87v-2.8m0-1.86v-2.8m0-1.87v-1.4l.07-.94.1-.46" stroke="#fcce14" fill="none"/><use xlink:href="#o" transform="matrix(1,0,0,1,2083.2302742663605,-235) translate(16.99544270833333 20.9765625)"/><path d="M1958.23-394a6 6 0 0 1 6-6h108a6 6 0 0 1 6 6v28a6 6 0 0 1-6 6h-108a6 6 0 0 1-6-6z" fill="#fff"/><path d="M1959.13-397.13l.25-.4.6-.7.72-.62.4-.25m1.73-.72l.46-.1.93-.08h1.47m1.97 0h2.94m1.98 0h2.94m1.96 0h2.95m1.96 0h2.94m1.96 0h2.95m1.96 0h2.96m1.96 0h2.95m1.96 0h2.95m1.96 0h2.94m1.97 0h2.94m1.96 0h2.94m1.97 0h2.94m1.98 0h2.94m1.96 0h2.95m1.96 0h2.94m1.96 0h2.95m1.96 0h2.96m1.96 0h2.95m1.96 0h2.95m1.96 0h2.95m1.95 0h2.94m1.96 0h1.47l.94.07.46.1m1.73.73l.4.25.7.6.62.72.25.4m.72 1.73l.1.46.08.94v1.4m0 1.87v2.8m0 1.86v2.8m0 1.87v2.8m0 1.87v2.8m0 1.86v2.8m0 1.87v1.4l-.07.94-.1.46m-.73 1.73l-.25.4-.6.7-.72.62-.4.25m-1.73.72l-.46.1-.94.08h-1.47m-1.97 0h-2.95m-1.96 0h-2.96m-1.96 0h-2.95m-1.96 0h-2.95m-1.96 0h-2.95m-1.95 0h-2.95m-1.96 0h-2.95m-1.97 0h-2.95m-1.96 0h-2.94m-1.97 0h-2.93m-1.97 0h-2.94m-1.97 0h-2.95m-1.96 0h-2.96m-1.96 0h-2.95m-1.96 0h-2.95m-1.96 0h-2.95m-1.95 0h-2.95m-1.96 0h-2.95m-1.97 0h-2.95m-1.96 0h-2.94m-1.97 0h-2.93m-1.97 0h-1.47l-.94-.07-.47-.1m-1.72-.73l-.4-.25-.7-.6-.62-.72-.25-.4m-.72-1.73l-.1-.46-.07-.94v-1.4m0-1.87v-2.8m0-1.86v-2.8m0-1.87v-2.8m0-1.87v-2.8m0-1.86v-2.8m0-1.87v-1.4l.07-.94.1-.46" stroke="#fcce14" fill="none"/><use xlink:href="#k" transform="matrix(1,0,0,1,1963.2302742663605,-395) translate(40.33854166666667 20.9765625)"/><path d="M2078.23-394a6 6 0 0 1 6-6h108a6 6 0 0 1 6 6v28a6 6 0 0 1-6 6h-108a6 6 0 0 1-6-6z" fill="#fff"/><path d="M2079.13-397.13l.25-.4.6-.7.72-.62.4-.25m1.73-.72l.46-.1.93-.08h1.47m1.97 0h2.94m1.98 0h2.94m1.97 0h2.93m1.96 0h2.94m1.96 0h2.95m1.96 0h2.96m1.96 0h2.95m1.96 0h2.95m1.96 0h2.95m1.95 0h2.94m1.96 0h2.94m1.97 0h2.94m1.98 0h2.94m1.97 0h2.93m1.96 0h2.94m1.96 0h2.95m1.96 0h2.96m1.96 0h2.95m1.96 0h2.95m1.96 0h2.95m1.95 0h2.94m1.96 0h1.47l.94.07.46.1m1.73.73l.4.25.7.6.62.72.25.4m.72 1.73l.1.46.08.94v1.4m0 1.87v2.8m0 1.86v2.8m0 1.87v2.8m0 1.87v2.8m0 1.86v2.8m0 1.87v1.4l-.07.94-.1.46m-.73 1.73l-.25.4-.6.7-.72.62-.4.25m-1.73.72l-.46.1-.94.08h-1.47m-1.97 0h-2.95m-1.96 0h-2.96m-1.96 0h-2.95m-1.96 0h-2.95m-1.96 0h-2.95m-1.95 0h-2.95m-1.96 0h-2.95m-1.97 0h-2.94m-1.98 0h-2.94m-1.97 0h-2.93m-1.97 0h-2.94m-1.97 0h-2.95m-1.96 0h-2.96m-1.96 0h-2.95m-1.96 0h-2.95m-1.96 0h-2.95m-1.95 0h-2.95m-1.96 0h-2.95m-1.97 0h-2.94m-1.98 0h-2.94m-1.97 0h-2.93m-1.97 0h-1.47l-.94-.07-.47-.1m-1.72-.73l-.4-.25-.7-.6-.62-.72-.25-.4m-.72-1.73l-.1-.46-.07-.94v-1.4m0-1.87v-2.8m0-1.86v-2.8m0-1.87v-2.8m0-1.87v-2.8m0-1.86v-2.8m0-1.87v-1.4l.07-.94.1-.46" stroke="#fcce14" fill="none"/><use xlink:href="#l" transform="matrix(1,0,0,1,2083.2302742663605,-395) translate(19.928385416666664 20.9765625)"/><path d="M2089.73-431.04a6 6 0 0 1 6-6h85a6 6 0 0 1 6 6v8a6 6 0 0 1-6 6h-85a6 6 0 0 1-6-6z" fill="none"/><use xlink:href="#m" transform="matrix(1,0,0,1,2089.7302742663605,-437.0388402233468) translate(25.250217013888893 16.311848958333332)"/><path d="M1866.23-379.97l.7.04.8.1.82.1.8.16.8.2.8.2.8.27.8.3.8.33.8.4.85.43.85.5.87.54.9.62.93.7.96.8 1.02.92 1.06 1.04 1.12 1.2 1.2 1.37 1.27 1.6 1.38 1.9 1.5 2.28 1.66 2.75 1.87 3.4 2.14 4.3 2.53 5.7 3.17 8 4.55 13.2 19.62 62.43 3.16 8.03 2.52 5.7 2.14 4.3 1.85 3.4 1.66 2.74 1.52 2.27 1.38 1.9 1.27 1.6 1.2 1.4 1.1 1.18.06.05" stroke="#979ea8" stroke-width="2" stroke-linejoin="round" fill="none"/><path d="M1866.28-380.98l-.04 2-1-.02v-2z" stroke="#979ea8" stroke-width=".05" fill="#979ea8"/><path d="M1954.8-225.37l-14.9-1.85 3.94-8.4z" stroke="#979ea8" stroke-width="2" fill="#979ea8"/><path d="M1866.23-220.03l.54-.03.74-.08.75-.1.74-.15.72-.16.73-.2.73-.25.74-.28.75-.3.76-.37.77-.4.8-.46.8-.53.84-.58.87-.67.9-.75.96-.85 1-.98 1.04-1.12 1.12-1.3 1.2-1.5 1.3-1.8 1.42-2.13 1.56-2.6 1.74-3.16 1.98-4 2.3-5.2 2.8-7.1 3.68-10.58 6.2-20.84 15.76-55.88 3.67-10.57 2.8-7.1 2.3-5.2 2-4 1.73-3.2 1.57-2.56 1.4-2.13 1.3-1.8 1.2-1.5 1.13-1.3.16-.17" stroke="#e81313" stroke-width="2" stroke-linejoin="round" fill="none"/><path d="M1866.28-219.02l-1.05.02v-2l1-.02z" stroke="#e81313" stroke-width=".05" fill="#e81313"/><path d="M1954.84-390.54l-10.64 10.58-4.18-8.28z" stroke="#e81313" stroke-width="2" fill="#e81313"/><path d="M1866.23-323l12.6-.3 9.83-.8 8.4-1.13 10.88-2.13 17.97-3.7 8.4-1.14 4.95-.4" stroke="#979ea8" stroke-width="2" stroke-linejoin="round" fill="none"/><path d="M1866.28-322l-1.05.04v-2l1-.03z" stroke="#979ea8" stroke-width=".05" fill="#979ea8"/><path d="M1954.5-333.2l-14.07 5.2-.37-9.27z" stroke="#979ea8" stroke-width="2" fill="#979ea8"/><path d="M1958.23-285.48a6 6 0 0 1 6-6h108a6 6 0 0 1 6 6v28a6 6 0 0 1-6 6h-108a6 6 0 0 1-6-6z" fill="#fff"/><path d="M1959.13-288.6l.25-.4.6-.72.72-.6.4-.26m1.73-.72l.46-.1.93-.08h1.47m1.97 0h2.94m1.98 0h2.94m1.96 0h2.95m1.96 0h2.94m1.96 0h2.95m1.96 0h2.96m1.96 0h2.95m1.96 0h2.95m1.96 0h2.94m1.97 0h2.94m1.96 0h2.94m1.97 0h2.94m1.98 0h2.94m1.96 0h2.95m1.96 0h2.94m1.96 0h2.95m1.96 0h2.96m1.96 0h2.95m1.96 0h2.95m1.96 0h2.95m1.95 0h2.94m1.96 0h1.47l.94.07.46.1m1.73.72l.4.25.7.6.62.72.25.4m.72 1.72l.1.46.08.94v1.4m0 1.87v2.8m0 1.85v2.8m0 1.87v2.8m0 1.87v2.8m0 1.85v2.8m0 1.87v1.4l-.07.94-.1.46m-.73 1.72l-.25.4-.6.72-.72.6-.4.26m-1.73.72l-.46.1-.94.08h-1.47m-1.97 0h-2.95m-1.96 0h-2.96m-1.96 0h-2.95m-1.96 0h-2.95m-1.96 0h-2.95m-1.95 0h-2.95m-1.96 0h-2.95m-1.97 0h-2.95m-1.96 0h-2.94m-1.97 0h-2.93m-1.97 0h-2.94m-1.97 0h-2.95m-1.96 0h-2.96m-1.96 0h-2.95m-1.96 0h-2.95m-1.96 0h-2.95m-1.95 0h-2.95m-1.96 0h-2.95m-1.97 0h-2.95m-1.96 0h-2.94m-1.97 0h-2.93m-1.97 0h-1.47l-.94-.07-.47-.1m-1.72-.73l-.4-.25-.7-.6-.62-.72-.25-.4m-.72-1.73l-.1-.46-.07-.94v-1.4m0-1.87v-2.8m0-1.86v-2.8m0-1.88v-2.8m0-1.87v-2.8m0-1.86v-2.8m0-1.88v-1.4l.07-.94.1-.46" stroke="#fcce14" fill="none"/><use xlink:href="#k" transform="matrix(1,0,0,1,1963.2302742663605,-286.4805798883266) translate(40.33854166666667 20.9765625)"/><path d="M2078.23-285.48a6 6 0 0 1 6-6h108a6 6 0 0 1 6 6v28a6 6 0 0 1-6 6h-108a6 6 0 0 1-6-6z" fill="#fff"/><path d="M2079.13-288.6l.25-.4.6-.72.72-.6.4-.26m1.73-.72l.46-.1.93-.08h1.47m1.97 0h2.94m1.98 0h2.94m1.97 0h2.93m1.96 0h2.94m1.96 0h2.95m1.96 0h2.96m1.96 0h2.95m1.96 0h2.95m1.96 0h2.95m1.95 0h2.94m1.96 0h2.94m1.97 0h2.94m1.98 0h2.94m1.97 0h2.93m1.96 0h2.94m1.96 0h2.95m1.96 0h2.96m1.96 0h2.95m1.96 0h2.95m1.96 0h2.95m1.95 0h2.94m1.96 0h1.47l.94.07.46.1m1.73.72l.4.25.7.6.62.72.25.4m.72 1.72l.1.46.08.94v1.4m0 1.87v2.8m0 1.85v2.8m0 1.87v2.8m0 1.87v2.8m0 1.85v2.8m0 1.87v1.4l-.07.94-.1.46m-.73 1.72l-.25.4-.6.72-.72.6-.4.26m-1.73.72l-.46.1-.94.08h-1.47m-1.97 0h-2.95m-1.96 0h-2.96m-1.96 0h-2.95m-1.96 0h-2.95m-1.96 0h-2.95m-1.95 0h-2.95m-1.96 0h-2.95m-1.97 0h-2.94m-1.98 0h-2.94m-1.97 0h-2.93m-1.97 0h-2.94m-1.97 0h-2.95m-1.96 0h-2.96m-1.96 0h-2.95m-1.96 0h-2.95m-1.96 0h-2.95m-1.95 0h-2.95m-1.96 0h-2.95m-1.97 0h-2.94m-1.98 0h-2.94m-1.97 0h-2.93m-1.97 0h-1.47l-.94-.07-.47-.1m-1.72-.73l-.4-.25-.7-.6-.62-.72-.25-.4m-.72-1.73l-.1-.46-.07-.94v-1.4m0-1.87v-2.8m0-1.86v-2.8m0-1.88v-2.8m0-1.87v-2.8m0-1.86v-2.8m0-1.88v-1.4l.07-.94.1-.46" stroke="#fcce14" fill="none"/><use xlink:href="#n" transform="matrix(1,0,0,1,2083.2302742663605,-286.4805798883266) translate(18.623046874999993 20.9765625)"/><path d="M1744.73-285.48a6 6 0 0 1 6-6h108a6 6 0 0 1 6 6v28a6 6 0 0 1-6 6h-108a6 6 0 0 1-6-6z" fill="#fff"/><path d="M1745.63-288.6l.25-.4.6-.72.73-.6.4-.26m1.74-.72l.45-.1.93-.08h1.47m1.97 0h2.94m1.98 0h2.94m1.97 0h2.93m1.97 0h2.94m1.97 0h2.95m1.96 0h2.96m1.96 0h2.95m1.96 0h2.95m1.96 0h2.95m1.95 0h2.95m1.96 0h2.94m1.97 0h2.94m1.98 0h2.94m1.97 0h2.93m1.97 0h2.94m1.97 0h2.95m1.96 0h2.96m1.96 0h2.95m1.96 0h2.95m1.96 0h2.95m1.95 0h2.95m1.96 0h1.47l.94.07.46.1m1.73.72l.4.25.7.6.63.72.23.4m.72 1.72l.1.46.08.94v1.4m0 1.87v2.8m0 1.85v2.8m0 1.87v2.8m0 1.87v2.8m0 1.85v2.8m0 1.87v1.4l-.07.94-.1.46m-.73 1.72l-.24.4-.63.72-.7.6-.4.26m-1.74.72l-.46.1-.94.08h-1.47m-1.96 0h-2.95m-1.96 0h-2.96m-1.96 0h-2.95m-1.96 0h-2.95m-1.96 0h-2.95m-1.95 0h-2.94m-1.96 0h-2.94m-1.97 0H1818m-1.98 0h-2.94m-1.97 0h-2.93m-1.97 0h-2.94m-1.96 0h-2.95m-1.96 0h-2.96m-1.96 0h-2.95m-1.96 0h-2.95m-1.96 0h-2.95m-1.95 0h-2.94m-1.96 0h-2.94m-1.97 0H1764m-1.98 0h-2.94m-1.97 0h-2.93m-1.97 0h-1.47l-.94-.07-.46-.1m-1.73-.73l-.4-.25-.7-.6-.62-.72-.25-.4m-.7-1.73l-.12-.46-.07-.94v-1.4m0-1.87v-2.8m0-1.86v-2.8m0-1.88v-2.8m0-1.87v-2.8m0-1.86v-2.8m0-1.88v-1.4l.08-.94.12-.46" stroke="#d916a8" fill="none"/><use xlink:href="#n" transform="matrix(1,0,0,1,1749.7322717470388,-286.4805798883266) translate(18.623046874999993 20.9765625)"/><path d="M1866.23-271.48h73" stroke="#008a0e" stroke-width="2" stroke-linejoin="round" fill="none"/><path d="M1866.26-270.48h-1.03v-2h1.03z" stroke="#008a0e" stroke-width=".05" fill="#008a0e"/><path d="M1954.5-271.48l-14.27 4.63v-9.27z" stroke="#008a0e" stroke-width="2" fill="#008a0e"/><defs><path d="M666-1365c326 0 518 259 518 595 0 178-48 346-145 502C928-89 788 0 621 0 344 0 200-283 200-582c0-169 35-333 107-490 89-196 210-293 359-293zM401-582c0 173 76 381 229 381 86 0 168-71 247-214 71-127 106-239 106-334 0-219-129-422-336-417-153 61-246 349-246 584" id="w"/><path d="M172-1273c0-51 55-92 106-92 37 0 64 24 92 68 37 59 126 327 147 375 45-73 86-148 133-220 69-105 130-155 174-155 52 0 105 52 103 104-20 75-241 385-311 490 18 36 85 160 200 372 65 118 97 196 97 234 1 55-42 97-97 97-43 0-105-70-183-212-15-28-60-122-136-281-43 69-136 292-221 411-25 35-56 50-87 50-84 0-113-73-88-151 12-39 108-216 290-529-146-314-219-501-219-561" id="x"/><path d="M387-1365c369 0 678 217 678 573 0 172-83 346-249 522C647-90 478 0 307 0 194 0 137-80 137-239c0-257 30-558 68-915-53-11-80-43-80-95 0-56 32-93 97-108 26-6 81-8 165-8zm21 204c-15 76-47 491-72 917 0 13 1 27 2 41 116-22 231-92 346-210 120-123 180-241 180-355-1-196-67-277-209-343-74-35-157-50-247-50" id="y"/><path d="M200-1365c95 3 162 6 292 6 343 0 515 81 515 243 0 172-258 535-348 706-53 101-82 215-127 338-18 49-50 72-90 72-61 0-126-55-104-125 63-205 151-424 283-648 32-54 84-133 147-241 14-24 20-43 20-56 0-67-104-101-312-101-139 0-364 56-370-92-2-49 45-103 94-102" id="z"/><path d="M722-1365c155 0 277 78 276 225 0 91-50 195-151 314-48 56-136 140-262 254-171 154-256 259-256 316 0 37 32 55 96 55 103 0 398-64 478-64 48 0 94 55 94 103 0 50-33 87-101 99C773-42 564-1 425 0 221 0 119-76 119-227c0-93 56-204 169-333 46-52 140-144 284-277s216-227 216-283c0-29-23-44-69-44-62 0-148 26-258 77-11 52-41 78-92 78-58 0-103-42-103-100 0-156 283-256 456-256" id="A"/><path d="M369 0C201 0 119-119 119-294c0-119 26-272 77-457 80-290 99-377 125-524 7-13 27-26 60-41 71-33 211-49 419-49 129 0 193 36 193 107 0 50-48 105-99 101-142-10-258-9-397 20-11 59-34 158-69 297 146-57 246-85 301-85 53 0 100 43 100 96 0 43-23 80-73 99-127 49-178 54-389 129-29 119-44 224-44 314 0 58 10 87 30 87 66 0 151-30 256-90s173-91 205-91c50 0 101 49 101 99 0 30-19 57-51 87C794-129 500 0 369 0" id="B"/><g id="a"><use transform="matrix(0.006510416666666667,0,0,0.006510416666666667,0,0)" xlink:href="#w"/><use transform="matrix(0.006510416666666667,0,0,0.006510416666666667,9.0234375,0)" xlink:href="#x"/><use transform="matrix(0.006510416666666667,0,0,0.006510416666666667,15.677083333333334,0)" xlink:href="#y"/><use transform="matrix(0.006510416666666667,0,0,0.006510416666666667,23.053385416666668,0)" xlink:href="#z"/><use transform="matrix(0.006510416666666667,0,0,0.006510416666666667,30.084635416666668,0)" xlink:href="#w"/><use transform="matrix(0.006510416666666667,0,0,0.006510416666666667,39.10807291666667,0)" xlink:href="#y"/><use transform="matrix(0.006510416666666667,0,0,0.006510416666666667,46.48437500000001,0)" xlink:href="#y"/><use transform="matrix(0.006510416666666667,0,0,0.006510416666666667,53.86067708333335,0)" xlink:href="#A"/><use transform="matrix(0.006510416666666667,0,0,0.006510416666666667,61.51692708333335,0)" xlink:href="#B"/><use transform="matrix(0.006510416666666667,0,0,0.006510416666666667,68.76302083333334,0)" xlink:href="#B"/></g><path d="M773-362c52-3 103 50 103 101 0 27-17 56-48 89C762-102 548 0 418 0 210 0 81-204 84-422c3-221 73-486 152-640 103-201 220-303 358-303 167 0 251 128 251 385 0 123-35 185-106 185-48 0-101-46-99-94 2-77 27-278-39-278-46 0-94 47-150 138-89 144-168 415-168 602 0 146 56 219 169 219 46 0 106-26 180-77s122-77 141-77" id="C"/><path d="M111-254c0-80 75-479 73-483 3-23 17-167 40-434-41-20-62-51-62-94 0-67 48-100 145-100 431 0 647 127 647 380 0 161-86 280-258 359 120 81 180 177 180 290 0 173-116 256-272 302C530-12 459 0 391 0 204 0 111-85 111-254zm642-722c0-105-210-177-326-186-9 140-24 282-43 426 246-59 369-139 369-240zm-77 638c-27-89-136-153-326-193-27 162-48 229-34 323 82 18 157 3 237-24 75-26 116-61 123-106" id="D"/><path d="M457-877c340-69 656 129 656 435C1113-201 859 0 613 0 335 0 184-205 184-495c0-227 70-468 210-724 53-97 102-146 147-146 52 0 111 45 104 97-8 57-146 305-188 391zm163 674c127 0 293-116 293-242 0-134-166-244-304-244-63 0-133 13-210 39-10 73-15 126-15 160-1 165 79 287 236 287" id="E"/><path d="M295-1038c-53 2-99-46-99-99 0-31 18-59 51-87 37-32 224-141 280-141 69 0 104 33 104 99v735c-33 116-21 386-54 459-21 48-54 72-99 72-64 1-108-57-94-125 18-88 24-194 24-317 1 31 2-75 2-317v-328c-50 33-88 49-115 49" id="F"/><path d="M602-1365c226 0 427 132 427 346 0 137-77 248-230 335 105 61 197 186 199 339 3 281-357 407-648 316-78-24-131-56-167-92-63-64-18-172 66-171 17 0 42 10 75 29 69 40 136 60 203 60 99 0 270-46 270-132 0-65-34-119-101-162-30-30-193-73-257-109-51-48-33-144 39-165 105-30 195-49 270-118 51-47 80-92 80-140 0-76-136-135-220-135-54 0-174 34-292 55-51 9-103-51-103-103 0-108 251-153 389-153" id="G"/><path d="M763-737c119 66 232 201 235 370C1002-138 781 0 539 0 307 0 164-187 164-411c0-153 57-265 171-337-87-71-130-164-130-279-1-207 116-338 324-338 198 0 387 157 387 358 0 119-51 209-153 270zM556-879c82 0 159-51 159-133 0-90-87-154-176-154s-133 55-133 164c0 75 73 123 150 123zM367-406c0 89 78 203 167 203 159 0 239-67 239-201 0-94-135-198-227-198-90 0-179 106-179 196" id="H"/><g id="b"><use transform="matrix(0.006510416666666667,0,0,0.006510416666666667,0,0)" xlink:href="#w"/><use transform="matrix(0.006510416666666667,0,0,0.006510416666666667,9.0234375,0)" xlink:href="#x"/><use transform="matrix(0.006510416666666667,0,0,0.006510416666666667,15.677083333333334,0)" xlink:href="#w"/><use transform="matrix(0.006510416666666667,0,0,0.006510416666666667,24.700520833333336,0)" xlink:href="#C"/><use transform="matrix(0.006510416666666667,0,0,0.006510416666666667,31.002604166666675,0)" xlink:href="#D"/><use transform="matrix(0.006510416666666667,0,0,0.006510416666666667,37.76041666666667,0)" xlink:href="#E"/><use transform="matrix(0.006510416666666667,0,0,0.006510416666666667,46.20442708333334,0)" xlink:href="#F"/><use transform="matrix(0.006510416666666667,0,0,0.006510416666666667,51.67317708333334,0)" xlink:href="#D"/><use transform="matrix(0.006510416666666667,0,0,0.006510416666666667,58.43098958333335,0)" xlink:href="#G"/><use transform="matrix(0.006510416666666667,0,0,0.006510416666666667,66.17838541666667,0)" xlink:href="#H"/></g><g id="c"><use transform="matrix(0.006510416666666667,0,0,0.006510416666666667,0,0)" xlink:href="#w"/><use transform="matrix(0.006510416666666667,0,0,0.006510416666666667,9.0234375,0)" xlink:href="#x"/><use transform="matrix(0.006510416666666667,0,0,0.006510416666666667,15.677083333333334,0)" xlink:href="#H"/><use transform="matrix(0.006510416666666667,0,0,0.006510416666666667,23.079427083333336,0)" xlink:href="#F"/><use transform="matrix(0.006510416666666667,0,0,0.006510416666666667,28.548177083333336,0)" xlink:href="#D"/><use transform="matrix(0.006510416666666667,0,0,0.006510416666666667,35.305989583333336,0)" xlink:href="#B"/><use transform="matrix(0.006510416666666667,0,0,0.006510416666666667,42.552083333333336,0)" xlink:href="#F"/><use transform="matrix(0.006510416666666667,0,0,0.006510416666666667,48.020833333333336,0)" xlink:href="#E"/><use transform="matrix(0.006510416666666667,0,0,0.006510416666666667,56.46484375,0)" xlink:href="#C"/><use transform="matrix(0.006510416666666667,0,0,0.006510416666666667,62.766927083333336,0)" xlink:href="#y"/></g><path d="M137-119c0-58 89-135 145-135 71 0 107 42 107 126C389-63 336 0 270 0c-63 0-133-55-133-119" id="I"/><g id="d"><use transform="matrix(0.006510416666666667,0,0,0.006510416666666667,0,0)" xlink:href="#I"/><use transform="matrix(0.006510416666666667,0,0,0.006510416666666667,3.6653645833333335,0)" xlink:href="#I"/><use transform="matrix(0.006510416666666667,0,0,0.006510416666666667,7.330729166666667,0)" xlink:href="#I"/><use transform="matrix(0.006510416666666667,0,0,0.006510416666666667,10.99609375,0)" xlink:href="#I"/><use transform="matrix(0.006510416666666667,0,0,0.006510416666666667,14.661458333333334,0)" xlink:href="#I"/><use transform="matrix(0.006510416666666667,0,0,0.006510416666666667,18.326822916666668,0)" xlink:href="#I"/><use transform="matrix(0.006510416666666667,0,0,0.006510416666666667,21.9921875,0)" xlink:href="#I"/><use transform="matrix(0.006510416666666667,0,0,0.006510416666666667,25.657552083333332,0)" xlink:href="#I"/></g><g id="e"><use transform="matrix(0.006510416666666667,0,0,0.006510416666666667,0,0)" xlink:href="#I"/><use transform="matrix(0.006510416666666667,0,0,0.006510416666666667,3.6653645833333335,0)" xlink:href="#I"/><use transform="matrix(0.006510416666666667,0,0,0.006510416666666667,7.330729166666667,0)" xlink:href="#I"/><use transform="matrix(0.006510416666666667,0,0,0.006510416666666667,10.99609375,0)" xlink:href="#I"/><use transform="matrix(0.006510416666666667,0,0,0.006510416666666667,14.661458333333334,0)" xlink:href="#I"/><use transform="matrix(0.006510416666666667,0,0,0.006510416666666667,18.326822916666668,0)" xlink:href="#I"/><use transform="matrix(0.006510416666666667,0,0,0.006510416666666667,21.9921875,0)" xlink:href="#I"/><use transform="matrix(0.006510416666666667,0,0,0.006510416666666667,25.657552083333332,0)" xlink:href="#I"/><use transform="matrix(0.006510416666666667,0,0,0.006510416666666667,29.32291666666666,0)" xlink:href="#I"/></g><path fill="#d916a8" d="M768-362c52-3 102 50 102 101 0 27-17 56-47 89C758-102 542 0 413 0 205 0 76-203 79-422c3-220 72-486 151-640 103-201 221-303 359-303 167 0 251 128 251 385 0 123-35 185-106 185-48 0-101-46-99-94 2-77 27-279-39-278-99 4-207 230-243 339-48 149-75 282-75 401 0 146 56 219 169 219 45 0 105-26 180-77s122-77 141-77" id="J"/><path fill="#d916a8" d="M758-451c66-46 150 20 150 87 0 27-17 54-48 86C767-182 488 0 328 0 185 0 113-109 113-326c0-170 46-508 46-695 0-141-8-341 119-344 53-2 103 46 101 99-3-2-26 472-39 636-16 198-28 312-28 343 0 57 11 86 33 86 60 0 168-62 324-185 19-16 49-38 89-65" id="K"/><path fill="#d916a8" d="M920-744c0 218 15 427 27 645 5 89-139 139-182 58-3-3-13-32-31-85-53-161-192-263-415-306-18 75-30 243-58 360-12 50-50 72-97 72-56 0-99-53-99-108 1-367 194-896 360-1117 69-92 141-140 222-140 182 0 273 207 273 621zM720-476v-400c-19-103-12-145-34-225-11-40-25-60-41-60-32 0-83 65-153 195-56 103-99 215-130 336 137 27 256 79 358 154" id="L"/><path fill="#d916a8" d="M925-1365c52 0 103 46 101 97 0 23-38 113-113 270-125 261-227 519-304 774-21 71-38 117-49 139-29 57-63 85-104 85-109-1-156-321-181-456-30-165-184-659-203-805-7-52 44-104 97-104 40 0 72 25 99 73 46 84 66 250 92 370 23 106 68 262 121 471 71-167 173-418 306-754 20-51 35-86 46-104 25-37 55-56 92-56" id="M"/><path fill="#d916a8" d="M362 0C195 0 113-120 113-294c0-119 25-272 76-457 80-290 99-377 125-524 7-13 27-26 60-41 71-33 211-49 420-49 128 0 192 36 192 107 0 50-48 105-99 101-142-10-258-9-397 20-11 59-33 158-68 297 145-57 245-85 300-85 53 0 101 43 101 96 0 43-23 79-74 99-127 49-178 54-389 129-29 119-44 224-44 314 0 58 10 87 30 87 66 0 151-30 256-90s173-91 205-91c51 0 101 49 101 99 0 30-19 57-51 87C788-129 492 0 362 0" id="N"/><path fill="#d916a8" d="M196-1063c0-251 371-378 608-255 71 37 119 87 150 151 35 73-14 152-87 150-26 0-63-25-111-73s-102-72-162-72c-72 0-200 37-200 99 0 43 47 111 142 203 145 142 234 232 266 271 95 116 142 225 142 328C944-95 791 0 613 0 494 0 170-60 118-111c-29-29-48-55-48-87-1-69 67-120 140-92h-2c162 59 305 89 429 89 69 0 104-25 104-75 0-69-47-151-142-245-86-86-177-167-261-254-98-100-142-199-142-288" id="O"/><g id="f"><use transform="matrix(0.007595486111111109,0,0,0.007595486111111109,0,0)" xlink:href="#J"/><use transform="matrix(0.007595486111111109,0,0,0.007595486111111109,7.2612847222222205,0)" xlink:href="#K"/><use transform="matrix(0.007595486111111109,0,0,0.007595486111111109,14.211154513888886,0)" xlink:href="#L"/><use transform="matrix(0.007595486111111109,0,0,0.007595486111111109,21.943359374999996,0)" xlink:href="#M"/><use transform="matrix(0.007595486111111109,0,0,0.007595486111111109,30.05533854166666,0)" xlink:href="#N"/><use transform="matrix(0.007595486111111109,0,0,0.007595486111111109,38.38758680555555,0)" xlink:href="#O"/></g><path fill="#fcce14" d="M925-1365c52 0 103 46 101 97 0 23-38 113-113 270-125 261-227 519-304 774-21 71-38 117-49 139-29 57-63 85-104 85-109-1-156-321-181-456-30-165-184-659-203-805-7-52 44-104 97-104 40 0 72 25 99 73 46 84 66 250 92 370 23 106 68 262 121 471 71-167 173-418 306-754 20-51 35-86 46-104 25-37 55-56 92-56" id="P"/><path fill="#fcce14" d="M922-654c-9 182 20 369 29 555 5 90-140 139-183 58-2-3-13-31-31-85-54-160-191-263-414-306-19 75-30 243-58 360-12 50-51 72-98 72-55 0-99-53-99-108 1-366 195-896 360-1117 69-92 141-140 222-140 182 0 273 207 273 621 0 19 1 49-1 90zM724-476v-400c-20-103-13-145-35-225-11-40-25-60-40-60-32 0-83 65-154 195-56 103-99 215-130 336 137 27 256 79 359 154" id="Q"/><path fill="#fcce14" d="M759-451c68-46 151 19 151 87 0 27-17 54-48 86C767-182 491 0 329 0 186 0 114-109 114-326c0-169 46-507 46-695 0-139-8-341 120-344 53-2 103 46 101 99-4-2-27 472-40 636-16 198-27 312-27 343 0 57 11 86 32 86 61 0 169-62 325-185 19-16 49-38 88-65" id="R"/><path fill="#fcce14" d="M609-1364c323 0 519 229 519 557 0 183-51 357-152 522C860-95 716 0 544 0 271 0 97-283 97-570c0-191 38-362 113-512 95-188 228-282 399-282zm319 550c0-231-116-347-349-347-81 0-151 81-210 243-48 132-72 248-72 348 0 161 47 272 142 333 35 23 69 34 100 34 113 0 208-76 287-229 68-131 102-258 102-382" id="S"/><path fill="#fcce14" d="M432-1365c342 0 623 232 623 568 0 219-132 374-395 466 145 90 217 167 217 230 0 52-52 98-104 96-17 0-39-10-66-29-90-65-203-166-304-203v78C403-53 368 0 299 0c-53 0-99-44-99-97v-374c17-145 25-361 25-650-2 5-10 7-24 7-53 2-99-46-99-99 0-112 194-152 330-152zm257 786c221-128 209-317 21-469-89-71-178-111-268-119-1 97-2 329-2 698 90-27 172-66 249-110" id="T"/><path fill="#fcce14" d="M369 0C201 0 119-119 119-294c0-119 26-272 77-457 80-290 99-377 125-524 7-13 27-26 60-41 71-33 211-49 419-49 129 0 193 36 193 107 0 50-48 105-99 101-142-10-258-9-397 20-11 59-34 158-69 297 146-57 246-85 301-85 53 0 100 43 100 96 0 43-23 80-73 99-127 49-178 54-389 129-29 119-44 224-44 314 0 58 10 87 30 87 66 0 151-30 256-90s173-91 205-91c50 0 101 49 101 99 0 30-19 57-51 87C794-129 500 0 369 0" id="U"/><path fill="#fcce14" d="M196-1063c0-251 371-378 608-255 71 37 119 87 150 151 35 73-14 152-87 150-26 0-63-25-111-73s-102-72-162-72c-72 0-200 37-200 99 0 43 47 111 142 203 145 142 234 232 266 271 95 116 142 225 142 328C944-95 791 0 613 0 494 0 170-60 118-111c-29-29-48-55-48-87-1-69 67-120 140-92h-2c162 59 305 89 429 89 69 0 104-25 104-75 0-69-47-151-142-245-86-86-177-167-261-254-98-100-142-199-142-288" id="V"/><g id="g"><use transform="matrix(0.007595486111111109,0,0,0.007595486111111109,0,0)" xlink:href="#P"/><use transform="matrix(0.007595486111111109,0,0,0.007595486111111109,6.91189236111111,0)" xlink:href="#Q"/><use transform="matrix(0.007595486111111109,0,0,0.007595486111111109,15.023871527777775,0)" xlink:href="#R"/><use transform="matrix(0.007595486111111109,0,0,0.007595486111111109,21.98133680555555,0)" xlink:href="#S"/><use transform="matrix(0.007595486111111109,0,0,0.007595486111111109,31.247829861111104,0)" xlink:href="#T"/><use transform="matrix(0.007595486111111109,0,0,0.007595486111111109,39.868706597222214,0)" xlink:href="#U"/><use transform="matrix(0.007595486111111109,0,0,0.007595486111111109,48.32248263888888,0)" xlink:href="#V"/></g><path fill="#979ea8" d="M90-239c59 0 76 52 76 120S152 4 89 4C31 4 14-51 14-119c0-67 17-120 76-120zM89-10c45-6 45-58 45-109 0-50 0-101-45-106-45 4-43 57-43 106 0 50-2 104 43 109" id="W"/><use transform="matrix(0.06172839506172839,0,0,0.06172839506172839,0,0)" xlink:href="#W" id="h"/><path fill="#979ea8" d="M110-14l48 5v9H32v-9l48-5v-192l-48 17v-10l69-39h9v224" id="X"/><use transform="matrix(0.06172839506172839,0,0,0.06172839506172839,0,0)" xlink:href="#X" id="i"/><path fill="#979ea8" d="M125-118c4-37-41-34-68-26v132l23 4v8H8C5-13 21-9 28-12v-141c-7-3-23 1-20-12h47l2 13c31-23 98-29 98 31v109c7 3 23-1 20 12h-72v-8l22-4v-106" id="Y"/><use transform="matrix(0.06172839506172839,0,0,0.06172839506172839,0,0)" xlink:href="#Y" id="j"/><g id="k"><use transform="matrix(0.006510416666666667,0,0,0.006510416666666667,0,0)" xlink:href="#I"/><use transform="matrix(0.006510416666666667,0,0,0.006510416666666667,3.6653645833333335,0)" xlink:href="#I"/><use transform="matrix(0.006510416666666667,0,0,0.006510416666666667,7.330729166666667,0)" xlink:href="#I"/><use transform="matrix(0.006510416666666667,0,0,0.006510416666666667,10.99609375,0)" xlink:href="#I"/><use transform="matrix(0.006510416666666667,0,0,0.006510416666666667,14.661458333333334,0)" xlink:href="#I"/><use transform="matrix(0.006510416666666667,0,0,0.006510416666666667,18.326822916666668,0)" xlink:href="#I"/><use transform="matrix(0.006510416666666667,0,0,0.006510416666666667,21.9921875,0)" xlink:href="#I"/><use transform="matrix(0.006510416666666667,0,0,0.006510416666666667,25.657552083333332,0)" xlink:href="#I"/></g><g id="l"><use transform="matrix(0.006510416666666667,0,0,0.006510416666666667,0,0)" xlink:href="#w"/><use transform="matrix(0.006510416666666667,0,0,0.006510416666666667,9.0234375,0)" xlink:href="#x"/><use transform="matrix(0.006510416666666667,0,0,0.006510416666666667,15.677083333333334,0)" xlink:href="#H"/><use transform="matrix(0.006510416666666667,0,0,0.006510416666666667,23.079427083333336,0)" xlink:href="#F"/><use transform="matrix(0.006510416666666667,0,0,0.006510416666666667,28.548177083333336,0)" xlink:href="#D"/><use transform="matrix(0.006510416666666667,0,0,0.006510416666666667,35.305989583333336,0)" xlink:href="#B"/><use transform="matrix(0.006510416666666667,0,0,0.006510416666666667,42.552083333333336,0)" xlink:href="#F"/><use transform="matrix(0.006510416666666667,0,0,0.006510416666666667,48.020833333333336,0)" xlink:href="#E"/><use transform="matrix(0.006510416666666667,0,0,0.006510416666666667,56.46484375,0)" xlink:href="#C"/><use transform="matrix(0.006510416666666667,0,0,0.006510416666666667,62.766927083333336,0)" xlink:href="#y"/></g><path fill="#fcce14" d="M768-362c52-3 102 50 102 101 0 27-17 56-47 89C758-102 542 0 413 0 205 0 76-203 79-422c3-220 72-486 151-640 103-201 221-303 359-303 167 0 251 128 251 385 0 123-35 185-106 185-48 0-101-46-99-94 2-77 27-279-39-278-99 4-207 230-243 339-48 149-75 282-75 401 0 146 56 219 169 219 45 0 105-26 180-77s122-77 141-77" id="Z"/><path fill="#fcce14" d="M758-451c66-46 150 20 150 87 0 27-17 54-48 86C767-182 488 0 328 0 185 0 113-109 113-326c0-170 46-508 46-695 0-141-8-341 119-344 53-2 103 46 101 99-3-2-26 472-39 636-16 198-28 312-28 343 0 57 11 86 33 86 60 0 168-62 324-185 19-16 49-38 89-65" id="aa"/><path fill="#fcce14" d="M920-744c0 218 15 427 27 645 5 89-139 139-182 58-3-3-13-32-31-85-53-161-192-263-415-306-18 75-30 243-58 360-12 50-50 72-97 72-56 0-99-53-99-108 1-367 194-896 360-1117 69-92 141-140 222-140 182 0 273 207 273 621zM720-476v-400c-19-103-12-145-34-225-11-40-25-60-41-60-32 0-83 65-153 195-56 103-99 215-130 336 137 27 256 79 358 154" id="ab"/><path fill="#fcce14" d="M925-1365c52 0 103 46 101 97 0 23-38 113-113 270-125 261-227 519-304 774-21 71-38 117-49 139-29 57-63 85-104 85-109-1-156-321-181-456-30-165-184-659-203-805-7-52 44-104 97-104 40 0 72 25 99 73 46 84 66 250 92 370 23 106 68 262 121 471 71-167 173-418 306-754 20-51 35-86 46-104 25-37 55-56 92-56" id="ac"/><path fill="#fcce14" d="M362 0C195 0 113-120 113-294c0-119 25-272 76-457 80-290 99-377 125-524 7-13 27-26 60-41 71-33 211-49 420-49 128 0 192 36 192 107 0 50-48 105-99 101-142-10-258-9-397 20-11 59-33 158-68 297 145-57 245-85 300-85 53 0 101 43 101 96 0 43-23 79-74 99-127 49-178 54-389 129-29 119-44 224-44 314 0 58 10 87 30 87 66 0 151-30 256-90s173-91 205-91c51 0 101 49 101 99 0 30-19 57-51 87C788-129 492 0 362 0" id="ad"/><path fill="#fcce14" d="M196-1063c0-251 371-378 608-255 71 37 119 87 150 151 35 73-14 152-87 150-26 0-63-25-111-73s-102-72-162-72c-72 0-200 37-200 99 0 43 47 111 142 203 145 142 234 232 266 271 95 116 142 225 142 328C944-95 791 0 613 0 494 0 170-60 118-111c-29-29-48-55-48-87-1-69 67-120 140-92h-2c162 59 305 89 429 89 69 0 104-25 104-75 0-69-47-151-142-245-86-86-177-167-261-254-98-100-142-199-142-288" id="ae"/><g id="m"><use transform="matrix(0.007595486111111109,0,0,0.007595486111111109,0,0)" xlink:href="#Z"/><use transform="matrix(0.007595486111111109,0,0,0.007595486111111109,7.2612847222222205,0)" xlink:href="#aa"/><use transform="matrix(0.007595486111111109,0,0,0.007595486111111109,14.211154513888886,0)" xlink:href="#ab"/><use transform="matrix(0.007595486111111109,0,0,0.007595486111111109,21.943359374999996,0)" xlink:href="#ac"/><use transform="matrix(0.007595486111111109,0,0,0.007595486111111109,30.05533854166666,0)" xlink:href="#ad"/><use transform="matrix(0.007595486111111109,0,0,0.007595486111111109,38.38758680555555,0)" xlink:href="#ae"/></g><path d="M592-1365c194 7 272 184 272 399 0 120-87 574-93 628-13 114-25 181-30 201C717-46 678 0 625 0c-48 0-101-44-101-92 0-132 51-296 78-415C319-461 53-614 53-877c0-222 314-496 539-488zm-32 194c-138-8-294 169-294 307 0 106 68 159 203 159 53 0 111-8 174-25 14-93 21-185 21-277 1-103-17-159-104-164" id="af"/><path d="M922-654c-9 182 20 369 29 555 5 90-140 139-183 58-2-3-13-31-31-85-54-160-191-263-414-306-19 75-30 243-58 360-12 50-51 72-98 72-55 0-99-53-99-108 1-366 195-896 360-1117 69-92 141-140 222-140 182 0 273 207 273 621 0 19 1 49-1 90zM724-476v-400c-20-103-13-145-35-225-11-40-25-60-40-60-32 0-83 65-154 195-56 103-99 215-130 336 137 27 256 79 359 154" id="ag"/><g id="n"><use transform="matrix(0.006510416666666667,0,0,0.006510416666666667,0,0)" xlink:href="#w"/><use transform="matrix(0.006510416666666667,0,0,0.006510416666666667,9.0234375,0)" xlink:href="#x"/><use transform="matrix(0.006510416666666667,0,0,0.006510416666666667,15.677083333333334,0)" xlink:href="#H"/><use transform="matrix(0.006510416666666667,0,0,0.006510416666666667,23.079427083333336,0)" xlink:href="#B"/><use transform="matrix(0.006510416666666667,0,0,0.006510416666666667,30.325520833333336,0)" xlink:href="#y"/><use transform="matrix(0.006510416666666667,0,0,0.006510416666666667,37.70182291666667,0)" xlink:href="#H"/><use transform="matrix(0.006510416666666667,0,0,0.006510416666666667,45.10416666666667,0)" xlink:href="#af"/><use transform="matrix(0.006510416666666667,0,0,0.006510416666666667,51.829427083333336,0)" xlink:href="#B"/><use transform="matrix(0.006510416666666667,0,0,0.006510416666666667,59.075520833333336,0)" xlink:href="#ag"/><use transform="matrix(0.006510416666666667,0,0,0.006510416666666667,66.02864583333334,0)" xlink:href="#af"/></g><g id="o"><use transform="matrix(0.006510416666666667,0,0,0.006510416666666667,0,0)" xlink:href="#w"/><use transform="matrix(0.006510416666666667,0,0,0.006510416666666667,9.0234375,0)" xlink:href="#x"/><use transform="matrix(0.006510416666666667,0,0,0.006510416666666667,15.677083333333334,0)" xlink:href="#y"/><use transform="matrix(0.006510416666666667,0,0,0.006510416666666667,23.053385416666668,0)" xlink:href="#z"/><use transform="matrix(0.006510416666666667,0,0,0.006510416666666667,30.084635416666668,0)" xlink:href="#w"/><use transform="matrix(0.006510416666666667,0,0,0.006510416666666667,39.10807291666667,0)" xlink:href="#y"/><use transform="matrix(0.006510416666666667,0,0,0.006510416666666667,46.48437500000001,0)" xlink:href="#y"/><use transform="matrix(0.006510416666666667,0,0,0.006510416666666667,53.86067708333335,0)" xlink:href="#A"/><use transform="matrix(0.006510416666666667,0,0,0.006510416666666667,61.51692708333335,0)" xlink:href="#B"/><use transform="matrix(0.006510416666666667,0,0,0.006510416666666667,68.76302083333334,0)" xlink:href="#B"/></g><g id="p"><use transform="matrix(0.006510416666666667,0,0,0.006510416666666667,0,0)" xlink:href="#w"/><use transform="matrix(0.006510416666666667,0,0,0.006510416666666667,9.0234375,0)" xlink:href="#x"/><use transform="matrix(0.006510416666666667,0,0,0.006510416666666667,15.677083333333334,0)" xlink:href="#w"/><use transform="matrix(0.006510416666666667,0,0,0.006510416666666667,24.700520833333336,0)" xlink:href="#C"/><use transform="matrix(0.006510416666666667,0,0,0.006510416666666667,31.002604166666675,0)" xlink:href="#D"/><use transform="matrix(0.006510416666666667,0,0,0.006510416666666667,37.76041666666667,0)" xlink:href="#E"/><use transform="matrix(0.006510416666666667,0,0,0.006510416666666667,46.20442708333334,0)" xlink:href="#F"/><use transform="matrix(0.006510416666666667,0,0,0.006510416666666667,51.67317708333334,0)" xlink:href="#D"/><use transform="matrix(0.006510416666666667,0,0,0.006510416666666667,58.43098958333335,0)" xlink:href="#G"/><use transform="matrix(0.006510416666666667,0,0,0.006510416666666667,66.17838541666667,0)" xlink:href="#H"/></g><g id="q"><use transform="matrix(0.006510416666666667,0,0,0.006510416666666667,0,0)" xlink:href="#I"/><use transform="matrix(0.006510416666666667,0,0,0.006510416666666667,3.6653645833333335,0)" xlink:href="#I"/><use transform="matrix(0.006510416666666667,0,0,0.006510416666666667,7.330729166666667,0)" xlink:href="#I"/><use transform="matrix(0.006510416666666667,0,0,0.006510416666666667,10.99609375,0)" xlink:href="#I"/><use transform="matrix(0.006510416666666667,0,0,0.006510416666666667,14.661458333333334,0)" xlink:href="#I"/><use transform="matrix(0.006510416666666667,0,0,0.006510416666666667,18.326822916666668,0)" xlink:href="#I"/><use transform="matrix(0.006510416666666667,0,0,0.006510416666666667,21.9921875,0)" xlink:href="#I"/><use transform="matrix(0.006510416666666667,0,0,0.006510416666666667,25.657552083333332,0)" xlink:href="#I"/><use transform="matrix(0.006510416666666667,0,0,0.006510416666666667,29.32291666666666,0)" xlink:href="#I"/></g><g id="r"><use transform="matrix(0.007595486111111109,0,0,0.007595486111111109,0,0)" xlink:href="#J"/><use transform="matrix(0.007595486111111109,0,0,0.007595486111111109,7.2612847222222205,0)" xlink:href="#K"/><use transform="matrix(0.007595486111111109,0,0,0.007595486111111109,14.211154513888886,0)" xlink:href="#L"/><use transform="matrix(0.007595486111111109,0,0,0.007595486111111109,21.943359374999996,0)" xlink:href="#M"/><use transform="matrix(0.007595486111111109,0,0,0.007595486111111109,30.05533854166666,0)" xlink:href="#N"/><use transform="matrix(0.007595486111111109,0,0,0.007595486111111109,38.38758680555555,0)" xlink:href="#O"/></g><g id="s"><use transform="matrix(0.007595486111111109,0,0,0.007595486111111109,0,0)" xlink:href="#P"/><use transform="matrix(0.007595486111111109,0,0,0.007595486111111109,6.91189236111111,0)" xlink:href="#Q"/><use transform="matrix(0.007595486111111109,0,0,0.007595486111111109,15.023871527777775,0)" xlink:href="#R"/><use transform="matrix(0.007595486111111109,0,0,0.007595486111111109,21.98133680555555,0)" xlink:href="#S"/><use transform="matrix(0.007595486111111109,0,0,0.007595486111111109,31.247829861111104,0)" xlink:href="#T"/><use transform="matrix(0.007595486111111109,0,0,0.007595486111111109,39.868706597222214,0)" xlink:href="#U"/><use transform="matrix(0.007595486111111109,0,0,0.007595486111111109,48.32248263888888,0)" xlink:href="#V"/></g><use transform="matrix(0.06172839506172839,0,0,0.06172839506172839,0,0)" xlink:href="#W" id="t"/><use transform="matrix(0.06172839506172839,0,0,0.06172839506172839,0,0)" xlink:href="#X" id="u"/><use transform="matrix(0.06172839506172839,0,0,0.06172839506172839,0,0)" xlink:href="#Y" id="v"/></defs></g></svg>