<svg xmlns="http://www.w3.org/2000/svg" xmlns:xlink="http://www.w3.org/1999/xlink" xmlns:lucid="lucid" width="1492.36" height="491.66"><g transform="translate(826.4323689523067 660)" lucid:page-tab-id="0_0"><path d="M-638.5-631a6 6 0 0 1 6-6h168a6 6 0 0 1 6 6v28a6 6 0 0 1-6 6h-168a6 6 0 0 1-6-6z" fill="none"/><use xlink:href="#a" transform="matrix(1,0,0,1,-638.5131829102683,-637.0107909935116) translate(63.8 30.244444444444444)"/><path d="M-591-574a6 6 0 0 1 6-6h148a6 6 0 0 1 6 6v48a6 6 0 0 1-6 6h-148a6 6 0 0 1-6-6z" stroke="#000" fill="#dedeff"/><path d="M-580.5-564.9a6 6 0 0 1 6-6h28a6 6 0 0 1 6 6v28a6 6 0 0 1-6 6h-28a6 6 0 0 1-6-6z" stroke="#000" fill="#f4d9ff"/><use xlink:href="#b" transform="matrix(1,0,0,1,-575.5066914551319,-565.893155108186) translate(8.88888888888889 21.430555555555557)"/><path d="M-531-565.02a6 6 0 0 1 6-6h28a6 6 0 0 1 6 6v28a6 6 0 0 1-6 6h-28a6 6 0 0 1-6-6z" stroke="#000" fill="#f4d9ff"/><use xlink:href="#b" transform="matrix(1,0,0,1,-526.0000999999977,-566.0157331043696) translate(8.88888888888889 21.430555555555557)"/><path d="M-481.5-565.02a6 6 0 0 1 6-6h28a6 6 0 0 1 6 6v28a6 6 0 0 1-6 6h-28a6 6 0 0 1-6-6z" stroke="#000" fill="#f4d9ff"/><path d="M-450.5-551c0 6.08-4.92 11-11 11-6.07 0-11-4.92-11-11s4.93-11 11-11c6.08 0 11 4.92 11 11z" stroke="#000"/><path d="M-594.1-313.22a6 6 0 0 1-6-6v-27a6 6 0 0 1 6-6h27a6 6 0 0 1 6 6v27a6 6 0 0 1-6 6z" stroke="#000" fill="#dedeff"/><path d="M-580.6-343.72c6.06 0 11 4.92 11 11 0 6.07-4.94 11-11 11-6.1 0-11-4.93-11-11 0-6.08 4.9-11 11-11z" stroke="#000"/><path d="M-594.1-352.22a6 6 0 0 1-6-6v-27a6 6 0 0 1 6-6h27a6 6 0 0 1 6 6v27a6 6 0 0 1-6 6z" stroke="#000" fill="#dedeff"/><path d="M-580.6-382.72c6.06 0 11 4.92 11 11 0 6.07-4.94 11-11 11-6.1 0-11-4.93-11-11 0-6.08 4.9-11 11-11z" stroke="#000"/><path d="M-594.1-391.22a6 6 0 0 1-6-6v-27a6 6 0 0 1 6-6h27a6 6 0 0 1 6 6v27a6 6 0 0 1-6 6z" stroke="#000" fill="#dedeff"/><path d="M-580.6-421.72c6.06 0 11 4.92 11 11 0 6.07-4.94 11-11 11-6.1 0-11-4.93-11-11 0-6.08 4.9-11 11-11z" stroke="#000"/><path d="M-461.5-538.5l-.04 1.14-.12 2-.2 1.9-.27 1.8-.33 1.72-.4 1.65-.43 1.6-.5 1.54-.55 1.5-.62 1.47-.68 1.44-.74 1.42-.8 1.4-.88 1.4-.97 1.38-1.06 1.4-1.17 1.4-1.28 1.4-1.42 1.45-1.58 1.46-1.77 1.52-2 1.58-2.3 1.66-2.66 1.76-3.15 1.9-3.86 2.1-4.94 2.44-7.03 3.1-42.6 16.84-4.95 2.44-3.85 2.1-3.16 1.9-2.66 1.76-2.28 1.66-2 1.58-1.78 1.52-1.58 1.48-1.4 1.44-1.3 1.4-1.15 1.42-1.05 1.38-.97 1.4-.88 1.38-.82 1.4-.74 1.42-.37.78" stroke="#000" stroke-width="2" stroke-linejoin="round" fill="none"/><path d="M-460.5-538.45l-2-.04v-1.13l1 .13 1-.13z" stroke="#000" stroke-width=".05"/><path d="M-579.94-433.9l-1.6-14.9 9.07 1.9z" stroke="#000" stroke-width="2" fill="#fff"/><path d="M-619.62-407.22a6 6 0 0 1 6-6h4a6 6 0 0 1 6 6v10a6 6 0 0 1-6 6h-4a6 6 0 0 1-6-6z" fill="none"/><use xlink:href="#c" transform="matrix(1,0,0,1,-619.6183335448676,-413.2220052083333) translate(2.9444444444444446 17.77777777777778)"/><path d="M-619.62-368.22a6 6 0 0 1 6-6h4a6 6 0 0 1 6 6v10a6 6 0 0 1-6 6h-4a6 6 0 0 1-6-6z" fill="none"/><use xlink:href="#d" transform="matrix(1,0,0,1,-619.6183335448676,-374.2220052083333) translate(2.9444444444444446 17.77777777777778)"/><path d="M-620-329.22a6 6 0 0 1 6-6h4a6 6 0 0 1 6 6v10a6 6 0 0 1-6 6h-4a6 6 0 0 1-6-6z" fill="none"/><use xlink:href="#e" transform="matrix(1,0,0,1,-620,-335.2220052083333) translate(2.9444444444444446 17.77777777777778)"/><path d="M-480.5-454.43a6 6 0 0 1 6-6h123a6 6 0 0 1 6 6v28a6 6 0 0 1-6 6h-123a6 6 0 0 1-6-6z" stroke="#000" fill="#fff7a1"/><path d="M-470-449.43a6 6 0 0 1 6-6h18a6 6 0 0 1 6 6v18a6 6 0 0 1-6 6h-18a6 6 0 0 1-6-6z" stroke="#000" fill="#fcfcca"/><path d="M-447.5-440.43c0 4.14-3.37 7.5-7.5 7.5-4.15 0-7.5-3.36-7.5-7.5 0-4.14 3.35-7.5 7.5-7.5 4.13 0 7.5 3.36 7.5 7.5z" stroke="#000"/><path d="M-428-449.43a6 6 0 0 1 6-6h18a6 6 0 0 1 6 6v18a6 6 0 0 1-6 6h-18a6 6 0 0 1-6-6z" stroke="#000" fill="#fcfcca"/><path d="M-405.5-440.43c0 4.14-3.37 7.5-7.5 7.5-4.15 0-7.5-3.36-7.5-7.5 0-4.14 3.35-7.5 7.5-7.5 4.13 0 7.5 3.36 7.5 7.5z" stroke="#000"/><path d="M-386-449.43a6 6 0 0 1 6-6h18a6 6 0 0 1 6 6v18a6 6 0 0 1-6 6h-18a6 6 0 0 1-6-6z" stroke="#000" fill="#fcfcca"/><path d="M-363.5-440.43c0 4.14-3.36 7.5-7.5 7.5-4.14 0-7.5-3.36-7.5-7.5 0-4.14 3.36-7.5 7.5-7.5 4.14 0 7.5 3.36 7.5 7.5z" stroke="#000"/><path d="M-528.2-373.75a6 6 0 0 1 6-6h28a6 6 0 0 1 6 6v6a6 6 0 0 1-6 6h-28a6 6 0 0 1-6-6z" fill="none"/><use xlink:href="#f" transform="matrix(1,0,0,1,-528.1876124999975,-379.7535173993314) translate(2.713333333333342 15.719999999999995)"/><path d="M-568.1-332.7l3.62.1 3.07.26 2.27.32 1.88.38 1.7.44 1.76.57 2.82 1.1 5.8 2.33 3 .97 3.54.92 4.76.94 7.14 1 12.3 1.02 14.94.36" stroke="#000" stroke-width="2" stroke-linejoin="round" fill="none"/><path d="M-568.05-333.7l-.06 2-1.14-.03.13-1-.14-1z" stroke="#000" stroke-width=".05"/><path d="M-484.24-321.8l-14.32 4.47.1-9.27z" stroke="#000" stroke-width="2" fill="#fff"/><path d="M-568.1-371.75l21.42-.48" stroke="#000" stroke-width="2" stroke-linejoin="round" fill="none"/><path d="M-568.06-370.75l-1.18.03.13-1-.14-1 1.14-.02z" stroke="#000" stroke-width=".05"/><path d="M-531.42-372.58l-14.16 4.96-.2-9.27z" stroke="#000" stroke-width="2" fill="#fff"/><path d="M-455.26-383.25a6 6 0 0 1 6-6h8a6 6 0 0 1 6 6v8a6 6 0 0 1-6 6h-8a6 6 0 0 1-6-6z" stroke="#000" fill="#fcfcca"/><path d="M-442.76-379.25c0 1.38-1.12 2.5-2.5 2.5s-2.5-1.12-2.5-2.5 1.12-2.5 2.5-2.5 2.5 1.12 2.5 2.5z" stroke="#000"/><path d="M-454.96-431.42l.3 5.62.85 4.8 1.33 4.42 3.46 8.88" stroke="#000" stroke-width="2" stroke-linejoin="round" fill="none"/><path d="M-455.03-432.42l1-.16.07 1.13-2 .1-.07-1.3z" stroke="#000" stroke-width=".05"/><path d="M-445.93-392.92l-7.45-13.02 9.08-1.9z" stroke="#000" stroke-width="2" fill="#fff"/><path d="M-412.95-431.42l.07 1.25.36 2.02.57 1.9.8 1.8 1.07 1.86 1.48 1.98 2.17 2.25 3.75 3.08 14.23 10.05" stroke="#000" stroke-width="2" stroke-linejoin="round" fill="none"/><path d="M-413.02-432.42l1-.16.07 1.12-2 .12-.07-1.3z" stroke="#000" stroke-width=".05"/><path d="M-381.4-392.58l-11-10.22 8.1-4.5z" stroke="#000" stroke-width="2" fill="#fff"/><path d="M-415.26-383.25a6 6 0 0 1 6-6h58.86a6 6 0 0 1 6 6v7.32a6 6 0 0 1-6 6h-58.86a6 6 0 0 1-6-6z" stroke="#000" fill="#fcfcca"/><use xlink:href="#g" transform="matrix(1,0,0,1,-410.2634829102616,-384.2535173993313) translate(5.296006944444446 8.984374999999998)"/><path d="M-480.5-335.75a6 6 0 0 1 6-6h123a6 6 0 0 1 6 6v28a6 6 0 0 1-6 6h-123a6 6 0 0 1-6-6z" stroke="#000" fill="#fff7a1"/><path d="M-470-330.75a6 6 0 0 1 6-6h18a6 6 0 0 1 6 6v18a6 6 0 0 1-6 6h-18a6 6 0 0 1-6-6z" stroke="#000" fill="#fcfcca"/><path d="M-447.5-321.75c0 4.14-3.37 7.5-7.5 7.5-4.15 0-7.5-3.36-7.5-7.5 0-4.15 3.35-7.5 7.5-7.5 4.13 0 7.5 3.35 7.5 7.5z" stroke="#000"/><path d="M-428-330.75a6 6 0 0 1 6-6h18a6 6 0 0 1 6 6v18a6 6 0 0 1-6 6h-18a6 6 0 0 1-6-6z" stroke="#000" fill="#fcfcca"/><path d="M-405.5-321.75c0 4.14-3.37 7.5-7.5 7.5-4.15 0-7.5-3.36-7.5-7.5 0-4.15 3.35-7.5 7.5-7.5 4.13 0 7.5 3.35 7.5 7.5z" stroke="#000"/><path d="M-386-330.75a6 6 0 0 1 6-6h18a6 6 0 0 1 6 6v18a6 6 0 0 1-6 6h-18a6 6 0 0 1-6-6z" stroke="#000" fill="#fcfcca"/><path d="M-363.5-321.75c0 4.14-3.36 7.5-7.5 7.5-4.14 0-7.5-3.36-7.5-7.5 0-4.15 3.36-7.5 7.5-7.5 4.14 0 7.5 3.35 7.5 7.5z" stroke="#000"/><path d="M-465-264a6 6 0 0 1 6-6h8a6 6 0 0 1 6 6v8a6 6 0 0 1-6 6h-8a6 6 0 0 1-6-6z" stroke="#000" fill="#fcfcca"/><path d="M-452.5-260c0 1.38-1.13 2.5-2.5 2.5-1.4 0-2.5-1.12-2.5-2.5s1.1-2.5 2.5-2.5c1.37 0 2.5 1.12 2.5 2.5z" stroke="#000"/><path d="M-455-312.75V-289" stroke="#000" stroke-width="2" stroke-linejoin="round" fill="none"/><path d="M-455.03-313.75l1.02-.16v1.18h-2v-1.24z" stroke="#000" stroke-width=".05"/><path d="M-455-273.74l-4.65-14.26h9.27z" stroke="#000" stroke-width="2" fill="#fff"/><path d="M-412.95-312.75l.07 1.2.36 1.96.57 1.85.8 1.8 1.1 1.8 1.55 1.97 2.3 2.3 4.25 3.27 13.2 8.98" stroke="#000" stroke-width="2" stroke-linejoin="round" fill="none"/><path d="M-413.02-313.75l1-.16.07 1.12-2 .12-.07-1.3z" stroke="#000" stroke-width=".05"/><path d="M-381.46-275.13l-11.2-9.98 8-4.68z" stroke="#000" stroke-width="2" fill="#fff"/><path d="M-415.26-265.83a6 6 0 0 1 6-6h58.86a6 6 0 0 1 6 6v9.83a6 6 0 0 1-6 6h-58.86a6 6 0 0 1-6-6z" stroke="#000" fill="#fcfcca"/><use xlink:href="#h" transform="matrix(1,0,0,1,-410.2634829102616,-266.8307291666666) translate(4.413194444444457 11.382812499999996)"/><path d="M-568.1-410.75l2.84-.08 3.68-.3 3.56-.52 3.53-.7 3.58-.94 3.7-1.2 4.06-1.56 4.74-2.16 7-3.7 19.72-11 4.75-2.17 4.04-1.56 3.64-1.17" stroke="#000" stroke-width="2" stroke-linejoin="round" fill="none"/><path d="M-568.05-409.75l-1.2.03.14-1-.14-1 1.13-.03z" stroke="#000" stroke-width=".05"/><path d="M-484.2-439.97l-13.48 6.6-1.3-9.2z" stroke="#000" stroke-width="2" fill="#fff"/><path d="M-300.5-323.25a6 6 0 0 1 6-6h28a6 6 0 0 1 6 6v6a6 6 0 0 1-6 6h-28a6 6 0 0 1-6-6z" fill="none"/><use xlink:href="#f" transform="matrix(1,0,0,1,-300.5066914551319,-329.25351739933126) translate(2.713333333333342 15.719999999999995)"/><path d="M-362-321.74l43 .8" stroke="#000" stroke-width="2" stroke-linejoin="round" fill="none"/><path d="M-361.95-322.73l-.04 2-1.2-.03.2-.98-.15-1.02z" stroke="#000" stroke-width=".05"/><path d="M-303.74-320.65l-14.35 4.37.18-9.27z" stroke="#000" stroke-width="2" fill="#fff"/><path d="M-739.5-554a6 6 0 0 1 6-6h27a6 6 0 0 1 6 6v27a6 6 0 0 1-6 6h-27a6 6 0 0 1-6-6z" stroke="#000" fill="#dedeff"/><path d="M-709-540.5c0 6.08-4.92 11-11 11s-11-4.92-11-11 4.92-11 11-11 11 4.92 11 11z" stroke="#000"/><path d="M-641-639.5a.5.5 0 0 1 .5.5v398a.5.5 0 0 1-.5.5.5.5 0 0 1-.5-.5v-398a.5.5 0 0 1 .5-.5z" stroke="#979ea8" fill="none"/><path d="M-787.32-599a.5.5 0 0 1 .5-.5H-81a.5.5 0 0 1 .5.5.5.5 0 0 1-.5.5h-705.82a.5.5 0 0 1-.5-.5z" stroke="#979ea8" fill="none"/><path d="M-806.43-631a6 6 0 0 1 6-6h168a6 6 0 0 1 6 6v28a6 6 0 0 1-6 6h-168a6 6 0 0 1-6-6z" fill="none"/><use xlink:href="#i" transform="matrix(1,0,0,1,-806.4323689523067,-637.0107909935116) translate(54.63333333333333 30.244444444444444)"/><path d="M-707.5-540.52l17.5-.35 13.1-.83 11.46-1.23 42.35-5.87 13.1-.83" stroke="#000" stroke-width="2" stroke-linejoin="round" fill="none"/><path d="M-707.45-539.52l-1.18.02.13-1-.13-1 1.14-.02z" stroke="#000" stroke-width=".05"/><path d="M-594.74-549.94l-14.17 4.92-.2-9.27z" stroke="#000" stroke-width="2" fill="#fff"/><path d="M-752.52-478a6 6 0 0 1 6-6h60.18a6 6 0 0 1 6 6v38.28c-12.06-7.4-19.56-7.4-24.1-7.4-7.23 0-16.83 7.4-24.05 7.4-4.46 0-12.04 0-24.02-7.4z" fill="#fff"/><path d="M-751.62-481.1l.24-.42.62-.7.7-.62.4-.25m1.74-.7l.46-.12.94-.07h1.5m2 0h3.02m2 0h3m2.02 0h3m2 0h3.02m2 0h3.02m2 0h3m2.02 0h3m2 0h3.02m2 0h3.02m2 0h3m2.02 0h3m2 0h1.52l.94.08.45.12m1.73.7l.4.26.72.6.6.72.26.4m.7 1.73l.12.47.08.94v1.45m0 1.9v2.88m0 1.9v2.88m0 1.93v2.87m0 1.9v2.88m0 1.9v2.88m0 1.9v2.88m0 1.92v2.87m0 1.9v1.45l-1.38-.68m-1.83-.9l-2.76-1.35m-1.84-.9l-2.75-1.35m-1.97-.5l-2.98-.75m-1.98-.5l-.58-.14-2.48-.12m-2.04-.1l-1.53-.1-1.5.18m-1.98.36l-2.87.96m-1.9.63l-2.88.97m-1.9.64l-2.88.97m-1.9.63l-2.88.96m-1.9.64l-1.45.48-1.5-.14m-2.04-.18l-3.05-.27m-2-.24l-2.9-.95m-1.95-.63l-2.9-.96m-1.82-.9l-2.7-1.44m-1.8-.96l-1.35-.72v-1.54m0-2.06v-3.08m0-2.06v-3.1m0-2.05v-3.1m0-2.05v-3.1m0-2.05v-3.1m0-2.05V-478l.07-.93.1-.46" stroke="#000" fill="none"/><use xlink:href="#j" transform="matrix(1,0,0,1,-747.5217354557492,-478.9892090064884) translate(17.274739583333336 21.34375)"/><path d="M-300.5-454.43a6 6 0 0 1 6-6h123a6 6 0 0 1 6 6v28a6 6 0 0 1-6 6h-123a6 6 0 0 1-6-6z" stroke="#000" fill="#fff7a1"/><path d="M-290-449.43a6 6 0 0 1 6-6h18a6 6 0 0 1 6 6v18a6 6 0 0 1-6 6h-18a6 6 0 0 1-6-6z" stroke="#000" fill="#fcfcca"/><path d="M-267.5-440.43c0 4.14-3.37 7.5-7.5 7.5-4.15 0-7.5-3.36-7.5-7.5 0-4.14 3.35-7.5 7.5-7.5 4.13 0 7.5 3.36 7.5 7.5z" stroke="#000"/><path d="M-248-449.43a6 6 0 0 1 6-6h18a6 6 0 0 1 6 6v18a6 6 0 0 1-6 6h-18a6 6 0 0 1-6-6z" stroke="#000" fill="#fcfcca"/><path d="M-225.5-440.43c0 4.14-3.37 7.5-7.5 7.5-4.15 0-7.5-3.36-7.5-7.5 0-4.14 3.35-7.5 7.5-7.5 4.13 0 7.5 3.36 7.5 7.5z" stroke="#000"/><path d="M-206-449.43a6 6 0 0 1 6-6h18a6 6 0 0 1 6 6v18a6 6 0 0 1-6 6h-18a6 6 0 0 1-6-6z" stroke="#000" fill="#fcfcca"/><path d="M-183.5-440.43c0 4.14-3.36 7.5-7.5 7.5-4.14 0-7.5-3.36-7.5-7.5 0-4.14 3.36-7.5 7.5-7.5 4.14 0 7.5 3.36 7.5 7.5z" stroke="#000"/><path d="M-285-382.68a6 6 0 0 1 6-6h8a6 6 0 0 1 6 6v8a6 6 0 0 1-6 6h-8a6 6 0 0 1-6-6z" stroke="#000" fill="#fcfcca"/><path d="M-272.5-378.68c0 1.38-1.13 2.5-2.5 2.5-1.4 0-2.5-1.12-2.5-2.5s1.1-2.5 2.5-2.5c1.37 0 2.5 1.12 2.5 2.5z" stroke="#000"/><path d="M-275-431.42v23.74" stroke="#000" stroke-width="2" stroke-linejoin="round" fill="none"/><path d="M-275.03-432.42l1.02-.16v1.18h-2v-1.23z" stroke="#000" stroke-width=".05"/><path d="M-275-392.4l-4.65-14.28h9.27z" stroke="#000" stroke-width="2" fill="#fff"/><path d="M-232.95-431.42l.13 2.4.5 2.84.76 2.55 1.03 2.42 1.43 2.46 2.15 2.9 8.9 9.95" stroke="#000" stroke-width="2" stroke-linejoin="round" fill="none"/><path d="M-233.02-432.42l1-.16.07 1.13-2 .1-.07-1.3z" stroke="#000" stroke-width=".05"/><path d="M-212.62-392.2l-9.56-11.55 8.62-3.4z" stroke="#000" stroke-width="2" fill="#fff"/><path d="M-246.86-382.68a6 6 0 0 1 6-6H-182a6 6 0 0 1 6 6v8a6 6 0 0 1-6 6h-58.86a6 6 0 0 1-6-6z" stroke="#000" fill="#fcfcca"/><use xlink:href="#k" transform="matrix(1,0,0,1,-241.8583213621688,-383.67630563199594) translate(4.057508680555554 9.882812499999998)"/><path d="M-362-440.43h42.5" stroke="#000" stroke-width="2" stroke-linejoin="round" fill="none"/><path d="M-361.97-439.43h-1.23l.2-1-.15-1h1.18z" stroke="#000" stroke-width=".05"/><path d="M-304.24-440.43l-14.27 4.63v-9.26z" stroke="#000" stroke-width="2" fill="#fff"/><path d="M-120.5-446.06a6 6 0 0 1 6-6h28a6 6 0 0 1 6 6v7.13a6 6 0 0 1-6 6h-28a6 6 0 0 1-6-6z" fill="none"/><use xlink:href="#f" transform="matrix(1,0,0,1,-120.50669145513189,-452.0608325933061) translate(2.713333333333342 16.146666666666665)"/><path d="M-174.5-440.43h35.5" stroke="#000" stroke-width="2" stroke-linejoin="round" fill="none"/><path d="M-174.47-439.43h-1.03v-2h1.03z" stroke="#000" stroke-width=".05"/><path d="M-123.74-440.43L-138-435.8v-9.26z" stroke="#000" stroke-width="2" fill="#fff"/><path d="M-739.5-385.22a6 6 0 0 1 6-6h27a6 6 0 0 1 6 6v27a6 6 0 0 1-6 6h-27a6 6 0 0 1-6-6z" stroke="#000" fill="#ba23f6"/><path d="M-709-371.72c0 6.07-4.92 11-11 11s-11-4.93-11-11c0-6.08 4.92-11 11-11s11 4.92 11 11z" stroke="#000"/><path d="M-707.5-371.75l1.2-.02 2.14-.15 2.1-.24 2.08-.34 2.08-.44 2.07-.54 2.1-.64 2.1-.76 2.2-.9 2.23-1.05 2.34-1.23 2.47-1.45 2.66-1.73 2.9-2.08 3.3-2.6 3.9-3.4 5.4-5.14 21.68-22.05 3.33-2.9 2.7-2.12 2.32-1.66 2.06-1.34 1.9-1.1 1.74-.93 1.65-.77 1.57-.65 1.5-.55 1.48-.45 1.43-.37 1.4-.3 1.4-.22h.08" stroke="#000" stroke-width="2" stroke-linejoin="round" fill="none"/><path d="M-707.45-370.75l-1.18.03.13-1-.13-1 1.14-.02z" stroke="#000" stroke-width=".05"/><path d="M-603.1-427.65l-14.8 2.48 1.37-9.17z" stroke="#000" stroke-width="2" fill="#fff"/><path d="M-739.5-405.22a6 6 0 0 1 6-6h26.86a6 6 0 0 1 6 6v6a6 6 0 0 1-6 6h-26.86a6 6 0 0 1-6-6z" fill="none"/><use xlink:href="#l" transform="matrix(1,0,0,1,-739.5000999999978,-411.22200520833337) translate(8.561111111111117 14.883333333333331)"/><path d="M87.4-631a6 6 0 0 1 6-6h168a6 6 0 0 1 6 6v28a6 6 0 0 1-6 6h-168a6 6 0 0 1-6-6z" fill="none"/><use xlink:href="#a" transform="matrix(1,0,0,1,87.41249458690652,-637.0107909935116) translate(63.8 30.244444444444444)"/><path d="M134.93-574a6 6 0 0 1 6-6h148a6 6 0 0 1 6 6v48a6 6 0 0 1-6 6h-148a6 6 0 0 1-6-6z" stroke="#000" fill="#dedeff"/><path d="M145.42-564.9a6 6 0 0 1 6-6h28a6 6 0 0 1 6 6v28a6 6 0 0 1-6 6h-28a6 6 0 0 1-6-6z" stroke="#000" fill="#f4d9ff"/><use xlink:href="#b" transform="matrix(1,0,0,1,150.4189860420429,-565.893155108186) translate(8.88888888888889 21.430555555555557)"/><path d="M196.2-565.02a6 6 0 0 1 6-6h28a6 6 0 0 1 6 6v28a6 6 0 0 1-6 6h-28a6 6 0 0 1-6-6z" stroke="#000" fill="#f4d9ff"/><use xlink:href="#m" transform="matrix(1,0,0,1,201.1941289551333,-566.0157331043696) translate(8.88888888888889 21.430555555555557)"/><path d="M244.43-565.02a6 6 0 0 1 6-6h28a6 6 0 0 1 6 6v28a6 6 0 0 1-6 6h-28a6 6 0 0 1-6-6z" stroke="#000" fill="#f4d9ff"/><path d="M275.43-551c0 6.08-4.92 11-11 11-6.07 0-11-4.92-11-11s4.93-11 11-11c6.08 0 11 4.92 11 11z" stroke="#000"/><path d="M114.38-276.22a6 6 0 0 1-6-6v-27a6 6 0 0 1 6-6h27a6 6 0 0 1 6 6v27a6 6 0 0 1-6 6z" stroke="#000" fill="#dedeff"/><path d="M127.88-306.72c6.08 0 11 4.92 11 11 0 6.07-4.92 11-11 11-6.07 0-11-4.93-11-11 0-6.08 4.93-11 11-11z" stroke="#000"/><path d="M114.38-315.22a6 6 0 0 1-6-6v-27a6 6 0 0 1 6-6h27a6 6 0 0 1 6 6v27a6 6 0 0 1-6 6z" stroke="#000" fill="#dedeff"/><path d="M127.88-345.72c6.08 0 11 4.92 11 11 0 6.07-4.92 11-11 11-6.07 0-11-4.93-11-11 0-6.08 4.93-11 11-11z" stroke="#000"/><path d="M114.38-354.22a6 6 0 0 1-6-6v-27a6 6 0 0 1 6-6h27a6 6 0 0 1 6 6v27a6 6 0 0 1-6 6z" stroke="#000" fill="#dedeff"/><path d="M127.88-384.72c6.08 0 11 4.92 11 11 0 6.07-4.92 11-11 11-6.07 0-11-4.93-11-11 0-6.08 4.93-11 11-11z" stroke="#000"/><path d="M88.88-370.22a6 6 0 0 1 6-6h4a6 6 0 0 1 6 6v10a6 6 0 0 1-6 6h-4a6 6 0 0 1-6-6z" fill="none"/><use xlink:href="#c" transform="matrix(1,0,0,1,88.87603090729259,-376.2220052083332) translate(2.9444444444444446 17.77777777777778)"/><path d="M88.88-331.22a6 6 0 0 1 6-6h4a6 6 0 0 1 6 6v10a6 6 0 0 1-6 6h-4a6 6 0 0 1-6-6z" fill="none"/><use xlink:href="#d" transform="matrix(1,0,0,1,88.87603090729259,-337.2220052083332) translate(2.9444444444444446 17.77777777777778)"/><path d="M88.5-292.22a6 6 0 0 1 6-6h4a6 6 0 0 1 6 6v10a6 6 0 0 1-6 6h-4a6 6 0 0 1-6-6z" fill="none"/><use xlink:href="#e" transform="matrix(1,0,0,1,88.49436445216018,-298.2220052083332) translate(2.9444444444444446 17.77777777777778)"/><path d="M-13.57-554a6 6 0 0 1 6-6h27a6 6 0 0 1 6 6v27a6 6 0 0 1-6 6h-27a6 6 0 0 1-6-6z" stroke="#000" fill="#dedeff"/><path d="M16.93-540.5c0 6.08-4.93 11-11 11-6.08 0-11-4.92-11-11s4.92-11 11-11c6.07 0 11 4.92 11 11z" stroke="#000"/><path d="M84.93-639.5a.5.5 0 0 1 .5.5v448a.5.5 0 0 1-.5.5.5.5 0 0 1-.5-.5v-448a.5.5 0 0 1 .5-.5z" stroke="#979ea8" fill="none"/><path d="M-61.4-599a.5.5 0 0 1 .5-.5h705.83a.5.5 0 0 1 .5.5.5.5 0 0 1-.5.5H-60.9a.5.5 0 0 1-.5-.5z" stroke="#979ea8" fill="none"/><path d="M-80.5-631a6 6 0 0 1 6-6h168a6 6 0 0 1 6 6v28a6 6 0 0 1-6 6h-168a6 6 0 0 1-6-6z" fill="none"/><use xlink:href="#i" transform="matrix(1,0,0,1,-80.50669145513189,-637.0107909935116) translate(54.63333333333333 30.244444444444444)"/><path d="M18.43-540.52l17.48-.35 13.12-.83 11.46-1.23 42.36-5.87 13.1-.83" stroke="#000" stroke-width="2" stroke-linejoin="round" fill="none"/><path d="M18.48-539.52l-1.18.02.13-1-.13-1 1.14-.02z" stroke="#000" stroke-width=".05"/><path d="M131.2-549.94L117-545.02l-.2-9.27z" stroke="#000" stroke-width="2" fill="#fff"/><path d="M-26.6-478a6 6 0 0 1 6-6h60.18a6 6 0 0 1 6 6v38.28c-12.05-7.4-19.56-7.4-24.1-7.4-7.22 0-16.82 7.4-24.04 7.4-4.48 0-12.05 0-24.04-7.4z" fill="#fff"/><path d="M-25.7-481.1l.25-.42.6-.7.73-.62.4-.25m1.73-.7l.46-.12.94-.07h1.5m2 0h3.02m2 0h3.02m2 0h3m2.02 0h3m2 0H6m2 0H11m2 0h3m2.02 0h3m2 0h3.02m2 0h3.02m2 0h3m2.02 0h1.5l.94.08.46.12m1.73.7l.4.26.73.6.6.72.25.4m.72 1.73l.1.47.08.94v1.45m0 1.9v2.88m0 1.9v2.88m0 1.93v2.87m0 1.9v2.88m0 1.9v2.88m0 1.9v2.88m0 1.92v2.87m0 1.9v1.45l-1.37-.68m-1.83-.9l-2.75-1.35m-1.84-.9l-2.75-1.35m-1.98-.5l-2.97-.75m-2-.5l-.57-.14-2.45-.12m-2.04-.1l-1.52-.1-1.5.18m-1.98.36l-2.87.96m-1.9.63l-2.88.97m-1.9.64l-2.88.97m-1.92.63l-2.86.96m-1.93.64l-1.43.48-1.52-.14m-2.03-.18l-3.06-.27m-2.02-.24l-2.9-.95m-1.94-.63l-2.9-.96m-1.83-.9l-2.7-1.44m-1.8-.96l-1.35-.72v-1.54m0-2.06v-3.08m0-2.06v-3.1m0-2.05v-3.1m0-2.05v-3.1m0-2.05v-3.1m0-2.05V-478l.08-.93.1-.46" stroke="#000" fill="none"/><use xlink:href="#n" transform="matrix(1,0,0,1,-21.59605795857442,-478.9892090064884) translate(7.2617187500000036 21.34375)"/><path d="M-13.57-385.22a6 6 0 0 1 6-6h27a6 6 0 0 1 6 6v27a6 6 0 0 1-6 6h-27a6 6 0 0 1-6-6z" stroke="#000" fill="#ba23f6"/><path d="M16.93-371.72c0 6.07-4.93 11-11 11-6.08 0-11-4.93-11-11 0-6.08 4.92-11 11-11 6.07 0 11 4.92 11 11z" stroke="#000"/><path d="M18.43-371.75l2.48-.07 3.5-.3 3.56-.48 3.7-.72 3.97-1 4.43-1.38 5.4-2.02 9.32-4.12 15.8-7.22 4.5-1.68 3.5-1.1 3-.75 2.7-.52 2.5-.35 2.4-.2 1.4-.03" stroke="#000" stroke-width="2" stroke-linejoin="round" fill="none"/><path d="M18.48-370.75l-1.18.03.13-1-.13-1 1.13-.03z" stroke="#000" stroke-width=".05"/><path d="M105.4-390.8L90.53-389l1.8-9.1z" stroke="#000" stroke-width="2" fill="#fff"/><path d="M-13.57-405.22a6 6 0 0 1 6-6h26.85a6 6 0 0 1 6 6v6a6 6 0 0 1-6 6H-7.57a6 6 0 0 1-6-6z" fill="none"/><use xlink:href="#l" transform="matrix(1,0,0,1,-13.57442250282304,-411.22200520833337) translate(8.561111111111117 14.883333333333331)"/><path d="M203.2-357a6 6 0 0 1-6-6v-27a6 6 0 0 1 6-6h27a6 6 0 0 1 6 6v27a6 6 0 0 1-6 6z" stroke="#000" fill="#dedeff"/><path d="M216.7-387.5c6.07 0 11 4.93 11 11 0 6.08-4.93 11-11 11-6.08 0-11-4.92-11-11 0-6.07 4.92-11 11-11z" stroke="#000"/><path d="M203.2-396a6 6 0 0 1-6-6v-27a6 6 0 0 1 6-6h27a6 6 0 0 1 6 6v27a6 6 0 0 1-6 6z" stroke="#000" fill="#dedeff"/><path d="M216.7-426.5c6.07 0 11 4.93 11 11 0 6.08-4.93 11-11 11-6.08 0-11-4.92-11-11 0-6.07 4.92-11 11-11z" stroke="#000"/><path d="M203.2-435a6 6 0 0 1-6-6v-27a6 6 0 0 1 6-6h27a6 6 0 0 1 6 6v27a6 6 0 0 1-6 6z" stroke="#000" fill="#dedeff"/><path d="M216.7-465.5c6.07 0 11 4.93 11 11 0 6.08-4.93 11-11 11-6.08 0-11-4.92-11-11 0-6.07 4.92-11 11-11z" stroke="#000"/><path d="M177.7-451a6 6 0 0 1 6-6h4a6 6 0 0 1 6 6v10a6 6 0 0 1-6 6h-4a6 6 0 0 1-6-6z" fill="none"/><use xlink:href="#c" transform="matrix(1,0,0,1,177.6875374999991,-457.00000000000006) translate(2.9444444444444446 17.77777777777778)"/><path d="M177.7-412a6 6 0 0 1 6-6h4a6 6 0 0 1 6 6v10a6 6 0 0 1-6 6h-4a6 6 0 0 1-6-6z" fill="none"/><use xlink:href="#d" transform="matrix(1,0,0,1,177.6875374999991,-418.00000000000006) translate(2.9444444444444446 17.77777777777778)"/><path d="M177.3-373a6 6 0 0 1 6-6h4a6 6 0 0 1 6 6v10a6 6 0 0 1-6 6h-4a6 6 0 0 1-6-6z" fill="none"/><use xlink:href="#e" transform="matrix(1,0,0,1,177.3058710448667,-379.00000000000006) translate(2.9444444444444446 17.77777777777778)"/><path d="M203.2-240a6 6 0 0 1-6-6v-27a6 6 0 0 1 6-6h27a6 6 0 0 1 6 6v27a6 6 0 0 1-6 6z" stroke="#000" fill="#dedeff"/><path d="M216.7-270.5c6.07 0 11 4.93 11 11 0 6.08-4.93 11-11 11-6.08 0-11-4.92-11-11 0-6.07 4.92-11 11-11z" stroke="#000"/><path d="M203.2-279a6 6 0 0 1-6-6v-27a6 6 0 0 1 6-6h27a6 6 0 0 1 6 6v27a6 6 0 0 1-6 6z" stroke="#000" fill="#dedeff"/><path d="M216.7-309.5c6.07 0 11 4.93 11 11 0 6.08-4.93 11-11 11-6.08 0-11-4.92-11-11 0-6.07 4.92-11 11-11z" stroke="#000"/><path d="M203.2-318a6 6 0 0 1-6-6v-27a6 6 0 0 1 6-6h27a6 6 0 0 1 6 6v27a6 6 0 0 1-6 6z" stroke="#000" fill="#dedeff"/><path d="M216.7-348.5c6.07 0 11 4.93 11 11 0 6.08-4.93 11-11 11-6.08 0-11-4.92-11-11 0-6.07 4.92-11 11-11z" stroke="#000"/><path d="M177.7-334a6 6 0 0 1 6-6h4a6 6 0 0 1 6 6v10a6 6 0 0 1-6 6h-4a6 6 0 0 1-6-6z" fill="none"/><use xlink:href="#o" transform="matrix(1,0,0,1,177.6875374999991,-340) translate(2.9444444444444446 17.77777777777778)"/><path d="M177.7-295a6 6 0 0 1 6-6h4a6 6 0 0 1 6 6v10a6 6 0 0 1-6 6h-4a6 6 0 0 1-6-6z" fill="none"/><use xlink:href="#p" transform="matrix(1,0,0,1,177.6875374999991,-301) translate(2.9444444444444446 17.77777777777778)"/><path d="M177.3-256a6 6 0 0 1 6-6h4a6 6 0 0 1 6 6v10a6 6 0 0 1-6 6h-4a6 6 0 0 1-6-6z" fill="none"/><use xlink:href="#q" transform="matrix(1,0,0,1,177.3058710448667,-262) translate(2.9444444444444446 17.77777777777778)"/><path d="M264.4-538.5l-.06 1.4-.25 2.2-.42 2.08-.54 1.98-.7 1.9-.84 1.9-1.05 1.9-1.27 1.96-1.6 2.08-2.04 2.27-2.8 2.66-4.43 3.6-20.12 14.74-2.8 2.66-2.04 2.28-.92 1.2" stroke="#000" stroke-width="2" stroke-linejoin="round" fill="none"/><path d="M265.4-538.43l-2-.08.04-1.13 1 .13 1-.13z" stroke="#000" stroke-width=".05"/><path d="M217.73-477.56l.2-15 8.77 2.97z" stroke="#000" stroke-width="2" fill="#fff"/><path d="M272-459.93a6 6 0 0 1 6-6h28a6 6 0 0 1 6 6v6a6 6 0 0 1-6 6h-28a6 6 0 0 1-6-6z" fill="none"/><use xlink:href="#f" transform="matrix(1,0,0,1,272.01504400061737,-465.9298230313273) translate(2.713333333333342 15.719999999999995)"/><path d="M275.43-378.72a6 6 0 0 1 6-6h28a6 6 0 0 1 6 6v6a6 6 0 0 1-6 6h-28a6 6 0 0 1-6-6z" fill="none"/><use xlink:href="#f" transform="matrix(1,0,0,1,275.43216895231126,-384.72200520833326) translate(2.713333333333342 15.719999999999995)"/><path d="M275.43-300.75a6 6 0 0 1 6-6h28a6 6 0 0 1 6 6v6a6 6 0 0 1-6 6h-28a6 6 0 0 1-6-6z" fill="none"/><use xlink:href="#f" transform="matrix(1,0,0,1,275.43216895231126,-306.75351739933126) translate(2.713333333333342 15.719999999999995)"/><path d="M229.2-454.5h24.3" stroke="#000" stroke-width="2" stroke-linejoin="round" fill="none"/><path d="M229.22-453.5h-1.15l.13-1-.13-1h1.16z" stroke="#000" stroke-width=".05"/><path d="M268.78-454.5l-14.27 4.63v-9.26z" stroke="#000" stroke-width="2" fill="#fff"/><path d="M229.2-376.5h27.73" stroke="#000" stroke-width="2" stroke-linejoin="round" fill="none"/><path d="M229.22-375.5h-1.15l.13-1-.13-1h1.16z" stroke="#000" stroke-width=".05"/><path d="M272.2-376.5l-14.27 4.63v-9.26z" stroke="#000" stroke-width="2" fill="#fff"/><path d="M229.2-298.5h27.73" stroke="#000" stroke-width="2" stroke-linejoin="round" fill="none"/><path d="M229.22-297.5h-1.15l.13-1-.13-1h1.16z" stroke="#000" stroke-width=".05"/><path d="M272.2-298.5l-14.27 4.63v-9.26z" stroke="#000" stroke-width="2" fill="#fff"/><path d="M229.2-259.48l12.54.28 13.54.93 18.7 2.16 37.94 4.88 8.6.58" stroke="#000" stroke-width="2" stroke-linejoin="round" fill="none"/><path d="M229.25-260.48l-.05 2-1.13-.02.13-1-.13-1z" stroke="#000" stroke-width=".05"/><path d="M335.77-250.1l-14.4 4.13.3-9.27z" stroke="#000" stroke-width="2" fill="#fff"/><path d="M340-455.68a6 6 0 0 1 6-6h123a6 6 0 0 1 6 6v28a6 6 0 0 1-6 6H346a6 6 0 0 1-6-6z" stroke="#000" fill="#fff7a1"/><path d="M350.5-450.68a6 6 0 0 1 6-6h18a6 6 0 0 1 6 6v18a6 6 0 0 1-6 6h-18a6 6 0 0 1-6-6z" stroke="#000" fill="#fcfcca"/><path d="M373-441.68c0 4.14-3.36 7.5-7.5 7.5-4.15 0-7.5-3.36-7.5-7.5 0-4.14 3.35-7.5 7.5-7.5 4.14 0 7.5 3.36 7.5 7.5z" stroke="#000"/><path d="M392.5-450.68a6 6 0 0 1 6-6h18a6 6 0 0 1 6 6v18a6 6 0 0 1-6 6h-18a6 6 0 0 1-6-6z" stroke="#000" fill="#fcfcca"/><path d="M415-441.68c0 4.14-3.36 7.5-7.5 7.5-4.14 0-7.5-3.36-7.5-7.5 0-4.14 3.36-7.5 7.5-7.5 4.14 0 7.5 3.36 7.5 7.5z" stroke="#000"/><path d="M434.5-450.68a6 6 0 0 1 6-6h18a6 6 0 0 1 6 6v18a6 6 0 0 1-6 6h-18a6 6 0 0 1-6-6z" stroke="#000" fill="#fcfcca"/><path d="M457-441.68c0 4.14-3.35 7.5-7.5 7.5-4.14 0-7.5-3.36-7.5-7.5 0-4.14 3.36-7.5 7.5-7.5 4.15 0 7.5 3.36 7.5 7.5z" stroke="#000"/><path d="M350.5-393a6 6 0 0 1 6-6h8a6 6 0 0 1 6 6v8a6 6 0 0 1-6 6h-8a6 6 0 0 1-6-6z" stroke="#000" fill="#fcfcca"/><path d="M363-389c0 1.38-1.13 2.5-2.5 2.5-1.4 0-2.5-1.12-2.5-2.5s1.1-2.5 2.5-2.5c1.37 0 2.5 1.12 2.5 2.5z" stroke="#000"/><path d="M365.43-432.68l-.52 7.92-1.22 7.03" stroke="#000" stroke-width="2" stroke-linejoin="round" fill="none"/><path d="M365.48-433.68l1.03-.16-.08 1.25-2-.12.08-1.16z" stroke="#000" stroke-width=".05"/><path d="M361.05-402.7l-2.1-14.84 9.12 1.6z" stroke="#000" stroke-width="2" fill="#fff"/><path d="M407.57-432.68l.17 2.4.6 2.77.97 2.48 1.43 2.52 2.64 3.36 3.04 3.44" stroke="#000" stroke-width="2" stroke-linejoin="round" fill="none"/><path d="M407.5-433.68l1-.16.07 1.12-2 .14-.1-1.3z" stroke="#000" stroke-width=".05"/><path d="M422.7-402.43l-10.3-10.9 8.38-3.97z" stroke="#000" stroke-width="2" fill="#fff"/><path d="M388.65-393a6 6 0 0 1 6-6h58.86a6 6 0 0 1 6 6v8a6 6 0 0 1-6 6h-58.85a6 6 0 0 1-6-6z" stroke="#000" fill="#fcfcca"/><use xlink:href="#k" transform="matrix(1,0,0,1,393.6483700929632,-394.00000000000006) translate(4.057508680555554 9.882812499999998)"/><path d="M520-447.3a6 6 0 0 1 6-6h28a6 6 0 0 1 6 6v7.12a6 6 0 0 1-6 6h-28a6 6 0 0 1-6-6z" fill="none"/><use xlink:href="#f" transform="matrix(1,0,0,1,520,-453.3143499926375) translate(2.713333333333342 16.146666666666665)"/><path d="M466-441.68h35.5" stroke="#000" stroke-width="2" stroke-linejoin="round" fill="none"/><path d="M466.03-440.68H465v-2h1.03z" stroke="#000" stroke-width=".05"/><path d="M516.76-441.68l-14.26 4.63v-9.27z" stroke="#000" stroke-width="2" fill="#fff"/><path d="M229.2-415.52l4.25-.1 5.05-.34 4.95-.56 4.94-.78 5.06-1.04 5.43-1.37 6.2-1.88 8.48-3 29.03-11.02 6.2-1.87 5.43-1.37 5.08-1.04 1.78-.3" stroke="#000" stroke-width="2" stroke-linejoin="round" fill="none"/><path d="M229.25-414.52l-1.18.02.13-1-.13-1 1.13-.02z" stroke="#000" stroke-width=".05"/><path d="M336.27-441.42l-13.83 5.8-.76-9.25z" stroke="#000" stroke-width="2" fill="#fff"/><path d="M340-354.72a6 6 0 0 1 6-6h123a6 6 0 0 1 6 6v28a6 6 0 0 1-6 6H346a6 6 0 0 1-6-6z" stroke="#000" fill="#fff7a1"/><path d="M350.5-349.72a6 6 0 0 1 6-6h18a6 6 0 0 1 6 6v18a6 6 0 0 1-6 6h-18a6 6 0 0 1-6-6z" stroke="#000" fill="#fcfcca"/><path d="M373-340.72c0 4.14-3.36 7.5-7.5 7.5-4.15 0-7.5-3.36-7.5-7.5 0-4.14 3.35-7.5 7.5-7.5 4.14 0 7.5 3.36 7.5 7.5z" stroke="#000"/><path d="M392.5-349.72a6 6 0 0 1 6-6h18a6 6 0 0 1 6 6v18a6 6 0 0 1-6 6h-18a6 6 0 0 1-6-6z" stroke="#000" fill="#fcfcca"/><path d="M415-340.72c0 4.14-3.36 7.5-7.5 7.5-4.14 0-7.5-3.36-7.5-7.5 0-4.14 3.36-7.5 7.5-7.5 4.14 0 7.5 3.36 7.5 7.5z" stroke="#000"/><path d="M434.5-349.72a6 6 0 0 1 6-6h18a6 6 0 0 1 6 6v18a6 6 0 0 1-6 6h-18a6 6 0 0 1-6-6z" stroke="#000" fill="#fcfcca"/><path d="M457-340.72c0 4.14-3.35 7.5-7.5 7.5-4.14 0-7.5-3.36-7.5-7.5 0-4.14 3.36-7.5 7.5-7.5 4.15 0 7.5 3.36 7.5 7.5z" stroke="#000"/><path d="M343.9-294.6a6 6 0 0 1 6-6h8a6 6 0 0 1 6 6v8a6 6 0 0 1-6 6h-8a6 6 0 0 1-6-6z" stroke="#000" fill="#fcfcca"/><path d="M356.4-290.6c0 1.37-1.12 2.5-2.5 2.5s-2.5-1.13-2.5-2.5c0-1.4 1.12-2.5 2.5-2.5s2.5 1.1 2.5 2.5z" stroke="#000"/><path d="M365.42-331.72l-.25 3.27-.78 3.27-1.27 3-2.7 4.16" stroke="#000" stroke-width="2" stroke-linejoin="round" fill="none"/><path d="M365.48-332.7l1.03-.18-.1 1.26-1.98-.15.1-1.15z" stroke="#000" stroke-width=".05"/><path d="M355.06-304.13l.82-14.98 8.65 3.33z" stroke="#000" stroke-width="2" fill="#fff"/><path d="M407.58-331.72l.1 1.35.53 2.03.87 1.9 1.33 2 2.3 2.4 6.02 4.83" stroke="#000" stroke-width="2" stroke-linejoin="round" fill="none"/><path d="M407.5-332.7l1-.18.08 1.1-2 .17-.1-1.33z" stroke="#000" stroke-width=".05"/><path d="M427.18-305.56l-12.14-8.82 7.5-5.45z" stroke="#000" stroke-width="2" fill="#fff"/><path d="M393.65-296.44a6 6 0 0 1 6-6h58.86a6 6 0 0 1 6 6v9.83a6 6 0 0 1-6 6h-58.85a6 6 0 0 1-6-6z" stroke="#000" fill="#fcfcca"/><use xlink:href="#h" transform="matrix(1,0,0,1,398.6483700929631,-297.4440104166666) translate(4.413194444444457 11.382812499999996)"/><path d="M520-342.22a6 6 0 0 1 6-6h28a6 6 0 0 1 6 6v6a6 6 0 0 1-6 6h-28a6 6 0 0 1-6-6z" fill="none"/><use xlink:href="#f" transform="matrix(1,0,0,1,520,-348.22200520833337) translate(2.713333333333342 15.719999999999995)"/><path d="M458.5-340.7l43 .8" stroke="#000" stroke-width="2" stroke-linejoin="round" fill="none"/><path d="M458.56-341.7l-.04 2-1.22-.03.2-.98-.15-1.03z" stroke="#000" stroke-width=".05"/><path d="M516.76-339.6l-14.34 4.35.17-9.26z" stroke="#000" stroke-width="2" fill="#fff"/><path d="M229.2-337.52l43.14-1.05 48.67-1.56" stroke="#000" stroke-width="2" stroke-linejoin="round" fill="none"/><path d="M229.25-336.52l-1.18.02.13-1-.13-1 1.13-.02z" stroke="#000" stroke-width=".05"/><path d="M336.27-340.62l-14.1 5.1-.3-9.27z" stroke="#000" stroke-width="2" fill="#fff"/><path d="M339.5-264a6 6 0 0 1 6-6h123a6 6 0 0 1 6 6v28a6 6 0 0 1-6 6h-123a6 6 0 0 1-6-6z" stroke="#000" fill="#fff7a1"/><path d="M350-259a6 6 0 0 1 6-6h18a6 6 0 0 1 6 6v18a6 6 0 0 1-6 6h-18a6 6 0 0 1-6-6z" stroke="#000" fill="#fcfcca"/><path d="M372.5-250c0 4.14-3.36 7.5-7.5 7.5-4.14 0-7.5-3.36-7.5-7.5 0-4.14 3.36-7.5 7.5-7.5 4.14 0 7.5 3.36 7.5 7.5z" stroke="#000"/><path d="M392-259a6 6 0 0 1 6-6h18a6 6 0 0 1 6 6v18a6 6 0 0 1-6 6h-18a6 6 0 0 1-6-6z" stroke="#000" fill="#fcfcca"/><path d="M414.5-250c0 4.14-3.35 7.5-7.5 7.5-4.14 0-7.5-3.36-7.5-7.5 0-4.14 3.36-7.5 7.5-7.5 4.15 0 7.5 3.36 7.5 7.5z" stroke="#000"/><path d="M434-259a6 6 0 0 1 6-6h18a6 6 0 0 1 6 6v18a6 6 0 0 1-6 6h-18a6 6 0 0 1-6-6z" stroke="#000" fill="#fcfcca"/><path d="M456.5-250c0 4.14-3.35 7.5-7.5 7.5-4.13 0-7.5-3.36-7.5-7.5 0-4.14 3.37-7.5 7.5-7.5 4.15 0 7.5 3.36 7.5 7.5z" stroke="#000"/><path d="M340-204.67a6 6 0 0 1 6-6h8a6 6 0 0 1 6 6v8a6 6 0 0 1-6 6h-8a6 6 0 0 1-6-6z" stroke="#000" fill="#fcfcca"/><path d="M352.5-200.67c0 1.38-1.12 2.5-2.5 2.5s-2.5-1.12-2.5-2.5 1.12-2.5 2.5-2.5 2.5 1.12 2.5 2.5z" stroke="#000"/><path d="M364.92-241l-.18 2.35-.67 2.7-1.06 2.46-1.7 2.68-3.1 3.7" stroke="#000" stroke-width="2" stroke-linejoin="round" fill="none"/><path d="M365-242l1.02-.16-.1 1.27-2-.15.1-1.15z" stroke="#000" stroke-width=".05"/><path d="M351.48-214.05l2.4-14.8 8.25 4.24z" stroke="#000" stroke-width="2" fill="#fff"/><path d="M407.08-241l.13 1.55.55 2.18.87 2.03 1.33 2.08 2.28 2.5 5.45 4.74" stroke="#000" stroke-width="2" stroke-linejoin="round" fill="none"/><path d="M407-242l1-.15.08 1.1-2 .16-.1-1.3z" stroke="#000" stroke-width=".05"/><path d="M425.65-213.87l-11.74-9.34 7.74-5.12z" stroke="#000" stroke-width="2" fill="#fff"/><path d="M392-204.67a6 6 0 0 1 6-6h58.87a6 6 0 0 1 6 6v9.83a6 6 0 0 1-6 6H398a6 6 0 0 1-6-6z" stroke="#000" fill="#fcfcca"/><use xlink:href="#g" transform="matrix(1,0,0,1,397.0065914551343,-205.66927083333337) translate(5.296006944444446 10.484374999999998)"/><path d="M519.5-251.5a6 6 0 0 1 6-6h28a6 6 0 0 1 6 6v6a6 6 0 0 1-6 6h-28a6 6 0 0 1-6-6z" fill="none"/><use xlink:href="#f" transform="matrix(1,0,0,1,519.5065914551343,-257.5) translate(2.713333333333342 15.719999999999995)"/><path d="M458.02-249.98l43 .8" stroke="#000" stroke-width="2" stroke-linejoin="round" fill="none"/><path d="M458.06-250.98l-.03 2-1.22-.02.22-1-.16-1z" stroke="#000" stroke-width=".05"/><path d="M516.27-248.9l-14.35 4.38.17-9.27z" stroke="#000" stroke-width="2" fill="#fff"/><g fill="none"><path d="M127.88-407.5a1 1 0 0 1 1 1V-272a1 1 0 0 1-1 1 1 1 0 0 1-1-1v-134.5a1 1 0 0 1 1-1z"/><path d="M128.88-393.05v11.53m0 7.68v11.53m0 7.68v11.53m0 7.7v11.52m0 7.7v11.52m0 7.68v11.53m0 7.7v5.91l-.05.15-.06.15-.08.14-.1.1-.13.1-.13.1-.15.05-.16.04h-.31l-.16-.05-.14-.06-.14-.1-.12-.1-.1-.1-.1-.15-.05-.14-.04-.14-.02-.16v-5.76m0-7.7v-11.52m0-7.68v-11.53m0-7.68v-11.53m0-7.7v-11.52m0-7.7v-11.52m0-7.68v-11.53m0-7.7v-5.91l.05-.15.06-.15.07-.14.1-.1.12-.1.13-.1.14-.05.16-.04h.31l.15.05.14.06.13.1.12.1.1.1.07.15.06.14.04.14v5.92" stroke="#e81313" stroke-width="2"/></g><defs><path fill="#979ea8" d="M107-780c100 15 51 176 51 272 0 29 23 25 56 24 33-11 175 4 171-42 9-67 4-153 14-224 12-14 39-57 70-50 51 0 74 34 69 103L490-47c-6 28-25 57-57 56-118-5-54-182-54-299 0-34 3-75-15-85-65 6-127 12-191 19-52 29-23 162-29 239C135-7 87 19 22-30 10-48 7-67 13-88c-16-100 8-215 8-322 0-127-9-364 86-370" id="r"/><path fill="#979ea8" d="M330-158c82-22 193-18 286-31 38 11 58 81 24 113-25 24-71 25-116 25-135 0-238 34-358 47C61 7 4-52 15-159c12-113 37-213 32-340-2-59 2-121-2-178-2-44 35-62 81-61 104-31 222-52 345-64 68-7 103 34 111 94 2 12-3 22-9 31-33 14-62 15-103 16-100 2-196 10-270 40h-8c-18 23-11 79-15 106-1 13 5 22 16 25 82-10 176-25 264-12 44 7 78 26 71 72-7 49-76 30-125 30-78 0-138 22-210 29-24 1-35 28-36 52-2 41-10 83-8 126-19 84 122 51 181 35" id="s"/><path fill="#979ea8" d="M103-24C79 10-2-14 8-59c42-186 129-353 193-524 23-62 63-135 99-197 39-38 106-10 109 47 27 100 51 209 81 307 8 25 72 24 72 63 0 44-26 46-37 75 12 83 46 156 55 243 7 63-106 47-114 11-13-58-36-170-57-231-3-4-7-8-9-14-69 4-134 40-198 52-53 21-53 108-81 160-4 16-8 29-18 43zm215-551c-16 18-92 195-73 208 46 2 100-12 123-31-5-30-32-162-38-171-2-3-6-5-12-6" id="t"/><path fill="#979ea8" d="M23-677c-68-88 127-122 212-122 113 0 253 24 291 82 92 144-48 310-153 365-52 27-102 48-161 69-56 20-53 15-58 80-4 49-8 103-13 153-3 31-19 46-43 46-44 0-65-28-63-81 5-162 8-330 16-486 3-53-4-75-28-106zm415 73c0-44-44-66-132-66-78 0-124 8-135 26-10 16-14 89-14 218 0 44 22 39 57 25 83-34 224-115 224-203" id="u"/><g id="a"><use transform="matrix(0.022222222222222223,0,0,0.022222222222222223,0,0)" xlink:href="#r"/><use transform="matrix(0.022222222222222223,0,0,0.022222222222222223,12.022222222222222,0)" xlink:href="#s"/><use transform="matrix(0.022222222222222223,0,0,0.022222222222222223,26.822222222222223,0)" xlink:href="#t"/><use transform="matrix(0.022222222222222223,0,0,0.022222222222222223,39.86666666666667,0)" xlink:href="#u"/></g><path d="M104-123c39 3 61 21 62 59C167 7 83 12 19-4l-2-50h12c2 29 16 43 51 43 38 0 54-19 54-55 2-43-34-49-75-50v-14c37 0 64-7 64-48 0-47-47-56-81-36l-6 29H24v-46c51-13 135-13 131 51-2 34-20 52-51 57" id="v"/><use transform="matrix(0.06790123456790123,0,0,0.06790123456790123,0,0)" xlink:href="#v" id="b"/><path fill="#979ea8" d="M90-239c59 0 76 52 76 120S152 4 89 4C31 4 14-51 14-119c0-67 17-120 76-120zM89-10c45-6 45-58 45-109 0-50 0-101-45-106-45 4-43 57-43 106 0 50-2 104 43 109" id="w"/><use transform="matrix(0.06172839506172839,0,0,0.06172839506172839,0,0)" xlink:href="#w" id="c"/><path fill="#979ea8" d="M110-14l48 5v9H32v-9l48-5v-192l-48 17v-10l69-39h9v224" id="x"/><use transform="matrix(0.06172839506172839,0,0,0.06172839506172839,0,0)" xlink:href="#x" id="d"/><path fill="#979ea8" d="M24-231c66-21 156 2 128 81C132-92 78-66 39-27h121V0H16v-26l59-54c26-25 47-47 47-97 0-48-47-57-81-37l-6 29H24v-46" id="y"/><use transform="matrix(0.06172839506172839,0,0,0.06172839506172839,0,0)" xlink:href="#y" id="e"/><path fill="#6f7681" d="M24-128c0-158-18-313-5-472 6-74-11-192 62-191 78 1 88 68 113 130 59 143 102 191 174 297 50 73 81 109 92 109 8 0 12-3 13-9 24-163 3-322-12-477-6-63 62-76 101-37 65 64 45 212 54 340 10 141 7 304-15 413-8 15-20 23-37 23-76 0-203-132-244-200-33-54-79-109-116-169l4 4c-9-20-41-55-54-51-14 102-5 244 6 344 3 30-15 69-41 68-9 0-28-1-56-3-44-28-39-45-39-119" id="z"/><path fill="#6f7681" d="M109-754c29-56 120 5 113 55-24 164-73 311-76 498 0 44 17 66 52 66 44 0 193-39 283-82 16-8 27-24 32-45 27-114 44-316 44-439 0-57 27-86 82-86 38 0 57 27 57 82 0 195-35 406-61 587 5 33 20 94-14 106-8 12-30 10-67-7-15-20-33-39-52-56C437-54 255 2 210 0 80-5 5-44 13-182c11-186 48-366 83-531 3-12 5-27 13-41" id="A"/><path fill="#6f7681" d="M21-302C-7-136 9 24 196-12c147-28 263-93 386-142 57-23 26-120-26-120-111 32-240 115-378 126-13 1-22-26-25-45 30-174 59-350 88-524 10-62-86-124-120-61-39 73-49 196-69 277-19 77-22 145-31 199" id="B"/><g id="f"><use transform="matrix(0.013333333333333329,0,0,0.013333333333333329,0,0)" xlink:href="#z"/><use transform="matrix(0.013333333333333329,0,0,0.013333333333333329,8.546666666666663,0)" xlink:href="#A"/><use transform="matrix(0.013333333333333329,0,0,0.013333333333333329,17.94666666666666,0)" xlink:href="#B"/><use transform="matrix(0.013333333333333329,0,0,0.013333333333333329,26.37333333333332,0)" xlink:href="#B"/></g><path d="M666-1365c326 0 518 259 518 595 0 178-48 346-145 502C928-89 788 0 621 0 344 0 200-283 200-582c0-169 35-333 107-490 89-196 210-293 359-293zM401-582c0 173 76 381 229 381 86 0 168-71 247-214 71-127 106-239 106-334 0-219-129-422-336-417-153 61-246 349-246 584" id="C"/><path d="M172-1273c0-51 55-92 106-92 37 0 64 24 92 68 37 59 126 327 147 375 45-73 86-148 133-220 69-105 130-155 174-155 52 0 105 52 103 104-20 75-241 385-311 490 18 36 85 160 200 372 65 118 97 196 97 234 1 55-42 97-97 97-43 0-105-70-183-212-15-28-60-122-136-281-43 69-136 292-221 411-25 35-56 50-87 50-84 0-113-73-88-151 12-39 108-216 290-529-146-314-219-501-219-561" id="D"/><path d="M763-737c119 66 232 201 235 370C1002-138 781 0 539 0 307 0 164-187 164-411c0-153 57-265 171-337-87-71-130-164-130-279-1-207 116-338 324-338 198 0 387 157 387 358 0 119-51 209-153 270zM556-879c82 0 159-51 159-133 0-90-87-154-176-154s-133 55-133 164c0 75 73 123 150 123zM367-406c0 89 78 203 167 203 159 0 239-67 239-201 0-94-135-198-227-198-90 0-179 106-179 196" id="E"/><path d="M592-1365c194 7 272 184 272 399 0 120-87 574-93 628-13 114-25 181-30 201C717-46 678 0 625 0c-48 0-101-44-101-92 0-132 51-296 78-415C319-461 53-614 53-877c0-222 314-496 539-488zm-32 194c-138-8-294 169-294 307 0 106 68 159 203 159 53 0 111-8 174-25 14-93 21-185 21-277 1-103-17-159-104-164" id="F"/><path d="M387-1365c369 0 678 217 678 573 0 172-83 346-249 522C647-90 478 0 307 0 194 0 137-80 137-239c0-257 30-558 68-915-53-11-80-43-80-95 0-56 32-93 97-108 26-6 81-8 165-8zm21 204c-15 76-47 491-72 917 0 13 1 27 2 41 116-22 231-92 346-210 120-123 180-241 180-355-1-196-67-277-209-343-74-35-157-50-247-50" id="G"/><path d="M602-1365c226 0 427 132 427 346 0 137-77 248-230 335 105 61 197 186 199 339 3 281-357 407-648 316-78-24-131-56-167-92-63-64-18-172 66-171 17 0 42 10 75 29 69 40 136 60 203 60 99 0 270-46 270-132 0-65-34-119-101-162-30-30-193-73-257-109-51-48-33-144 39-165 105-30 195-49 270-118 51-47 80-92 80-140 0-76-136-135-220-135-54 0-174 34-292 55-51 9-103-51-103-103 0-108 251-153 389-153" id="H"/><path d="M722-1365c155 0 277 78 276 225 0 91-50 195-151 314-48 56-136 140-262 254-171 154-256 259-256 316 0 37 32 55 96 55 103 0 398-64 478-64 48 0 94 55 94 103 0 50-33 87-101 99C773-42 564-1 425 0 221 0 119-76 119-227c0-93 56-204 169-333 46-52 140-144 284-277s216-227 216-283c0-29-23-44-69-44-62 0-148 26-258 77-11 52-41 78-92 78-58 0-103-42-103-100 0-156 283-256 456-256" id="I"/><path d="M111-254c0-80 75-479 73-483 3-23 17-167 40-434-41-20-62-51-62-94 0-67 48-100 145-100 431 0 647 127 647 380 0 161-86 280-258 359 120 81 180 177 180 290 0 173-116 256-272 302C530-12 459 0 391 0 204 0 111-85 111-254zm642-722c0-105-210-177-326-186-9 140-24 282-43 426 246-59 369-139 369-240zm-77 638c-27-89-136-153-326-193-27 162-48 229-34 323 82 18 157 3 237-24 75-26 116-61 123-106" id="J"/><path d="M369 0C201 0 119-119 119-294c0-119 26-272 77-457 80-290 99-377 125-524 7-13 27-26 60-41 71-33 211-49 419-49 129 0 193 36 193 107 0 50-48 105-99 101-142-10-258-9-397 20-11 59-34 158-69 297 146-57 246-85 301-85 53 0 100 43 100 96 0 43-23 80-73 99-127 49-178 54-389 129-29 119-44 224-44 314 0 58 10 87 30 87 66 0 151-30 256-90s173-91 205-91c50 0 101 49 101 99 0 30-19 57-51 87C794-129 500 0 369 0" id="K"/><g id="g"><use transform="matrix(0.004340277777777777,0,0,0.004340277777777777,0,0)" xlink:href="#C"/><use transform="matrix(0.004340277777777777,0,0,0.004340277777777777,6.015624999999999,0)" xlink:href="#D"/><use transform="matrix(0.004340277777777777,0,0,0.004340277777777777,10.451388888888888,0)" xlink:href="#E"/><use transform="matrix(0.004340277777777777,0,0,0.004340277777777777,15.38628472222222,0)" xlink:href="#F"/><use transform="matrix(0.004340277777777777,0,0,0.004340277777777777,19.869791666666664,0)" xlink:href="#G"/><use transform="matrix(0.004340277777777777,0,0,0.004340277777777777,24.787326388888886,0)" xlink:href="#H"/><use transform="matrix(0.004340277777777777,0,0,0.004340277777777777,29.95225694444444,0)" xlink:href="#I"/><use transform="matrix(0.004340277777777777,0,0,0.004340277777777777,35.05642361111111,0)" xlink:href="#J"/><use transform="matrix(0.004340277777777777,0,0,0.004340277777777777,39.56163194444444,0)" xlink:href="#K"/><use transform="matrix(0.004340277777777777,0,0,0.004340277777777777,44.39236111111111,0)" xlink:href="#C"/></g><path d="M200-1365c95 3 162 6 292 6 343 0 515 81 515 243 0 172-258 535-348 706-53 101-82 215-127 338-18 49-50 72-90 72-61 0-126-55-104-125 63-205 151-424 283-648 32-54 84-133 147-241 14-24 20-43 20-56 0-67-104-101-312-101-139 0-364 56-370-92-2-49 45-103 94-102" id="L"/><path d="M324-1236c5 23-37 369-37 466 0 156 45 234 136 234 188 0 282-184 282-553 11-40 18-100 31-177 11-67 49-99 100-99 69 0 103 44 103 133 0 160-19 698-19 858 0 51 8 229 8 280 0 49-51 94-100 94-77 0-115-76-115-227v-230c-84 79-185 119-303 119-217 0-325-140-325-421 0-92 40-385 36-477-2-55 48-97 103-97 54 0 102 42 100 97" id="M"/><path d="M295-1038c-53 2-99-46-99-99 0-31 18-59 51-87 37-32 224-141 280-141 69 0 104 33 104 99v735c-33 116-21 386-54 459-21 48-54 72-99 72-64 1-108-57-94-125 18-88 24-194 24-317 1 31 2-75 2-317v-328c-50 33-88 49-115 49" id="N"/><path d="M922-654c-9 182 20 369 29 555 5 90-140 139-183 58-2-3-13-31-31-85-54-160-191-263-414-306-19 75-30 243-58 360-12 50-51 72-98 72-55 0-99-53-99-108 1-366 195-896 360-1117 69-92 141-140 222-140 182 0 273 207 273 621 0 19 1 49-1 90zM724-476v-400c-20-103-13-145-35-225-11-40-25-60-40-60-32 0-83 65-154 195-56 103-99 215-130 336 137 27 256 79 359 154" id="O"/><g id="h"><use transform="matrix(0.004774305555555554,0,0,0.004774305555555554,0,0)" xlink:href="#C"/><use transform="matrix(0.004774305555555554,0,0,0.004774305555555554,6.617187499999998,0)" xlink:href="#D"/><use transform="matrix(0.004774305555555554,0,0,0.004774305555555554,11.496527777777775,0)" xlink:href="#L"/><use transform="matrix(0.004774305555555554,0,0,0.004774305555555554,16.65277777777777,0)" xlink:href="#M"/><use transform="matrix(0.004774305555555554,0,0,0.004774305555555554,22.15277777777777,0)" xlink:href="#J"/><use transform="matrix(0.004774305555555554,0,0,0.004774305555555554,27.108506944444436,0)" xlink:href="#N"/><use transform="matrix(0.004774305555555554,0,0,0.004774305555555554,31.118923611111097,0)" xlink:href="#G"/><use transform="matrix(0.004774305555555554,0,0,0.004774305555555554,36.52821180555554,0)" xlink:href="#I"/><use transform="matrix(0.004774305555555554,0,0,0.004774305555555554,42.14279513888887,0)" xlink:href="#F"/><use transform="matrix(0.004774305555555554,0,0,0.004774305555555554,47.07465277777776,0)" xlink:href="#O"/></g><path fill="#979ea8" d="M371-533c189 0 256 55 239 237-9 91-67 138-157 205C374-33 301-7 236-7 155-7 13-82 18-160c3-44 62-73 96-38 43 44 152 73 218 29 77-51 166-125 156-169 2-44-67-63-119-62-47 1-108 1-155 3C87-393 13-429 1-531c11-87 101-150 165-187 90-52 160-96 290-87 34 2 118 78 115 115-3 35-23 38-55 45-15 4-26-4-33-24-37-64-116-1-164 12-41 11-154 77-154 113 0 15 14 22 41 22 45 0 127-11 165-11" id="P"/><path fill="#979ea8" d="M382-556c-3 158-18 304-18 470 0 31 6 72-21 86-20 35-87 21-104-6-1-188 14-367 23-549 1-24 13-80-17-80-77 0-131 31-210 31-15-10-43-18-33-45 0-82 83-94 148-109 103-23 215-12 315-40 43-12 91-17 142-23 62-8 95 53 77 116-8 28-47 14-75 18-68 9-134 10-195 30-32 11-31 60-32 101" id="Q"/><path fill="#979ea8" d="M521-275c40-33 108-24 108 34 0 49-75 103-210 183-80 47-247 72-323 10-66-54-95-101-82-218 12-106 41-136 91-224 55-96 145-209 240-278 32-23 68-33 107-33 86 2 108 61 107 158 0 55-15 82-44 82-55 1-25-116-79-110-132 15-229 223-291 334-48 86-31 226 81 218 122-9 217-92 295-156" id="R"/><path fill="#979ea8" d="M583 1c26 5 52-17 51-41 24-60-22-103-43-144-74-69-132-138-184-228-37-64 44-88 81-120 65-56 138-104 195-168 35-39 5-108-40-113-66 17-104 68-150 105-81 65-158 127-245 187-18 12-48 33-70 13-6-6-8-14-7-23 3-63 18-122 28-181-3-53-39-88-92-91-82 12-51 140-71 216 1 133-13 257-20 381-3 58-27 167 27 193 35 29 78-2 98-20 30-59 16-164 24-251 3-31 38-61 73-59 78 41 118 121 174 184 38 44 71 96 112 139 15 15 32 34 59 21" id="S"/><g id="i"><use transform="matrix(0.022222222222222223,0,0,0.022222222222222223,0,0)" xlink:href="#P"/><use transform="matrix(0.022222222222222223,0,0,0.022222222222222223,12.666666666666668,0)" xlink:href="#Q"/><use transform="matrix(0.022222222222222223,0,0,0.022222222222222223,27.91111111111111,0)" xlink:href="#t"/><use transform="matrix(0.022222222222222223,0,0,0.022222222222222223,40.955555555555556,0)" xlink:href="#R"/><use transform="matrix(0.022222222222222223,0,0,0.022222222222222223,55.044444444444444,0)" xlink:href="#S"/></g><path d="M96-101c0-144 39-657 39-763 0-78 7-179 29-235 46-116 122-195 235-232 69-23 183-34 342-34 78 0 117 33 117 99 0 83-48 100-162 100-195-1-310 48-343 145-25 71-17 206-22 302 195-81 317-121 367-121 54 0 101 56 101 110 0 37-23 69-72 88-119 47-231 77-408 144-4 132 4 298-24 397C276-34 245 0 196 0 146 0 96-50 96-101" id="T"/><path d="M768-362c52-3 102 50 102 101 0 27-17 56-47 89C758-102 542 0 413 0 205 0 76-203 79-422c3-220 72-486 151-640 103-201 221-303 359-303 167 0 251 128 251 385 0 123-35 185-106 185-48 0-101-46-99-94 2-77 27-279-39-278-99 4-207 230-243 339-48 149-75 282-75 401 0 146 56 219 169 219 45 0 105-26 180-77s122-77 141-77" id="U"/><path d="M855-836c57 0 101 45 101 102 0 58-43 105-101 104-107-3-466 24-573 24-58 0-101-44-101-102 0-59 42-105 101-104 107 3 466-24 573-24zm-26 356c55-2 108 47 106 103 14 58-21 93-106 106-11 2-75 3-191 3-42 11-243 27-307 27-85 0-128-32-128-97 0-117 122-128 260-128 68 0 366-11 366-14" id="V"/><g id="j"><use transform="matrix(0.00868055555555555,0,0,0.00868055555555555,0,0)" xlink:href="#T"/><use transform="matrix(0.003255208333333326,0,0,0.003255208333333326,8.237847222222218,0)" xlink:href="#U"/><use transform="matrix(0.008680555555555556,0,0,0.008680555555555556,11.34982638888888,0)" xlink:href="#V"/><use transform="matrix(0.008680555555555556,0,0,0.008680555555555556,21.158854166666657,0)" xlink:href="#N"/></g><path d="M108-101c0-144 39-657 39-763 0-78 7-179 29-235 46-116 122-195 235-232 69-23 183-34 342-34 78 0 117 33 117 99 0 83-48 100-162 100-195-1-308 48-343 145-25 70-17 205-22 302 195-81 317-121 367-121 54 0 101 56 101 110 0 37-23 69-72 88-119 47-231 77-408 144-1 97 0 317-24 397C287-35 257 0 208 0c-50 0-100-50-100-101" id="W"/><path d="M457-877c340-69 656 129 656 435C1113-201 859 0 613 0 335 0 184-205 184-495c0-227 70-468 210-724 53-97 102-146 147-146 52 0 111 45 104 97-8 57-146 305-188 391zm163 674c127 0 293-116 293-242 0-134-166-244-304-244-63 0-133 13-210 39-10 73-15 126-15 160-1 165 79 287 236 287" id="X"/><g id="k"><use transform="matrix(0.004774305555555555,0,0,0.004774305555555555,0,0)" xlink:href="#C"/><use transform="matrix(0.004774305555555555,0,0,0.004774305555555555,6.617187499999999,0)" xlink:href="#D"/><use transform="matrix(0.004774305555555555,0,0,0.004774305555555555,11.496527777777777,0)" xlink:href="#N"/><use transform="matrix(0.004774305555555555,0,0,0.004774305555555555,15.506944444444443,0)" xlink:href="#W"/><use transform="matrix(0.004774305555555555,0,0,0.004774305555555555,19.760850694444443,0)" xlink:href="#G"/><use transform="matrix(0.004774305555555555,0,0,0.004774305555555555,25.170138888888886,0)" xlink:href="#O"/><use transform="matrix(0.004774305555555555,0,0,0.004774305555555555,30.269097222222218,0)" xlink:href="#E"/><use transform="matrix(0.004774305555555555,0,0,0.004774305555555555,35.697482638888886,0)" xlink:href="#H"/><use transform="matrix(0.004774305555555555,0,0,0.004774305555555555,41.37890624999999,0)" xlink:href="#X"/><use transform="matrix(0.004774305555555555,0,0,0.004774305555555555,47.57118055555556,0)" xlink:href="#K"/></g><path fill="#d916a8" d="M70-181C36-106 39-36 121-28c46 4 59-41 69-68 14-40 27-86 43-123 28-31 91-34 132-52 22-9 42-12 57-14 23 70 34 146 54 220 8 29 38 43 83 43 40 0 60-20 60-60 0-87-40-149-50-230 28-18 51-84 14-113-11-9-44-19-50-27-27-105-52-214-82-316-19-65-108-61-136-9-73 134-133 295-189 435-24 59-31 107-56 161zm286-369c8 39 19 86 26 125-22 9-48 16-78 17 14-39 32-102 52-142" id="Y"/><path fill="#d916a8" d="M615-24c62 1 58-78 47-128 24-171 55-356 55-541 0-64-23-96-70-96-71-1-99 44-94 123-15 114-18 275-42 381-6 28-34 35-58 44-76 27-135 58-212 58-42 0-27-72-25-115 4-84 25-172 38-251l-1 1c12-62 61-162-1-204l2 1c-43-49-114-25-124 36-27 163-69 328-78 509-3 62 15 122 50 146 37 26 87 40 150 40 41 0 198-44 262-67 14 13 28 28 43 46 26 11 45 17 58 17" id="Z"/><path fill="#d916a8" d="M672-54c21-46 23-98-9-138-27-34-67-70-105-105-36-32-70-68-101-102 3-13 62-71 103-125 39-52 149-146 149-202 0-44-28-87-68-86-32-21-200 165-294 287-36-9-81-144-104-191-28-56-44-122-104-129-57-7-72 71-51 127 39 107 111 219 158 311-25 57-129 189-169 242-19 25-26 49-26 68-1 34 40 77 73 77 50 0 103-94 132-135 54-76 89-115 100-118 58 19 105 105 155 136 7 5 13 11 19 18l-2-1c54 58 81 89 144 66" id="aa"/><g id="l"><use transform="matrix(0.011111111111111105,0,0,0.011111111111111105,0,0)" xlink:href="#Y"/><use transform="matrix(0.011111111111111105,0,0,0.011111111111111105,6.544444444444441,0)" xlink:href="#Z"/><use transform="matrix(0.011111111111111105,0,0,0.011111111111111105,14.355555555555547,0)" xlink:href="#aa"/></g><path d="M48-126c45-28 121-18 121 53 0 50-25 77-72 77-63 0-80-54-82-120-3-88 52-142 140-116v40h-12c2-42-66-39-79-8-8 20-16 43-16 74zm0 11c2 50 2 105 49 105 33 0 37-26 40-60 5-60-49-61-89-45" id="ab"/><use transform="matrix(0.06790123456790123,0,0,0.06790123456790123,0,0)" xlink:href="#ab" id="m"/><path d="M137-119c0-58 89-135 145-135 71 0 107 42 107 126C389-63 336 0 270 0c-63 0-133-55-133-119" id="ac"/><path d="M481-742c281-32 557 107 557 358C1038-128 813 0 362 0 224 0 155-38 155-114c0-61 58-91 174-91 32-1 131 6 163 5 229 0 343-61 343-184 0-118-238-150-395-150-87 0-151-93-191-278-25-117-37-247-37-388 0-70 74-96 155-112 168-33 354-53 560-53 48 0 90 51 90 99 0 50-32 86-99 100-116 25-421 33-500 53 9 158 30 282 63 371" id="ad"/><g id="n"><use transform="matrix(0.00868055555555555,0,0,0.00868055555555555,0,0)" xlink:href="#T"/><use transform="matrix(0.003255208333333326,0,0,0.003255208333333326,8.237847222222218,0)" xlink:href="#U"/><use transform="matrix(0.008680555555555556,0,0,0.008680555555555556,11.34982638888888,0)" xlink:href="#V"/><use transform="matrix(0.008680555555555556,0,0,0.008680555555555556,21.158854166666657,0)" xlink:href="#C"/><use transform="matrix(0.008680555555555556,0,0,0.008680555555555556,33.19010416666666,0)" xlink:href="#ac"/><use transform="matrix(0.008680555555555556,0,0,0.008680555555555556,38.077256944444436,0)" xlink:href="#ad"/></g><path fill="#979ea8" d="M104-123c39 3 61 21 62 59C167 7 83 12 19-4l-2-50h12c2 29 16 43 51 43 38 0 54-19 54-55 2-43-34-49-75-50v-14c37 0 64-7 64-48 0-47-47-56-81-36l-6 29H24v-46c51-13 135-13 131 51-2 34-20 52-51 57" id="ae"/><use transform="matrix(0.06172839506172839,0,0,0.06172839506172839,0,0)" xlink:href="#ae" id="o"/><path fill="#979ea8" d="M142-52V0h-30v-52H7v-23l115-162h20v160h32v25h-32zm-30-25l-1-119L27-77h85" id="af"/><use transform="matrix(0.06172839506172839,0,0,0.06172839506172839,0,0)" xlink:href="#af" id="p"/><path fill="#979ea8" d="M134-68c4-52-44-63-88-51H29v-117h119v27H45v75c60-10 121-2 121 64C166 3 87 15 23-4l-2-50h12c1 28 14 43 47 43 39 0 51-20 54-57" id="ag"/><use transform="matrix(0.06172839506172839,0,0,0.06172839506172839,0,0)" xlink:href="#ag" id="q"/></defs></g></svg>